%TF.GenerationSoftware,KiCad,Pcbnew,9.0.0*%
%TF.CreationDate,2025-05-06T23:20:36+02:00*%
%TF.ProjectId,H-Field 18mm,482d4669-656c-4642-9031-386d6d2e6b69,1.0*%
%TF.SameCoordinates,Original*%
%TF.FileFunction,Copper,L2,Inr*%
%TF.FilePolarity,Positive*%
%FSLAX46Y46*%
G04 Gerber Fmt 4.6, Leading zero omitted, Abs format (unit mm)*
G04 Created by KiCad (PCBNEW 9.0.0) date 2025-05-06 23:20:36*
%MOMM*%
%LPD*%
G01*
G04 APERTURE LIST*
%TA.AperFunction,ViaPad*%
%ADD10C,0.600000*%
%TD*%
G04 APERTURE END LIST*
D10*
%TO.N,GND*%
X148247422Y-115360599D03*
X52800000Y-111250000D03*
X55800000Y-112400000D03*
X52800000Y-122100000D03*
X55800000Y-120900000D03*
X54350000Y-122075000D03*
X51050000Y-122075000D03*
X52800000Y-113600000D03*
X51050000Y-113575000D03*
X54350000Y-119775000D03*
X54350000Y-111275000D03*
X54350000Y-113575000D03*
X52800000Y-119750000D03*
X51050000Y-111225000D03*
X51050000Y-119725000D03*
X108000000Y-118000000D03*
X149870173Y-122701820D03*
X159244453Y-112350197D03*
X153918912Y-109167588D03*
X160241916Y-113528669D03*
X104000000Y-115400000D03*
X78000000Y-115400000D03*
X152376416Y-124210967D03*
X114000000Y-115400000D03*
X150812307Y-112445080D03*
X132000000Y-118000000D03*
X155009596Y-110728377D03*
X125000000Y-118000000D03*
X69000000Y-118000000D03*
X99000000Y-118000000D03*
X160681168Y-119446934D03*
X98000000Y-115400000D03*
X150913347Y-121424403D03*
X57000000Y-115400000D03*
X104000000Y-118000000D03*
X60000000Y-115400000D03*
X88000000Y-118000000D03*
X95000000Y-115400000D03*
X100000000Y-115400000D03*
X140000000Y-115400000D03*
X105000000Y-115400000D03*
X160622152Y-114202250D03*
X135000000Y-115400000D03*
X148936482Y-117343189D03*
X159814416Y-123093304D03*
X85000000Y-115400000D03*
X137000000Y-115400000D03*
X148391357Y-112860361D03*
X63000000Y-115400000D03*
X103000000Y-118000000D03*
X144000000Y-118000000D03*
X140000000Y-118000000D03*
X160287639Y-111072780D03*
X58000000Y-118000000D03*
X66000000Y-115400000D03*
X123000000Y-115400000D03*
X67000000Y-118000000D03*
X160975319Y-111771456D03*
X70000000Y-118000000D03*
X147000000Y-115400000D03*
X105000000Y-118000000D03*
X161570009Y-112550813D03*
X158642956Y-111863891D03*
X147000000Y-118000000D03*
X89000000Y-115400000D03*
X149841614Y-113645699D03*
X131000000Y-118000000D03*
X128000000Y-118000000D03*
X151514844Y-121910709D03*
X162062331Y-113398558D03*
X101000000Y-115400000D03*
X148095481Y-120376042D03*
X86000000Y-118000000D03*
X147713292Y-119473277D03*
X117000000Y-118000000D03*
X65000000Y-118000000D03*
X74000000Y-115400000D03*
X155262216Y-124691526D03*
X156543435Y-110904636D03*
X129000000Y-115400000D03*
X63000000Y-118000000D03*
X143000000Y-118000000D03*
X158677985Y-109960094D03*
X110000000Y-115400000D03*
X107000000Y-118000000D03*
X87000000Y-118000000D03*
X152172548Y-122317793D03*
X158106715Y-122251018D03*
X122000000Y-115400000D03*
X121000000Y-115400000D03*
X58000000Y-115400000D03*
X91000000Y-118000000D03*
X160957800Y-118724600D03*
X98000000Y-118000000D03*
X151158555Y-110136715D03*
X138000000Y-118000000D03*
X161209012Y-121720658D03*
X148587803Y-121223787D03*
X118000000Y-118000000D03*
X159868608Y-120759746D03*
X133000000Y-118000000D03*
X119000000Y-118000000D03*
X130000000Y-118000000D03*
X78000000Y-118000000D03*
X150377544Y-120866545D03*
X134000000Y-115400000D03*
X64000000Y-115400000D03*
X120000000Y-115400000D03*
X126000000Y-115400000D03*
X157410588Y-122588209D03*
X162557812Y-119124600D03*
X81000000Y-115400000D03*
X153480112Y-110939106D03*
X66000000Y-118000000D03*
X81000000Y-118000000D03*
X162218431Y-120044314D03*
X112000000Y-115400000D03*
X96000000Y-115400000D03*
X103000000Y-115400000D03*
X116000000Y-115400000D03*
X102000000Y-118000000D03*
X151402708Y-111945362D03*
X115000000Y-115400000D03*
X128000000Y-115400000D03*
X106000000Y-118000000D03*
X73000000Y-115400000D03*
X108000000Y-115400000D03*
X94000000Y-118000000D03*
X157985252Y-111456807D03*
X158999257Y-123637885D03*
X154282642Y-124652962D03*
X95000000Y-118000000D03*
X67000000Y-115400000D03*
X68000000Y-115400000D03*
X135000000Y-118000000D03*
X99000000Y-115400000D03*
X152051085Y-111523582D03*
X86000000Y-115400000D03*
X131000000Y-115400000D03*
X130000000Y-115400000D03*
X162444520Y-114301323D03*
X76000000Y-115400000D03*
X127000000Y-118000000D03*
X155875170Y-109121638D03*
X152876086Y-122639234D03*
X156842187Y-109282671D03*
X155148204Y-123046223D03*
X149476632Y-114327666D03*
X146000000Y-118000000D03*
X91000000Y-115400000D03*
X142000000Y-115400000D03*
X138000000Y-115400000D03*
X154375740Y-123006344D03*
X71000000Y-115400000D03*
X127000000Y-115400000D03*
X84000000Y-115400000D03*
X121000000Y-118000000D03*
X123000000Y-118000000D03*
X62000000Y-118000000D03*
X83000000Y-118000000D03*
X109000000Y-115400000D03*
X75000000Y-115400000D03*
X158755092Y-121829238D03*
X157281714Y-111135366D03*
X152960523Y-109373846D03*
X129000000Y-118000000D03*
X102000000Y-115400000D03*
X152747212Y-111186391D03*
X60000000Y-118000000D03*
X75000000Y-118000000D03*
X83000000Y-115400000D03*
X160914968Y-114918176D03*
X73000000Y-118000000D03*
X144000000Y-115400000D03*
X79000000Y-115400000D03*
X94000000Y-115400000D03*
X64000000Y-118000000D03*
X157781396Y-109563633D03*
X76000000Y-118000000D03*
X159345493Y-121329520D03*
X97000000Y-118000000D03*
X150343396Y-110681296D03*
X77000000Y-118000000D03*
X141000000Y-118000000D03*
X125000000Y-115400000D03*
X150639998Y-123308799D03*
X96000000Y-118000000D03*
X133000000Y-115400000D03*
X149042055Y-118109443D03*
X147600000Y-114650000D03*
X87000000Y-115400000D03*
X110000000Y-118000000D03*
X70000000Y-115400000D03*
X101000000Y-118000000D03*
X145000000Y-118000000D03*
X65000000Y-115400000D03*
X132000000Y-115400000D03*
X107000000Y-115400000D03*
X118000000Y-115400000D03*
X74000000Y-118000000D03*
X61000000Y-115400000D03*
X149535648Y-119572350D03*
X72000000Y-115400000D03*
X148948800Y-112053942D03*
X71000000Y-118000000D03*
X116000000Y-118000000D03*
X119000000Y-115400000D03*
X57000000Y-118000000D03*
X143000000Y-115400000D03*
X158122271Y-124076005D03*
X136000000Y-118000000D03*
X156677688Y-122835494D03*
X100000000Y-118000000D03*
X72000000Y-118000000D03*
X84000000Y-118000000D03*
X149242832Y-118856424D03*
X114000000Y-118000000D03*
X117000000Y-115400000D03*
X149016082Y-115801309D03*
X159517814Y-110465801D03*
X137000000Y-118000000D03*
X154895596Y-109083074D03*
X149915884Y-120245931D03*
X139000000Y-115400000D03*
X145000000Y-115400000D03*
X111000000Y-115400000D03*
X59000000Y-118000000D03*
X139000000Y-118000000D03*
X122000000Y-118000000D03*
X92000000Y-115400000D03*
X152035541Y-109698595D03*
X112000000Y-118000000D03*
X92000000Y-118000000D03*
X154238225Y-110785628D03*
X115000000Y-118000000D03*
X159780256Y-112908055D03*
X126000000Y-118000000D03*
X124000000Y-118000000D03*
X149182493Y-122003144D03*
X109000000Y-118000000D03*
X149602918Y-111323749D03*
X160554894Y-122450851D03*
X134000000Y-118000000D03*
X147939381Y-113730286D03*
X77000000Y-115400000D03*
X80000000Y-115400000D03*
X149200000Y-115050000D03*
X82000000Y-115400000D03*
X120000000Y-118000000D03*
X151479827Y-123814506D03*
X148927779Y-116569745D03*
X90000000Y-115400000D03*
X62000000Y-115400000D03*
X161766455Y-120914239D03*
X89000000Y-118000000D03*
X79000000Y-118000000D03*
X93000000Y-118000000D03*
X155782060Y-110768256D03*
X88000000Y-115400000D03*
X142000000Y-118000000D03*
X82000000Y-118000000D03*
X93000000Y-115400000D03*
X136000000Y-115400000D03*
X68000000Y-118000000D03*
X111000000Y-118000000D03*
X80000000Y-118000000D03*
X106000000Y-115400000D03*
X97000000Y-115400000D03*
X153315625Y-124491929D03*
X155919575Y-122988972D03*
X157197289Y-124400754D03*
X156238900Y-124607012D03*
X150289192Y-113014854D03*
X141000000Y-115400000D03*
X61000000Y-118000000D03*
X85000000Y-118000000D03*
X113000000Y-115400000D03*
X124000000Y-115400000D03*
X90000000Y-118000000D03*
X59000000Y-115400000D03*
X146000000Y-115400000D03*
X113000000Y-118000000D03*
X160316186Y-120128901D03*
X69000000Y-115400000D03*
X153614365Y-122869964D03*
%TD*%
%TA.AperFunction,Conductor*%
%TO.N,GND*%
G36*
X147782697Y-123174100D02*
G01*
X50324500Y-123174100D01*
X50257461Y-123154415D01*
X50211706Y-123101611D01*
X50200500Y-123050100D01*
X50200500Y-118400000D01*
X50500000Y-118400000D01*
X56000000Y-118400000D01*
X56000000Y-114650000D01*
X50500000Y-114650000D01*
X50500000Y-118400000D01*
X50200500Y-118400000D01*
X50200500Y-110724500D01*
X50220185Y-110657461D01*
X50272989Y-110611706D01*
X50324500Y-110600500D01*
X147605366Y-110600500D01*
X147782697Y-123174100D01*
G37*
%TD.AperFunction*%
%TD*%
%TA.AperFunction,Conductor*%
%TO.N,GND*%
G36*
X155661781Y-107932458D02*
G01*
X155669859Y-107932988D01*
X156246215Y-107989754D01*
X156254213Y-107990807D01*
X156825628Y-108085148D01*
X156833571Y-108086728D01*
X157397586Y-108218238D01*
X157405394Y-108220331D01*
X157874831Y-108362733D01*
X157959598Y-108388447D01*
X157967282Y-108391056D01*
X158509268Y-108595045D01*
X158516765Y-108598150D01*
X159044291Y-108837168D01*
X159051533Y-108840740D01*
X159505463Y-109083371D01*
X159562282Y-109113742D01*
X159569309Y-109117799D01*
X160061096Y-109423612D01*
X160067843Y-109428120D01*
X160538578Y-109765444D01*
X160545016Y-109770384D01*
X160992686Y-110137776D01*
X160998783Y-110143123D01*
X161421473Y-110539016D01*
X161427185Y-110544728D01*
X161640602Y-110772591D01*
X161823074Y-110967415D01*
X161828424Y-110973515D01*
X162195817Y-111421185D01*
X162200753Y-111427618D01*
X162471351Y-111805236D01*
X162538082Y-111898358D01*
X162542590Y-111905105D01*
X162848402Y-112396892D01*
X162852459Y-112403919D01*
X163125451Y-112914651D01*
X163129040Y-112921928D01*
X163368050Y-113449436D01*
X163371155Y-113456933D01*
X163575144Y-113998919D01*
X163577753Y-114006603D01*
X163745865Y-114560792D01*
X163747965Y-114568629D01*
X163867698Y-115082135D01*
X163871361Y-115097842D01*
X163867414Y-115167600D01*
X163826379Y-115224151D01*
X163761285Y-115249539D01*
X163750600Y-115250000D01*
X160104060Y-115250000D01*
X160037021Y-115230315D01*
X159991266Y-115177511D01*
X159987538Y-115168411D01*
X159975950Y-115136575D01*
X159888118Y-114895259D01*
X159696200Y-114483689D01*
X159469141Y-114090412D01*
X159469133Y-114090401D01*
X159469129Y-114090394D01*
X159208669Y-113718418D01*
X158986064Y-113453129D01*
X158916769Y-113370546D01*
X158595660Y-113049437D01*
X158439301Y-112918236D01*
X158247787Y-112757536D01*
X157875811Y-112497076D01*
X157875800Y-112497069D01*
X157875794Y-112497065D01*
X157702290Y-112396892D01*
X157482523Y-112270009D01*
X157482508Y-112270001D01*
X157070956Y-112078092D01*
X157070954Y-112078091D01*
X157070947Y-112078088D01*
X156644216Y-111922770D01*
X156644215Y-111922769D01*
X156644205Y-111922766D01*
X156205579Y-111805238D01*
X156205582Y-111805238D01*
X156205572Y-111805236D01*
X156142433Y-111794102D01*
X155758356Y-111726379D01*
X155305968Y-111686800D01*
X155305965Y-111686800D01*
X154851847Y-111686800D01*
X154851843Y-111686800D01*
X154399455Y-111726379D01*
X153952245Y-111805235D01*
X153952242Y-111805235D01*
X153952240Y-111805236D01*
X153952235Y-111805237D01*
X153952232Y-111805238D01*
X153513606Y-111922766D01*
X153300230Y-112000429D01*
X153086865Y-112078088D01*
X153086861Y-112078089D01*
X153086855Y-112078092D01*
X152675303Y-112270001D01*
X152675288Y-112270009D01*
X152282026Y-112497060D01*
X152282000Y-112497076D01*
X151910024Y-112757536D01*
X151562149Y-113049439D01*
X151241045Y-113370543D01*
X150949142Y-113718418D01*
X150688682Y-114090394D01*
X150688666Y-114090420D01*
X150461615Y-114483682D01*
X150461607Y-114483697D01*
X150269698Y-114895249D01*
X150114372Y-115322000D01*
X149996844Y-115760626D01*
X149996841Y-115760639D01*
X149917985Y-116207849D01*
X149878406Y-116660237D01*
X149878406Y-117114362D01*
X149917985Y-117566750D01*
X149996841Y-118013960D01*
X149996844Y-118013973D01*
X150114372Y-118452599D01*
X150114375Y-118452609D01*
X150114376Y-118452610D01*
X150269694Y-118879341D01*
X150269697Y-118879348D01*
X150269698Y-118879350D01*
X150461607Y-119290902D01*
X150461612Y-119290911D01*
X150688671Y-119684188D01*
X150688675Y-119684194D01*
X150688682Y-119684205D01*
X150949142Y-120056181D01*
X151160129Y-120307625D01*
X151241043Y-120404054D01*
X151562152Y-120725163D01*
X151706794Y-120846532D01*
X151910024Y-121017063D01*
X152282000Y-121277523D01*
X152282007Y-121277527D01*
X152282018Y-121277535D01*
X152650594Y-121490333D01*
X152675288Y-121504590D01*
X152675303Y-121504598D01*
X152858215Y-121589890D01*
X153086865Y-121696512D01*
X153513596Y-121851830D01*
X153513602Y-121851831D01*
X153513606Y-121851833D01*
X153633057Y-121883839D01*
X153952240Y-121969364D01*
X154399458Y-122048221D01*
X154851845Y-122087799D01*
X154851846Y-122087800D01*
X154851847Y-122087800D01*
X155305966Y-122087800D01*
X155305966Y-122087799D01*
X155758354Y-122048221D01*
X156205572Y-121969364D01*
X156644216Y-121851830D01*
X157070947Y-121696512D01*
X157482517Y-121504594D01*
X157875794Y-121277535D01*
X158247786Y-121017064D01*
X158595660Y-120725163D01*
X158916769Y-120404054D01*
X159208670Y-120056180D01*
X159469141Y-119684188D01*
X159696200Y-119290911D01*
X159888118Y-118879341D01*
X160043436Y-118452610D01*
X160099894Y-118241907D01*
X160136259Y-118182246D01*
X160199106Y-118151717D01*
X160219669Y-118150000D01*
X163814814Y-118150000D01*
X163881853Y-118169685D01*
X163927608Y-118222489D01*
X163937552Y-118291647D01*
X163937158Y-118294199D01*
X163881053Y-118634017D01*
X163879470Y-118641976D01*
X163747965Y-119205969D01*
X163745865Y-119213806D01*
X163577753Y-119767996D01*
X163575144Y-119775680D01*
X163371155Y-120317667D01*
X163368050Y-120325164D01*
X163129040Y-120852671D01*
X163125451Y-120859948D01*
X162852459Y-121370679D01*
X162848402Y-121377706D01*
X162542589Y-121869493D01*
X162538081Y-121876240D01*
X162200757Y-122346976D01*
X162195817Y-122353414D01*
X161828425Y-122801083D01*
X161823075Y-122807183D01*
X161427198Y-123229858D01*
X161421460Y-123235596D01*
X160998786Y-123631472D01*
X160992686Y-123636822D01*
X160545017Y-124004216D01*
X160538579Y-124009156D01*
X160067850Y-124346475D01*
X160061103Y-124350983D01*
X159569303Y-124656804D01*
X159562276Y-124660861D01*
X159051551Y-124933850D01*
X159044274Y-124937439D01*
X158516766Y-125176449D01*
X158509269Y-125179554D01*
X157967283Y-125383543D01*
X157959599Y-125386152D01*
X157405410Y-125554264D01*
X157397572Y-125556364D01*
X156833578Y-125687869D01*
X156825620Y-125689452D01*
X156254237Y-125783788D01*
X156246192Y-125784847D01*
X155669870Y-125841610D01*
X155661773Y-125842141D01*
X155082960Y-125861090D01*
X155074846Y-125861090D01*
X154496033Y-125842141D01*
X154487936Y-125841610D01*
X153911613Y-125784848D01*
X153903568Y-125783789D01*
X153332182Y-125689453D01*
X153324224Y-125687870D01*
X152760237Y-125556367D01*
X152752399Y-125554267D01*
X152198206Y-125386154D01*
X152190522Y-125383545D01*
X151648535Y-125179556D01*
X151641039Y-125176451D01*
X151113532Y-124937442D01*
X151106254Y-124933853D01*
X151106248Y-124933850D01*
X150925246Y-124837102D01*
X150595522Y-124660860D01*
X150588495Y-124656803D01*
X150096708Y-124350991D01*
X150089961Y-124346483D01*
X149619225Y-124009159D01*
X149612787Y-124004219D01*
X149165118Y-123636827D01*
X149159018Y-123631477D01*
X148734864Y-123234213D01*
X148731948Y-123231391D01*
X148705181Y-123204624D01*
X148631490Y-123174100D01*
X148631489Y-123174100D01*
X147782697Y-123174100D01*
X147605367Y-110600500D01*
X148631486Y-110600500D01*
X148631488Y-110600500D01*
X148705180Y-110569976D01*
X148731977Y-110543178D01*
X148734832Y-110540415D01*
X149159032Y-110143109D01*
X149165114Y-110137776D01*
X149612792Y-109770376D01*
X149619225Y-109765441D01*
X150089967Y-109428112D01*
X150096708Y-109423609D01*
X150588505Y-109117789D01*
X150595517Y-109113742D01*
X151106283Y-108840732D01*
X151113501Y-108837172D01*
X151641045Y-108598145D01*
X151648530Y-108595045D01*
X152190537Y-108391048D01*
X152198190Y-108388449D01*
X152752423Y-108220325D01*
X152760212Y-108218238D01*
X153324250Y-108086723D01*
X153332153Y-108085151D01*
X153903598Y-107990805D01*
X153911581Y-107989754D01*
X154487947Y-107932988D01*
X154496021Y-107932458D01*
X155074871Y-107913509D01*
X155082935Y-107913509D01*
X155661781Y-107932458D01*
G37*
%TD.AperFunction*%
%TD*%
M02*
