%TF.GenerationSoftware,KiCad,Pcbnew,9.0.0*%
%TF.CreationDate,2025-05-12T23:20:49+02:00*%
%TF.ProjectId,H-Field 18mm,482d4669-656c-4642-9031-386d6d2e6b69,1.0*%
%TF.SameCoordinates,Original*%
%TF.FileFunction,Legend,Top*%
%TF.FilePolarity,Positive*%
%FSLAX46Y46*%
G04 Gerber Fmt 4.6, Leading zero omitted, Abs format (unit mm)*
G04 Created by KiCad (PCBNEW 9.0.0) date 2025-05-12 23:20:49*
%MOMM*%
%LPD*%
G01*
G04 APERTURE LIST*
%ADD10C,0.300000*%
%ADD11C,0.250000*%
%ADD12C,0.150000*%
%ADD13C,0.120000*%
G04 APERTURE END LIST*
D10*
X59673558Y-114139638D02*
X59673558Y-112139638D01*
X59673558Y-113092019D02*
X60816415Y-113092019D01*
X60816415Y-114139638D02*
X60816415Y-112139638D01*
X61768796Y-113377733D02*
X63292606Y-113377733D01*
X64911653Y-113092019D02*
X64244986Y-113092019D01*
X64244986Y-114139638D02*
X64244986Y-112139638D01*
X64244986Y-112139638D02*
X65197367Y-112139638D01*
X65959272Y-114139638D02*
X65959272Y-112806304D01*
X65959272Y-112139638D02*
X65864034Y-112234876D01*
X65864034Y-112234876D02*
X65959272Y-112330114D01*
X65959272Y-112330114D02*
X66054510Y-112234876D01*
X66054510Y-112234876D02*
X65959272Y-112139638D01*
X65959272Y-112139638D02*
X65959272Y-112330114D01*
X67673558Y-114044400D02*
X67483082Y-114139638D01*
X67483082Y-114139638D02*
X67102129Y-114139638D01*
X67102129Y-114139638D02*
X66911653Y-114044400D01*
X66911653Y-114044400D02*
X66816415Y-113853923D01*
X66816415Y-113853923D02*
X66816415Y-113092019D01*
X66816415Y-113092019D02*
X66911653Y-112901542D01*
X66911653Y-112901542D02*
X67102129Y-112806304D01*
X67102129Y-112806304D02*
X67483082Y-112806304D01*
X67483082Y-112806304D02*
X67673558Y-112901542D01*
X67673558Y-112901542D02*
X67768796Y-113092019D01*
X67768796Y-113092019D02*
X67768796Y-113282495D01*
X67768796Y-113282495D02*
X66816415Y-113472971D01*
X68911653Y-114139638D02*
X68721177Y-114044400D01*
X68721177Y-114044400D02*
X68625939Y-113853923D01*
X68625939Y-113853923D02*
X68625939Y-112139638D01*
X70530701Y-114139638D02*
X70530701Y-112139638D01*
X70530701Y-114044400D02*
X70340225Y-114139638D01*
X70340225Y-114139638D02*
X69959272Y-114139638D01*
X69959272Y-114139638D02*
X69768796Y-114044400D01*
X69768796Y-114044400D02*
X69673558Y-113949161D01*
X69673558Y-113949161D02*
X69578320Y-113758685D01*
X69578320Y-113758685D02*
X69578320Y-113187257D01*
X69578320Y-113187257D02*
X69673558Y-112996780D01*
X69673558Y-112996780D02*
X69768796Y-112901542D01*
X69768796Y-112901542D02*
X69959272Y-112806304D01*
X69959272Y-112806304D02*
X70340225Y-112806304D01*
X70340225Y-112806304D02*
X70530701Y-112901542D01*
X73006892Y-114139638D02*
X73006892Y-112139638D01*
X73006892Y-112139638D02*
X74149749Y-114139638D01*
X74149749Y-114139638D02*
X74149749Y-112139638D01*
X75864035Y-114044400D02*
X75673559Y-114139638D01*
X75673559Y-114139638D02*
X75292606Y-114139638D01*
X75292606Y-114139638D02*
X75102130Y-114044400D01*
X75102130Y-114044400D02*
X75006892Y-113853923D01*
X75006892Y-113853923D02*
X75006892Y-113092019D01*
X75006892Y-113092019D02*
X75102130Y-112901542D01*
X75102130Y-112901542D02*
X75292606Y-112806304D01*
X75292606Y-112806304D02*
X75673559Y-112806304D01*
X75673559Y-112806304D02*
X75864035Y-112901542D01*
X75864035Y-112901542D02*
X75959273Y-113092019D01*
X75959273Y-113092019D02*
X75959273Y-113282495D01*
X75959273Y-113282495D02*
X75006892Y-113472971D01*
X77673559Y-114139638D02*
X77673559Y-113092019D01*
X77673559Y-113092019D02*
X77578321Y-112901542D01*
X77578321Y-112901542D02*
X77387845Y-112806304D01*
X77387845Y-112806304D02*
X77006892Y-112806304D01*
X77006892Y-112806304D02*
X76816416Y-112901542D01*
X77673559Y-114044400D02*
X77483083Y-114139638D01*
X77483083Y-114139638D02*
X77006892Y-114139638D01*
X77006892Y-114139638D02*
X76816416Y-114044400D01*
X76816416Y-114044400D02*
X76721178Y-113853923D01*
X76721178Y-113853923D02*
X76721178Y-113663447D01*
X76721178Y-113663447D02*
X76816416Y-113472971D01*
X76816416Y-113472971D02*
X77006892Y-113377733D01*
X77006892Y-113377733D02*
X77483083Y-113377733D01*
X77483083Y-113377733D02*
X77673559Y-113282495D01*
X78625940Y-114139638D02*
X78625940Y-112806304D01*
X78625940Y-113187257D02*
X78721178Y-112996780D01*
X78721178Y-112996780D02*
X78816416Y-112901542D01*
X78816416Y-112901542D02*
X79006892Y-112806304D01*
X79006892Y-112806304D02*
X79197369Y-112806304D01*
X79864035Y-113377733D02*
X81387845Y-113377733D01*
X83006892Y-113092019D02*
X82340225Y-113092019D01*
X82340225Y-114139638D02*
X82340225Y-112139638D01*
X82340225Y-112139638D02*
X83292606Y-112139638D01*
X84054511Y-114139638D02*
X84054511Y-112806304D01*
X84054511Y-112139638D02*
X83959273Y-112234876D01*
X83959273Y-112234876D02*
X84054511Y-112330114D01*
X84054511Y-112330114D02*
X84149749Y-112234876D01*
X84149749Y-112234876D02*
X84054511Y-112139638D01*
X84054511Y-112139638D02*
X84054511Y-112330114D01*
X85768797Y-114044400D02*
X85578321Y-114139638D01*
X85578321Y-114139638D02*
X85197368Y-114139638D01*
X85197368Y-114139638D02*
X85006892Y-114044400D01*
X85006892Y-114044400D02*
X84911654Y-113853923D01*
X84911654Y-113853923D02*
X84911654Y-113092019D01*
X84911654Y-113092019D02*
X85006892Y-112901542D01*
X85006892Y-112901542D02*
X85197368Y-112806304D01*
X85197368Y-112806304D02*
X85578321Y-112806304D01*
X85578321Y-112806304D02*
X85768797Y-112901542D01*
X85768797Y-112901542D02*
X85864035Y-113092019D01*
X85864035Y-113092019D02*
X85864035Y-113282495D01*
X85864035Y-113282495D02*
X84911654Y-113472971D01*
X87006892Y-114139638D02*
X86816416Y-114044400D01*
X86816416Y-114044400D02*
X86721178Y-113853923D01*
X86721178Y-113853923D02*
X86721178Y-112139638D01*
X88625940Y-114139638D02*
X88625940Y-112139638D01*
X88625940Y-114044400D02*
X88435464Y-114139638D01*
X88435464Y-114139638D02*
X88054511Y-114139638D01*
X88054511Y-114139638D02*
X87864035Y-114044400D01*
X87864035Y-114044400D02*
X87768797Y-113949161D01*
X87768797Y-113949161D02*
X87673559Y-113758685D01*
X87673559Y-113758685D02*
X87673559Y-113187257D01*
X87673559Y-113187257D02*
X87768797Y-112996780D01*
X87768797Y-112996780D02*
X87864035Y-112901542D01*
X87864035Y-112901542D02*
X88054511Y-112806304D01*
X88054511Y-112806304D02*
X88435464Y-112806304D01*
X88435464Y-112806304D02*
X88625940Y-112901542D01*
X91102131Y-114139638D02*
X91102131Y-112139638D01*
X91102131Y-112139638D02*
X91864036Y-112139638D01*
X91864036Y-112139638D02*
X92054512Y-112234876D01*
X92054512Y-112234876D02*
X92149750Y-112330114D01*
X92149750Y-112330114D02*
X92244988Y-112520590D01*
X92244988Y-112520590D02*
X92244988Y-112806304D01*
X92244988Y-112806304D02*
X92149750Y-112996780D01*
X92149750Y-112996780D02*
X92054512Y-113092019D01*
X92054512Y-113092019D02*
X91864036Y-113187257D01*
X91864036Y-113187257D02*
X91102131Y-113187257D01*
X93102131Y-114139638D02*
X93102131Y-112806304D01*
X93102131Y-113187257D02*
X93197369Y-112996780D01*
X93197369Y-112996780D02*
X93292607Y-112901542D01*
X93292607Y-112901542D02*
X93483083Y-112806304D01*
X93483083Y-112806304D02*
X93673560Y-112806304D01*
X94625940Y-114139638D02*
X94435464Y-114044400D01*
X94435464Y-114044400D02*
X94340226Y-113949161D01*
X94340226Y-113949161D02*
X94244988Y-113758685D01*
X94244988Y-113758685D02*
X94244988Y-113187257D01*
X94244988Y-113187257D02*
X94340226Y-112996780D01*
X94340226Y-112996780D02*
X94435464Y-112901542D01*
X94435464Y-112901542D02*
X94625940Y-112806304D01*
X94625940Y-112806304D02*
X94911655Y-112806304D01*
X94911655Y-112806304D02*
X95102131Y-112901542D01*
X95102131Y-112901542D02*
X95197369Y-112996780D01*
X95197369Y-112996780D02*
X95292607Y-113187257D01*
X95292607Y-113187257D02*
X95292607Y-113758685D01*
X95292607Y-113758685D02*
X95197369Y-113949161D01*
X95197369Y-113949161D02*
X95102131Y-114044400D01*
X95102131Y-114044400D02*
X94911655Y-114139638D01*
X94911655Y-114139638D02*
X94625940Y-114139638D01*
X96149750Y-114139638D02*
X96149750Y-112139638D01*
X96149750Y-112901542D02*
X96340226Y-112806304D01*
X96340226Y-112806304D02*
X96721179Y-112806304D01*
X96721179Y-112806304D02*
X96911655Y-112901542D01*
X96911655Y-112901542D02*
X97006893Y-112996780D01*
X97006893Y-112996780D02*
X97102131Y-113187257D01*
X97102131Y-113187257D02*
X97102131Y-113758685D01*
X97102131Y-113758685D02*
X97006893Y-113949161D01*
X97006893Y-113949161D02*
X96911655Y-114044400D01*
X96911655Y-114044400D02*
X96721179Y-114139638D01*
X96721179Y-114139638D02*
X96340226Y-114139638D01*
X96340226Y-114139638D02*
X96149750Y-114044400D01*
X98721179Y-114044400D02*
X98530703Y-114139638D01*
X98530703Y-114139638D02*
X98149750Y-114139638D01*
X98149750Y-114139638D02*
X97959274Y-114044400D01*
X97959274Y-114044400D02*
X97864036Y-113853923D01*
X97864036Y-113853923D02*
X97864036Y-113092019D01*
X97864036Y-113092019D02*
X97959274Y-112901542D01*
X97959274Y-112901542D02*
X98149750Y-112806304D01*
X98149750Y-112806304D02*
X98530703Y-112806304D01*
X98530703Y-112806304D02*
X98721179Y-112901542D01*
X98721179Y-112901542D02*
X98816417Y-113092019D01*
X98816417Y-113092019D02*
X98816417Y-113282495D01*
X98816417Y-113282495D02*
X97864036Y-113472971D01*
D11*
X59402568Y-120764619D02*
X59402568Y-119764619D01*
X59831139Y-120764619D02*
X59831139Y-120240809D01*
X59831139Y-120240809D02*
X59783520Y-120145571D01*
X59783520Y-120145571D02*
X59688282Y-120097952D01*
X59688282Y-120097952D02*
X59545425Y-120097952D01*
X59545425Y-120097952D02*
X59450187Y-120145571D01*
X59450187Y-120145571D02*
X59402568Y-120193190D01*
X60164473Y-120097952D02*
X60545425Y-120097952D01*
X60307330Y-119764619D02*
X60307330Y-120621761D01*
X60307330Y-120621761D02*
X60354949Y-120717000D01*
X60354949Y-120717000D02*
X60450187Y-120764619D01*
X60450187Y-120764619D02*
X60545425Y-120764619D01*
X60735902Y-120097952D02*
X61116854Y-120097952D01*
X60878759Y-119764619D02*
X60878759Y-120621761D01*
X60878759Y-120621761D02*
X60926378Y-120717000D01*
X60926378Y-120717000D02*
X61021616Y-120764619D01*
X61021616Y-120764619D02*
X61116854Y-120764619D01*
X61450188Y-120097952D02*
X61450188Y-121097952D01*
X61450188Y-120145571D02*
X61545426Y-120097952D01*
X61545426Y-120097952D02*
X61735902Y-120097952D01*
X61735902Y-120097952D02*
X61831140Y-120145571D01*
X61831140Y-120145571D02*
X61878759Y-120193190D01*
X61878759Y-120193190D02*
X61926378Y-120288428D01*
X61926378Y-120288428D02*
X61926378Y-120574142D01*
X61926378Y-120574142D02*
X61878759Y-120669380D01*
X61878759Y-120669380D02*
X61831140Y-120717000D01*
X61831140Y-120717000D02*
X61735902Y-120764619D01*
X61735902Y-120764619D02*
X61545426Y-120764619D01*
X61545426Y-120764619D02*
X61450188Y-120717000D01*
X62307331Y-120717000D02*
X62402569Y-120764619D01*
X62402569Y-120764619D02*
X62593045Y-120764619D01*
X62593045Y-120764619D02*
X62688283Y-120717000D01*
X62688283Y-120717000D02*
X62735902Y-120621761D01*
X62735902Y-120621761D02*
X62735902Y-120574142D01*
X62735902Y-120574142D02*
X62688283Y-120478904D01*
X62688283Y-120478904D02*
X62593045Y-120431285D01*
X62593045Y-120431285D02*
X62450188Y-120431285D01*
X62450188Y-120431285D02*
X62354950Y-120383666D01*
X62354950Y-120383666D02*
X62307331Y-120288428D01*
X62307331Y-120288428D02*
X62307331Y-120240809D01*
X62307331Y-120240809D02*
X62354950Y-120145571D01*
X62354950Y-120145571D02*
X62450188Y-120097952D01*
X62450188Y-120097952D02*
X62593045Y-120097952D01*
X62593045Y-120097952D02*
X62688283Y-120145571D01*
X63164474Y-120669380D02*
X63212093Y-120717000D01*
X63212093Y-120717000D02*
X63164474Y-120764619D01*
X63164474Y-120764619D02*
X63116855Y-120717000D01*
X63116855Y-120717000D02*
X63164474Y-120669380D01*
X63164474Y-120669380D02*
X63164474Y-120764619D01*
X63164474Y-120145571D02*
X63212093Y-120193190D01*
X63212093Y-120193190D02*
X63164474Y-120240809D01*
X63164474Y-120240809D02*
X63116855Y-120193190D01*
X63116855Y-120193190D02*
X63164474Y-120145571D01*
X63164474Y-120145571D02*
X63164474Y-120240809D01*
X64354949Y-119717000D02*
X63497807Y-121002714D01*
X65402568Y-119717000D02*
X64545426Y-121002714D01*
X66164473Y-120097952D02*
X66164473Y-120907476D01*
X66164473Y-120907476D02*
X66116854Y-121002714D01*
X66116854Y-121002714D02*
X66069235Y-121050333D01*
X66069235Y-121050333D02*
X65973997Y-121097952D01*
X65973997Y-121097952D02*
X65831140Y-121097952D01*
X65831140Y-121097952D02*
X65735902Y-121050333D01*
X66164473Y-120717000D02*
X66069235Y-120764619D01*
X66069235Y-120764619D02*
X65878759Y-120764619D01*
X65878759Y-120764619D02*
X65783521Y-120717000D01*
X65783521Y-120717000D02*
X65735902Y-120669380D01*
X65735902Y-120669380D02*
X65688283Y-120574142D01*
X65688283Y-120574142D02*
X65688283Y-120288428D01*
X65688283Y-120288428D02*
X65735902Y-120193190D01*
X65735902Y-120193190D02*
X65783521Y-120145571D01*
X65783521Y-120145571D02*
X65878759Y-120097952D01*
X65878759Y-120097952D02*
X66069235Y-120097952D01*
X66069235Y-120097952D02*
X66164473Y-120145571D01*
X66640664Y-120764619D02*
X66640664Y-120097952D01*
X66640664Y-119764619D02*
X66593045Y-119812238D01*
X66593045Y-119812238D02*
X66640664Y-119859857D01*
X66640664Y-119859857D02*
X66688283Y-119812238D01*
X66688283Y-119812238D02*
X66640664Y-119764619D01*
X66640664Y-119764619D02*
X66640664Y-119859857D01*
X66973997Y-120097952D02*
X67354949Y-120097952D01*
X67116854Y-119764619D02*
X67116854Y-120621761D01*
X67116854Y-120621761D02*
X67164473Y-120717000D01*
X67164473Y-120717000D02*
X67259711Y-120764619D01*
X67259711Y-120764619D02*
X67354949Y-120764619D01*
X67688283Y-120764619D02*
X67688283Y-119764619D01*
X68116854Y-120764619D02*
X68116854Y-120240809D01*
X68116854Y-120240809D02*
X68069235Y-120145571D01*
X68069235Y-120145571D02*
X67973997Y-120097952D01*
X67973997Y-120097952D02*
X67831140Y-120097952D01*
X67831140Y-120097952D02*
X67735902Y-120145571D01*
X67735902Y-120145571D02*
X67688283Y-120193190D01*
X69021616Y-120097952D02*
X69021616Y-120764619D01*
X68593045Y-120097952D02*
X68593045Y-120621761D01*
X68593045Y-120621761D02*
X68640664Y-120717000D01*
X68640664Y-120717000D02*
X68735902Y-120764619D01*
X68735902Y-120764619D02*
X68878759Y-120764619D01*
X68878759Y-120764619D02*
X68973997Y-120717000D01*
X68973997Y-120717000D02*
X69021616Y-120669380D01*
X69497807Y-120764619D02*
X69497807Y-119764619D01*
X69497807Y-120145571D02*
X69593045Y-120097952D01*
X69593045Y-120097952D02*
X69783521Y-120097952D01*
X69783521Y-120097952D02*
X69878759Y-120145571D01*
X69878759Y-120145571D02*
X69926378Y-120193190D01*
X69926378Y-120193190D02*
X69973997Y-120288428D01*
X69973997Y-120288428D02*
X69973997Y-120574142D01*
X69973997Y-120574142D02*
X69926378Y-120669380D01*
X69926378Y-120669380D02*
X69878759Y-120717000D01*
X69878759Y-120717000D02*
X69783521Y-120764619D01*
X69783521Y-120764619D02*
X69593045Y-120764619D01*
X69593045Y-120764619D02*
X69497807Y-120717000D01*
X70402569Y-120669380D02*
X70450188Y-120717000D01*
X70450188Y-120717000D02*
X70402569Y-120764619D01*
X70402569Y-120764619D02*
X70354950Y-120717000D01*
X70354950Y-120717000D02*
X70402569Y-120669380D01*
X70402569Y-120669380D02*
X70402569Y-120764619D01*
X71307330Y-120717000D02*
X71212092Y-120764619D01*
X71212092Y-120764619D02*
X71021616Y-120764619D01*
X71021616Y-120764619D02*
X70926378Y-120717000D01*
X70926378Y-120717000D02*
X70878759Y-120669380D01*
X70878759Y-120669380D02*
X70831140Y-120574142D01*
X70831140Y-120574142D02*
X70831140Y-120288428D01*
X70831140Y-120288428D02*
X70878759Y-120193190D01*
X70878759Y-120193190D02*
X70926378Y-120145571D01*
X70926378Y-120145571D02*
X71021616Y-120097952D01*
X71021616Y-120097952D02*
X71212092Y-120097952D01*
X71212092Y-120097952D02*
X71307330Y-120145571D01*
X71878759Y-120764619D02*
X71783521Y-120717000D01*
X71783521Y-120717000D02*
X71735902Y-120669380D01*
X71735902Y-120669380D02*
X71688283Y-120574142D01*
X71688283Y-120574142D02*
X71688283Y-120288428D01*
X71688283Y-120288428D02*
X71735902Y-120193190D01*
X71735902Y-120193190D02*
X71783521Y-120145571D01*
X71783521Y-120145571D02*
X71878759Y-120097952D01*
X71878759Y-120097952D02*
X72021616Y-120097952D01*
X72021616Y-120097952D02*
X72116854Y-120145571D01*
X72116854Y-120145571D02*
X72164473Y-120193190D01*
X72164473Y-120193190D02*
X72212092Y-120288428D01*
X72212092Y-120288428D02*
X72212092Y-120574142D01*
X72212092Y-120574142D02*
X72164473Y-120669380D01*
X72164473Y-120669380D02*
X72116854Y-120717000D01*
X72116854Y-120717000D02*
X72021616Y-120764619D01*
X72021616Y-120764619D02*
X71878759Y-120764619D01*
X72640664Y-120764619D02*
X72640664Y-120097952D01*
X72640664Y-120193190D02*
X72688283Y-120145571D01*
X72688283Y-120145571D02*
X72783521Y-120097952D01*
X72783521Y-120097952D02*
X72926378Y-120097952D01*
X72926378Y-120097952D02*
X73021616Y-120145571D01*
X73021616Y-120145571D02*
X73069235Y-120240809D01*
X73069235Y-120240809D02*
X73069235Y-120764619D01*
X73069235Y-120240809D02*
X73116854Y-120145571D01*
X73116854Y-120145571D02*
X73212092Y-120097952D01*
X73212092Y-120097952D02*
X73354949Y-120097952D01*
X73354949Y-120097952D02*
X73450188Y-120145571D01*
X73450188Y-120145571D02*
X73497807Y-120240809D01*
X73497807Y-120240809D02*
X73497807Y-120764619D01*
X74688282Y-119717000D02*
X73831140Y-121002714D01*
X75021616Y-120764619D02*
X75021616Y-120097952D01*
X75021616Y-119764619D02*
X74973997Y-119812238D01*
X74973997Y-119812238D02*
X75021616Y-119859857D01*
X75021616Y-119859857D02*
X75069235Y-119812238D01*
X75069235Y-119812238D02*
X75021616Y-119764619D01*
X75021616Y-119764619D02*
X75021616Y-119859857D01*
X75497806Y-120764619D02*
X75497806Y-120097952D01*
X75497806Y-120193190D02*
X75545425Y-120145571D01*
X75545425Y-120145571D02*
X75640663Y-120097952D01*
X75640663Y-120097952D02*
X75783520Y-120097952D01*
X75783520Y-120097952D02*
X75878758Y-120145571D01*
X75878758Y-120145571D02*
X75926377Y-120240809D01*
X75926377Y-120240809D02*
X75926377Y-120764619D01*
X75926377Y-120240809D02*
X75973996Y-120145571D01*
X75973996Y-120145571D02*
X76069234Y-120097952D01*
X76069234Y-120097952D02*
X76212091Y-120097952D01*
X76212091Y-120097952D02*
X76307330Y-120145571D01*
X76307330Y-120145571D02*
X76354949Y-120240809D01*
X76354949Y-120240809D02*
X76354949Y-120764619D01*
X77212091Y-120717000D02*
X77116853Y-120764619D01*
X77116853Y-120764619D02*
X76926377Y-120764619D01*
X76926377Y-120764619D02*
X76831139Y-120717000D01*
X76831139Y-120717000D02*
X76783520Y-120621761D01*
X76783520Y-120621761D02*
X76783520Y-120240809D01*
X76783520Y-120240809D02*
X76831139Y-120145571D01*
X76831139Y-120145571D02*
X76926377Y-120097952D01*
X76926377Y-120097952D02*
X77116853Y-120097952D01*
X77116853Y-120097952D02*
X77212091Y-120145571D01*
X77212091Y-120145571D02*
X77259710Y-120240809D01*
X77259710Y-120240809D02*
X77259710Y-120336047D01*
X77259710Y-120336047D02*
X76783520Y-120431285D01*
X77688282Y-120097952D02*
X77688282Y-120764619D01*
X77688282Y-120193190D02*
X77735901Y-120145571D01*
X77735901Y-120145571D02*
X77831139Y-120097952D01*
X77831139Y-120097952D02*
X77973996Y-120097952D01*
X77973996Y-120097952D02*
X78069234Y-120145571D01*
X78069234Y-120145571D02*
X78116853Y-120240809D01*
X78116853Y-120240809D02*
X78116853Y-120764619D01*
X79021615Y-120764619D02*
X79021615Y-119764619D01*
X79021615Y-120717000D02*
X78926377Y-120764619D01*
X78926377Y-120764619D02*
X78735901Y-120764619D01*
X78735901Y-120764619D02*
X78640663Y-120717000D01*
X78640663Y-120717000D02*
X78593044Y-120669380D01*
X78593044Y-120669380D02*
X78545425Y-120574142D01*
X78545425Y-120574142D02*
X78545425Y-120288428D01*
X78545425Y-120288428D02*
X78593044Y-120193190D01*
X78593044Y-120193190D02*
X78640663Y-120145571D01*
X78640663Y-120145571D02*
X78735901Y-120097952D01*
X78735901Y-120097952D02*
X78926377Y-120097952D01*
X78926377Y-120097952D02*
X79021615Y-120145571D01*
X79497806Y-120764619D02*
X79497806Y-120097952D01*
X79497806Y-119764619D02*
X79450187Y-119812238D01*
X79450187Y-119812238D02*
X79497806Y-119859857D01*
X79497806Y-119859857D02*
X79545425Y-119812238D01*
X79545425Y-119812238D02*
X79497806Y-119764619D01*
X79497806Y-119764619D02*
X79497806Y-119859857D01*
X79878758Y-120097952D02*
X80402567Y-120097952D01*
X80402567Y-120097952D02*
X79878758Y-120764619D01*
X79878758Y-120764619D02*
X80402567Y-120764619D01*
X81212091Y-120764619D02*
X81212091Y-120240809D01*
X81212091Y-120240809D02*
X81164472Y-120145571D01*
X81164472Y-120145571D02*
X81069234Y-120097952D01*
X81069234Y-120097952D02*
X80878758Y-120097952D01*
X80878758Y-120097952D02*
X80783520Y-120145571D01*
X81212091Y-120717000D02*
X81116853Y-120764619D01*
X81116853Y-120764619D02*
X80878758Y-120764619D01*
X80878758Y-120764619D02*
X80783520Y-120717000D01*
X80783520Y-120717000D02*
X80735901Y-120621761D01*
X80735901Y-120621761D02*
X80735901Y-120526523D01*
X80735901Y-120526523D02*
X80783520Y-120431285D01*
X80783520Y-120431285D02*
X80878758Y-120383666D01*
X80878758Y-120383666D02*
X81116853Y-120383666D01*
X81116853Y-120383666D02*
X81212091Y-120336047D01*
X81688282Y-120764619D02*
X81688282Y-119764619D01*
X81688282Y-120145571D02*
X81783520Y-120097952D01*
X81783520Y-120097952D02*
X81973996Y-120097952D01*
X81973996Y-120097952D02*
X82069234Y-120145571D01*
X82069234Y-120145571D02*
X82116853Y-120193190D01*
X82116853Y-120193190D02*
X82164472Y-120288428D01*
X82164472Y-120288428D02*
X82164472Y-120574142D01*
X82164472Y-120574142D02*
X82116853Y-120669380D01*
X82116853Y-120669380D02*
X82069234Y-120717000D01*
X82069234Y-120717000D02*
X81973996Y-120764619D01*
X81973996Y-120764619D02*
X81783520Y-120764619D01*
X81783520Y-120764619D02*
X81688282Y-120717000D01*
X83021615Y-120764619D02*
X83021615Y-120240809D01*
X83021615Y-120240809D02*
X82973996Y-120145571D01*
X82973996Y-120145571D02*
X82878758Y-120097952D01*
X82878758Y-120097952D02*
X82688282Y-120097952D01*
X82688282Y-120097952D02*
X82593044Y-120145571D01*
X83021615Y-120717000D02*
X82926377Y-120764619D01*
X82926377Y-120764619D02*
X82688282Y-120764619D01*
X82688282Y-120764619D02*
X82593044Y-120717000D01*
X82593044Y-120717000D02*
X82545425Y-120621761D01*
X82545425Y-120621761D02*
X82545425Y-120526523D01*
X82545425Y-120526523D02*
X82593044Y-120431285D01*
X82593044Y-120431285D02*
X82688282Y-120383666D01*
X82688282Y-120383666D02*
X82926377Y-120383666D01*
X82926377Y-120383666D02*
X83021615Y-120336047D01*
X83640663Y-120764619D02*
X83545425Y-120717000D01*
X83545425Y-120717000D02*
X83497806Y-120621761D01*
X83497806Y-120621761D02*
X83497806Y-119764619D01*
X84735901Y-119717000D02*
X83878759Y-121002714D01*
X85069235Y-120764619D02*
X85069235Y-119764619D01*
X85069235Y-119764619D02*
X85640663Y-120764619D01*
X85640663Y-120764619D02*
X85640663Y-119764619D01*
X86497806Y-120717000D02*
X86402568Y-120764619D01*
X86402568Y-120764619D02*
X86212092Y-120764619D01*
X86212092Y-120764619D02*
X86116854Y-120717000D01*
X86116854Y-120717000D02*
X86069235Y-120621761D01*
X86069235Y-120621761D02*
X86069235Y-120240809D01*
X86069235Y-120240809D02*
X86116854Y-120145571D01*
X86116854Y-120145571D02*
X86212092Y-120097952D01*
X86212092Y-120097952D02*
X86402568Y-120097952D01*
X86402568Y-120097952D02*
X86497806Y-120145571D01*
X86497806Y-120145571D02*
X86545425Y-120240809D01*
X86545425Y-120240809D02*
X86545425Y-120336047D01*
X86545425Y-120336047D02*
X86069235Y-120431285D01*
X87402568Y-120764619D02*
X87402568Y-120240809D01*
X87402568Y-120240809D02*
X87354949Y-120145571D01*
X87354949Y-120145571D02*
X87259711Y-120097952D01*
X87259711Y-120097952D02*
X87069235Y-120097952D01*
X87069235Y-120097952D02*
X86973997Y-120145571D01*
X87402568Y-120717000D02*
X87307330Y-120764619D01*
X87307330Y-120764619D02*
X87069235Y-120764619D01*
X87069235Y-120764619D02*
X86973997Y-120717000D01*
X86973997Y-120717000D02*
X86926378Y-120621761D01*
X86926378Y-120621761D02*
X86926378Y-120526523D01*
X86926378Y-120526523D02*
X86973997Y-120431285D01*
X86973997Y-120431285D02*
X87069235Y-120383666D01*
X87069235Y-120383666D02*
X87307330Y-120383666D01*
X87307330Y-120383666D02*
X87402568Y-120336047D01*
X87878759Y-120764619D02*
X87878759Y-120097952D01*
X87878759Y-120288428D02*
X87926378Y-120193190D01*
X87926378Y-120193190D02*
X87973997Y-120145571D01*
X87973997Y-120145571D02*
X88069235Y-120097952D01*
X88069235Y-120097952D02*
X88164473Y-120097952D01*
X88497807Y-120383666D02*
X89259712Y-120383666D01*
X90069235Y-120240809D02*
X89735902Y-120240809D01*
X89735902Y-120764619D02*
X89735902Y-119764619D01*
X89735902Y-119764619D02*
X90212092Y-119764619D01*
X90593045Y-120764619D02*
X90593045Y-120097952D01*
X90593045Y-119764619D02*
X90545426Y-119812238D01*
X90545426Y-119812238D02*
X90593045Y-119859857D01*
X90593045Y-119859857D02*
X90640664Y-119812238D01*
X90640664Y-119812238D02*
X90593045Y-119764619D01*
X90593045Y-119764619D02*
X90593045Y-119859857D01*
X91450187Y-120717000D02*
X91354949Y-120764619D01*
X91354949Y-120764619D02*
X91164473Y-120764619D01*
X91164473Y-120764619D02*
X91069235Y-120717000D01*
X91069235Y-120717000D02*
X91021616Y-120621761D01*
X91021616Y-120621761D02*
X91021616Y-120240809D01*
X91021616Y-120240809D02*
X91069235Y-120145571D01*
X91069235Y-120145571D02*
X91164473Y-120097952D01*
X91164473Y-120097952D02*
X91354949Y-120097952D01*
X91354949Y-120097952D02*
X91450187Y-120145571D01*
X91450187Y-120145571D02*
X91497806Y-120240809D01*
X91497806Y-120240809D02*
X91497806Y-120336047D01*
X91497806Y-120336047D02*
X91021616Y-120431285D01*
X92069235Y-120764619D02*
X91973997Y-120717000D01*
X91973997Y-120717000D02*
X91926378Y-120621761D01*
X91926378Y-120621761D02*
X91926378Y-119764619D01*
X92878759Y-120764619D02*
X92878759Y-119764619D01*
X92878759Y-120717000D02*
X92783521Y-120764619D01*
X92783521Y-120764619D02*
X92593045Y-120764619D01*
X92593045Y-120764619D02*
X92497807Y-120717000D01*
X92497807Y-120717000D02*
X92450188Y-120669380D01*
X92450188Y-120669380D02*
X92402569Y-120574142D01*
X92402569Y-120574142D02*
X92402569Y-120288428D01*
X92402569Y-120288428D02*
X92450188Y-120193190D01*
X92450188Y-120193190D02*
X92497807Y-120145571D01*
X92497807Y-120145571D02*
X92593045Y-120097952D01*
X92593045Y-120097952D02*
X92783521Y-120097952D01*
X92783521Y-120097952D02*
X92878759Y-120145571D01*
X93354950Y-120383666D02*
X94116855Y-120383666D01*
X94593045Y-120764619D02*
X94593045Y-119764619D01*
X94593045Y-119764619D02*
X94973997Y-119764619D01*
X94973997Y-119764619D02*
X95069235Y-119812238D01*
X95069235Y-119812238D02*
X95116854Y-119859857D01*
X95116854Y-119859857D02*
X95164473Y-119955095D01*
X95164473Y-119955095D02*
X95164473Y-120097952D01*
X95164473Y-120097952D02*
X95116854Y-120193190D01*
X95116854Y-120193190D02*
X95069235Y-120240809D01*
X95069235Y-120240809D02*
X94973997Y-120288428D01*
X94973997Y-120288428D02*
X94593045Y-120288428D01*
X95593045Y-120764619D02*
X95593045Y-120097952D01*
X95593045Y-120288428D02*
X95640664Y-120193190D01*
X95640664Y-120193190D02*
X95688283Y-120145571D01*
X95688283Y-120145571D02*
X95783521Y-120097952D01*
X95783521Y-120097952D02*
X95878759Y-120097952D01*
X96354950Y-120764619D02*
X96259712Y-120717000D01*
X96259712Y-120717000D02*
X96212093Y-120669380D01*
X96212093Y-120669380D02*
X96164474Y-120574142D01*
X96164474Y-120574142D02*
X96164474Y-120288428D01*
X96164474Y-120288428D02*
X96212093Y-120193190D01*
X96212093Y-120193190D02*
X96259712Y-120145571D01*
X96259712Y-120145571D02*
X96354950Y-120097952D01*
X96354950Y-120097952D02*
X96497807Y-120097952D01*
X96497807Y-120097952D02*
X96593045Y-120145571D01*
X96593045Y-120145571D02*
X96640664Y-120193190D01*
X96640664Y-120193190D02*
X96688283Y-120288428D01*
X96688283Y-120288428D02*
X96688283Y-120574142D01*
X96688283Y-120574142D02*
X96640664Y-120669380D01*
X96640664Y-120669380D02*
X96593045Y-120717000D01*
X96593045Y-120717000D02*
X96497807Y-120764619D01*
X96497807Y-120764619D02*
X96354950Y-120764619D01*
X97116855Y-120764619D02*
X97116855Y-119764619D01*
X97116855Y-120145571D02*
X97212093Y-120097952D01*
X97212093Y-120097952D02*
X97402569Y-120097952D01*
X97402569Y-120097952D02*
X97497807Y-120145571D01*
X97497807Y-120145571D02*
X97545426Y-120193190D01*
X97545426Y-120193190D02*
X97593045Y-120288428D01*
X97593045Y-120288428D02*
X97593045Y-120574142D01*
X97593045Y-120574142D02*
X97545426Y-120669380D01*
X97545426Y-120669380D02*
X97497807Y-120717000D01*
X97497807Y-120717000D02*
X97402569Y-120764619D01*
X97402569Y-120764619D02*
X97212093Y-120764619D01*
X97212093Y-120764619D02*
X97116855Y-120717000D01*
X98402569Y-120717000D02*
X98307331Y-120764619D01*
X98307331Y-120764619D02*
X98116855Y-120764619D01*
X98116855Y-120764619D02*
X98021617Y-120717000D01*
X98021617Y-120717000D02*
X97973998Y-120621761D01*
X97973998Y-120621761D02*
X97973998Y-120240809D01*
X97973998Y-120240809D02*
X98021617Y-120145571D01*
X98021617Y-120145571D02*
X98116855Y-120097952D01*
X98116855Y-120097952D02*
X98307331Y-120097952D01*
X98307331Y-120097952D02*
X98402569Y-120145571D01*
X98402569Y-120145571D02*
X98450188Y-120240809D01*
X98450188Y-120240809D02*
X98450188Y-120336047D01*
X98450188Y-120336047D02*
X97973998Y-120431285D01*
X98831141Y-120717000D02*
X98926379Y-120764619D01*
X98926379Y-120764619D02*
X99116855Y-120764619D01*
X99116855Y-120764619D02*
X99212093Y-120717000D01*
X99212093Y-120717000D02*
X99259712Y-120621761D01*
X99259712Y-120621761D02*
X99259712Y-120574142D01*
X99259712Y-120574142D02*
X99212093Y-120478904D01*
X99212093Y-120478904D02*
X99116855Y-120431285D01*
X99116855Y-120431285D02*
X98973998Y-120431285D01*
X98973998Y-120431285D02*
X98878760Y-120383666D01*
X98878760Y-120383666D02*
X98831141Y-120288428D01*
X98831141Y-120288428D02*
X98831141Y-120240809D01*
X98831141Y-120240809D02*
X98878760Y-120145571D01*
X98878760Y-120145571D02*
X98973998Y-120097952D01*
X98973998Y-120097952D02*
X99116855Y-120097952D01*
X99116855Y-120097952D02*
X99212093Y-120145571D01*
D12*
X56214819Y-119983333D02*
X56929104Y-119983333D01*
X56929104Y-119983333D02*
X57071961Y-120030952D01*
X57071961Y-120030952D02*
X57167200Y-120126190D01*
X57167200Y-120126190D02*
X57214819Y-120269047D01*
X57214819Y-120269047D02*
X57214819Y-120364285D01*
X56310057Y-119554761D02*
X56262438Y-119507142D01*
X56262438Y-119507142D02*
X56214819Y-119411904D01*
X56214819Y-119411904D02*
X56214819Y-119173809D01*
X56214819Y-119173809D02*
X56262438Y-119078571D01*
X56262438Y-119078571D02*
X56310057Y-119030952D01*
X56310057Y-119030952D02*
X56405295Y-118983333D01*
X56405295Y-118983333D02*
X56500533Y-118983333D01*
X56500533Y-118983333D02*
X56643390Y-119030952D01*
X56643390Y-119030952D02*
X57214819Y-119602380D01*
X57214819Y-119602380D02*
X57214819Y-118983333D01*
D13*
%TO.C,J2*%
X56010000Y-116650000D02*
X56510000Y-116900000D01*
X56510000Y-116400000D02*
X56010000Y-116650000D01*
X56510000Y-116900000D02*
X56510000Y-116400000D01*
%TD*%
M02*
