%TF.GenerationSoftware,KiCad,Pcbnew,9.0.0*%
%TF.CreationDate,2025-03-25T21:57:31+01:00*%
%TF.ProjectId,H-Field 18mm,482d4669-656c-4642-9031-386d6d2e6b69,1.0*%
%TF.SameCoordinates,Original*%
%TF.FileFunction,Legend,Bot*%
%TF.FilePolarity,Positive*%
%FSLAX46Y46*%
G04 Gerber Fmt 4.6, Leading zero omitted, Abs format (unit mm)*
G04 Created by KiCad (PCBNEW 9.0.0) date 2025-03-25 21:57:31*
%MOMM*%
%LPD*%
G01*
G04 APERTURE LIST*
%ADD10C,0.300000*%
%ADD11C,0.010000*%
G04 APERTURE END LIST*
D10*
X134076441Y-113999828D02*
X134076441Y-111999828D01*
X134076441Y-112952209D02*
X132933584Y-112952209D01*
X132933584Y-113999828D02*
X132933584Y-111999828D01*
X131981203Y-113237923D02*
X130457394Y-113237923D01*
X128838346Y-112952209D02*
X129505013Y-112952209D01*
X129505013Y-113999828D02*
X129505013Y-111999828D01*
X129505013Y-111999828D02*
X128552632Y-111999828D01*
X127790727Y-113999828D02*
X127790727Y-112666494D01*
X127790727Y-111999828D02*
X127885965Y-112095066D01*
X127885965Y-112095066D02*
X127790727Y-112190304D01*
X127790727Y-112190304D02*
X127695489Y-112095066D01*
X127695489Y-112095066D02*
X127790727Y-111999828D01*
X127790727Y-111999828D02*
X127790727Y-112190304D01*
X126076441Y-113904590D02*
X126266917Y-113999828D01*
X126266917Y-113999828D02*
X126647870Y-113999828D01*
X126647870Y-113999828D02*
X126838346Y-113904590D01*
X126838346Y-113904590D02*
X126933584Y-113714113D01*
X126933584Y-113714113D02*
X126933584Y-112952209D01*
X126933584Y-112952209D02*
X126838346Y-112761732D01*
X126838346Y-112761732D02*
X126647870Y-112666494D01*
X126647870Y-112666494D02*
X126266917Y-112666494D01*
X126266917Y-112666494D02*
X126076441Y-112761732D01*
X126076441Y-112761732D02*
X125981203Y-112952209D01*
X125981203Y-112952209D02*
X125981203Y-113142685D01*
X125981203Y-113142685D02*
X126933584Y-113333161D01*
X124838346Y-113999828D02*
X125028822Y-113904590D01*
X125028822Y-113904590D02*
X125124060Y-113714113D01*
X125124060Y-113714113D02*
X125124060Y-111999828D01*
X123219298Y-113999828D02*
X123219298Y-111999828D01*
X123219298Y-113904590D02*
X123409774Y-113999828D01*
X123409774Y-113999828D02*
X123790727Y-113999828D01*
X123790727Y-113999828D02*
X123981203Y-113904590D01*
X123981203Y-113904590D02*
X124076441Y-113809351D01*
X124076441Y-113809351D02*
X124171679Y-113618875D01*
X124171679Y-113618875D02*
X124171679Y-113047447D01*
X124171679Y-113047447D02*
X124076441Y-112856970D01*
X124076441Y-112856970D02*
X123981203Y-112761732D01*
X123981203Y-112761732D02*
X123790727Y-112666494D01*
X123790727Y-112666494D02*
X123409774Y-112666494D01*
X123409774Y-112666494D02*
X123219298Y-112761732D01*
X120743107Y-113999828D02*
X120743107Y-111999828D01*
X120743107Y-111999828D02*
X119600250Y-113999828D01*
X119600250Y-113999828D02*
X119600250Y-111999828D01*
X117885964Y-113904590D02*
X118076440Y-113999828D01*
X118076440Y-113999828D02*
X118457393Y-113999828D01*
X118457393Y-113999828D02*
X118647869Y-113904590D01*
X118647869Y-113904590D02*
X118743107Y-113714113D01*
X118743107Y-113714113D02*
X118743107Y-112952209D01*
X118743107Y-112952209D02*
X118647869Y-112761732D01*
X118647869Y-112761732D02*
X118457393Y-112666494D01*
X118457393Y-112666494D02*
X118076440Y-112666494D01*
X118076440Y-112666494D02*
X117885964Y-112761732D01*
X117885964Y-112761732D02*
X117790726Y-112952209D01*
X117790726Y-112952209D02*
X117790726Y-113142685D01*
X117790726Y-113142685D02*
X118743107Y-113333161D01*
X116076440Y-113999828D02*
X116076440Y-112952209D01*
X116076440Y-112952209D02*
X116171678Y-112761732D01*
X116171678Y-112761732D02*
X116362154Y-112666494D01*
X116362154Y-112666494D02*
X116743107Y-112666494D01*
X116743107Y-112666494D02*
X116933583Y-112761732D01*
X116076440Y-113904590D02*
X116266916Y-113999828D01*
X116266916Y-113999828D02*
X116743107Y-113999828D01*
X116743107Y-113999828D02*
X116933583Y-113904590D01*
X116933583Y-113904590D02*
X117028821Y-113714113D01*
X117028821Y-113714113D02*
X117028821Y-113523637D01*
X117028821Y-113523637D02*
X116933583Y-113333161D01*
X116933583Y-113333161D02*
X116743107Y-113237923D01*
X116743107Y-113237923D02*
X116266916Y-113237923D01*
X116266916Y-113237923D02*
X116076440Y-113142685D01*
X115124059Y-113999828D02*
X115124059Y-112666494D01*
X115124059Y-113047447D02*
X115028821Y-112856970D01*
X115028821Y-112856970D02*
X114933583Y-112761732D01*
X114933583Y-112761732D02*
X114743107Y-112666494D01*
X114743107Y-112666494D02*
X114552630Y-112666494D01*
X113885964Y-113237923D02*
X112362155Y-113237923D01*
X110743107Y-112952209D02*
X111409774Y-112952209D01*
X111409774Y-113999828D02*
X111409774Y-111999828D01*
X111409774Y-111999828D02*
X110457393Y-111999828D01*
X109695488Y-113999828D02*
X109695488Y-112666494D01*
X109695488Y-111999828D02*
X109790726Y-112095066D01*
X109790726Y-112095066D02*
X109695488Y-112190304D01*
X109695488Y-112190304D02*
X109600250Y-112095066D01*
X109600250Y-112095066D02*
X109695488Y-111999828D01*
X109695488Y-111999828D02*
X109695488Y-112190304D01*
X107981202Y-113904590D02*
X108171678Y-113999828D01*
X108171678Y-113999828D02*
X108552631Y-113999828D01*
X108552631Y-113999828D02*
X108743107Y-113904590D01*
X108743107Y-113904590D02*
X108838345Y-113714113D01*
X108838345Y-113714113D02*
X108838345Y-112952209D01*
X108838345Y-112952209D02*
X108743107Y-112761732D01*
X108743107Y-112761732D02*
X108552631Y-112666494D01*
X108552631Y-112666494D02*
X108171678Y-112666494D01*
X108171678Y-112666494D02*
X107981202Y-112761732D01*
X107981202Y-112761732D02*
X107885964Y-112952209D01*
X107885964Y-112952209D02*
X107885964Y-113142685D01*
X107885964Y-113142685D02*
X108838345Y-113333161D01*
X106743107Y-113999828D02*
X106933583Y-113904590D01*
X106933583Y-113904590D02*
X107028821Y-113714113D01*
X107028821Y-113714113D02*
X107028821Y-111999828D01*
X105124059Y-113999828D02*
X105124059Y-111999828D01*
X105124059Y-113904590D02*
X105314535Y-113999828D01*
X105314535Y-113999828D02*
X105695488Y-113999828D01*
X105695488Y-113999828D02*
X105885964Y-113904590D01*
X105885964Y-113904590D02*
X105981202Y-113809351D01*
X105981202Y-113809351D02*
X106076440Y-113618875D01*
X106076440Y-113618875D02*
X106076440Y-113047447D01*
X106076440Y-113047447D02*
X105981202Y-112856970D01*
X105981202Y-112856970D02*
X105885964Y-112761732D01*
X105885964Y-112761732D02*
X105695488Y-112666494D01*
X105695488Y-112666494D02*
X105314535Y-112666494D01*
X105314535Y-112666494D02*
X105124059Y-112761732D01*
X102647868Y-113999828D02*
X102647868Y-111999828D01*
X102647868Y-111999828D02*
X101885963Y-111999828D01*
X101885963Y-111999828D02*
X101695487Y-112095066D01*
X101695487Y-112095066D02*
X101600249Y-112190304D01*
X101600249Y-112190304D02*
X101505011Y-112380780D01*
X101505011Y-112380780D02*
X101505011Y-112666494D01*
X101505011Y-112666494D02*
X101600249Y-112856970D01*
X101600249Y-112856970D02*
X101695487Y-112952209D01*
X101695487Y-112952209D02*
X101885963Y-113047447D01*
X101885963Y-113047447D02*
X102647868Y-113047447D01*
X100647868Y-113999828D02*
X100647868Y-112666494D01*
X100647868Y-113047447D02*
X100552630Y-112856970D01*
X100552630Y-112856970D02*
X100457392Y-112761732D01*
X100457392Y-112761732D02*
X100266916Y-112666494D01*
X100266916Y-112666494D02*
X100076439Y-112666494D01*
X99124059Y-113999828D02*
X99314535Y-113904590D01*
X99314535Y-113904590D02*
X99409773Y-113809351D01*
X99409773Y-113809351D02*
X99505011Y-113618875D01*
X99505011Y-113618875D02*
X99505011Y-113047447D01*
X99505011Y-113047447D02*
X99409773Y-112856970D01*
X99409773Y-112856970D02*
X99314535Y-112761732D01*
X99314535Y-112761732D02*
X99124059Y-112666494D01*
X99124059Y-112666494D02*
X98838344Y-112666494D01*
X98838344Y-112666494D02*
X98647868Y-112761732D01*
X98647868Y-112761732D02*
X98552630Y-112856970D01*
X98552630Y-112856970D02*
X98457392Y-113047447D01*
X98457392Y-113047447D02*
X98457392Y-113618875D01*
X98457392Y-113618875D02*
X98552630Y-113809351D01*
X98552630Y-113809351D02*
X98647868Y-113904590D01*
X98647868Y-113904590D02*
X98838344Y-113999828D01*
X98838344Y-113999828D02*
X99124059Y-113999828D01*
X97600249Y-113999828D02*
X97600249Y-111999828D01*
X97600249Y-112761732D02*
X97409773Y-112666494D01*
X97409773Y-112666494D02*
X97028820Y-112666494D01*
X97028820Y-112666494D02*
X96838344Y-112761732D01*
X96838344Y-112761732D02*
X96743106Y-112856970D01*
X96743106Y-112856970D02*
X96647868Y-113047447D01*
X96647868Y-113047447D02*
X96647868Y-113618875D01*
X96647868Y-113618875D02*
X96743106Y-113809351D01*
X96743106Y-113809351D02*
X96838344Y-113904590D01*
X96838344Y-113904590D02*
X97028820Y-113999828D01*
X97028820Y-113999828D02*
X97409773Y-113999828D01*
X97409773Y-113999828D02*
X97600249Y-113904590D01*
X95028820Y-113904590D02*
X95219296Y-113999828D01*
X95219296Y-113999828D02*
X95600249Y-113999828D01*
X95600249Y-113999828D02*
X95790725Y-113904590D01*
X95790725Y-113904590D02*
X95885963Y-113714113D01*
X95885963Y-113714113D02*
X95885963Y-112952209D01*
X95885963Y-112952209D02*
X95790725Y-112761732D01*
X95790725Y-112761732D02*
X95600249Y-112666494D01*
X95600249Y-112666494D02*
X95219296Y-112666494D01*
X95219296Y-112666494D02*
X95028820Y-112761732D01*
X95028820Y-112761732D02*
X94933582Y-112952209D01*
X94933582Y-112952209D02*
X94933582Y-113142685D01*
X94933582Y-113142685D02*
X95885963Y-113333161D01*
D11*
%TO.C,REF\u002A\u002A*%
X141287128Y-120253945D02*
X141317954Y-120263568D01*
X141355916Y-120279563D01*
X141374296Y-120288159D01*
X141387561Y-120289713D01*
X141390495Y-120277798D01*
X141390498Y-120277461D01*
X141396709Y-120266087D01*
X141418131Y-120260256D01*
X141459653Y-120258614D01*
X141528812Y-120258614D01*
X141528812Y-120862179D01*
X141390495Y-120862179D01*
X141390495Y-120446027D01*
X141356110Y-120414161D01*
X141345368Y-120405104D01*
X141313370Y-120389630D01*
X141273965Y-120389010D01*
X141220312Y-120402664D01*
X141202225Y-120403529D01*
X141181008Y-120390283D01*
X141152768Y-120358800D01*
X141139069Y-120341385D01*
X141122868Y-120316797D01*
X141120371Y-120301145D01*
X141129442Y-120287941D01*
X141157289Y-120271245D01*
X141200540Y-120258030D01*
X141247464Y-120251478D01*
X141287128Y-120253945D01*
G36*
X141287128Y-120253945D02*
G01*
X141317954Y-120263568D01*
X141355916Y-120279563D01*
X141374296Y-120288159D01*
X141387561Y-120289713D01*
X141390495Y-120277798D01*
X141390498Y-120277461D01*
X141396709Y-120266087D01*
X141418131Y-120260256D01*
X141459653Y-120258614D01*
X141528812Y-120258614D01*
X141528812Y-120862179D01*
X141390495Y-120862179D01*
X141390495Y-120446027D01*
X141356110Y-120414161D01*
X141345368Y-120405104D01*
X141313370Y-120389630D01*
X141273965Y-120389010D01*
X141220312Y-120402664D01*
X141202225Y-120403529D01*
X141181008Y-120390283D01*
X141152768Y-120358800D01*
X141139069Y-120341385D01*
X141122868Y-120316797D01*
X141120371Y-120301145D01*
X141129442Y-120287941D01*
X141157289Y-120271245D01*
X141200540Y-120258030D01*
X141247464Y-120251478D01*
X141287128Y-120253945D01*
G37*
X141470265Y-121209965D02*
X141508255Y-121227745D01*
X141541386Y-121253806D01*
X141541386Y-121227745D01*
X141542211Y-121217849D01*
X141549893Y-121207358D01*
X141570667Y-121202725D01*
X141610544Y-121201683D01*
X141679703Y-121201683D01*
X141679703Y-121817822D01*
X141541386Y-121817822D01*
X141541386Y-121617226D01*
X141541369Y-121605710D01*
X141540189Y-121524758D01*
X141537294Y-121458817D01*
X141532888Y-121411258D01*
X141527181Y-121385452D01*
X141521940Y-121375710D01*
X141489676Y-121345156D01*
X141445730Y-121331631D01*
X141397743Y-121337941D01*
X141385973Y-121342217D01*
X141360898Y-121349776D01*
X141343762Y-121347428D01*
X141326518Y-121332064D01*
X141301124Y-121300571D01*
X141259936Y-121248568D01*
X141288886Y-121225125D01*
X141316405Y-121211015D01*
X141364745Y-121201486D01*
X141419230Y-121201174D01*
X141470265Y-121209965D01*
G36*
X141470265Y-121209965D02*
G01*
X141508255Y-121227745D01*
X141541386Y-121253806D01*
X141541386Y-121227745D01*
X141542211Y-121217849D01*
X141549893Y-121207358D01*
X141570667Y-121202725D01*
X141610544Y-121201683D01*
X141679703Y-121201683D01*
X141679703Y-121817822D01*
X141541386Y-121817822D01*
X141541386Y-121617226D01*
X141541369Y-121605710D01*
X141540189Y-121524758D01*
X141537294Y-121458817D01*
X141532888Y-121411258D01*
X141527181Y-121385452D01*
X141521940Y-121375710D01*
X141489676Y-121345156D01*
X141445730Y-121331631D01*
X141397743Y-121337941D01*
X141385973Y-121342217D01*
X141360898Y-121349776D01*
X141343762Y-121347428D01*
X141326518Y-121332064D01*
X141301124Y-121300571D01*
X141259936Y-121248568D01*
X141288886Y-121225125D01*
X141316405Y-121211015D01*
X141364745Y-121201486D01*
X141419230Y-121201174D01*
X141470265Y-121209965D01*
G37*
X144093960Y-121817822D02*
X143968218Y-121817822D01*
X143968218Y-121623740D01*
X143968078Y-121578594D01*
X143966649Y-121503823D01*
X143963029Y-121448467D01*
X143956434Y-121408702D01*
X143946079Y-121380700D01*
X143931178Y-121360635D01*
X143910946Y-121344681D01*
X143888859Y-121332792D01*
X143862705Y-121329421D01*
X143825508Y-121336917D01*
X143813555Y-121340038D01*
X143783718Y-121344735D01*
X143762383Y-121338005D01*
X143737655Y-121317177D01*
X143732963Y-121312647D01*
X143707020Y-121284626D01*
X143690291Y-121261843D01*
X143687996Y-121256355D01*
X143692543Y-121236088D01*
X143715602Y-121219884D01*
X143751995Y-121208513D01*
X143796544Y-121202740D01*
X143844072Y-121203334D01*
X143889400Y-121211063D01*
X143927351Y-121226694D01*
X143939381Y-121233993D01*
X143959632Y-121244676D01*
X143967129Y-121242230D01*
X143968218Y-121226647D01*
X143968473Y-121221053D01*
X143974539Y-121208660D01*
X143993356Y-121203020D01*
X144031089Y-121201683D01*
X144093960Y-121201683D01*
X144093960Y-121817822D01*
G36*
X144093960Y-121817822D02*
G01*
X143968218Y-121817822D01*
X143968218Y-121623740D01*
X143968078Y-121578594D01*
X143966649Y-121503823D01*
X143963029Y-121448467D01*
X143956434Y-121408702D01*
X143946079Y-121380700D01*
X143931178Y-121360635D01*
X143910946Y-121344681D01*
X143888859Y-121332792D01*
X143862705Y-121329421D01*
X143825508Y-121336917D01*
X143813555Y-121340038D01*
X143783718Y-121344735D01*
X143762383Y-121338005D01*
X143737655Y-121317177D01*
X143732963Y-121312647D01*
X143707020Y-121284626D01*
X143690291Y-121261843D01*
X143687996Y-121256355D01*
X143692543Y-121236088D01*
X143715602Y-121219884D01*
X143751995Y-121208513D01*
X143796544Y-121202740D01*
X143844072Y-121203334D01*
X143889400Y-121211063D01*
X143927351Y-121226694D01*
X143939381Y-121233993D01*
X143959632Y-121244676D01*
X143967129Y-121242230D01*
X143968218Y-121226647D01*
X143968473Y-121221053D01*
X143974539Y-121208660D01*
X143993356Y-121203020D01*
X144031089Y-121201683D01*
X144093960Y-121201683D01*
X144093960Y-121817822D01*
G37*
X141780297Y-120454342D02*
X141781357Y-120542394D01*
X141785509Y-120613510D01*
X141793921Y-120665199D01*
X141807757Y-120700360D01*
X141828182Y-120721889D01*
X141856364Y-120732682D01*
X141893465Y-120735636D01*
X141928890Y-120733000D01*
X141957500Y-120722679D01*
X141978296Y-120701772D01*
X141992442Y-120667381D01*
X142001103Y-120616610D01*
X142005445Y-120546563D01*
X142006633Y-120454342D01*
X142006633Y-120258614D01*
X142132376Y-120258614D01*
X142132376Y-120494578D01*
X142132160Y-120557561D01*
X142130484Y-120639007D01*
X142126277Y-120701121D01*
X142118521Y-120747458D01*
X142106196Y-120781573D01*
X142088285Y-120807022D01*
X142063767Y-120827362D01*
X142031623Y-120846147D01*
X141964125Y-120869928D01*
X141893681Y-120871480D01*
X141827264Y-120849580D01*
X141798286Y-120835383D01*
X141783909Y-120833261D01*
X141780297Y-120843293D01*
X141774299Y-120854556D01*
X141752830Y-120860489D01*
X141711138Y-120862179D01*
X141641980Y-120862179D01*
X141641980Y-120258614D01*
X141780297Y-120258614D01*
X141780297Y-120454342D01*
G36*
X141780297Y-120454342D02*
G01*
X141781357Y-120542394D01*
X141785509Y-120613510D01*
X141793921Y-120665199D01*
X141807757Y-120700360D01*
X141828182Y-120721889D01*
X141856364Y-120732682D01*
X141893465Y-120735636D01*
X141928890Y-120733000D01*
X141957500Y-120722679D01*
X141978296Y-120701772D01*
X141992442Y-120667381D01*
X142001103Y-120616610D01*
X142005445Y-120546563D01*
X142006633Y-120454342D01*
X142006633Y-120258614D01*
X142132376Y-120258614D01*
X142132376Y-120494578D01*
X142132160Y-120557561D01*
X142130484Y-120639007D01*
X142126277Y-120701121D01*
X142118521Y-120747458D01*
X142106196Y-120781573D01*
X142088285Y-120807022D01*
X142063767Y-120827362D01*
X142031623Y-120846147D01*
X141964125Y-120869928D01*
X141893681Y-120871480D01*
X141827264Y-120849580D01*
X141798286Y-120835383D01*
X141783909Y-120833261D01*
X141780297Y-120843293D01*
X141774299Y-120854556D01*
X141752830Y-120860489D01*
X141711138Y-120862179D01*
X141641980Y-120862179D01*
X141641980Y-120258614D01*
X141780297Y-120258614D01*
X141780297Y-120454342D01*
G37*
X143882605Y-120257424D02*
X143939926Y-120275434D01*
X143965199Y-120287674D01*
X143977910Y-120288938D01*
X143980792Y-120277798D01*
X143980795Y-120277461D01*
X143987006Y-120266087D01*
X144008428Y-120260256D01*
X144049950Y-120258614D01*
X144119109Y-120258614D01*
X144119109Y-120862179D01*
X143980792Y-120862179D01*
X143980792Y-120654132D01*
X143980697Y-120583879D01*
X143980051Y-120526170D01*
X143978320Y-120485787D01*
X143974974Y-120458615D01*
X143969481Y-120440540D01*
X143961310Y-120427447D01*
X143949928Y-120415221D01*
X143934424Y-120402217D01*
X143889843Y-120384745D01*
X143843047Y-120389873D01*
X143800180Y-120417507D01*
X143787927Y-120430368D01*
X143779132Y-120443384D01*
X143773233Y-120460706D01*
X143769651Y-120486501D01*
X143767809Y-120524939D01*
X143767128Y-120580189D01*
X143767030Y-120656418D01*
X143767030Y-120862179D01*
X143628713Y-120862179D01*
X143628989Y-120638985D01*
X143629008Y-120629044D01*
X143630207Y-120534106D01*
X143633891Y-120460358D01*
X143641006Y-120404214D01*
X143652500Y-120362087D01*
X143669318Y-120330391D01*
X143692409Y-120305541D01*
X143722717Y-120283950D01*
X143754012Y-120269002D01*
X143817037Y-120255421D01*
X143882605Y-120257424D01*
G36*
X143882605Y-120257424D02*
G01*
X143939926Y-120275434D01*
X143965199Y-120287674D01*
X143977910Y-120288938D01*
X143980792Y-120277798D01*
X143980795Y-120277461D01*
X143987006Y-120266087D01*
X144008428Y-120260256D01*
X144049950Y-120258614D01*
X144119109Y-120258614D01*
X144119109Y-120862179D01*
X143980792Y-120862179D01*
X143980792Y-120654132D01*
X143980697Y-120583879D01*
X143980051Y-120526170D01*
X143978320Y-120485787D01*
X143974974Y-120458615D01*
X143969481Y-120440540D01*
X143961310Y-120427447D01*
X143949928Y-120415221D01*
X143934424Y-120402217D01*
X143889843Y-120384745D01*
X143843047Y-120389873D01*
X143800180Y-120417507D01*
X143787927Y-120430368D01*
X143779132Y-120443384D01*
X143773233Y-120460706D01*
X143769651Y-120486501D01*
X143767809Y-120524939D01*
X143767128Y-120580189D01*
X143767030Y-120656418D01*
X143767030Y-120862179D01*
X143628713Y-120862179D01*
X143628989Y-120638985D01*
X143629008Y-120629044D01*
X143630207Y-120534106D01*
X143633891Y-120460358D01*
X143641006Y-120404214D01*
X143652500Y-120362087D01*
X143669318Y-120330391D01*
X143692409Y-120305541D01*
X143722717Y-120283950D01*
X143754012Y-120269002D01*
X143817037Y-120255421D01*
X143882605Y-120257424D01*
G37*
X140933409Y-120261493D02*
X141002021Y-120288224D01*
X141060048Y-120332351D01*
X141102907Y-120392958D01*
X141105801Y-120399137D01*
X141124176Y-120459409D01*
X141133357Y-120531407D01*
X141133285Y-120606369D01*
X141123901Y-120675536D01*
X141105149Y-120730149D01*
X141081995Y-120768212D01*
X141031030Y-120822135D01*
X140967306Y-120856411D01*
X140912785Y-120870272D01*
X140829767Y-120871785D01*
X140750326Y-120850882D01*
X140679879Y-120808464D01*
X140634284Y-120770880D01*
X140675351Y-120728510D01*
X140701296Y-120703409D01*
X140724764Y-120689434D01*
X140746524Y-120692511D01*
X140774356Y-120711287D01*
X140785454Y-120718638D01*
X140832337Y-120733683D01*
X140886224Y-120733673D01*
X140936675Y-120718168D01*
X140955672Y-120705716D01*
X140983537Y-120668946D01*
X140997506Y-120614939D01*
X140998405Y-120541331D01*
X140998403Y-120541289D01*
X140988009Y-120475433D01*
X140965114Y-120429772D01*
X140927439Y-120401528D01*
X140872708Y-120387920D01*
X140838241Y-120386090D01*
X140808126Y-120393584D01*
X140777240Y-120415295D01*
X140737272Y-120448926D01*
X140686656Y-120408250D01*
X140668163Y-120392667D01*
X140645065Y-120370340D01*
X140636039Y-120357183D01*
X140639236Y-120351253D01*
X140657646Y-120333048D01*
X140686973Y-120309895D01*
X140709920Y-120294830D01*
X140782774Y-120263880D01*
X140858799Y-120253073D01*
X140933409Y-120261493D01*
G36*
X140933409Y-120261493D02*
G01*
X141002021Y-120288224D01*
X141060048Y-120332351D01*
X141102907Y-120392958D01*
X141105801Y-120399137D01*
X141124176Y-120459409D01*
X141133357Y-120531407D01*
X141133285Y-120606369D01*
X141123901Y-120675536D01*
X141105149Y-120730149D01*
X141081995Y-120768212D01*
X141031030Y-120822135D01*
X140967306Y-120856411D01*
X140912785Y-120870272D01*
X140829767Y-120871785D01*
X140750326Y-120850882D01*
X140679879Y-120808464D01*
X140634284Y-120770880D01*
X140675351Y-120728510D01*
X140701296Y-120703409D01*
X140724764Y-120689434D01*
X140746524Y-120692511D01*
X140774356Y-120711287D01*
X140785454Y-120718638D01*
X140832337Y-120733683D01*
X140886224Y-120733673D01*
X140936675Y-120718168D01*
X140955672Y-120705716D01*
X140983537Y-120668946D01*
X140997506Y-120614939D01*
X140998405Y-120541331D01*
X140998403Y-120541289D01*
X140988009Y-120475433D01*
X140965114Y-120429772D01*
X140927439Y-120401528D01*
X140872708Y-120387920D01*
X140838241Y-120386090D01*
X140808126Y-120393584D01*
X140777240Y-120415295D01*
X140737272Y-120448926D01*
X140686656Y-120408250D01*
X140668163Y-120392667D01*
X140645065Y-120370340D01*
X140636039Y-120357183D01*
X140639236Y-120351253D01*
X140657646Y-120333048D01*
X140686973Y-120309895D01*
X140709920Y-120294830D01*
X140782774Y-120263880D01*
X140858799Y-120253073D01*
X140933409Y-120261493D01*
G37*
X142732857Y-120603771D02*
X142729349Y-120643565D01*
X142713844Y-120719538D01*
X142686110Y-120777511D01*
X142643898Y-120821300D01*
X142584960Y-120854722D01*
X142562076Y-120862676D01*
X142502812Y-120872601D01*
X142440447Y-120872331D01*
X142387823Y-120861430D01*
X142386789Y-120861034D01*
X142344381Y-120836087D01*
X142301537Y-120797468D01*
X142265986Y-120753306D01*
X142245459Y-120711727D01*
X142239374Y-120681334D01*
X142234164Y-120624429D01*
X142233291Y-120573705D01*
X142359976Y-120573705D01*
X142367549Y-120634545D01*
X142385341Y-120684538D01*
X142412296Y-120717204D01*
X142422513Y-120722812D01*
X142461473Y-120733007D01*
X142506536Y-120735104D01*
X142544448Y-120728020D01*
X142559244Y-120717861D01*
X142580014Y-120682334D01*
X142593083Y-120626732D01*
X142597624Y-120553766D01*
X142597551Y-120532762D01*
X142595974Y-120490203D01*
X142590728Y-120462439D01*
X142579723Y-120441925D01*
X142560868Y-120421112D01*
X142524989Y-120395887D01*
X142478280Y-120385573D01*
X142433151Y-120395396D01*
X142395680Y-120423805D01*
X142371943Y-120469253D01*
X142363675Y-120508497D01*
X142359976Y-120573705D01*
X142233291Y-120573705D01*
X142233049Y-120559621D01*
X142235844Y-120495116D01*
X142242366Y-120439121D01*
X142252432Y-120399842D01*
X142275877Y-120355372D01*
X142325637Y-120300692D01*
X142389238Y-120266055D01*
X142464790Y-120252345D01*
X142550399Y-120260448D01*
X142564644Y-120263899D01*
X142630982Y-120293664D01*
X142680971Y-120342530D01*
X142714612Y-120410501D01*
X142731906Y-120497580D01*
X142732410Y-120553766D01*
X142732857Y-120603771D01*
G36*
X142732857Y-120603771D02*
G01*
X142729349Y-120643565D01*
X142713844Y-120719538D01*
X142686110Y-120777511D01*
X142643898Y-120821300D01*
X142584960Y-120854722D01*
X142562076Y-120862676D01*
X142502812Y-120872601D01*
X142440447Y-120872331D01*
X142387823Y-120861430D01*
X142386789Y-120861034D01*
X142344381Y-120836087D01*
X142301537Y-120797468D01*
X142265986Y-120753306D01*
X142245459Y-120711727D01*
X142239374Y-120681334D01*
X142234164Y-120624429D01*
X142233291Y-120573705D01*
X142359976Y-120573705D01*
X142367549Y-120634545D01*
X142385341Y-120684538D01*
X142412296Y-120717204D01*
X142422513Y-120722812D01*
X142461473Y-120733007D01*
X142506536Y-120735104D01*
X142544448Y-120728020D01*
X142559244Y-120717861D01*
X142580014Y-120682334D01*
X142593083Y-120626732D01*
X142597624Y-120553766D01*
X142597551Y-120532762D01*
X142595974Y-120490203D01*
X142590728Y-120462439D01*
X142579723Y-120441925D01*
X142560868Y-120421112D01*
X142524989Y-120395887D01*
X142478280Y-120385573D01*
X142433151Y-120395396D01*
X142395680Y-120423805D01*
X142371943Y-120469253D01*
X142363675Y-120508497D01*
X142359976Y-120573705D01*
X142233291Y-120573705D01*
X142233049Y-120559621D01*
X142235844Y-120495116D01*
X142242366Y-120439121D01*
X142252432Y-120399842D01*
X142275877Y-120355372D01*
X142325637Y-120300692D01*
X142389238Y-120266055D01*
X142464790Y-120252345D01*
X142550399Y-120260448D01*
X142564644Y-120263899D01*
X142630982Y-120293664D01*
X142680971Y-120342530D01*
X142714612Y-120410501D01*
X142731906Y-120497580D01*
X142732410Y-120553766D01*
X142732857Y-120603771D01*
G37*
X142832997Y-121399130D02*
X142849997Y-121449850D01*
X142870107Y-121505997D01*
X142886899Y-121548532D01*
X142898986Y-121573990D01*
X142904980Y-121578903D01*
X142906426Y-121574630D01*
X142914254Y-121548422D01*
X142926723Y-121504649D01*
X142942447Y-121448211D01*
X142960043Y-121384010D01*
X143007914Y-121207971D01*
X143081007Y-121204152D01*
X143087177Y-121203846D01*
X143126592Y-121203441D01*
X143145533Y-121207487D01*
X143147945Y-121216726D01*
X143144898Y-121225749D01*
X143134874Y-121256632D01*
X143119180Y-121305544D01*
X143098934Y-121368987D01*
X143075256Y-121443462D01*
X143049263Y-121525471D01*
X142956736Y-121817822D01*
X142840993Y-121817822D01*
X142786457Y-121632352D01*
X142776386Y-121598294D01*
X142757775Y-121536378D01*
X142741872Y-121484787D01*
X142730109Y-121448130D01*
X142723918Y-121431018D01*
X142722154Y-121429741D01*
X142713571Y-121440779D01*
X142701316Y-121469969D01*
X142687426Y-121512750D01*
X142686692Y-121515263D01*
X142668096Y-121578400D01*
X142646818Y-121649889D01*
X142627321Y-121714734D01*
X142595705Y-121819122D01*
X142537402Y-121815328D01*
X142479098Y-121811535D01*
X142425098Y-121641782D01*
X142401390Y-121567193D01*
X142374833Y-121483539D01*
X142349404Y-121403342D01*
X142328354Y-121336857D01*
X142285609Y-121201683D01*
X142428612Y-121201683D01*
X142463274Y-121330570D01*
X142472488Y-121364625D01*
X142489915Y-121428115D01*
X142506054Y-121485874D01*
X142518322Y-121528614D01*
X142538709Y-121597773D01*
X142668745Y-121207971D01*
X142718476Y-121204237D01*
X142768206Y-121200504D01*
X142832997Y-121399130D01*
G36*
X142832997Y-121399130D02*
G01*
X142849997Y-121449850D01*
X142870107Y-121505997D01*
X142886899Y-121548532D01*
X142898986Y-121573990D01*
X142904980Y-121578903D01*
X142906426Y-121574630D01*
X142914254Y-121548422D01*
X142926723Y-121504649D01*
X142942447Y-121448211D01*
X142960043Y-121384010D01*
X143007914Y-121207971D01*
X143081007Y-121204152D01*
X143087177Y-121203846D01*
X143126592Y-121203441D01*
X143145533Y-121207487D01*
X143147945Y-121216726D01*
X143144898Y-121225749D01*
X143134874Y-121256632D01*
X143119180Y-121305544D01*
X143098934Y-121368987D01*
X143075256Y-121443462D01*
X143049263Y-121525471D01*
X142956736Y-121817822D01*
X142840993Y-121817822D01*
X142786457Y-121632352D01*
X142776386Y-121598294D01*
X142757775Y-121536378D01*
X142741872Y-121484787D01*
X142730109Y-121448130D01*
X142723918Y-121431018D01*
X142722154Y-121429741D01*
X142713571Y-121440779D01*
X142701316Y-121469969D01*
X142687426Y-121512750D01*
X142686692Y-121515263D01*
X142668096Y-121578400D01*
X142646818Y-121649889D01*
X142627321Y-121714734D01*
X142595705Y-121819122D01*
X142537402Y-121815328D01*
X142479098Y-121811535D01*
X142425098Y-121641782D01*
X142401390Y-121567193D01*
X142374833Y-121483539D01*
X142349404Y-121403342D01*
X142328354Y-121336857D01*
X142285609Y-121201683D01*
X142428612Y-121201683D01*
X142463274Y-121330570D01*
X142472488Y-121364625D01*
X142489915Y-121428115D01*
X142506054Y-121485874D01*
X142518322Y-121528614D01*
X142538709Y-121597773D01*
X142668745Y-121207971D01*
X142718476Y-121204237D01*
X142768206Y-121200504D01*
X142832997Y-121399130D01*
G37*
X143690761Y-121556813D02*
X143689167Y-121610571D01*
X143685962Y-121648018D01*
X143685413Y-121651450D01*
X143663838Y-121712835D01*
X143624438Y-121764877D01*
X143572752Y-121800135D01*
X143517248Y-121814729D01*
X143448977Y-121813597D01*
X143386173Y-121794029D01*
X143369815Y-121785771D01*
X143348779Y-121776923D01*
X143340774Y-121779676D01*
X143339505Y-121794029D01*
X143338922Y-121801186D01*
X143331394Y-121811772D01*
X143310488Y-121816645D01*
X143270346Y-121817822D01*
X143201188Y-121817822D01*
X143201188Y-121515930D01*
X143339505Y-121515930D01*
X143340496Y-121568230D01*
X143344519Y-121603050D01*
X143353108Y-121626905D01*
X143367797Y-121646895D01*
X143406584Y-121676618D01*
X143451974Y-121686582D01*
X143495989Y-121674260D01*
X143533060Y-121639888D01*
X143542859Y-121614735D01*
X143550097Y-121570194D01*
X143553279Y-121516155D01*
X143552277Y-121460728D01*
X143546961Y-121412022D01*
X143537204Y-121378148D01*
X143534087Y-121372593D01*
X143504038Y-121344674D01*
X143463315Y-121332306D01*
X143419579Y-121335183D01*
X143380491Y-121353000D01*
X143353710Y-121385452D01*
X143352603Y-121388181D01*
X143345963Y-121418634D01*
X143341278Y-121464139D01*
X143339505Y-121515930D01*
X143201188Y-121515930D01*
X143201188Y-120962773D01*
X143339505Y-120962773D01*
X143339505Y-121255878D01*
X143365124Y-121232693D01*
X143389792Y-121218282D01*
X143436480Y-121206236D01*
X143491056Y-121202354D01*
X143544354Y-121207120D01*
X143587207Y-121221014D01*
X143617878Y-121240779D01*
X143649471Y-121274449D01*
X143670733Y-121319730D01*
X143683514Y-121380981D01*
X143689664Y-121462563D01*
X143690568Y-121495540D01*
X143690633Y-121516155D01*
X143690761Y-121556813D01*
G36*
X143690761Y-121556813D02*
G01*
X143689167Y-121610571D01*
X143685962Y-121648018D01*
X143685413Y-121651450D01*
X143663838Y-121712835D01*
X143624438Y-121764877D01*
X143572752Y-121800135D01*
X143517248Y-121814729D01*
X143448977Y-121813597D01*
X143386173Y-121794029D01*
X143369815Y-121785771D01*
X143348779Y-121776923D01*
X143340774Y-121779676D01*
X143339505Y-121794029D01*
X143338922Y-121801186D01*
X143331394Y-121811772D01*
X143310488Y-121816645D01*
X143270346Y-121817822D01*
X143201188Y-121817822D01*
X143201188Y-121515930D01*
X143339505Y-121515930D01*
X143340496Y-121568230D01*
X143344519Y-121603050D01*
X143353108Y-121626905D01*
X143367797Y-121646895D01*
X143406584Y-121676618D01*
X143451974Y-121686582D01*
X143495989Y-121674260D01*
X143533060Y-121639888D01*
X143542859Y-121614735D01*
X143550097Y-121570194D01*
X143553279Y-121516155D01*
X143552277Y-121460728D01*
X143546961Y-121412022D01*
X143537204Y-121378148D01*
X143534087Y-121372593D01*
X143504038Y-121344674D01*
X143463315Y-121332306D01*
X143419579Y-121335183D01*
X143380491Y-121353000D01*
X143353710Y-121385452D01*
X143352603Y-121388181D01*
X143345963Y-121418634D01*
X143341278Y-121464139D01*
X143339505Y-121515930D01*
X143201188Y-121515930D01*
X143201188Y-120962773D01*
X143339505Y-120962773D01*
X143339505Y-121255878D01*
X143365124Y-121232693D01*
X143389792Y-121218282D01*
X143436480Y-121206236D01*
X143491056Y-121202354D01*
X143544354Y-121207120D01*
X143587207Y-121221014D01*
X143617878Y-121240779D01*
X143649471Y-121274449D01*
X143670733Y-121319730D01*
X143683514Y-121380981D01*
X143689664Y-121462563D01*
X143690568Y-121495540D01*
X143690633Y-121516155D01*
X143690761Y-121556813D01*
G37*
X145864997Y-120594931D02*
X145863373Y-120634310D01*
X145859688Y-120682332D01*
X145853410Y-120716368D01*
X145843044Y-120743338D01*
X145827092Y-120770158D01*
X145826412Y-120771175D01*
X145787132Y-120814629D01*
X145739072Y-120847772D01*
X145683185Y-120867439D01*
X145609666Y-120873824D01*
X145537609Y-120861268D01*
X145473201Y-120831011D01*
X145422627Y-120784294D01*
X145408108Y-120762221D01*
X145380993Y-120693602D01*
X145367546Y-120608939D01*
X145367776Y-120587523D01*
X145502920Y-120587523D01*
X145503174Y-120627574D01*
X145507421Y-120654313D01*
X145517096Y-120674859D01*
X145533638Y-120696331D01*
X145556593Y-120717639D01*
X145602505Y-120736653D01*
X145651802Y-120733122D01*
X145698917Y-120706694D01*
X145712207Y-120694072D01*
X145726397Y-120672465D01*
X145734266Y-120642094D01*
X145738726Y-120594770D01*
X145739955Y-120559219D01*
X145733224Y-120486620D01*
X145712567Y-120434642D01*
X145677894Y-120402999D01*
X145637249Y-120387847D01*
X145588777Y-120389123D01*
X145543845Y-120414703D01*
X145533103Y-120424442D01*
X145519548Y-120441480D01*
X145511505Y-120463772D01*
X145507043Y-120497947D01*
X145504228Y-120550638D01*
X145502920Y-120587523D01*
X145367776Y-120587523D01*
X145368583Y-120512351D01*
X145369907Y-120498651D01*
X145388374Y-120410908D01*
X145422540Y-120342793D01*
X145472479Y-120294231D01*
X145538261Y-120265148D01*
X145619961Y-120255471D01*
X145650828Y-120256379D01*
X145714128Y-120267493D01*
X145765889Y-120294021D01*
X145814147Y-120339436D01*
X145821865Y-120348551D01*
X145842681Y-120379248D01*
X145856362Y-120414007D01*
X145863948Y-120458056D01*
X145866479Y-120516621D01*
X145865672Y-120559219D01*
X145864997Y-120594931D01*
G36*
X145864997Y-120594931D02*
G01*
X145863373Y-120634310D01*
X145859688Y-120682332D01*
X145853410Y-120716368D01*
X145843044Y-120743338D01*
X145827092Y-120770158D01*
X145826412Y-120771175D01*
X145787132Y-120814629D01*
X145739072Y-120847772D01*
X145683185Y-120867439D01*
X145609666Y-120873824D01*
X145537609Y-120861268D01*
X145473201Y-120831011D01*
X145422627Y-120784294D01*
X145408108Y-120762221D01*
X145380993Y-120693602D01*
X145367546Y-120608939D01*
X145367776Y-120587523D01*
X145502920Y-120587523D01*
X145503174Y-120627574D01*
X145507421Y-120654313D01*
X145517096Y-120674859D01*
X145533638Y-120696331D01*
X145556593Y-120717639D01*
X145602505Y-120736653D01*
X145651802Y-120733122D01*
X145698917Y-120706694D01*
X145712207Y-120694072D01*
X145726397Y-120672465D01*
X145734266Y-120642094D01*
X145738726Y-120594770D01*
X145739955Y-120559219D01*
X145733224Y-120486620D01*
X145712567Y-120434642D01*
X145677894Y-120402999D01*
X145637249Y-120387847D01*
X145588777Y-120389123D01*
X145543845Y-120414703D01*
X145533103Y-120424442D01*
X145519548Y-120441480D01*
X145511505Y-120463772D01*
X145507043Y-120497947D01*
X145504228Y-120550638D01*
X145502920Y-120587523D01*
X145367776Y-120587523D01*
X145368583Y-120512351D01*
X145369907Y-120498651D01*
X145388374Y-120410908D01*
X145422540Y-120342793D01*
X145472479Y-120294231D01*
X145538261Y-120265148D01*
X145619961Y-120255471D01*
X145650828Y-120256379D01*
X145714128Y-120267493D01*
X145765889Y-120294021D01*
X145814147Y-120339436D01*
X145821865Y-120348551D01*
X145842681Y-120379248D01*
X145856362Y-120414007D01*
X145863948Y-120458056D01*
X145866479Y-120516621D01*
X145865672Y-120559219D01*
X145864997Y-120594931D01*
G37*
X140619444Y-120519878D02*
X140617825Y-120616121D01*
X140617615Y-120618014D01*
X140599535Y-120706325D01*
X140566870Y-120774986D01*
X140518601Y-120825506D01*
X140453713Y-120859393D01*
X140441801Y-120863268D01*
X140367971Y-120874688D01*
X140291614Y-120868320D01*
X140220626Y-120845563D01*
X140162904Y-120807819D01*
X140119667Y-120767872D01*
X140165625Y-120731532D01*
X140211583Y-120695193D01*
X140266969Y-120722101D01*
X140331056Y-120743905D01*
X140387632Y-120744558D01*
X140433920Y-120724525D01*
X140467230Y-120684315D01*
X140479171Y-120660222D01*
X140485837Y-120639630D01*
X140481980Y-120625720D01*
X140464675Y-120617181D01*
X140430997Y-120612704D01*
X140378021Y-120610978D01*
X140302822Y-120610693D01*
X140120495Y-120610693D01*
X140120495Y-120523492D01*
X140121857Y-120485210D01*
X140250234Y-120485210D01*
X140256399Y-120492251D01*
X140274654Y-120495916D01*
X140309352Y-120497306D01*
X140364846Y-120497525D01*
X140394603Y-120497176D01*
X140441562Y-120494867D01*
X140473416Y-120490822D01*
X140485148Y-120485542D01*
X140482146Y-120466062D01*
X140460988Y-120428786D01*
X140425731Y-120398164D01*
X140383699Y-120379668D01*
X140342220Y-120378773D01*
X140310997Y-120393604D01*
X140275618Y-120427355D01*
X140253122Y-120469233D01*
X140251805Y-120473690D01*
X140250234Y-120485210D01*
X140121857Y-120485210D01*
X140122136Y-120477371D01*
X140126955Y-120431740D01*
X140133840Y-120400893D01*
X140138859Y-120389117D01*
X140175390Y-120336667D01*
X140228175Y-120292921D01*
X140289904Y-120264279D01*
X140322102Y-120256457D01*
X140398820Y-120252896D01*
X140467179Y-120271009D01*
X140525299Y-120308779D01*
X140571302Y-120364191D01*
X140603310Y-120435229D01*
X140612900Y-120485542D01*
X140619444Y-120519878D01*
G36*
X140619444Y-120519878D02*
G01*
X140617825Y-120616121D01*
X140617615Y-120618014D01*
X140599535Y-120706325D01*
X140566870Y-120774986D01*
X140518601Y-120825506D01*
X140453713Y-120859393D01*
X140441801Y-120863268D01*
X140367971Y-120874688D01*
X140291614Y-120868320D01*
X140220626Y-120845563D01*
X140162904Y-120807819D01*
X140119667Y-120767872D01*
X140165625Y-120731532D01*
X140211583Y-120695193D01*
X140266969Y-120722101D01*
X140331056Y-120743905D01*
X140387632Y-120744558D01*
X140433920Y-120724525D01*
X140467230Y-120684315D01*
X140479171Y-120660222D01*
X140485837Y-120639630D01*
X140481980Y-120625720D01*
X140464675Y-120617181D01*
X140430997Y-120612704D01*
X140378021Y-120610978D01*
X140302822Y-120610693D01*
X140120495Y-120610693D01*
X140120495Y-120523492D01*
X140121857Y-120485210D01*
X140250234Y-120485210D01*
X140256399Y-120492251D01*
X140274654Y-120495916D01*
X140309352Y-120497306D01*
X140364846Y-120497525D01*
X140394603Y-120497176D01*
X140441562Y-120494867D01*
X140473416Y-120490822D01*
X140485148Y-120485542D01*
X140482146Y-120466062D01*
X140460988Y-120428786D01*
X140425731Y-120398164D01*
X140383699Y-120379668D01*
X140342220Y-120378773D01*
X140310997Y-120393604D01*
X140275618Y-120427355D01*
X140253122Y-120469233D01*
X140251805Y-120473690D01*
X140250234Y-120485210D01*
X140121857Y-120485210D01*
X140122136Y-120477371D01*
X140126955Y-120431740D01*
X140133840Y-120400893D01*
X140138859Y-120389117D01*
X140175390Y-120336667D01*
X140228175Y-120292921D01*
X140289904Y-120264279D01*
X140322102Y-120256457D01*
X140398820Y-120252896D01*
X140467179Y-120271009D01*
X140525299Y-120308779D01*
X140571302Y-120364191D01*
X140603310Y-120435229D01*
X140612900Y-120485542D01*
X140619444Y-120519878D01*
G37*
X143098874Y-120258207D02*
X143171495Y-120276408D01*
X143224546Y-120310144D01*
X143258329Y-120359642D01*
X143273147Y-120425126D01*
X143270147Y-120487820D01*
X143248493Y-120540699D01*
X143206967Y-120579796D01*
X143144736Y-120605873D01*
X143060969Y-120619695D01*
X143006540Y-120626940D01*
X142956860Y-120642615D01*
X142931211Y-120665314D01*
X142929662Y-120694998D01*
X142939984Y-120713507D01*
X142971951Y-120735443D01*
X143017395Y-120745818D01*
X143070649Y-120744399D01*
X143126048Y-120730952D01*
X143177928Y-120705243D01*
X143229653Y-120671013D01*
X143275148Y-120717049D01*
X143320643Y-120763084D01*
X143282921Y-120793876D01*
X143268253Y-120804574D01*
X143226983Y-120828880D01*
X143182327Y-120849825D01*
X143146984Y-120861845D01*
X143095234Y-120870552D01*
X143031435Y-120870667D01*
X142953200Y-120861081D01*
X142882722Y-120836783D01*
X142832836Y-120798188D01*
X142803423Y-120745198D01*
X142794365Y-120677718D01*
X142800921Y-120618354D01*
X142821970Y-120569752D01*
X142859864Y-120534946D01*
X142917004Y-120511798D01*
X142995785Y-120498170D01*
X143004834Y-120497183D01*
X143053885Y-120490892D01*
X143093675Y-120484309D01*
X143116312Y-120478708D01*
X143123866Y-120474197D01*
X143136637Y-120450941D01*
X143134563Y-120421171D01*
X143117495Y-120395327D01*
X143108533Y-120389691D01*
X143071188Y-120380660D01*
X143022950Y-120381267D01*
X142972650Y-120390878D01*
X142929115Y-120408858D01*
X142883372Y-120435847D01*
X142847890Y-120394384D01*
X142839280Y-120383850D01*
X142819883Y-120355632D01*
X142811897Y-120336508D01*
X142820283Y-120324781D01*
X142846226Y-120306476D01*
X142883688Y-120286777D01*
X142888966Y-120284370D01*
X142938366Y-120265482D01*
X142985983Y-120256452D01*
X143045072Y-120254639D01*
X143098874Y-120258207D01*
G36*
X143098874Y-120258207D02*
G01*
X143171495Y-120276408D01*
X143224546Y-120310144D01*
X143258329Y-120359642D01*
X143273147Y-120425126D01*
X143270147Y-120487820D01*
X143248493Y-120540699D01*
X143206967Y-120579796D01*
X143144736Y-120605873D01*
X143060969Y-120619695D01*
X143006540Y-120626940D01*
X142956860Y-120642615D01*
X142931211Y-120665314D01*
X142929662Y-120694998D01*
X142939984Y-120713507D01*
X142971951Y-120735443D01*
X143017395Y-120745818D01*
X143070649Y-120744399D01*
X143126048Y-120730952D01*
X143177928Y-120705243D01*
X143229653Y-120671013D01*
X143275148Y-120717049D01*
X143320643Y-120763084D01*
X143282921Y-120793876D01*
X143268253Y-120804574D01*
X143226983Y-120828880D01*
X143182327Y-120849825D01*
X143146984Y-120861845D01*
X143095234Y-120870552D01*
X143031435Y-120870667D01*
X142953200Y-120861081D01*
X142882722Y-120836783D01*
X142832836Y-120798188D01*
X142803423Y-120745198D01*
X142794365Y-120677718D01*
X142800921Y-120618354D01*
X142821970Y-120569752D01*
X142859864Y-120534946D01*
X142917004Y-120511798D01*
X142995785Y-120498170D01*
X143004834Y-120497183D01*
X143053885Y-120490892D01*
X143093675Y-120484309D01*
X143116312Y-120478708D01*
X143123866Y-120474197D01*
X143136637Y-120450941D01*
X143134563Y-120421171D01*
X143117495Y-120395327D01*
X143108533Y-120389691D01*
X143071188Y-120380660D01*
X143022950Y-120381267D01*
X142972650Y-120390878D01*
X142929115Y-120408858D01*
X142883372Y-120435847D01*
X142847890Y-120394384D01*
X142839280Y-120383850D01*
X142819883Y-120355632D01*
X142811897Y-120336508D01*
X142820283Y-120324781D01*
X142846226Y-120306476D01*
X142883688Y-120286777D01*
X142888966Y-120284370D01*
X142938366Y-120265482D01*
X142985983Y-120256452D01*
X143045072Y-120254639D01*
X143098874Y-120258207D01*
G37*
X141264353Y-121509753D02*
X141262718Y-121556692D01*
X141247827Y-121646459D01*
X141217185Y-121717045D01*
X141170524Y-121768952D01*
X141107574Y-121802686D01*
X141087235Y-121808647D01*
X141014612Y-121816971D01*
X140937928Y-121809946D01*
X140868663Y-121788265D01*
X140844262Y-121775959D01*
X140809275Y-121754879D01*
X140788072Y-121737534D01*
X140784942Y-121733571D01*
X140779085Y-121719077D01*
X140787524Y-121703321D01*
X140813221Y-121679460D01*
X140825622Y-121669072D01*
X140850052Y-121650063D01*
X140862861Y-121642293D01*
X140866530Y-121643094D01*
X140887561Y-121651745D01*
X140918960Y-121666931D01*
X140929197Y-121671926D01*
X140989590Y-121690475D01*
X141042057Y-121685694D01*
X141088065Y-121657500D01*
X141093419Y-121652291D01*
X141119013Y-121619659D01*
X141133637Y-121588342D01*
X141141736Y-121553763D01*
X140761782Y-121553763D01*
X140761852Y-121487748D01*
X140761892Y-121481182D01*
X140767022Y-121428218D01*
X140900099Y-121428218D01*
X140901670Y-121439203D01*
X140909738Y-121446773D01*
X140928967Y-121450975D01*
X140964019Y-121452783D01*
X141019554Y-121453169D01*
X141050429Y-121452768D01*
X141096002Y-121450429D01*
X141127348Y-121446465D01*
X141139010Y-121441413D01*
X141129064Y-121399827D01*
X141099947Y-121361013D01*
X141057952Y-121334086D01*
X141009440Y-121324772D01*
X140973723Y-121335272D01*
X140938020Y-121360940D01*
X140910879Y-121394381D01*
X140900099Y-121428218D01*
X140767022Y-121428218D01*
X140769758Y-121399965D01*
X140792655Y-121333895D01*
X140832607Y-121276940D01*
X140856979Y-121252848D01*
X140907315Y-121220597D01*
X140967419Y-121204970D01*
X141043338Y-121203871D01*
X141080010Y-121208179D01*
X141147703Y-121230549D01*
X141199530Y-121271263D01*
X141235945Y-121330949D01*
X141257401Y-121410236D01*
X141259579Y-121441413D01*
X141264353Y-121509753D01*
G36*
X141264353Y-121509753D02*
G01*
X141262718Y-121556692D01*
X141247827Y-121646459D01*
X141217185Y-121717045D01*
X141170524Y-121768952D01*
X141107574Y-121802686D01*
X141087235Y-121808647D01*
X141014612Y-121816971D01*
X140937928Y-121809946D01*
X140868663Y-121788265D01*
X140844262Y-121775959D01*
X140809275Y-121754879D01*
X140788072Y-121737534D01*
X140784942Y-121733571D01*
X140779085Y-121719077D01*
X140787524Y-121703321D01*
X140813221Y-121679460D01*
X140825622Y-121669072D01*
X140850052Y-121650063D01*
X140862861Y-121642293D01*
X140866530Y-121643094D01*
X140887561Y-121651745D01*
X140918960Y-121666931D01*
X140929197Y-121671926D01*
X140989590Y-121690475D01*
X141042057Y-121685694D01*
X141088065Y-121657500D01*
X141093419Y-121652291D01*
X141119013Y-121619659D01*
X141133637Y-121588342D01*
X141141736Y-121553763D01*
X140761782Y-121553763D01*
X140761852Y-121487748D01*
X140761892Y-121481182D01*
X140767022Y-121428218D01*
X140900099Y-121428218D01*
X140901670Y-121439203D01*
X140909738Y-121446773D01*
X140928967Y-121450975D01*
X140964019Y-121452783D01*
X141019554Y-121453169D01*
X141050429Y-121452768D01*
X141096002Y-121450429D01*
X141127348Y-121446465D01*
X141139010Y-121441413D01*
X141129064Y-121399827D01*
X141099947Y-121361013D01*
X141057952Y-121334086D01*
X141009440Y-121324772D01*
X140973723Y-121335272D01*
X140938020Y-121360940D01*
X140910879Y-121394381D01*
X140900099Y-121428218D01*
X140767022Y-121428218D01*
X140769758Y-121399965D01*
X140792655Y-121333895D01*
X140832607Y-121276940D01*
X140856979Y-121252848D01*
X140907315Y-121220597D01*
X140967419Y-121204970D01*
X141043338Y-121203871D01*
X141080010Y-121208179D01*
X141147703Y-121230549D01*
X141199530Y-121271263D01*
X141235945Y-121330949D01*
X141257401Y-121410236D01*
X141259579Y-121441413D01*
X141264353Y-121509753D01*
G37*
X144707022Y-120484861D02*
X144711421Y-120572936D01*
X144710322Y-120611371D01*
X144697926Y-120695367D01*
X144670608Y-120761595D01*
X144626941Y-120812784D01*
X144565495Y-120851663D01*
X144505888Y-120869812D01*
X144431110Y-120873284D01*
X144355664Y-120859930D01*
X144288366Y-120830425D01*
X144263428Y-120814012D01*
X144235951Y-120792973D01*
X144223414Y-120779129D01*
X144224124Y-120773417D01*
X144238158Y-120753955D01*
X144264533Y-120730376D01*
X144310240Y-120695513D01*
X144363799Y-120722262D01*
X144378282Y-120728882D01*
X144420916Y-120743273D01*
X144456649Y-120749010D01*
X144482998Y-120744282D01*
X144524347Y-120721514D01*
X144559104Y-120686170D01*
X144578983Y-120645273D01*
X144587083Y-120610693D01*
X144207129Y-120610693D01*
X144207199Y-120544679D01*
X144207774Y-120523757D01*
X144211972Y-120478862D01*
X144345445Y-120478862D01*
X144345690Y-120481434D01*
X144352604Y-120489443D01*
X144372141Y-120494364D01*
X144408467Y-120496843D01*
X144465748Y-120497525D01*
X144484575Y-120497517D01*
X144533470Y-120497065D01*
X144562863Y-120495113D01*
X144577115Y-120490558D01*
X144580582Y-120482299D01*
X144577625Y-120469233D01*
X144577173Y-120467752D01*
X144551699Y-120422285D01*
X144511539Y-120390981D01*
X144463651Y-120379327D01*
X144445949Y-120380259D01*
X144413094Y-120391408D01*
X144381575Y-120419763D01*
X144373085Y-120429789D01*
X144353336Y-120458423D01*
X144345445Y-120478862D01*
X144211972Y-120478862D01*
X144212512Y-120473091D01*
X144220459Y-120431166D01*
X144229168Y-120407696D01*
X144259790Y-120356646D01*
X144300799Y-120310283D01*
X144344168Y-120278514D01*
X144356699Y-120272614D01*
X144429661Y-120253046D01*
X144504168Y-120255109D01*
X144574217Y-120277931D01*
X144633807Y-120320639D01*
X144666038Y-120360025D01*
X144692392Y-120415510D01*
X144706482Y-120482299D01*
X144707022Y-120484861D01*
G36*
X144707022Y-120484861D02*
G01*
X144711421Y-120572936D01*
X144710322Y-120611371D01*
X144697926Y-120695367D01*
X144670608Y-120761595D01*
X144626941Y-120812784D01*
X144565495Y-120851663D01*
X144505888Y-120869812D01*
X144431110Y-120873284D01*
X144355664Y-120859930D01*
X144288366Y-120830425D01*
X144263428Y-120814012D01*
X144235951Y-120792973D01*
X144223414Y-120779129D01*
X144224124Y-120773417D01*
X144238158Y-120753955D01*
X144264533Y-120730376D01*
X144310240Y-120695513D01*
X144363799Y-120722262D01*
X144378282Y-120728882D01*
X144420916Y-120743273D01*
X144456649Y-120749010D01*
X144482998Y-120744282D01*
X144524347Y-120721514D01*
X144559104Y-120686170D01*
X144578983Y-120645273D01*
X144587083Y-120610693D01*
X144207129Y-120610693D01*
X144207199Y-120544679D01*
X144207774Y-120523757D01*
X144211972Y-120478862D01*
X144345445Y-120478862D01*
X144345690Y-120481434D01*
X144352604Y-120489443D01*
X144372141Y-120494364D01*
X144408467Y-120496843D01*
X144465748Y-120497525D01*
X144484575Y-120497517D01*
X144533470Y-120497065D01*
X144562863Y-120495113D01*
X144577115Y-120490558D01*
X144580582Y-120482299D01*
X144577625Y-120469233D01*
X144577173Y-120467752D01*
X144551699Y-120422285D01*
X144511539Y-120390981D01*
X144463651Y-120379327D01*
X144445949Y-120380259D01*
X144413094Y-120391408D01*
X144381575Y-120419763D01*
X144373085Y-120429789D01*
X144353336Y-120458423D01*
X144345445Y-120478862D01*
X144211972Y-120478862D01*
X144212512Y-120473091D01*
X144220459Y-120431166D01*
X144229168Y-120407696D01*
X144259790Y-120356646D01*
X144300799Y-120310283D01*
X144344168Y-120278514D01*
X144356699Y-120272614D01*
X144429661Y-120253046D01*
X144504168Y-120255109D01*
X144574217Y-120277931D01*
X144633807Y-120320639D01*
X144666038Y-120360025D01*
X144692392Y-120415510D01*
X144706482Y-120482299D01*
X144707022Y-120484861D01*
G37*
X142289413Y-121652333D02*
X142274244Y-121709419D01*
X142241277Y-121758255D01*
X142191270Y-121793386D01*
X142186362Y-121795521D01*
X142131646Y-121810903D01*
X142069993Y-121816899D01*
X142011376Y-121813233D01*
X141965767Y-121799629D01*
X141947549Y-121790754D01*
X141934179Y-121788637D01*
X141931188Y-121799706D01*
X141925524Y-121809942D01*
X141903607Y-121816038D01*
X141861068Y-121817822D01*
X141790948Y-121817822D01*
X141795053Y-121575768D01*
X141795492Y-121553763D01*
X141931188Y-121553763D01*
X141931188Y-121597773D01*
X141935924Y-121630666D01*
X141956336Y-121666931D01*
X141963871Y-121673597D01*
X141994753Y-121687620D01*
X142041213Y-121691228D01*
X142069090Y-121689819D01*
X142121255Y-121679204D01*
X142153587Y-121659425D01*
X142164492Y-121631824D01*
X142152374Y-121597743D01*
X142145304Y-121588824D01*
X142113724Y-121568818D01*
X142063744Y-121557395D01*
X141992487Y-121553763D01*
X141931188Y-121553763D01*
X141795492Y-121553763D01*
X141796169Y-121519794D01*
X141799106Y-121435996D01*
X141804058Y-121371920D01*
X141812002Y-121324073D01*
X141823917Y-121288962D01*
X141840780Y-121263093D01*
X141863572Y-121242974D01*
X141893269Y-121225110D01*
X141908589Y-121218290D01*
X141961589Y-121205417D01*
X142025513Y-121200095D01*
X142091602Y-121202227D01*
X142151099Y-121211714D01*
X142195247Y-121228461D01*
X142210604Y-121238185D01*
X142245960Y-121267005D01*
X142257926Y-121291137D01*
X142255020Y-121295800D01*
X142236909Y-121312088D01*
X142207672Y-121333817D01*
X142192725Y-121343987D01*
X142167270Y-121358397D01*
X142150728Y-121359773D01*
X142135370Y-121349827D01*
X142097094Y-121329684D01*
X142045590Y-121321400D01*
X141992957Y-121327742D01*
X141991961Y-121328030D01*
X141954838Y-121344158D01*
X141936463Y-121369405D01*
X141931380Y-121411158D01*
X141931188Y-121450879D01*
X142062423Y-121455168D01*
X142083331Y-121455873D01*
X142136043Y-121458326D01*
X142171381Y-121462180D01*
X142195267Y-121468878D01*
X142213624Y-121479864D01*
X142232376Y-121496580D01*
X142263337Y-121535244D01*
X142286029Y-121592456D01*
X142288254Y-121631824D01*
X142289413Y-121652333D01*
G36*
X142289413Y-121652333D02*
G01*
X142274244Y-121709419D01*
X142241277Y-121758255D01*
X142191270Y-121793386D01*
X142186362Y-121795521D01*
X142131646Y-121810903D01*
X142069993Y-121816899D01*
X142011376Y-121813233D01*
X141965767Y-121799629D01*
X141947549Y-121790754D01*
X141934179Y-121788637D01*
X141931188Y-121799706D01*
X141925524Y-121809942D01*
X141903607Y-121816038D01*
X141861068Y-121817822D01*
X141790948Y-121817822D01*
X141795053Y-121575768D01*
X141795492Y-121553763D01*
X141931188Y-121553763D01*
X141931188Y-121597773D01*
X141935924Y-121630666D01*
X141956336Y-121666931D01*
X141963871Y-121673597D01*
X141994753Y-121687620D01*
X142041213Y-121691228D01*
X142069090Y-121689819D01*
X142121255Y-121679204D01*
X142153587Y-121659425D01*
X142164492Y-121631824D01*
X142152374Y-121597743D01*
X142145304Y-121588824D01*
X142113724Y-121568818D01*
X142063744Y-121557395D01*
X141992487Y-121553763D01*
X141931188Y-121553763D01*
X141795492Y-121553763D01*
X141796169Y-121519794D01*
X141799106Y-121435996D01*
X141804058Y-121371920D01*
X141812002Y-121324073D01*
X141823917Y-121288962D01*
X141840780Y-121263093D01*
X141863572Y-121242974D01*
X141893269Y-121225110D01*
X141908589Y-121218290D01*
X141961589Y-121205417D01*
X142025513Y-121200095D01*
X142091602Y-121202227D01*
X142151099Y-121211714D01*
X142195247Y-121228461D01*
X142210604Y-121238185D01*
X142245960Y-121267005D01*
X142257926Y-121291137D01*
X142255020Y-121295800D01*
X142236909Y-121312088D01*
X142207672Y-121333817D01*
X142192725Y-121343987D01*
X142167270Y-121358397D01*
X142150728Y-121359773D01*
X142135370Y-121349827D01*
X142097094Y-121329684D01*
X142045590Y-121321400D01*
X141992957Y-121327742D01*
X141991961Y-121328030D01*
X141954838Y-121344158D01*
X141936463Y-121369405D01*
X141931380Y-121411158D01*
X141931188Y-121450879D01*
X142062423Y-121455168D01*
X142083331Y-121455873D01*
X142136043Y-121458326D01*
X142171381Y-121462180D01*
X142195267Y-121468878D01*
X142213624Y-121479864D01*
X142232376Y-121496580D01*
X142263337Y-121535244D01*
X142286029Y-121592456D01*
X142288254Y-121631824D01*
X142289413Y-121652333D01*
G37*
X144707299Y-121650223D02*
X144707157Y-121651882D01*
X144691835Y-121716479D01*
X144657753Y-121765063D01*
X144603218Y-121800072D01*
X144575036Y-121808589D01*
X144526764Y-121815228D01*
X144473978Y-121816813D01*
X144426353Y-121813160D01*
X144393566Y-121804083D01*
X144373652Y-121796813D01*
X144354155Y-121804083D01*
X144347023Y-121808295D01*
X144318557Y-121815126D01*
X144280059Y-121817822D01*
X144219703Y-121817822D01*
X144219703Y-121574484D01*
X144219707Y-121553763D01*
X144358020Y-121553763D01*
X144358020Y-121602111D01*
X144362668Y-121638904D01*
X144381015Y-121671269D01*
X144391514Y-121678274D01*
X144428988Y-121689191D01*
X144475773Y-121691917D01*
X144521652Y-121686379D01*
X144556410Y-121672505D01*
X144573726Y-121654161D01*
X144584356Y-121621566D01*
X144574929Y-121595729D01*
X144543764Y-121573263D01*
X144493667Y-121558850D01*
X144427582Y-121553763D01*
X144358020Y-121553763D01*
X144219707Y-121553763D01*
X144219707Y-121553440D01*
X144219937Y-121474122D01*
X144220797Y-121415154D01*
X144222679Y-121372616D01*
X144225974Y-121342592D01*
X144231073Y-121321163D01*
X144238366Y-121304411D01*
X144248246Y-121288419D01*
X144280023Y-121250948D01*
X144325055Y-121222339D01*
X144384210Y-121206555D01*
X144462161Y-121201703D01*
X144464695Y-121201708D01*
X144518880Y-121204155D01*
X144567380Y-121210256D01*
X144600478Y-121218809D01*
X144609552Y-121223096D01*
X144638433Y-121241248D01*
X144664568Y-121262822D01*
X144681764Y-121282236D01*
X144683825Y-121293909D01*
X144679803Y-121297063D01*
X144635976Y-121330739D01*
X144606671Y-121350600D01*
X144587294Y-121358613D01*
X144573253Y-121356746D01*
X144559957Y-121346965D01*
X144535418Y-121334756D01*
X144494064Y-121326615D01*
X144447326Y-121324503D01*
X144405034Y-121328800D01*
X144377017Y-121339887D01*
X144375543Y-121341236D01*
X144362953Y-121366581D01*
X144358020Y-121404411D01*
X144358020Y-121453169D01*
X144474331Y-121453216D01*
X144527760Y-121454061D01*
X144572735Y-121457740D01*
X144604907Y-121465309D01*
X144630899Y-121477808D01*
X144636948Y-121481647D01*
X144680710Y-121523845D01*
X144703987Y-121579647D01*
X144705955Y-121621566D01*
X144707299Y-121650223D01*
G36*
X144707299Y-121650223D02*
G01*
X144707157Y-121651882D01*
X144691835Y-121716479D01*
X144657753Y-121765063D01*
X144603218Y-121800072D01*
X144575036Y-121808589D01*
X144526764Y-121815228D01*
X144473978Y-121816813D01*
X144426353Y-121813160D01*
X144393566Y-121804083D01*
X144373652Y-121796813D01*
X144354155Y-121804083D01*
X144347023Y-121808295D01*
X144318557Y-121815126D01*
X144280059Y-121817822D01*
X144219703Y-121817822D01*
X144219703Y-121574484D01*
X144219707Y-121553763D01*
X144358020Y-121553763D01*
X144358020Y-121602111D01*
X144362668Y-121638904D01*
X144381015Y-121671269D01*
X144391514Y-121678274D01*
X144428988Y-121689191D01*
X144475773Y-121691917D01*
X144521652Y-121686379D01*
X144556410Y-121672505D01*
X144573726Y-121654161D01*
X144584356Y-121621566D01*
X144574929Y-121595729D01*
X144543764Y-121573263D01*
X144493667Y-121558850D01*
X144427582Y-121553763D01*
X144358020Y-121553763D01*
X144219707Y-121553763D01*
X144219707Y-121553440D01*
X144219937Y-121474122D01*
X144220797Y-121415154D01*
X144222679Y-121372616D01*
X144225974Y-121342592D01*
X144231073Y-121321163D01*
X144238366Y-121304411D01*
X144248246Y-121288419D01*
X144280023Y-121250948D01*
X144325055Y-121222339D01*
X144384210Y-121206555D01*
X144462161Y-121201703D01*
X144464695Y-121201708D01*
X144518880Y-121204155D01*
X144567380Y-121210256D01*
X144600478Y-121218809D01*
X144609552Y-121223096D01*
X144638433Y-121241248D01*
X144664568Y-121262822D01*
X144681764Y-121282236D01*
X144683825Y-121293909D01*
X144679803Y-121297063D01*
X144635976Y-121330739D01*
X144606671Y-121350600D01*
X144587294Y-121358613D01*
X144573253Y-121356746D01*
X144559957Y-121346965D01*
X144535418Y-121334756D01*
X144494064Y-121326615D01*
X144447326Y-121324503D01*
X144405034Y-121328800D01*
X144377017Y-121339887D01*
X144375543Y-121341236D01*
X144362953Y-121366581D01*
X144358020Y-121404411D01*
X144358020Y-121453169D01*
X144474331Y-121453216D01*
X144527760Y-121454061D01*
X144572735Y-121457740D01*
X144604907Y-121465309D01*
X144630899Y-121477808D01*
X144636948Y-121481647D01*
X144680710Y-121523845D01*
X144703987Y-121579647D01*
X144705955Y-121621566D01*
X144707299Y-121650223D01*
G37*
X145275940Y-121819136D02*
X145209926Y-121815336D01*
X145143911Y-121811535D01*
X145140772Y-121610347D01*
X145139844Y-121561425D01*
X145137208Y-121487926D01*
X145132683Y-121433991D01*
X145125438Y-121395995D01*
X145114642Y-121370313D01*
X145099462Y-121353320D01*
X145079066Y-121341389D01*
X145040797Y-121329205D01*
X145002738Y-121333940D01*
X144962549Y-121359979D01*
X144923861Y-121392533D01*
X144923861Y-121817822D01*
X144785544Y-121817822D01*
X144785544Y-121587176D01*
X144785677Y-121514882D01*
X144786413Y-121450641D01*
X144788181Y-121403618D01*
X144791411Y-121369548D01*
X144796530Y-121344170D01*
X144803967Y-121323221D01*
X144814150Y-121302436D01*
X144816564Y-121298024D01*
X144848675Y-121255047D01*
X144886256Y-121225013D01*
X144931564Y-121209243D01*
X144991561Y-121202222D01*
X145051643Y-121206025D01*
X145100525Y-121220868D01*
X145137624Y-121240052D01*
X145137624Y-120824859D01*
X145086792Y-120851354D01*
X145065558Y-120860980D01*
X144998536Y-120874592D01*
X144931930Y-120865184D01*
X144870187Y-120833905D01*
X144817757Y-120781902D01*
X144809543Y-120769680D01*
X144801649Y-120751763D01*
X144796500Y-120727404D01*
X144793527Y-120691927D01*
X144792161Y-120640656D01*
X144791915Y-120587236D01*
X144924749Y-120587236D01*
X144924861Y-120631849D01*
X144928272Y-120661601D01*
X144935937Y-120682835D01*
X144948814Y-120701896D01*
X144965171Y-120719617D01*
X144991329Y-120733028D01*
X145030742Y-120736436D01*
X145065559Y-120733471D01*
X145100020Y-120718631D01*
X145122215Y-120688569D01*
X145134097Y-120640254D01*
X145137624Y-120570650D01*
X145136712Y-120533624D01*
X145127609Y-120463728D01*
X145108828Y-120416464D01*
X145080476Y-120392168D01*
X145051840Y-120385332D01*
X145001970Y-120388537D01*
X144959833Y-120408380D01*
X144949749Y-120417480D01*
X144939063Y-120433223D01*
X144932456Y-120456658D01*
X144928532Y-120493604D01*
X144925897Y-120549880D01*
X144924749Y-120587236D01*
X144791915Y-120587236D01*
X144791831Y-120568917D01*
X144791944Y-120536184D01*
X144793872Y-120460044D01*
X144799240Y-120403166D01*
X144809406Y-120361249D01*
X144825725Y-120329996D01*
X144849553Y-120305106D01*
X144882247Y-120282282D01*
X144908759Y-120269184D01*
X144971615Y-120254739D01*
X145037869Y-120256707D01*
X145096757Y-120275433D01*
X145122030Y-120287673D01*
X145134742Y-120288938D01*
X145137624Y-120277798D01*
X145137626Y-120277461D01*
X145143838Y-120266087D01*
X145165260Y-120260256D01*
X145206782Y-120258614D01*
X145275940Y-120258614D01*
X145275940Y-120570650D01*
X145275940Y-121819136D01*
G36*
X145275940Y-121819136D02*
G01*
X145209926Y-121815336D01*
X145143911Y-121811535D01*
X145140772Y-121610347D01*
X145139844Y-121561425D01*
X145137208Y-121487926D01*
X145132683Y-121433991D01*
X145125438Y-121395995D01*
X145114642Y-121370313D01*
X145099462Y-121353320D01*
X145079066Y-121341389D01*
X145040797Y-121329205D01*
X145002738Y-121333940D01*
X144962549Y-121359979D01*
X144923861Y-121392533D01*
X144923861Y-121817822D01*
X144785544Y-121817822D01*
X144785544Y-121587176D01*
X144785677Y-121514882D01*
X144786413Y-121450641D01*
X144788181Y-121403618D01*
X144791411Y-121369548D01*
X144796530Y-121344170D01*
X144803967Y-121323221D01*
X144814150Y-121302436D01*
X144816564Y-121298024D01*
X144848675Y-121255047D01*
X144886256Y-121225013D01*
X144931564Y-121209243D01*
X144991561Y-121202222D01*
X145051643Y-121206025D01*
X145100525Y-121220868D01*
X145137624Y-121240052D01*
X145137624Y-120824859D01*
X145086792Y-120851354D01*
X145065558Y-120860980D01*
X144998536Y-120874592D01*
X144931930Y-120865184D01*
X144870187Y-120833905D01*
X144817757Y-120781902D01*
X144809543Y-120769680D01*
X144801649Y-120751763D01*
X144796500Y-120727404D01*
X144793527Y-120691927D01*
X144792161Y-120640656D01*
X144791915Y-120587236D01*
X144924749Y-120587236D01*
X144924861Y-120631849D01*
X144928272Y-120661601D01*
X144935937Y-120682835D01*
X144948814Y-120701896D01*
X144965171Y-120719617D01*
X144991329Y-120733028D01*
X145030742Y-120736436D01*
X145065559Y-120733471D01*
X145100020Y-120718631D01*
X145122215Y-120688569D01*
X145134097Y-120640254D01*
X145137624Y-120570650D01*
X145136712Y-120533624D01*
X145127609Y-120463728D01*
X145108828Y-120416464D01*
X145080476Y-120392168D01*
X145051840Y-120385332D01*
X145001970Y-120388537D01*
X144959833Y-120408380D01*
X144949749Y-120417480D01*
X144939063Y-120433223D01*
X144932456Y-120456658D01*
X144928532Y-120493604D01*
X144925897Y-120549880D01*
X144924749Y-120587236D01*
X144791915Y-120587236D01*
X144791831Y-120568917D01*
X144791944Y-120536184D01*
X144793872Y-120460044D01*
X144799240Y-120403166D01*
X144809406Y-120361249D01*
X144825725Y-120329996D01*
X144849553Y-120305106D01*
X144882247Y-120282282D01*
X144908759Y-120269184D01*
X144971615Y-120254739D01*
X145037869Y-120256707D01*
X145096757Y-120275433D01*
X145122030Y-120287673D01*
X145134742Y-120288938D01*
X145137624Y-120277798D01*
X145137626Y-120277461D01*
X145143838Y-120266087D01*
X145165260Y-120260256D01*
X145206782Y-120258614D01*
X145275940Y-120258614D01*
X145275940Y-120570650D01*
X145275940Y-121819136D01*
G37*
X143364389Y-116090018D02*
X143421237Y-116391570D01*
X143631001Y-116478041D01*
X143840764Y-116564512D01*
X144092410Y-116393395D01*
X144142216Y-116359661D01*
X144208244Y-116315381D01*
X144265410Y-116277561D01*
X144310744Y-116248142D01*
X144341280Y-116229067D01*
X144354046Y-116222278D01*
X144361887Y-116227106D01*
X144385325Y-116247339D01*
X144420794Y-116280543D01*
X144465289Y-116323670D01*
X144515805Y-116373670D01*
X144569336Y-116427495D01*
X144622877Y-116482095D01*
X144673423Y-116534423D01*
X144717968Y-116581428D01*
X144753507Y-116620063D01*
X144777034Y-116647278D01*
X144785544Y-116660024D01*
X144783565Y-116665500D01*
X144769857Y-116689927D01*
X144744825Y-116730129D01*
X144710499Y-116782952D01*
X144668907Y-116845247D01*
X144622079Y-116913862D01*
X144596380Y-116951283D01*
X144552173Y-117016432D01*
X144514272Y-117073289D01*
X144484698Y-117118770D01*
X144465472Y-117149793D01*
X144458614Y-117163274D01*
X144458726Y-117164021D01*
X144464776Y-117181110D01*
X144478654Y-117216006D01*
X144498427Y-117264151D01*
X144522160Y-117320986D01*
X144547918Y-117381953D01*
X144573766Y-117442492D01*
X144597771Y-117498047D01*
X144617998Y-117544057D01*
X144632511Y-117575965D01*
X144639377Y-117589212D01*
X144643439Y-117590387D01*
X144668121Y-117595687D01*
X144712111Y-117604467D01*
X144771887Y-117616040D01*
X144843929Y-117629721D01*
X144924716Y-117644823D01*
X144967294Y-117652830D01*
X145045445Y-117668107D01*
X145113775Y-117682215D01*
X145168551Y-117694345D01*
X145206037Y-117703686D01*
X145222500Y-117709427D01*
X145225457Y-117715119D01*
X145230362Y-117742930D01*
X145234216Y-117789250D01*
X145237021Y-117849720D01*
X145238781Y-117919983D01*
X145239499Y-117995680D01*
X145239177Y-118072453D01*
X145237819Y-118145944D01*
X145235428Y-118211794D01*
X145232006Y-118265645D01*
X145227556Y-118303138D01*
X145222082Y-118319916D01*
X145218760Y-118321809D01*
X145193987Y-118329926D01*
X145151011Y-118340666D01*
X145094802Y-118352853D01*
X145030325Y-118365310D01*
X145008570Y-118369277D01*
X144908093Y-118387729D01*
X144829126Y-118402559D01*
X144768934Y-118414380D01*
X144724778Y-118423809D01*
X144693920Y-118431460D01*
X144673625Y-118437948D01*
X144661154Y-118443888D01*
X144653771Y-118449894D01*
X144652913Y-118450902D01*
X144640838Y-118471919D01*
X144622971Y-118510376D01*
X144601042Y-118561761D01*
X144576784Y-118621563D01*
X144551927Y-118685270D01*
X144528205Y-118748371D01*
X144507347Y-118806355D01*
X144491087Y-118854709D01*
X144481156Y-118888922D01*
X144479285Y-118904483D01*
X144480536Y-118906502D01*
X144493486Y-118926028D01*
X144517840Y-118962042D01*
X144551340Y-119011228D01*
X144591727Y-119070267D01*
X144636745Y-119135842D01*
X144649100Y-119153884D01*
X144692545Y-119218599D01*
X144730091Y-119276476D01*
X144759594Y-119324082D01*
X144778914Y-119357985D01*
X144785905Y-119374752D01*
X144784398Y-119379161D01*
X144768695Y-119400882D01*
X144737714Y-119436354D01*
X144693673Y-119483188D01*
X144638790Y-119538996D01*
X144575286Y-119601392D01*
X144538988Y-119636317D01*
X144481595Y-119690711D01*
X144431361Y-119737302D01*
X144390984Y-119773636D01*
X144363161Y-119797261D01*
X144350590Y-119805724D01*
X144341952Y-119802587D01*
X144315360Y-119787747D01*
X144276741Y-119763477D01*
X144231134Y-119732852D01*
X144198707Y-119710503D01*
X144133970Y-119666122D01*
X144064886Y-119618987D01*
X144001787Y-119576155D01*
X143878178Y-119492547D01*
X143774417Y-119548650D01*
X143749984Y-119561599D01*
X143705552Y-119583749D01*
X143671191Y-119599041D01*
X143652828Y-119604743D01*
X143646818Y-119597421D01*
X143631895Y-119569541D01*
X143609852Y-119523575D01*
X143581917Y-119462441D01*
X143549317Y-119389055D01*
X143513276Y-119306335D01*
X143475023Y-119217197D01*
X143435783Y-119124559D01*
X143396783Y-119031337D01*
X143359249Y-118940450D01*
X143324409Y-118854814D01*
X143293488Y-118777345D01*
X143267714Y-118710962D01*
X143248311Y-118658582D01*
X143236508Y-118623121D01*
X143233531Y-118607496D01*
X143233732Y-118607039D01*
X143247601Y-118592595D01*
X143276611Y-118569974D01*
X143314772Y-118543864D01*
X143326817Y-118535892D01*
X143418469Y-118460256D01*
X143494323Y-118370169D01*
X143552581Y-118269381D01*
X143591448Y-118161640D01*
X143609128Y-118050697D01*
X143603826Y-117940303D01*
X143582347Y-117842115D01*
X143543782Y-117742966D01*
X143487562Y-117654512D01*
X143410410Y-117570487D01*
X143380095Y-117543645D01*
X143282094Y-117477510D01*
X143176227Y-117432970D01*
X143065561Y-117409625D01*
X142953164Y-117407078D01*
X142842105Y-117424929D01*
X142735451Y-117462780D01*
X142636270Y-117520232D01*
X142547631Y-117596887D01*
X142472600Y-117692345D01*
X142458175Y-117715985D01*
X142409143Y-117824034D01*
X142383103Y-117936548D01*
X142379372Y-118050614D01*
X142397268Y-118163318D01*
X142436109Y-118271745D01*
X142495214Y-118372982D01*
X142573900Y-118464114D01*
X142671485Y-118542228D01*
X142674654Y-118544333D01*
X142712411Y-118570940D01*
X142740709Y-118593561D01*
X142753634Y-118607496D01*
X142752003Y-118618421D01*
X142741864Y-118650231D01*
X142723884Y-118699534D01*
X142699292Y-118763413D01*
X142669311Y-118838948D01*
X142635170Y-118923223D01*
X142598092Y-119013320D01*
X142559306Y-119106321D01*
X142520036Y-119199308D01*
X142481509Y-119289364D01*
X142444950Y-119373571D01*
X142411586Y-119449010D01*
X142382643Y-119512765D01*
X142359346Y-119561917D01*
X142342923Y-119593549D01*
X142334598Y-119604743D01*
X142327674Y-119603227D01*
X142300477Y-119592331D01*
X142260280Y-119573228D01*
X142213009Y-119548650D01*
X142109248Y-119492547D01*
X141985639Y-119576155D01*
X141949120Y-119600913D01*
X141881194Y-119647171D01*
X141813475Y-119693503D01*
X141756291Y-119732852D01*
X141724732Y-119754297D01*
X141683714Y-119780939D01*
X141653301Y-119799178D01*
X141638446Y-119805941D01*
X141632065Y-119803070D01*
X141608996Y-119785485D01*
X141573433Y-119754523D01*
X141528471Y-119713231D01*
X141477206Y-119664653D01*
X141422733Y-119611835D01*
X141368148Y-119557823D01*
X141316547Y-119505661D01*
X141271024Y-119458396D01*
X141234675Y-119419072D01*
X141210595Y-119390736D01*
X141201881Y-119376432D01*
X141202383Y-119373711D01*
X141212755Y-119351560D01*
X141234912Y-119313235D01*
X141266712Y-119262200D01*
X141306016Y-119201914D01*
X141350681Y-119135842D01*
X141363207Y-119117617D01*
X141407193Y-119053485D01*
X141445937Y-118996789D01*
X141477182Y-118950844D01*
X141498669Y-118918970D01*
X141508140Y-118904483D01*
X141508373Y-118903862D01*
X141505578Y-118886139D01*
X141494903Y-118850235D01*
X141478081Y-118800662D01*
X141456843Y-118741932D01*
X141432921Y-118678556D01*
X141408046Y-118615046D01*
X141383950Y-118555913D01*
X141362365Y-118505669D01*
X141345023Y-118468826D01*
X141333655Y-118449894D01*
X141332516Y-118448719D01*
X141324376Y-118442773D01*
X141310629Y-118436776D01*
X141288537Y-118430114D01*
X141255363Y-118422173D01*
X141208370Y-118412337D01*
X141144820Y-118399991D01*
X141061976Y-118384520D01*
X140957100Y-118365310D01*
X140935348Y-118361267D01*
X140873036Y-118348769D01*
X140820619Y-118336927D01*
X140783066Y-118326917D01*
X140765343Y-118319916D01*
X140762378Y-118314075D01*
X140757435Y-118286016D01*
X140753518Y-118239500D01*
X140750629Y-118178886D01*
X140748773Y-118108532D01*
X140747952Y-118032796D01*
X140748168Y-117956037D01*
X140749426Y-117882612D01*
X140751728Y-117816880D01*
X140755076Y-117763200D01*
X140759474Y-117725930D01*
X140764926Y-117709427D01*
X140770491Y-117706989D01*
X140798178Y-117699305D01*
X140844979Y-117688436D01*
X140907157Y-117675192D01*
X140980979Y-117660384D01*
X141062710Y-117644823D01*
X141107336Y-117636509D01*
X141183824Y-117622092D01*
X141249660Y-117609467D01*
X141301323Y-117599321D01*
X141335293Y-117592341D01*
X141348048Y-117589212D01*
X141348528Y-117588568D01*
X141356651Y-117572181D01*
X141372137Y-117537852D01*
X141393050Y-117490136D01*
X141417455Y-117433586D01*
X141443416Y-117372758D01*
X141468997Y-117312206D01*
X141492262Y-117256485D01*
X141511277Y-117210150D01*
X141524105Y-117177755D01*
X141528812Y-117163855D01*
X141526736Y-117158965D01*
X141512920Y-117135692D01*
X141487860Y-117096519D01*
X141453568Y-117044520D01*
X141412059Y-116982768D01*
X141365346Y-116914336D01*
X141339718Y-116876860D01*
X141295490Y-116811156D01*
X141257570Y-116753492D01*
X141227980Y-116707014D01*
X141208743Y-116674865D01*
X141201881Y-116660190D01*
X141206649Y-116652230D01*
X141226593Y-116628446D01*
X141259313Y-116592451D01*
X141301805Y-116547295D01*
X141351065Y-116496028D01*
X141404091Y-116441701D01*
X141457877Y-116387364D01*
X141509421Y-116336067D01*
X141555720Y-116290859D01*
X141593769Y-116254792D01*
X141620565Y-116230914D01*
X141633105Y-116222278D01*
X141640066Y-116225636D01*
X141665627Y-116241210D01*
X141706874Y-116267715D01*
X141760837Y-116303210D01*
X141824542Y-116345750D01*
X141895016Y-116393395D01*
X142146662Y-116564512D01*
X142566188Y-116391570D01*
X142623036Y-116090018D01*
X142679885Y-115788466D01*
X143307540Y-115788466D01*
X143364389Y-116090018D01*
G36*
X143364389Y-116090018D02*
G01*
X143421237Y-116391570D01*
X143631001Y-116478041D01*
X143840764Y-116564512D01*
X144092410Y-116393395D01*
X144142216Y-116359661D01*
X144208244Y-116315381D01*
X144265410Y-116277561D01*
X144310744Y-116248142D01*
X144341280Y-116229067D01*
X144354046Y-116222278D01*
X144361887Y-116227106D01*
X144385325Y-116247339D01*
X144420794Y-116280543D01*
X144465289Y-116323670D01*
X144515805Y-116373670D01*
X144569336Y-116427495D01*
X144622877Y-116482095D01*
X144673423Y-116534423D01*
X144717968Y-116581428D01*
X144753507Y-116620063D01*
X144777034Y-116647278D01*
X144785544Y-116660024D01*
X144783565Y-116665500D01*
X144769857Y-116689927D01*
X144744825Y-116730129D01*
X144710499Y-116782952D01*
X144668907Y-116845247D01*
X144622079Y-116913862D01*
X144596380Y-116951283D01*
X144552173Y-117016432D01*
X144514272Y-117073289D01*
X144484698Y-117118770D01*
X144465472Y-117149793D01*
X144458614Y-117163274D01*
X144458726Y-117164021D01*
X144464776Y-117181110D01*
X144478654Y-117216006D01*
X144498427Y-117264151D01*
X144522160Y-117320986D01*
X144547918Y-117381953D01*
X144573766Y-117442492D01*
X144597771Y-117498047D01*
X144617998Y-117544057D01*
X144632511Y-117575965D01*
X144639377Y-117589212D01*
X144643439Y-117590387D01*
X144668121Y-117595687D01*
X144712111Y-117604467D01*
X144771887Y-117616040D01*
X144843929Y-117629721D01*
X144924716Y-117644823D01*
X144967294Y-117652830D01*
X145045445Y-117668107D01*
X145113775Y-117682215D01*
X145168551Y-117694345D01*
X145206037Y-117703686D01*
X145222500Y-117709427D01*
X145225457Y-117715119D01*
X145230362Y-117742930D01*
X145234216Y-117789250D01*
X145237021Y-117849720D01*
X145238781Y-117919983D01*
X145239499Y-117995680D01*
X145239177Y-118072453D01*
X145237819Y-118145944D01*
X145235428Y-118211794D01*
X145232006Y-118265645D01*
X145227556Y-118303138D01*
X145222082Y-118319916D01*
X145218760Y-118321809D01*
X145193987Y-118329926D01*
X145151011Y-118340666D01*
X145094802Y-118352853D01*
X145030325Y-118365310D01*
X145008570Y-118369277D01*
X144908093Y-118387729D01*
X144829126Y-118402559D01*
X144768934Y-118414380D01*
X144724778Y-118423809D01*
X144693920Y-118431460D01*
X144673625Y-118437948D01*
X144661154Y-118443888D01*
X144653771Y-118449894D01*
X144652913Y-118450902D01*
X144640838Y-118471919D01*
X144622971Y-118510376D01*
X144601042Y-118561761D01*
X144576784Y-118621563D01*
X144551927Y-118685270D01*
X144528205Y-118748371D01*
X144507347Y-118806355D01*
X144491087Y-118854709D01*
X144481156Y-118888922D01*
X144479285Y-118904483D01*
X144480536Y-118906502D01*
X144493486Y-118926028D01*
X144517840Y-118962042D01*
X144551340Y-119011228D01*
X144591727Y-119070267D01*
X144636745Y-119135842D01*
X144649100Y-119153884D01*
X144692545Y-119218599D01*
X144730091Y-119276476D01*
X144759594Y-119324082D01*
X144778914Y-119357985D01*
X144785905Y-119374752D01*
X144784398Y-119379161D01*
X144768695Y-119400882D01*
X144737714Y-119436354D01*
X144693673Y-119483188D01*
X144638790Y-119538996D01*
X144575286Y-119601392D01*
X144538988Y-119636317D01*
X144481595Y-119690711D01*
X144431361Y-119737302D01*
X144390984Y-119773636D01*
X144363161Y-119797261D01*
X144350590Y-119805724D01*
X144341952Y-119802587D01*
X144315360Y-119787747D01*
X144276741Y-119763477D01*
X144231134Y-119732852D01*
X144198707Y-119710503D01*
X144133970Y-119666122D01*
X144064886Y-119618987D01*
X144001787Y-119576155D01*
X143878178Y-119492547D01*
X143774417Y-119548650D01*
X143749984Y-119561599D01*
X143705552Y-119583749D01*
X143671191Y-119599041D01*
X143652828Y-119604743D01*
X143646818Y-119597421D01*
X143631895Y-119569541D01*
X143609852Y-119523575D01*
X143581917Y-119462441D01*
X143549317Y-119389055D01*
X143513276Y-119306335D01*
X143475023Y-119217197D01*
X143435783Y-119124559D01*
X143396783Y-119031337D01*
X143359249Y-118940450D01*
X143324409Y-118854814D01*
X143293488Y-118777345D01*
X143267714Y-118710962D01*
X143248311Y-118658582D01*
X143236508Y-118623121D01*
X143233531Y-118607496D01*
X143233732Y-118607039D01*
X143247601Y-118592595D01*
X143276611Y-118569974D01*
X143314772Y-118543864D01*
X143326817Y-118535892D01*
X143418469Y-118460256D01*
X143494323Y-118370169D01*
X143552581Y-118269381D01*
X143591448Y-118161640D01*
X143609128Y-118050697D01*
X143603826Y-117940303D01*
X143582347Y-117842115D01*
X143543782Y-117742966D01*
X143487562Y-117654512D01*
X143410410Y-117570487D01*
X143380095Y-117543645D01*
X143282094Y-117477510D01*
X143176227Y-117432970D01*
X143065561Y-117409625D01*
X142953164Y-117407078D01*
X142842105Y-117424929D01*
X142735451Y-117462780D01*
X142636270Y-117520232D01*
X142547631Y-117596887D01*
X142472600Y-117692345D01*
X142458175Y-117715985D01*
X142409143Y-117824034D01*
X142383103Y-117936548D01*
X142379372Y-118050614D01*
X142397268Y-118163318D01*
X142436109Y-118271745D01*
X142495214Y-118372982D01*
X142573900Y-118464114D01*
X142671485Y-118542228D01*
X142674654Y-118544333D01*
X142712411Y-118570940D01*
X142740709Y-118593561D01*
X142753634Y-118607496D01*
X142752003Y-118618421D01*
X142741864Y-118650231D01*
X142723884Y-118699534D01*
X142699292Y-118763413D01*
X142669311Y-118838948D01*
X142635170Y-118923223D01*
X142598092Y-119013320D01*
X142559306Y-119106321D01*
X142520036Y-119199308D01*
X142481509Y-119289364D01*
X142444950Y-119373571D01*
X142411586Y-119449010D01*
X142382643Y-119512765D01*
X142359346Y-119561917D01*
X142342923Y-119593549D01*
X142334598Y-119604743D01*
X142327674Y-119603227D01*
X142300477Y-119592331D01*
X142260280Y-119573228D01*
X142213009Y-119548650D01*
X142109248Y-119492547D01*
X141985639Y-119576155D01*
X141949120Y-119600913D01*
X141881194Y-119647171D01*
X141813475Y-119693503D01*
X141756291Y-119732852D01*
X141724732Y-119754297D01*
X141683714Y-119780939D01*
X141653301Y-119799178D01*
X141638446Y-119805941D01*
X141632065Y-119803070D01*
X141608996Y-119785485D01*
X141573433Y-119754523D01*
X141528471Y-119713231D01*
X141477206Y-119664653D01*
X141422733Y-119611835D01*
X141368148Y-119557823D01*
X141316547Y-119505661D01*
X141271024Y-119458396D01*
X141234675Y-119419072D01*
X141210595Y-119390736D01*
X141201881Y-119376432D01*
X141202383Y-119373711D01*
X141212755Y-119351560D01*
X141234912Y-119313235D01*
X141266712Y-119262200D01*
X141306016Y-119201914D01*
X141350681Y-119135842D01*
X141363207Y-119117617D01*
X141407193Y-119053485D01*
X141445937Y-118996789D01*
X141477182Y-118950844D01*
X141498669Y-118918970D01*
X141508140Y-118904483D01*
X141508373Y-118903862D01*
X141505578Y-118886139D01*
X141494903Y-118850235D01*
X141478081Y-118800662D01*
X141456843Y-118741932D01*
X141432921Y-118678556D01*
X141408046Y-118615046D01*
X141383950Y-118555913D01*
X141362365Y-118505669D01*
X141345023Y-118468826D01*
X141333655Y-118449894D01*
X141332516Y-118448719D01*
X141324376Y-118442773D01*
X141310629Y-118436776D01*
X141288537Y-118430114D01*
X141255363Y-118422173D01*
X141208370Y-118412337D01*
X141144820Y-118399991D01*
X141061976Y-118384520D01*
X140957100Y-118365310D01*
X140935348Y-118361267D01*
X140873036Y-118348769D01*
X140820619Y-118336927D01*
X140783066Y-118326917D01*
X140765343Y-118319916D01*
X140762378Y-118314075D01*
X140757435Y-118286016D01*
X140753518Y-118239500D01*
X140750629Y-118178886D01*
X140748773Y-118108532D01*
X140747952Y-118032796D01*
X140748168Y-117956037D01*
X140749426Y-117882612D01*
X140751728Y-117816880D01*
X140755076Y-117763200D01*
X140759474Y-117725930D01*
X140764926Y-117709427D01*
X140770491Y-117706989D01*
X140798178Y-117699305D01*
X140844979Y-117688436D01*
X140907157Y-117675192D01*
X140980979Y-117660384D01*
X141062710Y-117644823D01*
X141107336Y-117636509D01*
X141183824Y-117622092D01*
X141249660Y-117609467D01*
X141301323Y-117599321D01*
X141335293Y-117592341D01*
X141348048Y-117589212D01*
X141348528Y-117588568D01*
X141356651Y-117572181D01*
X141372137Y-117537852D01*
X141393050Y-117490136D01*
X141417455Y-117433586D01*
X141443416Y-117372758D01*
X141468997Y-117312206D01*
X141492262Y-117256485D01*
X141511277Y-117210150D01*
X141524105Y-117177755D01*
X141528812Y-117163855D01*
X141526736Y-117158965D01*
X141512920Y-117135692D01*
X141487860Y-117096519D01*
X141453568Y-117044520D01*
X141412059Y-116982768D01*
X141365346Y-116914336D01*
X141339718Y-116876860D01*
X141295490Y-116811156D01*
X141257570Y-116753492D01*
X141227980Y-116707014D01*
X141208743Y-116674865D01*
X141201881Y-116660190D01*
X141206649Y-116652230D01*
X141226593Y-116628446D01*
X141259313Y-116592451D01*
X141301805Y-116547295D01*
X141351065Y-116496028D01*
X141404091Y-116441701D01*
X141457877Y-116387364D01*
X141509421Y-116336067D01*
X141555720Y-116290859D01*
X141593769Y-116254792D01*
X141620565Y-116230914D01*
X141633105Y-116222278D01*
X141640066Y-116225636D01*
X141665627Y-116241210D01*
X141706874Y-116267715D01*
X141760837Y-116303210D01*
X141824542Y-116345750D01*
X141895016Y-116393395D01*
X142146662Y-116564512D01*
X142566188Y-116391570D01*
X142623036Y-116090018D01*
X142679885Y-115788466D01*
X143307540Y-115788466D01*
X143364389Y-116090018D01*
G37*
%TD*%
M02*
