%TF.GenerationSoftware,KiCad,Pcbnew,9.0.0*%
%TF.CreationDate,2025-03-22T15:43:37+01:00*%
%TF.ProjectId,Near-Field Probes,4e656172-2d46-4696-956c-642050726f62,1.0*%
%TF.SameCoordinates,Original*%
%TF.FileFunction,Legend,Bot*%
%TF.FilePolarity,Positive*%
%FSLAX46Y46*%
G04 Gerber Fmt 4.6, Leading zero omitted, Abs format (unit mm)*
G04 Created by KiCad (PCBNEW 9.0.0) date 2025-03-22 15:43:37*
%MOMM*%
%LPD*%
G01*
G04 APERTURE LIST*
%ADD10C,0.300000*%
%ADD11C,0.010000*%
G04 APERTURE END LIST*
D10*
X134076441Y-113999828D02*
X134076441Y-111999828D01*
X134076441Y-112952209D02*
X132933584Y-112952209D01*
X132933584Y-113999828D02*
X132933584Y-111999828D01*
X131981203Y-113237923D02*
X130457394Y-113237923D01*
X128838346Y-112952209D02*
X129505013Y-112952209D01*
X129505013Y-113999828D02*
X129505013Y-111999828D01*
X129505013Y-111999828D02*
X128552632Y-111999828D01*
X127790727Y-113999828D02*
X127790727Y-112666494D01*
X127790727Y-111999828D02*
X127885965Y-112095066D01*
X127885965Y-112095066D02*
X127790727Y-112190304D01*
X127790727Y-112190304D02*
X127695489Y-112095066D01*
X127695489Y-112095066D02*
X127790727Y-111999828D01*
X127790727Y-111999828D02*
X127790727Y-112190304D01*
X126076441Y-113904590D02*
X126266917Y-113999828D01*
X126266917Y-113999828D02*
X126647870Y-113999828D01*
X126647870Y-113999828D02*
X126838346Y-113904590D01*
X126838346Y-113904590D02*
X126933584Y-113714113D01*
X126933584Y-113714113D02*
X126933584Y-112952209D01*
X126933584Y-112952209D02*
X126838346Y-112761732D01*
X126838346Y-112761732D02*
X126647870Y-112666494D01*
X126647870Y-112666494D02*
X126266917Y-112666494D01*
X126266917Y-112666494D02*
X126076441Y-112761732D01*
X126076441Y-112761732D02*
X125981203Y-112952209D01*
X125981203Y-112952209D02*
X125981203Y-113142685D01*
X125981203Y-113142685D02*
X126933584Y-113333161D01*
X124838346Y-113999828D02*
X125028822Y-113904590D01*
X125028822Y-113904590D02*
X125124060Y-113714113D01*
X125124060Y-113714113D02*
X125124060Y-111999828D01*
X123219298Y-113999828D02*
X123219298Y-111999828D01*
X123219298Y-113904590D02*
X123409774Y-113999828D01*
X123409774Y-113999828D02*
X123790727Y-113999828D01*
X123790727Y-113999828D02*
X123981203Y-113904590D01*
X123981203Y-113904590D02*
X124076441Y-113809351D01*
X124076441Y-113809351D02*
X124171679Y-113618875D01*
X124171679Y-113618875D02*
X124171679Y-113047447D01*
X124171679Y-113047447D02*
X124076441Y-112856970D01*
X124076441Y-112856970D02*
X123981203Y-112761732D01*
X123981203Y-112761732D02*
X123790727Y-112666494D01*
X123790727Y-112666494D02*
X123409774Y-112666494D01*
X123409774Y-112666494D02*
X123219298Y-112761732D01*
X120743107Y-113999828D02*
X120743107Y-111999828D01*
X120743107Y-111999828D02*
X119600250Y-113999828D01*
X119600250Y-113999828D02*
X119600250Y-111999828D01*
X117885964Y-113904590D02*
X118076440Y-113999828D01*
X118076440Y-113999828D02*
X118457393Y-113999828D01*
X118457393Y-113999828D02*
X118647869Y-113904590D01*
X118647869Y-113904590D02*
X118743107Y-113714113D01*
X118743107Y-113714113D02*
X118743107Y-112952209D01*
X118743107Y-112952209D02*
X118647869Y-112761732D01*
X118647869Y-112761732D02*
X118457393Y-112666494D01*
X118457393Y-112666494D02*
X118076440Y-112666494D01*
X118076440Y-112666494D02*
X117885964Y-112761732D01*
X117885964Y-112761732D02*
X117790726Y-112952209D01*
X117790726Y-112952209D02*
X117790726Y-113142685D01*
X117790726Y-113142685D02*
X118743107Y-113333161D01*
X116076440Y-113999828D02*
X116076440Y-112952209D01*
X116076440Y-112952209D02*
X116171678Y-112761732D01*
X116171678Y-112761732D02*
X116362154Y-112666494D01*
X116362154Y-112666494D02*
X116743107Y-112666494D01*
X116743107Y-112666494D02*
X116933583Y-112761732D01*
X116076440Y-113904590D02*
X116266916Y-113999828D01*
X116266916Y-113999828D02*
X116743107Y-113999828D01*
X116743107Y-113999828D02*
X116933583Y-113904590D01*
X116933583Y-113904590D02*
X117028821Y-113714113D01*
X117028821Y-113714113D02*
X117028821Y-113523637D01*
X117028821Y-113523637D02*
X116933583Y-113333161D01*
X116933583Y-113333161D02*
X116743107Y-113237923D01*
X116743107Y-113237923D02*
X116266916Y-113237923D01*
X116266916Y-113237923D02*
X116076440Y-113142685D01*
X115124059Y-113999828D02*
X115124059Y-112666494D01*
X115124059Y-113047447D02*
X115028821Y-112856970D01*
X115028821Y-112856970D02*
X114933583Y-112761732D01*
X114933583Y-112761732D02*
X114743107Y-112666494D01*
X114743107Y-112666494D02*
X114552630Y-112666494D01*
X113885964Y-113237923D02*
X112362155Y-113237923D01*
X110743107Y-112952209D02*
X111409774Y-112952209D01*
X111409774Y-113999828D02*
X111409774Y-111999828D01*
X111409774Y-111999828D02*
X110457393Y-111999828D01*
X109695488Y-113999828D02*
X109695488Y-112666494D01*
X109695488Y-111999828D02*
X109790726Y-112095066D01*
X109790726Y-112095066D02*
X109695488Y-112190304D01*
X109695488Y-112190304D02*
X109600250Y-112095066D01*
X109600250Y-112095066D02*
X109695488Y-111999828D01*
X109695488Y-111999828D02*
X109695488Y-112190304D01*
X107981202Y-113904590D02*
X108171678Y-113999828D01*
X108171678Y-113999828D02*
X108552631Y-113999828D01*
X108552631Y-113999828D02*
X108743107Y-113904590D01*
X108743107Y-113904590D02*
X108838345Y-113714113D01*
X108838345Y-113714113D02*
X108838345Y-112952209D01*
X108838345Y-112952209D02*
X108743107Y-112761732D01*
X108743107Y-112761732D02*
X108552631Y-112666494D01*
X108552631Y-112666494D02*
X108171678Y-112666494D01*
X108171678Y-112666494D02*
X107981202Y-112761732D01*
X107981202Y-112761732D02*
X107885964Y-112952209D01*
X107885964Y-112952209D02*
X107885964Y-113142685D01*
X107885964Y-113142685D02*
X108838345Y-113333161D01*
X106743107Y-113999828D02*
X106933583Y-113904590D01*
X106933583Y-113904590D02*
X107028821Y-113714113D01*
X107028821Y-113714113D02*
X107028821Y-111999828D01*
X105124059Y-113999828D02*
X105124059Y-111999828D01*
X105124059Y-113904590D02*
X105314535Y-113999828D01*
X105314535Y-113999828D02*
X105695488Y-113999828D01*
X105695488Y-113999828D02*
X105885964Y-113904590D01*
X105885964Y-113904590D02*
X105981202Y-113809351D01*
X105981202Y-113809351D02*
X106076440Y-113618875D01*
X106076440Y-113618875D02*
X106076440Y-113047447D01*
X106076440Y-113047447D02*
X105981202Y-112856970D01*
X105981202Y-112856970D02*
X105885964Y-112761732D01*
X105885964Y-112761732D02*
X105695488Y-112666494D01*
X105695488Y-112666494D02*
X105314535Y-112666494D01*
X105314535Y-112666494D02*
X105124059Y-112761732D01*
X102647868Y-113999828D02*
X102647868Y-111999828D01*
X102647868Y-111999828D02*
X101885963Y-111999828D01*
X101885963Y-111999828D02*
X101695487Y-112095066D01*
X101695487Y-112095066D02*
X101600249Y-112190304D01*
X101600249Y-112190304D02*
X101505011Y-112380780D01*
X101505011Y-112380780D02*
X101505011Y-112666494D01*
X101505011Y-112666494D02*
X101600249Y-112856970D01*
X101600249Y-112856970D02*
X101695487Y-112952209D01*
X101695487Y-112952209D02*
X101885963Y-113047447D01*
X101885963Y-113047447D02*
X102647868Y-113047447D01*
X100647868Y-113999828D02*
X100647868Y-112666494D01*
X100647868Y-113047447D02*
X100552630Y-112856970D01*
X100552630Y-112856970D02*
X100457392Y-112761732D01*
X100457392Y-112761732D02*
X100266916Y-112666494D01*
X100266916Y-112666494D02*
X100076439Y-112666494D01*
X99124059Y-113999828D02*
X99314535Y-113904590D01*
X99314535Y-113904590D02*
X99409773Y-113809351D01*
X99409773Y-113809351D02*
X99505011Y-113618875D01*
X99505011Y-113618875D02*
X99505011Y-113047447D01*
X99505011Y-113047447D02*
X99409773Y-112856970D01*
X99409773Y-112856970D02*
X99314535Y-112761732D01*
X99314535Y-112761732D02*
X99124059Y-112666494D01*
X99124059Y-112666494D02*
X98838344Y-112666494D01*
X98838344Y-112666494D02*
X98647868Y-112761732D01*
X98647868Y-112761732D02*
X98552630Y-112856970D01*
X98552630Y-112856970D02*
X98457392Y-113047447D01*
X98457392Y-113047447D02*
X98457392Y-113618875D01*
X98457392Y-113618875D02*
X98552630Y-113809351D01*
X98552630Y-113809351D02*
X98647868Y-113904590D01*
X98647868Y-113904590D02*
X98838344Y-113999828D01*
X98838344Y-113999828D02*
X99124059Y-113999828D01*
X97600249Y-113999828D02*
X97600249Y-111999828D01*
X97600249Y-112761732D02*
X97409773Y-112666494D01*
X97409773Y-112666494D02*
X97028820Y-112666494D01*
X97028820Y-112666494D02*
X96838344Y-112761732D01*
X96838344Y-112761732D02*
X96743106Y-112856970D01*
X96743106Y-112856970D02*
X96647868Y-113047447D01*
X96647868Y-113047447D02*
X96647868Y-113618875D01*
X96647868Y-113618875D02*
X96743106Y-113809351D01*
X96743106Y-113809351D02*
X96838344Y-113904590D01*
X96838344Y-113904590D02*
X97028820Y-113999828D01*
X97028820Y-113999828D02*
X97409773Y-113999828D01*
X97409773Y-113999828D02*
X97600249Y-113904590D01*
X95028820Y-113904590D02*
X95219296Y-113999828D01*
X95219296Y-113999828D02*
X95600249Y-113999828D01*
X95600249Y-113999828D02*
X95790725Y-113904590D01*
X95790725Y-113904590D02*
X95885963Y-113714113D01*
X95885963Y-113714113D02*
X95885963Y-112952209D01*
X95885963Y-112952209D02*
X95790725Y-112761732D01*
X95790725Y-112761732D02*
X95600249Y-112666494D01*
X95600249Y-112666494D02*
X95219296Y-112666494D01*
X95219296Y-112666494D02*
X95028820Y-112761732D01*
X95028820Y-112761732D02*
X94933582Y-112952209D01*
X94933582Y-112952209D02*
X94933582Y-113142685D01*
X94933582Y-113142685D02*
X95885963Y-113333161D01*
X133976441Y-99092019D02*
X133309774Y-99092019D01*
X133024060Y-100139638D02*
X133976441Y-100139638D01*
X133976441Y-100139638D02*
X133976441Y-98139638D01*
X133976441Y-98139638D02*
X133024060Y-98139638D01*
X132166917Y-99377733D02*
X130643108Y-99377733D01*
X129024060Y-99092019D02*
X129690727Y-99092019D01*
X129690727Y-100139638D02*
X129690727Y-98139638D01*
X129690727Y-98139638D02*
X128738346Y-98139638D01*
X127976441Y-100139638D02*
X127976441Y-98806304D01*
X127976441Y-98139638D02*
X128071679Y-98234876D01*
X128071679Y-98234876D02*
X127976441Y-98330114D01*
X127976441Y-98330114D02*
X127881203Y-98234876D01*
X127881203Y-98234876D02*
X127976441Y-98139638D01*
X127976441Y-98139638D02*
X127976441Y-98330114D01*
X126262155Y-100044400D02*
X126452631Y-100139638D01*
X126452631Y-100139638D02*
X126833584Y-100139638D01*
X126833584Y-100139638D02*
X127024060Y-100044400D01*
X127024060Y-100044400D02*
X127119298Y-99853923D01*
X127119298Y-99853923D02*
X127119298Y-99092019D01*
X127119298Y-99092019D02*
X127024060Y-98901542D01*
X127024060Y-98901542D02*
X126833584Y-98806304D01*
X126833584Y-98806304D02*
X126452631Y-98806304D01*
X126452631Y-98806304D02*
X126262155Y-98901542D01*
X126262155Y-98901542D02*
X126166917Y-99092019D01*
X126166917Y-99092019D02*
X126166917Y-99282495D01*
X126166917Y-99282495D02*
X127119298Y-99472971D01*
X125024060Y-100139638D02*
X125214536Y-100044400D01*
X125214536Y-100044400D02*
X125309774Y-99853923D01*
X125309774Y-99853923D02*
X125309774Y-98139638D01*
X123405012Y-100139638D02*
X123405012Y-98139638D01*
X123405012Y-100044400D02*
X123595488Y-100139638D01*
X123595488Y-100139638D02*
X123976441Y-100139638D01*
X123976441Y-100139638D02*
X124166917Y-100044400D01*
X124166917Y-100044400D02*
X124262155Y-99949161D01*
X124262155Y-99949161D02*
X124357393Y-99758685D01*
X124357393Y-99758685D02*
X124357393Y-99187257D01*
X124357393Y-99187257D02*
X124262155Y-98996780D01*
X124262155Y-98996780D02*
X124166917Y-98901542D01*
X124166917Y-98901542D02*
X123976441Y-98806304D01*
X123976441Y-98806304D02*
X123595488Y-98806304D01*
X123595488Y-98806304D02*
X123405012Y-98901542D01*
X120928821Y-100139638D02*
X120928821Y-98139638D01*
X120928821Y-98139638D02*
X119785964Y-100139638D01*
X119785964Y-100139638D02*
X119785964Y-98139638D01*
X118071678Y-100044400D02*
X118262154Y-100139638D01*
X118262154Y-100139638D02*
X118643107Y-100139638D01*
X118643107Y-100139638D02*
X118833583Y-100044400D01*
X118833583Y-100044400D02*
X118928821Y-99853923D01*
X118928821Y-99853923D02*
X118928821Y-99092019D01*
X118928821Y-99092019D02*
X118833583Y-98901542D01*
X118833583Y-98901542D02*
X118643107Y-98806304D01*
X118643107Y-98806304D02*
X118262154Y-98806304D01*
X118262154Y-98806304D02*
X118071678Y-98901542D01*
X118071678Y-98901542D02*
X117976440Y-99092019D01*
X117976440Y-99092019D02*
X117976440Y-99282495D01*
X117976440Y-99282495D02*
X118928821Y-99472971D01*
X116262154Y-100139638D02*
X116262154Y-99092019D01*
X116262154Y-99092019D02*
X116357392Y-98901542D01*
X116357392Y-98901542D02*
X116547868Y-98806304D01*
X116547868Y-98806304D02*
X116928821Y-98806304D01*
X116928821Y-98806304D02*
X117119297Y-98901542D01*
X116262154Y-100044400D02*
X116452630Y-100139638D01*
X116452630Y-100139638D02*
X116928821Y-100139638D01*
X116928821Y-100139638D02*
X117119297Y-100044400D01*
X117119297Y-100044400D02*
X117214535Y-99853923D01*
X117214535Y-99853923D02*
X117214535Y-99663447D01*
X117214535Y-99663447D02*
X117119297Y-99472971D01*
X117119297Y-99472971D02*
X116928821Y-99377733D01*
X116928821Y-99377733D02*
X116452630Y-99377733D01*
X116452630Y-99377733D02*
X116262154Y-99282495D01*
X115309773Y-100139638D02*
X115309773Y-98806304D01*
X115309773Y-99187257D02*
X115214535Y-98996780D01*
X115214535Y-98996780D02*
X115119297Y-98901542D01*
X115119297Y-98901542D02*
X114928821Y-98806304D01*
X114928821Y-98806304D02*
X114738344Y-98806304D01*
X114071678Y-99377733D02*
X112547869Y-99377733D01*
X110928821Y-99092019D02*
X111595488Y-99092019D01*
X111595488Y-100139638D02*
X111595488Y-98139638D01*
X111595488Y-98139638D02*
X110643107Y-98139638D01*
X109881202Y-100139638D02*
X109881202Y-98806304D01*
X109881202Y-98139638D02*
X109976440Y-98234876D01*
X109976440Y-98234876D02*
X109881202Y-98330114D01*
X109881202Y-98330114D02*
X109785964Y-98234876D01*
X109785964Y-98234876D02*
X109881202Y-98139638D01*
X109881202Y-98139638D02*
X109881202Y-98330114D01*
X108166916Y-100044400D02*
X108357392Y-100139638D01*
X108357392Y-100139638D02*
X108738345Y-100139638D01*
X108738345Y-100139638D02*
X108928821Y-100044400D01*
X108928821Y-100044400D02*
X109024059Y-99853923D01*
X109024059Y-99853923D02*
X109024059Y-99092019D01*
X109024059Y-99092019D02*
X108928821Y-98901542D01*
X108928821Y-98901542D02*
X108738345Y-98806304D01*
X108738345Y-98806304D02*
X108357392Y-98806304D01*
X108357392Y-98806304D02*
X108166916Y-98901542D01*
X108166916Y-98901542D02*
X108071678Y-99092019D01*
X108071678Y-99092019D02*
X108071678Y-99282495D01*
X108071678Y-99282495D02*
X109024059Y-99472971D01*
X106928821Y-100139638D02*
X107119297Y-100044400D01*
X107119297Y-100044400D02*
X107214535Y-99853923D01*
X107214535Y-99853923D02*
X107214535Y-98139638D01*
X105309773Y-100139638D02*
X105309773Y-98139638D01*
X105309773Y-100044400D02*
X105500249Y-100139638D01*
X105500249Y-100139638D02*
X105881202Y-100139638D01*
X105881202Y-100139638D02*
X106071678Y-100044400D01*
X106071678Y-100044400D02*
X106166916Y-99949161D01*
X106166916Y-99949161D02*
X106262154Y-99758685D01*
X106262154Y-99758685D02*
X106262154Y-99187257D01*
X106262154Y-99187257D02*
X106166916Y-98996780D01*
X106166916Y-98996780D02*
X106071678Y-98901542D01*
X106071678Y-98901542D02*
X105881202Y-98806304D01*
X105881202Y-98806304D02*
X105500249Y-98806304D01*
X105500249Y-98806304D02*
X105309773Y-98901542D01*
X102833582Y-100139638D02*
X102833582Y-98139638D01*
X102833582Y-98139638D02*
X102071677Y-98139638D01*
X102071677Y-98139638D02*
X101881201Y-98234876D01*
X101881201Y-98234876D02*
X101785963Y-98330114D01*
X101785963Y-98330114D02*
X101690725Y-98520590D01*
X101690725Y-98520590D02*
X101690725Y-98806304D01*
X101690725Y-98806304D02*
X101785963Y-98996780D01*
X101785963Y-98996780D02*
X101881201Y-99092019D01*
X101881201Y-99092019D02*
X102071677Y-99187257D01*
X102071677Y-99187257D02*
X102833582Y-99187257D01*
X100833582Y-100139638D02*
X100833582Y-98806304D01*
X100833582Y-99187257D02*
X100738344Y-98996780D01*
X100738344Y-98996780D02*
X100643106Y-98901542D01*
X100643106Y-98901542D02*
X100452630Y-98806304D01*
X100452630Y-98806304D02*
X100262153Y-98806304D01*
X99309773Y-100139638D02*
X99500249Y-100044400D01*
X99500249Y-100044400D02*
X99595487Y-99949161D01*
X99595487Y-99949161D02*
X99690725Y-99758685D01*
X99690725Y-99758685D02*
X99690725Y-99187257D01*
X99690725Y-99187257D02*
X99595487Y-98996780D01*
X99595487Y-98996780D02*
X99500249Y-98901542D01*
X99500249Y-98901542D02*
X99309773Y-98806304D01*
X99309773Y-98806304D02*
X99024058Y-98806304D01*
X99024058Y-98806304D02*
X98833582Y-98901542D01*
X98833582Y-98901542D02*
X98738344Y-98996780D01*
X98738344Y-98996780D02*
X98643106Y-99187257D01*
X98643106Y-99187257D02*
X98643106Y-99758685D01*
X98643106Y-99758685D02*
X98738344Y-99949161D01*
X98738344Y-99949161D02*
X98833582Y-100044400D01*
X98833582Y-100044400D02*
X99024058Y-100139638D01*
X99024058Y-100139638D02*
X99309773Y-100139638D01*
X97785963Y-100139638D02*
X97785963Y-98139638D01*
X97785963Y-98901542D02*
X97595487Y-98806304D01*
X97595487Y-98806304D02*
X97214534Y-98806304D01*
X97214534Y-98806304D02*
X97024058Y-98901542D01*
X97024058Y-98901542D02*
X96928820Y-98996780D01*
X96928820Y-98996780D02*
X96833582Y-99187257D01*
X96833582Y-99187257D02*
X96833582Y-99758685D01*
X96833582Y-99758685D02*
X96928820Y-99949161D01*
X96928820Y-99949161D02*
X97024058Y-100044400D01*
X97024058Y-100044400D02*
X97214534Y-100139638D01*
X97214534Y-100139638D02*
X97595487Y-100139638D01*
X97595487Y-100139638D02*
X97785963Y-100044400D01*
X95214534Y-100044400D02*
X95405010Y-100139638D01*
X95405010Y-100139638D02*
X95785963Y-100139638D01*
X95785963Y-100139638D02*
X95976439Y-100044400D01*
X95976439Y-100044400D02*
X96071677Y-99853923D01*
X96071677Y-99853923D02*
X96071677Y-99092019D01*
X96071677Y-99092019D02*
X95976439Y-98901542D01*
X95976439Y-98901542D02*
X95785963Y-98806304D01*
X95785963Y-98806304D02*
X95405010Y-98806304D01*
X95405010Y-98806304D02*
X95214534Y-98901542D01*
X95214534Y-98901542D02*
X95119296Y-99092019D01*
X95119296Y-99092019D02*
X95119296Y-99282495D01*
X95119296Y-99282495D02*
X96071677Y-99472971D01*
D11*
%TO.C,REF\u002A\u002A*%
X141287128Y-120253945D02*
X141317954Y-120263568D01*
X141355916Y-120279563D01*
X141374296Y-120288159D01*
X141387561Y-120289713D01*
X141390495Y-120277798D01*
X141390498Y-120277461D01*
X141396709Y-120266087D01*
X141418131Y-120260256D01*
X141459653Y-120258614D01*
X141528812Y-120258614D01*
X141528812Y-120862179D01*
X141390495Y-120862179D01*
X141390495Y-120446027D01*
X141356110Y-120414161D01*
X141345368Y-120405104D01*
X141313370Y-120389630D01*
X141273965Y-120389010D01*
X141220312Y-120402664D01*
X141202225Y-120403529D01*
X141181008Y-120390283D01*
X141152768Y-120358800D01*
X141139069Y-120341385D01*
X141122868Y-120316797D01*
X141120371Y-120301145D01*
X141129442Y-120287941D01*
X141157289Y-120271245D01*
X141200540Y-120258030D01*
X141247464Y-120251478D01*
X141287128Y-120253945D01*
G36*
X141287128Y-120253945D02*
G01*
X141317954Y-120263568D01*
X141355916Y-120279563D01*
X141374296Y-120288159D01*
X141387561Y-120289713D01*
X141390495Y-120277798D01*
X141390498Y-120277461D01*
X141396709Y-120266087D01*
X141418131Y-120260256D01*
X141459653Y-120258614D01*
X141528812Y-120258614D01*
X141528812Y-120862179D01*
X141390495Y-120862179D01*
X141390495Y-120446027D01*
X141356110Y-120414161D01*
X141345368Y-120405104D01*
X141313370Y-120389630D01*
X141273965Y-120389010D01*
X141220312Y-120402664D01*
X141202225Y-120403529D01*
X141181008Y-120390283D01*
X141152768Y-120358800D01*
X141139069Y-120341385D01*
X141122868Y-120316797D01*
X141120371Y-120301145D01*
X141129442Y-120287941D01*
X141157289Y-120271245D01*
X141200540Y-120258030D01*
X141247464Y-120251478D01*
X141287128Y-120253945D01*
G37*
X141470265Y-121209965D02*
X141508255Y-121227745D01*
X141541386Y-121253806D01*
X141541386Y-121227745D01*
X141542211Y-121217849D01*
X141549893Y-121207358D01*
X141570667Y-121202725D01*
X141610544Y-121201683D01*
X141679703Y-121201683D01*
X141679703Y-121817822D01*
X141541386Y-121817822D01*
X141541386Y-121617226D01*
X141541369Y-121605710D01*
X141540189Y-121524758D01*
X141537294Y-121458817D01*
X141532888Y-121411258D01*
X141527181Y-121385452D01*
X141521940Y-121375710D01*
X141489676Y-121345156D01*
X141445730Y-121331631D01*
X141397743Y-121337941D01*
X141385973Y-121342217D01*
X141360898Y-121349776D01*
X141343762Y-121347428D01*
X141326518Y-121332064D01*
X141301124Y-121300571D01*
X141259936Y-121248568D01*
X141288886Y-121225125D01*
X141316405Y-121211015D01*
X141364745Y-121201486D01*
X141419230Y-121201174D01*
X141470265Y-121209965D01*
G36*
X141470265Y-121209965D02*
G01*
X141508255Y-121227745D01*
X141541386Y-121253806D01*
X141541386Y-121227745D01*
X141542211Y-121217849D01*
X141549893Y-121207358D01*
X141570667Y-121202725D01*
X141610544Y-121201683D01*
X141679703Y-121201683D01*
X141679703Y-121817822D01*
X141541386Y-121817822D01*
X141541386Y-121617226D01*
X141541369Y-121605710D01*
X141540189Y-121524758D01*
X141537294Y-121458817D01*
X141532888Y-121411258D01*
X141527181Y-121385452D01*
X141521940Y-121375710D01*
X141489676Y-121345156D01*
X141445730Y-121331631D01*
X141397743Y-121337941D01*
X141385973Y-121342217D01*
X141360898Y-121349776D01*
X141343762Y-121347428D01*
X141326518Y-121332064D01*
X141301124Y-121300571D01*
X141259936Y-121248568D01*
X141288886Y-121225125D01*
X141316405Y-121211015D01*
X141364745Y-121201486D01*
X141419230Y-121201174D01*
X141470265Y-121209965D01*
G37*
X144093960Y-121817822D02*
X143968218Y-121817822D01*
X143968218Y-121623740D01*
X143968078Y-121578594D01*
X143966649Y-121503823D01*
X143963029Y-121448467D01*
X143956434Y-121408702D01*
X143946079Y-121380700D01*
X143931178Y-121360635D01*
X143910946Y-121344681D01*
X143888859Y-121332792D01*
X143862705Y-121329421D01*
X143825508Y-121336917D01*
X143813555Y-121340038D01*
X143783718Y-121344735D01*
X143762383Y-121338005D01*
X143737655Y-121317177D01*
X143732963Y-121312647D01*
X143707020Y-121284626D01*
X143690291Y-121261843D01*
X143687996Y-121256355D01*
X143692543Y-121236088D01*
X143715602Y-121219884D01*
X143751995Y-121208513D01*
X143796544Y-121202740D01*
X143844072Y-121203334D01*
X143889400Y-121211063D01*
X143927351Y-121226694D01*
X143939381Y-121233993D01*
X143959632Y-121244676D01*
X143967129Y-121242230D01*
X143968218Y-121226647D01*
X143968473Y-121221053D01*
X143974539Y-121208660D01*
X143993356Y-121203020D01*
X144031089Y-121201683D01*
X144093960Y-121201683D01*
X144093960Y-121817822D01*
G36*
X144093960Y-121817822D02*
G01*
X143968218Y-121817822D01*
X143968218Y-121623740D01*
X143968078Y-121578594D01*
X143966649Y-121503823D01*
X143963029Y-121448467D01*
X143956434Y-121408702D01*
X143946079Y-121380700D01*
X143931178Y-121360635D01*
X143910946Y-121344681D01*
X143888859Y-121332792D01*
X143862705Y-121329421D01*
X143825508Y-121336917D01*
X143813555Y-121340038D01*
X143783718Y-121344735D01*
X143762383Y-121338005D01*
X143737655Y-121317177D01*
X143732963Y-121312647D01*
X143707020Y-121284626D01*
X143690291Y-121261843D01*
X143687996Y-121256355D01*
X143692543Y-121236088D01*
X143715602Y-121219884D01*
X143751995Y-121208513D01*
X143796544Y-121202740D01*
X143844072Y-121203334D01*
X143889400Y-121211063D01*
X143927351Y-121226694D01*
X143939381Y-121233993D01*
X143959632Y-121244676D01*
X143967129Y-121242230D01*
X143968218Y-121226647D01*
X143968473Y-121221053D01*
X143974539Y-121208660D01*
X143993356Y-121203020D01*
X144031089Y-121201683D01*
X144093960Y-121201683D01*
X144093960Y-121817822D01*
G37*
X141780297Y-120454342D02*
X141781357Y-120542394D01*
X141785509Y-120613510D01*
X141793921Y-120665199D01*
X141807757Y-120700360D01*
X141828182Y-120721889D01*
X141856364Y-120732682D01*
X141893465Y-120735636D01*
X141928890Y-120733000D01*
X141957500Y-120722679D01*
X141978296Y-120701772D01*
X141992442Y-120667381D01*
X142001103Y-120616610D01*
X142005445Y-120546563D01*
X142006633Y-120454342D01*
X142006633Y-120258614D01*
X142132376Y-120258614D01*
X142132376Y-120494578D01*
X142132160Y-120557561D01*
X142130484Y-120639007D01*
X142126277Y-120701121D01*
X142118521Y-120747458D01*
X142106196Y-120781573D01*
X142088285Y-120807022D01*
X142063767Y-120827362D01*
X142031623Y-120846147D01*
X141964125Y-120869928D01*
X141893681Y-120871480D01*
X141827264Y-120849580D01*
X141798286Y-120835383D01*
X141783909Y-120833261D01*
X141780297Y-120843293D01*
X141774299Y-120854556D01*
X141752830Y-120860489D01*
X141711138Y-120862179D01*
X141641980Y-120862179D01*
X141641980Y-120258614D01*
X141780297Y-120258614D01*
X141780297Y-120454342D01*
G36*
X141780297Y-120454342D02*
G01*
X141781357Y-120542394D01*
X141785509Y-120613510D01*
X141793921Y-120665199D01*
X141807757Y-120700360D01*
X141828182Y-120721889D01*
X141856364Y-120732682D01*
X141893465Y-120735636D01*
X141928890Y-120733000D01*
X141957500Y-120722679D01*
X141978296Y-120701772D01*
X141992442Y-120667381D01*
X142001103Y-120616610D01*
X142005445Y-120546563D01*
X142006633Y-120454342D01*
X142006633Y-120258614D01*
X142132376Y-120258614D01*
X142132376Y-120494578D01*
X142132160Y-120557561D01*
X142130484Y-120639007D01*
X142126277Y-120701121D01*
X142118521Y-120747458D01*
X142106196Y-120781573D01*
X142088285Y-120807022D01*
X142063767Y-120827362D01*
X142031623Y-120846147D01*
X141964125Y-120869928D01*
X141893681Y-120871480D01*
X141827264Y-120849580D01*
X141798286Y-120835383D01*
X141783909Y-120833261D01*
X141780297Y-120843293D01*
X141774299Y-120854556D01*
X141752830Y-120860489D01*
X141711138Y-120862179D01*
X141641980Y-120862179D01*
X141641980Y-120258614D01*
X141780297Y-120258614D01*
X141780297Y-120454342D01*
G37*
X143882605Y-120257424D02*
X143939926Y-120275434D01*
X143965199Y-120287674D01*
X143977910Y-120288938D01*
X143980792Y-120277798D01*
X143980795Y-120277461D01*
X143987006Y-120266087D01*
X144008428Y-120260256D01*
X144049950Y-120258614D01*
X144119109Y-120258614D01*
X144119109Y-120862179D01*
X143980792Y-120862179D01*
X143980792Y-120654132D01*
X143980697Y-120583879D01*
X143980051Y-120526170D01*
X143978320Y-120485787D01*
X143974974Y-120458615D01*
X143969481Y-120440540D01*
X143961310Y-120427447D01*
X143949928Y-120415221D01*
X143934424Y-120402217D01*
X143889843Y-120384745D01*
X143843047Y-120389873D01*
X143800180Y-120417507D01*
X143787927Y-120430368D01*
X143779132Y-120443384D01*
X143773233Y-120460706D01*
X143769651Y-120486501D01*
X143767809Y-120524939D01*
X143767128Y-120580189D01*
X143767030Y-120656418D01*
X143767030Y-120862179D01*
X143628713Y-120862179D01*
X143628989Y-120638985D01*
X143629008Y-120629044D01*
X143630207Y-120534106D01*
X143633891Y-120460358D01*
X143641006Y-120404214D01*
X143652500Y-120362087D01*
X143669318Y-120330391D01*
X143692409Y-120305541D01*
X143722717Y-120283950D01*
X143754012Y-120269002D01*
X143817037Y-120255421D01*
X143882605Y-120257424D01*
G36*
X143882605Y-120257424D02*
G01*
X143939926Y-120275434D01*
X143965199Y-120287674D01*
X143977910Y-120288938D01*
X143980792Y-120277798D01*
X143980795Y-120277461D01*
X143987006Y-120266087D01*
X144008428Y-120260256D01*
X144049950Y-120258614D01*
X144119109Y-120258614D01*
X144119109Y-120862179D01*
X143980792Y-120862179D01*
X143980792Y-120654132D01*
X143980697Y-120583879D01*
X143980051Y-120526170D01*
X143978320Y-120485787D01*
X143974974Y-120458615D01*
X143969481Y-120440540D01*
X143961310Y-120427447D01*
X143949928Y-120415221D01*
X143934424Y-120402217D01*
X143889843Y-120384745D01*
X143843047Y-120389873D01*
X143800180Y-120417507D01*
X143787927Y-120430368D01*
X143779132Y-120443384D01*
X143773233Y-120460706D01*
X143769651Y-120486501D01*
X143767809Y-120524939D01*
X143767128Y-120580189D01*
X143767030Y-120656418D01*
X143767030Y-120862179D01*
X143628713Y-120862179D01*
X143628989Y-120638985D01*
X143629008Y-120629044D01*
X143630207Y-120534106D01*
X143633891Y-120460358D01*
X143641006Y-120404214D01*
X143652500Y-120362087D01*
X143669318Y-120330391D01*
X143692409Y-120305541D01*
X143722717Y-120283950D01*
X143754012Y-120269002D01*
X143817037Y-120255421D01*
X143882605Y-120257424D01*
G37*
X140933409Y-120261493D02*
X141002021Y-120288224D01*
X141060048Y-120332351D01*
X141102907Y-120392958D01*
X141105801Y-120399137D01*
X141124176Y-120459409D01*
X141133357Y-120531407D01*
X141133285Y-120606369D01*
X141123901Y-120675536D01*
X141105149Y-120730149D01*
X141081995Y-120768212D01*
X141031030Y-120822135D01*
X140967306Y-120856411D01*
X140912785Y-120870272D01*
X140829767Y-120871785D01*
X140750326Y-120850882D01*
X140679879Y-120808464D01*
X140634284Y-120770880D01*
X140675351Y-120728510D01*
X140701296Y-120703409D01*
X140724764Y-120689434D01*
X140746524Y-120692511D01*
X140774356Y-120711287D01*
X140785454Y-120718638D01*
X140832337Y-120733683D01*
X140886224Y-120733673D01*
X140936675Y-120718168D01*
X140955672Y-120705716D01*
X140983537Y-120668946D01*
X140997506Y-120614939D01*
X140998405Y-120541331D01*
X140998403Y-120541289D01*
X140988009Y-120475433D01*
X140965114Y-120429772D01*
X140927439Y-120401528D01*
X140872708Y-120387920D01*
X140838241Y-120386090D01*
X140808126Y-120393584D01*
X140777240Y-120415295D01*
X140737272Y-120448926D01*
X140686656Y-120408250D01*
X140668163Y-120392667D01*
X140645065Y-120370340D01*
X140636039Y-120357183D01*
X140639236Y-120351253D01*
X140657646Y-120333048D01*
X140686973Y-120309895D01*
X140709920Y-120294830D01*
X140782774Y-120263880D01*
X140858799Y-120253073D01*
X140933409Y-120261493D01*
G36*
X140933409Y-120261493D02*
G01*
X141002021Y-120288224D01*
X141060048Y-120332351D01*
X141102907Y-120392958D01*
X141105801Y-120399137D01*
X141124176Y-120459409D01*
X141133357Y-120531407D01*
X141133285Y-120606369D01*
X141123901Y-120675536D01*
X141105149Y-120730149D01*
X141081995Y-120768212D01*
X141031030Y-120822135D01*
X140967306Y-120856411D01*
X140912785Y-120870272D01*
X140829767Y-120871785D01*
X140750326Y-120850882D01*
X140679879Y-120808464D01*
X140634284Y-120770880D01*
X140675351Y-120728510D01*
X140701296Y-120703409D01*
X140724764Y-120689434D01*
X140746524Y-120692511D01*
X140774356Y-120711287D01*
X140785454Y-120718638D01*
X140832337Y-120733683D01*
X140886224Y-120733673D01*
X140936675Y-120718168D01*
X140955672Y-120705716D01*
X140983537Y-120668946D01*
X140997506Y-120614939D01*
X140998405Y-120541331D01*
X140998403Y-120541289D01*
X140988009Y-120475433D01*
X140965114Y-120429772D01*
X140927439Y-120401528D01*
X140872708Y-120387920D01*
X140838241Y-120386090D01*
X140808126Y-120393584D01*
X140777240Y-120415295D01*
X140737272Y-120448926D01*
X140686656Y-120408250D01*
X140668163Y-120392667D01*
X140645065Y-120370340D01*
X140636039Y-120357183D01*
X140639236Y-120351253D01*
X140657646Y-120333048D01*
X140686973Y-120309895D01*
X140709920Y-120294830D01*
X140782774Y-120263880D01*
X140858799Y-120253073D01*
X140933409Y-120261493D01*
G37*
X142732857Y-120603771D02*
X142729349Y-120643565D01*
X142713844Y-120719538D01*
X142686110Y-120777511D01*
X142643898Y-120821300D01*
X142584960Y-120854722D01*
X142562076Y-120862676D01*
X142502812Y-120872601D01*
X142440447Y-120872331D01*
X142387823Y-120861430D01*
X142386789Y-120861034D01*
X142344381Y-120836087D01*
X142301537Y-120797468D01*
X142265986Y-120753306D01*
X142245459Y-120711727D01*
X142239374Y-120681334D01*
X142234164Y-120624429D01*
X142233291Y-120573705D01*
X142359976Y-120573705D01*
X142367549Y-120634545D01*
X142385341Y-120684538D01*
X142412296Y-120717204D01*
X142422513Y-120722812D01*
X142461473Y-120733007D01*
X142506536Y-120735104D01*
X142544448Y-120728020D01*
X142559244Y-120717861D01*
X142580014Y-120682334D01*
X142593083Y-120626732D01*
X142597624Y-120553766D01*
X142597551Y-120532762D01*
X142595974Y-120490203D01*
X142590728Y-120462439D01*
X142579723Y-120441925D01*
X142560868Y-120421112D01*
X142524989Y-120395887D01*
X142478280Y-120385573D01*
X142433151Y-120395396D01*
X142395680Y-120423805D01*
X142371943Y-120469253D01*
X142363675Y-120508497D01*
X142359976Y-120573705D01*
X142233291Y-120573705D01*
X142233049Y-120559621D01*
X142235844Y-120495116D01*
X142242366Y-120439121D01*
X142252432Y-120399842D01*
X142275877Y-120355372D01*
X142325637Y-120300692D01*
X142389238Y-120266055D01*
X142464790Y-120252345D01*
X142550399Y-120260448D01*
X142564644Y-120263899D01*
X142630982Y-120293664D01*
X142680971Y-120342530D01*
X142714612Y-120410501D01*
X142731906Y-120497580D01*
X142732410Y-120553766D01*
X142732857Y-120603771D01*
G36*
X142732857Y-120603771D02*
G01*
X142729349Y-120643565D01*
X142713844Y-120719538D01*
X142686110Y-120777511D01*
X142643898Y-120821300D01*
X142584960Y-120854722D01*
X142562076Y-120862676D01*
X142502812Y-120872601D01*
X142440447Y-120872331D01*
X142387823Y-120861430D01*
X142386789Y-120861034D01*
X142344381Y-120836087D01*
X142301537Y-120797468D01*
X142265986Y-120753306D01*
X142245459Y-120711727D01*
X142239374Y-120681334D01*
X142234164Y-120624429D01*
X142233291Y-120573705D01*
X142359976Y-120573705D01*
X142367549Y-120634545D01*
X142385341Y-120684538D01*
X142412296Y-120717204D01*
X142422513Y-120722812D01*
X142461473Y-120733007D01*
X142506536Y-120735104D01*
X142544448Y-120728020D01*
X142559244Y-120717861D01*
X142580014Y-120682334D01*
X142593083Y-120626732D01*
X142597624Y-120553766D01*
X142597551Y-120532762D01*
X142595974Y-120490203D01*
X142590728Y-120462439D01*
X142579723Y-120441925D01*
X142560868Y-120421112D01*
X142524989Y-120395887D01*
X142478280Y-120385573D01*
X142433151Y-120395396D01*
X142395680Y-120423805D01*
X142371943Y-120469253D01*
X142363675Y-120508497D01*
X142359976Y-120573705D01*
X142233291Y-120573705D01*
X142233049Y-120559621D01*
X142235844Y-120495116D01*
X142242366Y-120439121D01*
X142252432Y-120399842D01*
X142275877Y-120355372D01*
X142325637Y-120300692D01*
X142389238Y-120266055D01*
X142464790Y-120252345D01*
X142550399Y-120260448D01*
X142564644Y-120263899D01*
X142630982Y-120293664D01*
X142680971Y-120342530D01*
X142714612Y-120410501D01*
X142731906Y-120497580D01*
X142732410Y-120553766D01*
X142732857Y-120603771D01*
G37*
X142832997Y-121399130D02*
X142849997Y-121449850D01*
X142870107Y-121505997D01*
X142886899Y-121548532D01*
X142898986Y-121573990D01*
X142904980Y-121578903D01*
X142906426Y-121574630D01*
X142914254Y-121548422D01*
X142926723Y-121504649D01*
X142942447Y-121448211D01*
X142960043Y-121384010D01*
X143007914Y-121207971D01*
X143081007Y-121204152D01*
X143087177Y-121203846D01*
X143126592Y-121203441D01*
X143145533Y-121207487D01*
X143147945Y-121216726D01*
X143144898Y-121225749D01*
X143134874Y-121256632D01*
X143119180Y-121305544D01*
X143098934Y-121368987D01*
X143075256Y-121443462D01*
X143049263Y-121525471D01*
X142956736Y-121817822D01*
X142840993Y-121817822D01*
X142786457Y-121632352D01*
X142776386Y-121598294D01*
X142757775Y-121536378D01*
X142741872Y-121484787D01*
X142730109Y-121448130D01*
X142723918Y-121431018D01*
X142722154Y-121429741D01*
X142713571Y-121440779D01*
X142701316Y-121469969D01*
X142687426Y-121512750D01*
X142686692Y-121515263D01*
X142668096Y-121578400D01*
X142646818Y-121649889D01*
X142627321Y-121714734D01*
X142595705Y-121819122D01*
X142537402Y-121815328D01*
X142479098Y-121811535D01*
X142425098Y-121641782D01*
X142401390Y-121567193D01*
X142374833Y-121483539D01*
X142349404Y-121403342D01*
X142328354Y-121336857D01*
X142285609Y-121201683D01*
X142428612Y-121201683D01*
X142463274Y-121330570D01*
X142472488Y-121364625D01*
X142489915Y-121428115D01*
X142506054Y-121485874D01*
X142518322Y-121528614D01*
X142538709Y-121597773D01*
X142668745Y-121207971D01*
X142718476Y-121204237D01*
X142768206Y-121200504D01*
X142832997Y-121399130D01*
G36*
X142832997Y-121399130D02*
G01*
X142849997Y-121449850D01*
X142870107Y-121505997D01*
X142886899Y-121548532D01*
X142898986Y-121573990D01*
X142904980Y-121578903D01*
X142906426Y-121574630D01*
X142914254Y-121548422D01*
X142926723Y-121504649D01*
X142942447Y-121448211D01*
X142960043Y-121384010D01*
X143007914Y-121207971D01*
X143081007Y-121204152D01*
X143087177Y-121203846D01*
X143126592Y-121203441D01*
X143145533Y-121207487D01*
X143147945Y-121216726D01*
X143144898Y-121225749D01*
X143134874Y-121256632D01*
X143119180Y-121305544D01*
X143098934Y-121368987D01*
X143075256Y-121443462D01*
X143049263Y-121525471D01*
X142956736Y-121817822D01*
X142840993Y-121817822D01*
X142786457Y-121632352D01*
X142776386Y-121598294D01*
X142757775Y-121536378D01*
X142741872Y-121484787D01*
X142730109Y-121448130D01*
X142723918Y-121431018D01*
X142722154Y-121429741D01*
X142713571Y-121440779D01*
X142701316Y-121469969D01*
X142687426Y-121512750D01*
X142686692Y-121515263D01*
X142668096Y-121578400D01*
X142646818Y-121649889D01*
X142627321Y-121714734D01*
X142595705Y-121819122D01*
X142537402Y-121815328D01*
X142479098Y-121811535D01*
X142425098Y-121641782D01*
X142401390Y-121567193D01*
X142374833Y-121483539D01*
X142349404Y-121403342D01*
X142328354Y-121336857D01*
X142285609Y-121201683D01*
X142428612Y-121201683D01*
X142463274Y-121330570D01*
X142472488Y-121364625D01*
X142489915Y-121428115D01*
X142506054Y-121485874D01*
X142518322Y-121528614D01*
X142538709Y-121597773D01*
X142668745Y-121207971D01*
X142718476Y-121204237D01*
X142768206Y-121200504D01*
X142832997Y-121399130D01*
G37*
X143690761Y-121556813D02*
X143689167Y-121610571D01*
X143685962Y-121648018D01*
X143685413Y-121651450D01*
X143663838Y-121712835D01*
X143624438Y-121764877D01*
X143572752Y-121800135D01*
X143517248Y-121814729D01*
X143448977Y-121813597D01*
X143386173Y-121794029D01*
X143369815Y-121785771D01*
X143348779Y-121776923D01*
X143340774Y-121779676D01*
X143339505Y-121794029D01*
X143338922Y-121801186D01*
X143331394Y-121811772D01*
X143310488Y-121816645D01*
X143270346Y-121817822D01*
X143201188Y-121817822D01*
X143201188Y-121515930D01*
X143339505Y-121515930D01*
X143340496Y-121568230D01*
X143344519Y-121603050D01*
X143353108Y-121626905D01*
X143367797Y-121646895D01*
X143406584Y-121676618D01*
X143451974Y-121686582D01*
X143495989Y-121674260D01*
X143533060Y-121639888D01*
X143542859Y-121614735D01*
X143550097Y-121570194D01*
X143553279Y-121516155D01*
X143552277Y-121460728D01*
X143546961Y-121412022D01*
X143537204Y-121378148D01*
X143534087Y-121372593D01*
X143504038Y-121344674D01*
X143463315Y-121332306D01*
X143419579Y-121335183D01*
X143380491Y-121353000D01*
X143353710Y-121385452D01*
X143352603Y-121388181D01*
X143345963Y-121418634D01*
X143341278Y-121464139D01*
X143339505Y-121515930D01*
X143201188Y-121515930D01*
X143201188Y-120962773D01*
X143339505Y-120962773D01*
X143339505Y-121255878D01*
X143365124Y-121232693D01*
X143389792Y-121218282D01*
X143436480Y-121206236D01*
X143491056Y-121202354D01*
X143544354Y-121207120D01*
X143587207Y-121221014D01*
X143617878Y-121240779D01*
X143649471Y-121274449D01*
X143670733Y-121319730D01*
X143683514Y-121380981D01*
X143689664Y-121462563D01*
X143690568Y-121495540D01*
X143690633Y-121516155D01*
X143690761Y-121556813D01*
G36*
X143690761Y-121556813D02*
G01*
X143689167Y-121610571D01*
X143685962Y-121648018D01*
X143685413Y-121651450D01*
X143663838Y-121712835D01*
X143624438Y-121764877D01*
X143572752Y-121800135D01*
X143517248Y-121814729D01*
X143448977Y-121813597D01*
X143386173Y-121794029D01*
X143369815Y-121785771D01*
X143348779Y-121776923D01*
X143340774Y-121779676D01*
X143339505Y-121794029D01*
X143338922Y-121801186D01*
X143331394Y-121811772D01*
X143310488Y-121816645D01*
X143270346Y-121817822D01*
X143201188Y-121817822D01*
X143201188Y-121515930D01*
X143339505Y-121515930D01*
X143340496Y-121568230D01*
X143344519Y-121603050D01*
X143353108Y-121626905D01*
X143367797Y-121646895D01*
X143406584Y-121676618D01*
X143451974Y-121686582D01*
X143495989Y-121674260D01*
X143533060Y-121639888D01*
X143542859Y-121614735D01*
X143550097Y-121570194D01*
X143553279Y-121516155D01*
X143552277Y-121460728D01*
X143546961Y-121412022D01*
X143537204Y-121378148D01*
X143534087Y-121372593D01*
X143504038Y-121344674D01*
X143463315Y-121332306D01*
X143419579Y-121335183D01*
X143380491Y-121353000D01*
X143353710Y-121385452D01*
X143352603Y-121388181D01*
X143345963Y-121418634D01*
X143341278Y-121464139D01*
X143339505Y-121515930D01*
X143201188Y-121515930D01*
X143201188Y-120962773D01*
X143339505Y-120962773D01*
X143339505Y-121255878D01*
X143365124Y-121232693D01*
X143389792Y-121218282D01*
X143436480Y-121206236D01*
X143491056Y-121202354D01*
X143544354Y-121207120D01*
X143587207Y-121221014D01*
X143617878Y-121240779D01*
X143649471Y-121274449D01*
X143670733Y-121319730D01*
X143683514Y-121380981D01*
X143689664Y-121462563D01*
X143690568Y-121495540D01*
X143690633Y-121516155D01*
X143690761Y-121556813D01*
G37*
X145864997Y-120594931D02*
X145863373Y-120634310D01*
X145859688Y-120682332D01*
X145853410Y-120716368D01*
X145843044Y-120743338D01*
X145827092Y-120770158D01*
X145826412Y-120771175D01*
X145787132Y-120814629D01*
X145739072Y-120847772D01*
X145683185Y-120867439D01*
X145609666Y-120873824D01*
X145537609Y-120861268D01*
X145473201Y-120831011D01*
X145422627Y-120784294D01*
X145408108Y-120762221D01*
X145380993Y-120693602D01*
X145367546Y-120608939D01*
X145367776Y-120587523D01*
X145502920Y-120587523D01*
X145503174Y-120627574D01*
X145507421Y-120654313D01*
X145517096Y-120674859D01*
X145533638Y-120696331D01*
X145556593Y-120717639D01*
X145602505Y-120736653D01*
X145651802Y-120733122D01*
X145698917Y-120706694D01*
X145712207Y-120694072D01*
X145726397Y-120672465D01*
X145734266Y-120642094D01*
X145738726Y-120594770D01*
X145739955Y-120559219D01*
X145733224Y-120486620D01*
X145712567Y-120434642D01*
X145677894Y-120402999D01*
X145637249Y-120387847D01*
X145588777Y-120389123D01*
X145543845Y-120414703D01*
X145533103Y-120424442D01*
X145519548Y-120441480D01*
X145511505Y-120463772D01*
X145507043Y-120497947D01*
X145504228Y-120550638D01*
X145502920Y-120587523D01*
X145367776Y-120587523D01*
X145368583Y-120512351D01*
X145369907Y-120498651D01*
X145388374Y-120410908D01*
X145422540Y-120342793D01*
X145472479Y-120294231D01*
X145538261Y-120265148D01*
X145619961Y-120255471D01*
X145650828Y-120256379D01*
X145714128Y-120267493D01*
X145765889Y-120294021D01*
X145814147Y-120339436D01*
X145821865Y-120348551D01*
X145842681Y-120379248D01*
X145856362Y-120414007D01*
X145863948Y-120458056D01*
X145866479Y-120516621D01*
X145865672Y-120559219D01*
X145864997Y-120594931D01*
G36*
X145864997Y-120594931D02*
G01*
X145863373Y-120634310D01*
X145859688Y-120682332D01*
X145853410Y-120716368D01*
X145843044Y-120743338D01*
X145827092Y-120770158D01*
X145826412Y-120771175D01*
X145787132Y-120814629D01*
X145739072Y-120847772D01*
X145683185Y-120867439D01*
X145609666Y-120873824D01*
X145537609Y-120861268D01*
X145473201Y-120831011D01*
X145422627Y-120784294D01*
X145408108Y-120762221D01*
X145380993Y-120693602D01*
X145367546Y-120608939D01*
X145367776Y-120587523D01*
X145502920Y-120587523D01*
X145503174Y-120627574D01*
X145507421Y-120654313D01*
X145517096Y-120674859D01*
X145533638Y-120696331D01*
X145556593Y-120717639D01*
X145602505Y-120736653D01*
X145651802Y-120733122D01*
X145698917Y-120706694D01*
X145712207Y-120694072D01*
X145726397Y-120672465D01*
X145734266Y-120642094D01*
X145738726Y-120594770D01*
X145739955Y-120559219D01*
X145733224Y-120486620D01*
X145712567Y-120434642D01*
X145677894Y-120402999D01*
X145637249Y-120387847D01*
X145588777Y-120389123D01*
X145543845Y-120414703D01*
X145533103Y-120424442D01*
X145519548Y-120441480D01*
X145511505Y-120463772D01*
X145507043Y-120497947D01*
X145504228Y-120550638D01*
X145502920Y-120587523D01*
X145367776Y-120587523D01*
X145368583Y-120512351D01*
X145369907Y-120498651D01*
X145388374Y-120410908D01*
X145422540Y-120342793D01*
X145472479Y-120294231D01*
X145538261Y-120265148D01*
X145619961Y-120255471D01*
X145650828Y-120256379D01*
X145714128Y-120267493D01*
X145765889Y-120294021D01*
X145814147Y-120339436D01*
X145821865Y-120348551D01*
X145842681Y-120379248D01*
X145856362Y-120414007D01*
X145863948Y-120458056D01*
X145866479Y-120516621D01*
X145865672Y-120559219D01*
X145864997Y-120594931D01*
G37*
X140619444Y-120519878D02*
X140617825Y-120616121D01*
X140617615Y-120618014D01*
X140599535Y-120706325D01*
X140566870Y-120774986D01*
X140518601Y-120825506D01*
X140453713Y-120859393D01*
X140441801Y-120863268D01*
X140367971Y-120874688D01*
X140291614Y-120868320D01*
X140220626Y-120845563D01*
X140162904Y-120807819D01*
X140119667Y-120767872D01*
X140165625Y-120731532D01*
X140211583Y-120695193D01*
X140266969Y-120722101D01*
X140331056Y-120743905D01*
X140387632Y-120744558D01*
X140433920Y-120724525D01*
X140467230Y-120684315D01*
X140479171Y-120660222D01*
X140485837Y-120639630D01*
X140481980Y-120625720D01*
X140464675Y-120617181D01*
X140430997Y-120612704D01*
X140378021Y-120610978D01*
X140302822Y-120610693D01*
X140120495Y-120610693D01*
X140120495Y-120523492D01*
X140121857Y-120485210D01*
X140250234Y-120485210D01*
X140256399Y-120492251D01*
X140274654Y-120495916D01*
X140309352Y-120497306D01*
X140364846Y-120497525D01*
X140394603Y-120497176D01*
X140441562Y-120494867D01*
X140473416Y-120490822D01*
X140485148Y-120485542D01*
X140482146Y-120466062D01*
X140460988Y-120428786D01*
X140425731Y-120398164D01*
X140383699Y-120379668D01*
X140342220Y-120378773D01*
X140310997Y-120393604D01*
X140275618Y-120427355D01*
X140253122Y-120469233D01*
X140251805Y-120473690D01*
X140250234Y-120485210D01*
X140121857Y-120485210D01*
X140122136Y-120477371D01*
X140126955Y-120431740D01*
X140133840Y-120400893D01*
X140138859Y-120389117D01*
X140175390Y-120336667D01*
X140228175Y-120292921D01*
X140289904Y-120264279D01*
X140322102Y-120256457D01*
X140398820Y-120252896D01*
X140467179Y-120271009D01*
X140525299Y-120308779D01*
X140571302Y-120364191D01*
X140603310Y-120435229D01*
X140612900Y-120485542D01*
X140619444Y-120519878D01*
G36*
X140619444Y-120519878D02*
G01*
X140617825Y-120616121D01*
X140617615Y-120618014D01*
X140599535Y-120706325D01*
X140566870Y-120774986D01*
X140518601Y-120825506D01*
X140453713Y-120859393D01*
X140441801Y-120863268D01*
X140367971Y-120874688D01*
X140291614Y-120868320D01*
X140220626Y-120845563D01*
X140162904Y-120807819D01*
X140119667Y-120767872D01*
X140165625Y-120731532D01*
X140211583Y-120695193D01*
X140266969Y-120722101D01*
X140331056Y-120743905D01*
X140387632Y-120744558D01*
X140433920Y-120724525D01*
X140467230Y-120684315D01*
X140479171Y-120660222D01*
X140485837Y-120639630D01*
X140481980Y-120625720D01*
X140464675Y-120617181D01*
X140430997Y-120612704D01*
X140378021Y-120610978D01*
X140302822Y-120610693D01*
X140120495Y-120610693D01*
X140120495Y-120523492D01*
X140121857Y-120485210D01*
X140250234Y-120485210D01*
X140256399Y-120492251D01*
X140274654Y-120495916D01*
X140309352Y-120497306D01*
X140364846Y-120497525D01*
X140394603Y-120497176D01*
X140441562Y-120494867D01*
X140473416Y-120490822D01*
X140485148Y-120485542D01*
X140482146Y-120466062D01*
X140460988Y-120428786D01*
X140425731Y-120398164D01*
X140383699Y-120379668D01*
X140342220Y-120378773D01*
X140310997Y-120393604D01*
X140275618Y-120427355D01*
X140253122Y-120469233D01*
X140251805Y-120473690D01*
X140250234Y-120485210D01*
X140121857Y-120485210D01*
X140122136Y-120477371D01*
X140126955Y-120431740D01*
X140133840Y-120400893D01*
X140138859Y-120389117D01*
X140175390Y-120336667D01*
X140228175Y-120292921D01*
X140289904Y-120264279D01*
X140322102Y-120256457D01*
X140398820Y-120252896D01*
X140467179Y-120271009D01*
X140525299Y-120308779D01*
X140571302Y-120364191D01*
X140603310Y-120435229D01*
X140612900Y-120485542D01*
X140619444Y-120519878D01*
G37*
X143098874Y-120258207D02*
X143171495Y-120276408D01*
X143224546Y-120310144D01*
X143258329Y-120359642D01*
X143273147Y-120425126D01*
X143270147Y-120487820D01*
X143248493Y-120540699D01*
X143206967Y-120579796D01*
X143144736Y-120605873D01*
X143060969Y-120619695D01*
X143006540Y-120626940D01*
X142956860Y-120642615D01*
X142931211Y-120665314D01*
X142929662Y-120694998D01*
X142939984Y-120713507D01*
X142971951Y-120735443D01*
X143017395Y-120745818D01*
X143070649Y-120744399D01*
X143126048Y-120730952D01*
X143177928Y-120705243D01*
X143229653Y-120671013D01*
X143275148Y-120717049D01*
X143320643Y-120763084D01*
X143282921Y-120793876D01*
X143268253Y-120804574D01*
X143226983Y-120828880D01*
X143182327Y-120849825D01*
X143146984Y-120861845D01*
X143095234Y-120870552D01*
X143031435Y-120870667D01*
X142953200Y-120861081D01*
X142882722Y-120836783D01*
X142832836Y-120798188D01*
X142803423Y-120745198D01*
X142794365Y-120677718D01*
X142800921Y-120618354D01*
X142821970Y-120569752D01*
X142859864Y-120534946D01*
X142917004Y-120511798D01*
X142995785Y-120498170D01*
X143004834Y-120497183D01*
X143053885Y-120490892D01*
X143093675Y-120484309D01*
X143116312Y-120478708D01*
X143123866Y-120474197D01*
X143136637Y-120450941D01*
X143134563Y-120421171D01*
X143117495Y-120395327D01*
X143108533Y-120389691D01*
X143071188Y-120380660D01*
X143022950Y-120381267D01*
X142972650Y-120390878D01*
X142929115Y-120408858D01*
X142883372Y-120435847D01*
X142847890Y-120394384D01*
X142839280Y-120383850D01*
X142819883Y-120355632D01*
X142811897Y-120336508D01*
X142820283Y-120324781D01*
X142846226Y-120306476D01*
X142883688Y-120286777D01*
X142888966Y-120284370D01*
X142938366Y-120265482D01*
X142985983Y-120256452D01*
X143045072Y-120254639D01*
X143098874Y-120258207D01*
G36*
X143098874Y-120258207D02*
G01*
X143171495Y-120276408D01*
X143224546Y-120310144D01*
X143258329Y-120359642D01*
X143273147Y-120425126D01*
X143270147Y-120487820D01*
X143248493Y-120540699D01*
X143206967Y-120579796D01*
X143144736Y-120605873D01*
X143060969Y-120619695D01*
X143006540Y-120626940D01*
X142956860Y-120642615D01*
X142931211Y-120665314D01*
X142929662Y-120694998D01*
X142939984Y-120713507D01*
X142971951Y-120735443D01*
X143017395Y-120745818D01*
X143070649Y-120744399D01*
X143126048Y-120730952D01*
X143177928Y-120705243D01*
X143229653Y-120671013D01*
X143275148Y-120717049D01*
X143320643Y-120763084D01*
X143282921Y-120793876D01*
X143268253Y-120804574D01*
X143226983Y-120828880D01*
X143182327Y-120849825D01*
X143146984Y-120861845D01*
X143095234Y-120870552D01*
X143031435Y-120870667D01*
X142953200Y-120861081D01*
X142882722Y-120836783D01*
X142832836Y-120798188D01*
X142803423Y-120745198D01*
X142794365Y-120677718D01*
X142800921Y-120618354D01*
X142821970Y-120569752D01*
X142859864Y-120534946D01*
X142917004Y-120511798D01*
X142995785Y-120498170D01*
X143004834Y-120497183D01*
X143053885Y-120490892D01*
X143093675Y-120484309D01*
X143116312Y-120478708D01*
X143123866Y-120474197D01*
X143136637Y-120450941D01*
X143134563Y-120421171D01*
X143117495Y-120395327D01*
X143108533Y-120389691D01*
X143071188Y-120380660D01*
X143022950Y-120381267D01*
X142972650Y-120390878D01*
X142929115Y-120408858D01*
X142883372Y-120435847D01*
X142847890Y-120394384D01*
X142839280Y-120383850D01*
X142819883Y-120355632D01*
X142811897Y-120336508D01*
X142820283Y-120324781D01*
X142846226Y-120306476D01*
X142883688Y-120286777D01*
X142888966Y-120284370D01*
X142938366Y-120265482D01*
X142985983Y-120256452D01*
X143045072Y-120254639D01*
X143098874Y-120258207D01*
G37*
X141264353Y-121509753D02*
X141262718Y-121556692D01*
X141247827Y-121646459D01*
X141217185Y-121717045D01*
X141170524Y-121768952D01*
X141107574Y-121802686D01*
X141087235Y-121808647D01*
X141014612Y-121816971D01*
X140937928Y-121809946D01*
X140868663Y-121788265D01*
X140844262Y-121775959D01*
X140809275Y-121754879D01*
X140788072Y-121737534D01*
X140784942Y-121733571D01*
X140779085Y-121719077D01*
X140787524Y-121703321D01*
X140813221Y-121679460D01*
X140825622Y-121669072D01*
X140850052Y-121650063D01*
X140862861Y-121642293D01*
X140866530Y-121643094D01*
X140887561Y-121651745D01*
X140918960Y-121666931D01*
X140929197Y-121671926D01*
X140989590Y-121690475D01*
X141042057Y-121685694D01*
X141088065Y-121657500D01*
X141093419Y-121652291D01*
X141119013Y-121619659D01*
X141133637Y-121588342D01*
X141141736Y-121553763D01*
X140761782Y-121553763D01*
X140761852Y-121487748D01*
X140761892Y-121481182D01*
X140767022Y-121428218D01*
X140900099Y-121428218D01*
X140901670Y-121439203D01*
X140909738Y-121446773D01*
X140928967Y-121450975D01*
X140964019Y-121452783D01*
X141019554Y-121453169D01*
X141050429Y-121452768D01*
X141096002Y-121450429D01*
X141127348Y-121446465D01*
X141139010Y-121441413D01*
X141129064Y-121399827D01*
X141099947Y-121361013D01*
X141057952Y-121334086D01*
X141009440Y-121324772D01*
X140973723Y-121335272D01*
X140938020Y-121360940D01*
X140910879Y-121394381D01*
X140900099Y-121428218D01*
X140767022Y-121428218D01*
X140769758Y-121399965D01*
X140792655Y-121333895D01*
X140832607Y-121276940D01*
X140856979Y-121252848D01*
X140907315Y-121220597D01*
X140967419Y-121204970D01*
X141043338Y-121203871D01*
X141080010Y-121208179D01*
X141147703Y-121230549D01*
X141199530Y-121271263D01*
X141235945Y-121330949D01*
X141257401Y-121410236D01*
X141259579Y-121441413D01*
X141264353Y-121509753D01*
G36*
X141264353Y-121509753D02*
G01*
X141262718Y-121556692D01*
X141247827Y-121646459D01*
X141217185Y-121717045D01*
X141170524Y-121768952D01*
X141107574Y-121802686D01*
X141087235Y-121808647D01*
X141014612Y-121816971D01*
X140937928Y-121809946D01*
X140868663Y-121788265D01*
X140844262Y-121775959D01*
X140809275Y-121754879D01*
X140788072Y-121737534D01*
X140784942Y-121733571D01*
X140779085Y-121719077D01*
X140787524Y-121703321D01*
X140813221Y-121679460D01*
X140825622Y-121669072D01*
X140850052Y-121650063D01*
X140862861Y-121642293D01*
X140866530Y-121643094D01*
X140887561Y-121651745D01*
X140918960Y-121666931D01*
X140929197Y-121671926D01*
X140989590Y-121690475D01*
X141042057Y-121685694D01*
X141088065Y-121657500D01*
X141093419Y-121652291D01*
X141119013Y-121619659D01*
X141133637Y-121588342D01*
X141141736Y-121553763D01*
X140761782Y-121553763D01*
X140761852Y-121487748D01*
X140761892Y-121481182D01*
X140767022Y-121428218D01*
X140900099Y-121428218D01*
X140901670Y-121439203D01*
X140909738Y-121446773D01*
X140928967Y-121450975D01*
X140964019Y-121452783D01*
X141019554Y-121453169D01*
X141050429Y-121452768D01*
X141096002Y-121450429D01*
X141127348Y-121446465D01*
X141139010Y-121441413D01*
X141129064Y-121399827D01*
X141099947Y-121361013D01*
X141057952Y-121334086D01*
X141009440Y-121324772D01*
X140973723Y-121335272D01*
X140938020Y-121360940D01*
X140910879Y-121394381D01*
X140900099Y-121428218D01*
X140767022Y-121428218D01*
X140769758Y-121399965D01*
X140792655Y-121333895D01*
X140832607Y-121276940D01*
X140856979Y-121252848D01*
X140907315Y-121220597D01*
X140967419Y-121204970D01*
X141043338Y-121203871D01*
X141080010Y-121208179D01*
X141147703Y-121230549D01*
X141199530Y-121271263D01*
X141235945Y-121330949D01*
X141257401Y-121410236D01*
X141259579Y-121441413D01*
X141264353Y-121509753D01*
G37*
X144707022Y-120484861D02*
X144711421Y-120572936D01*
X144710322Y-120611371D01*
X144697926Y-120695367D01*
X144670608Y-120761595D01*
X144626941Y-120812784D01*
X144565495Y-120851663D01*
X144505888Y-120869812D01*
X144431110Y-120873284D01*
X144355664Y-120859930D01*
X144288366Y-120830425D01*
X144263428Y-120814012D01*
X144235951Y-120792973D01*
X144223414Y-120779129D01*
X144224124Y-120773417D01*
X144238158Y-120753955D01*
X144264533Y-120730376D01*
X144310240Y-120695513D01*
X144363799Y-120722262D01*
X144378282Y-120728882D01*
X144420916Y-120743273D01*
X144456649Y-120749010D01*
X144482998Y-120744282D01*
X144524347Y-120721514D01*
X144559104Y-120686170D01*
X144578983Y-120645273D01*
X144587083Y-120610693D01*
X144207129Y-120610693D01*
X144207199Y-120544679D01*
X144207774Y-120523757D01*
X144211972Y-120478862D01*
X144345445Y-120478862D01*
X144345690Y-120481434D01*
X144352604Y-120489443D01*
X144372141Y-120494364D01*
X144408467Y-120496843D01*
X144465748Y-120497525D01*
X144484575Y-120497517D01*
X144533470Y-120497065D01*
X144562863Y-120495113D01*
X144577115Y-120490558D01*
X144580582Y-120482299D01*
X144577625Y-120469233D01*
X144577173Y-120467752D01*
X144551699Y-120422285D01*
X144511539Y-120390981D01*
X144463651Y-120379327D01*
X144445949Y-120380259D01*
X144413094Y-120391408D01*
X144381575Y-120419763D01*
X144373085Y-120429789D01*
X144353336Y-120458423D01*
X144345445Y-120478862D01*
X144211972Y-120478862D01*
X144212512Y-120473091D01*
X144220459Y-120431166D01*
X144229168Y-120407696D01*
X144259790Y-120356646D01*
X144300799Y-120310283D01*
X144344168Y-120278514D01*
X144356699Y-120272614D01*
X144429661Y-120253046D01*
X144504168Y-120255109D01*
X144574217Y-120277931D01*
X144633807Y-120320639D01*
X144666038Y-120360025D01*
X144692392Y-120415510D01*
X144706482Y-120482299D01*
X144707022Y-120484861D01*
G36*
X144707022Y-120484861D02*
G01*
X144711421Y-120572936D01*
X144710322Y-120611371D01*
X144697926Y-120695367D01*
X144670608Y-120761595D01*
X144626941Y-120812784D01*
X144565495Y-120851663D01*
X144505888Y-120869812D01*
X144431110Y-120873284D01*
X144355664Y-120859930D01*
X144288366Y-120830425D01*
X144263428Y-120814012D01*
X144235951Y-120792973D01*
X144223414Y-120779129D01*
X144224124Y-120773417D01*
X144238158Y-120753955D01*
X144264533Y-120730376D01*
X144310240Y-120695513D01*
X144363799Y-120722262D01*
X144378282Y-120728882D01*
X144420916Y-120743273D01*
X144456649Y-120749010D01*
X144482998Y-120744282D01*
X144524347Y-120721514D01*
X144559104Y-120686170D01*
X144578983Y-120645273D01*
X144587083Y-120610693D01*
X144207129Y-120610693D01*
X144207199Y-120544679D01*
X144207774Y-120523757D01*
X144211972Y-120478862D01*
X144345445Y-120478862D01*
X144345690Y-120481434D01*
X144352604Y-120489443D01*
X144372141Y-120494364D01*
X144408467Y-120496843D01*
X144465748Y-120497525D01*
X144484575Y-120497517D01*
X144533470Y-120497065D01*
X144562863Y-120495113D01*
X144577115Y-120490558D01*
X144580582Y-120482299D01*
X144577625Y-120469233D01*
X144577173Y-120467752D01*
X144551699Y-120422285D01*
X144511539Y-120390981D01*
X144463651Y-120379327D01*
X144445949Y-120380259D01*
X144413094Y-120391408D01*
X144381575Y-120419763D01*
X144373085Y-120429789D01*
X144353336Y-120458423D01*
X144345445Y-120478862D01*
X144211972Y-120478862D01*
X144212512Y-120473091D01*
X144220459Y-120431166D01*
X144229168Y-120407696D01*
X144259790Y-120356646D01*
X144300799Y-120310283D01*
X144344168Y-120278514D01*
X144356699Y-120272614D01*
X144429661Y-120253046D01*
X144504168Y-120255109D01*
X144574217Y-120277931D01*
X144633807Y-120320639D01*
X144666038Y-120360025D01*
X144692392Y-120415510D01*
X144706482Y-120482299D01*
X144707022Y-120484861D01*
G37*
X142289413Y-121652333D02*
X142274244Y-121709419D01*
X142241277Y-121758255D01*
X142191270Y-121793386D01*
X142186362Y-121795521D01*
X142131646Y-121810903D01*
X142069993Y-121816899D01*
X142011376Y-121813233D01*
X141965767Y-121799629D01*
X141947549Y-121790754D01*
X141934179Y-121788637D01*
X141931188Y-121799706D01*
X141925524Y-121809942D01*
X141903607Y-121816038D01*
X141861068Y-121817822D01*
X141790948Y-121817822D01*
X141795053Y-121575768D01*
X141795492Y-121553763D01*
X141931188Y-121553763D01*
X141931188Y-121597773D01*
X141935924Y-121630666D01*
X141956336Y-121666931D01*
X141963871Y-121673597D01*
X141994753Y-121687620D01*
X142041213Y-121691228D01*
X142069090Y-121689819D01*
X142121255Y-121679204D01*
X142153587Y-121659425D01*
X142164492Y-121631824D01*
X142152374Y-121597743D01*
X142145304Y-121588824D01*
X142113724Y-121568818D01*
X142063744Y-121557395D01*
X141992487Y-121553763D01*
X141931188Y-121553763D01*
X141795492Y-121553763D01*
X141796169Y-121519794D01*
X141799106Y-121435996D01*
X141804058Y-121371920D01*
X141812002Y-121324073D01*
X141823917Y-121288962D01*
X141840780Y-121263093D01*
X141863572Y-121242974D01*
X141893269Y-121225110D01*
X141908589Y-121218290D01*
X141961589Y-121205417D01*
X142025513Y-121200095D01*
X142091602Y-121202227D01*
X142151099Y-121211714D01*
X142195247Y-121228461D01*
X142210604Y-121238185D01*
X142245960Y-121267005D01*
X142257926Y-121291137D01*
X142255020Y-121295800D01*
X142236909Y-121312088D01*
X142207672Y-121333817D01*
X142192725Y-121343987D01*
X142167270Y-121358397D01*
X142150728Y-121359773D01*
X142135370Y-121349827D01*
X142097094Y-121329684D01*
X142045590Y-121321400D01*
X141992957Y-121327742D01*
X141991961Y-121328030D01*
X141954838Y-121344158D01*
X141936463Y-121369405D01*
X141931380Y-121411158D01*
X141931188Y-121450879D01*
X142062423Y-121455168D01*
X142083331Y-121455873D01*
X142136043Y-121458326D01*
X142171381Y-121462180D01*
X142195267Y-121468878D01*
X142213624Y-121479864D01*
X142232376Y-121496580D01*
X142263337Y-121535244D01*
X142286029Y-121592456D01*
X142288254Y-121631824D01*
X142289413Y-121652333D01*
G36*
X142289413Y-121652333D02*
G01*
X142274244Y-121709419D01*
X142241277Y-121758255D01*
X142191270Y-121793386D01*
X142186362Y-121795521D01*
X142131646Y-121810903D01*
X142069993Y-121816899D01*
X142011376Y-121813233D01*
X141965767Y-121799629D01*
X141947549Y-121790754D01*
X141934179Y-121788637D01*
X141931188Y-121799706D01*
X141925524Y-121809942D01*
X141903607Y-121816038D01*
X141861068Y-121817822D01*
X141790948Y-121817822D01*
X141795053Y-121575768D01*
X141795492Y-121553763D01*
X141931188Y-121553763D01*
X141931188Y-121597773D01*
X141935924Y-121630666D01*
X141956336Y-121666931D01*
X141963871Y-121673597D01*
X141994753Y-121687620D01*
X142041213Y-121691228D01*
X142069090Y-121689819D01*
X142121255Y-121679204D01*
X142153587Y-121659425D01*
X142164492Y-121631824D01*
X142152374Y-121597743D01*
X142145304Y-121588824D01*
X142113724Y-121568818D01*
X142063744Y-121557395D01*
X141992487Y-121553763D01*
X141931188Y-121553763D01*
X141795492Y-121553763D01*
X141796169Y-121519794D01*
X141799106Y-121435996D01*
X141804058Y-121371920D01*
X141812002Y-121324073D01*
X141823917Y-121288962D01*
X141840780Y-121263093D01*
X141863572Y-121242974D01*
X141893269Y-121225110D01*
X141908589Y-121218290D01*
X141961589Y-121205417D01*
X142025513Y-121200095D01*
X142091602Y-121202227D01*
X142151099Y-121211714D01*
X142195247Y-121228461D01*
X142210604Y-121238185D01*
X142245960Y-121267005D01*
X142257926Y-121291137D01*
X142255020Y-121295800D01*
X142236909Y-121312088D01*
X142207672Y-121333817D01*
X142192725Y-121343987D01*
X142167270Y-121358397D01*
X142150728Y-121359773D01*
X142135370Y-121349827D01*
X142097094Y-121329684D01*
X142045590Y-121321400D01*
X141992957Y-121327742D01*
X141991961Y-121328030D01*
X141954838Y-121344158D01*
X141936463Y-121369405D01*
X141931380Y-121411158D01*
X141931188Y-121450879D01*
X142062423Y-121455168D01*
X142083331Y-121455873D01*
X142136043Y-121458326D01*
X142171381Y-121462180D01*
X142195267Y-121468878D01*
X142213624Y-121479864D01*
X142232376Y-121496580D01*
X142263337Y-121535244D01*
X142286029Y-121592456D01*
X142288254Y-121631824D01*
X142289413Y-121652333D01*
G37*
X144707299Y-121650223D02*
X144707157Y-121651882D01*
X144691835Y-121716479D01*
X144657753Y-121765063D01*
X144603218Y-121800072D01*
X144575036Y-121808589D01*
X144526764Y-121815228D01*
X144473978Y-121816813D01*
X144426353Y-121813160D01*
X144393566Y-121804083D01*
X144373652Y-121796813D01*
X144354155Y-121804083D01*
X144347023Y-121808295D01*
X144318557Y-121815126D01*
X144280059Y-121817822D01*
X144219703Y-121817822D01*
X144219703Y-121574484D01*
X144219707Y-121553763D01*
X144358020Y-121553763D01*
X144358020Y-121602111D01*
X144362668Y-121638904D01*
X144381015Y-121671269D01*
X144391514Y-121678274D01*
X144428988Y-121689191D01*
X144475773Y-121691917D01*
X144521652Y-121686379D01*
X144556410Y-121672505D01*
X144573726Y-121654161D01*
X144584356Y-121621566D01*
X144574929Y-121595729D01*
X144543764Y-121573263D01*
X144493667Y-121558850D01*
X144427582Y-121553763D01*
X144358020Y-121553763D01*
X144219707Y-121553763D01*
X144219707Y-121553440D01*
X144219937Y-121474122D01*
X144220797Y-121415154D01*
X144222679Y-121372616D01*
X144225974Y-121342592D01*
X144231073Y-121321163D01*
X144238366Y-121304411D01*
X144248246Y-121288419D01*
X144280023Y-121250948D01*
X144325055Y-121222339D01*
X144384210Y-121206555D01*
X144462161Y-121201703D01*
X144464695Y-121201708D01*
X144518880Y-121204155D01*
X144567380Y-121210256D01*
X144600478Y-121218809D01*
X144609552Y-121223096D01*
X144638433Y-121241248D01*
X144664568Y-121262822D01*
X144681764Y-121282236D01*
X144683825Y-121293909D01*
X144679803Y-121297063D01*
X144635976Y-121330739D01*
X144606671Y-121350600D01*
X144587294Y-121358613D01*
X144573253Y-121356746D01*
X144559957Y-121346965D01*
X144535418Y-121334756D01*
X144494064Y-121326615D01*
X144447326Y-121324503D01*
X144405034Y-121328800D01*
X144377017Y-121339887D01*
X144375543Y-121341236D01*
X144362953Y-121366581D01*
X144358020Y-121404411D01*
X144358020Y-121453169D01*
X144474331Y-121453216D01*
X144527760Y-121454061D01*
X144572735Y-121457740D01*
X144604907Y-121465309D01*
X144630899Y-121477808D01*
X144636948Y-121481647D01*
X144680710Y-121523845D01*
X144703987Y-121579647D01*
X144705955Y-121621566D01*
X144707299Y-121650223D01*
G36*
X144707299Y-121650223D02*
G01*
X144707157Y-121651882D01*
X144691835Y-121716479D01*
X144657753Y-121765063D01*
X144603218Y-121800072D01*
X144575036Y-121808589D01*
X144526764Y-121815228D01*
X144473978Y-121816813D01*
X144426353Y-121813160D01*
X144393566Y-121804083D01*
X144373652Y-121796813D01*
X144354155Y-121804083D01*
X144347023Y-121808295D01*
X144318557Y-121815126D01*
X144280059Y-121817822D01*
X144219703Y-121817822D01*
X144219703Y-121574484D01*
X144219707Y-121553763D01*
X144358020Y-121553763D01*
X144358020Y-121602111D01*
X144362668Y-121638904D01*
X144381015Y-121671269D01*
X144391514Y-121678274D01*
X144428988Y-121689191D01*
X144475773Y-121691917D01*
X144521652Y-121686379D01*
X144556410Y-121672505D01*
X144573726Y-121654161D01*
X144584356Y-121621566D01*
X144574929Y-121595729D01*
X144543764Y-121573263D01*
X144493667Y-121558850D01*
X144427582Y-121553763D01*
X144358020Y-121553763D01*
X144219707Y-121553763D01*
X144219707Y-121553440D01*
X144219937Y-121474122D01*
X144220797Y-121415154D01*
X144222679Y-121372616D01*
X144225974Y-121342592D01*
X144231073Y-121321163D01*
X144238366Y-121304411D01*
X144248246Y-121288419D01*
X144280023Y-121250948D01*
X144325055Y-121222339D01*
X144384210Y-121206555D01*
X144462161Y-121201703D01*
X144464695Y-121201708D01*
X144518880Y-121204155D01*
X144567380Y-121210256D01*
X144600478Y-121218809D01*
X144609552Y-121223096D01*
X144638433Y-121241248D01*
X144664568Y-121262822D01*
X144681764Y-121282236D01*
X144683825Y-121293909D01*
X144679803Y-121297063D01*
X144635976Y-121330739D01*
X144606671Y-121350600D01*
X144587294Y-121358613D01*
X144573253Y-121356746D01*
X144559957Y-121346965D01*
X144535418Y-121334756D01*
X144494064Y-121326615D01*
X144447326Y-121324503D01*
X144405034Y-121328800D01*
X144377017Y-121339887D01*
X144375543Y-121341236D01*
X144362953Y-121366581D01*
X144358020Y-121404411D01*
X144358020Y-121453169D01*
X144474331Y-121453216D01*
X144527760Y-121454061D01*
X144572735Y-121457740D01*
X144604907Y-121465309D01*
X144630899Y-121477808D01*
X144636948Y-121481647D01*
X144680710Y-121523845D01*
X144703987Y-121579647D01*
X144705955Y-121621566D01*
X144707299Y-121650223D01*
G37*
X145275940Y-121819136D02*
X145209926Y-121815336D01*
X145143911Y-121811535D01*
X145140772Y-121610347D01*
X145139844Y-121561425D01*
X145137208Y-121487926D01*
X145132683Y-121433991D01*
X145125438Y-121395995D01*
X145114642Y-121370313D01*
X145099462Y-121353320D01*
X145079066Y-121341389D01*
X145040797Y-121329205D01*
X145002738Y-121333940D01*
X144962549Y-121359979D01*
X144923861Y-121392533D01*
X144923861Y-121817822D01*
X144785544Y-121817822D01*
X144785544Y-121587176D01*
X144785677Y-121514882D01*
X144786413Y-121450641D01*
X144788181Y-121403618D01*
X144791411Y-121369548D01*
X144796530Y-121344170D01*
X144803967Y-121323221D01*
X144814150Y-121302436D01*
X144816564Y-121298024D01*
X144848675Y-121255047D01*
X144886256Y-121225013D01*
X144931564Y-121209243D01*
X144991561Y-121202222D01*
X145051643Y-121206025D01*
X145100525Y-121220868D01*
X145137624Y-121240052D01*
X145137624Y-120824859D01*
X145086792Y-120851354D01*
X145065558Y-120860980D01*
X144998536Y-120874592D01*
X144931930Y-120865184D01*
X144870187Y-120833905D01*
X144817757Y-120781902D01*
X144809543Y-120769680D01*
X144801649Y-120751763D01*
X144796500Y-120727404D01*
X144793527Y-120691927D01*
X144792161Y-120640656D01*
X144791915Y-120587236D01*
X144924749Y-120587236D01*
X144924861Y-120631849D01*
X144928272Y-120661601D01*
X144935937Y-120682835D01*
X144948814Y-120701896D01*
X144965171Y-120719617D01*
X144991329Y-120733028D01*
X145030742Y-120736436D01*
X145065559Y-120733471D01*
X145100020Y-120718631D01*
X145122215Y-120688569D01*
X145134097Y-120640254D01*
X145137624Y-120570650D01*
X145136712Y-120533624D01*
X145127609Y-120463728D01*
X145108828Y-120416464D01*
X145080476Y-120392168D01*
X145051840Y-120385332D01*
X145001970Y-120388537D01*
X144959833Y-120408380D01*
X144949749Y-120417480D01*
X144939063Y-120433223D01*
X144932456Y-120456658D01*
X144928532Y-120493604D01*
X144925897Y-120549880D01*
X144924749Y-120587236D01*
X144791915Y-120587236D01*
X144791831Y-120568917D01*
X144791944Y-120536184D01*
X144793872Y-120460044D01*
X144799240Y-120403166D01*
X144809406Y-120361249D01*
X144825725Y-120329996D01*
X144849553Y-120305106D01*
X144882247Y-120282282D01*
X144908759Y-120269184D01*
X144971615Y-120254739D01*
X145037869Y-120256707D01*
X145096757Y-120275433D01*
X145122030Y-120287673D01*
X145134742Y-120288938D01*
X145137624Y-120277798D01*
X145137626Y-120277461D01*
X145143838Y-120266087D01*
X145165260Y-120260256D01*
X145206782Y-120258614D01*
X145275940Y-120258614D01*
X145275940Y-120570650D01*
X145275940Y-121819136D01*
G36*
X145275940Y-121819136D02*
G01*
X145209926Y-121815336D01*
X145143911Y-121811535D01*
X145140772Y-121610347D01*
X145139844Y-121561425D01*
X145137208Y-121487926D01*
X145132683Y-121433991D01*
X145125438Y-121395995D01*
X145114642Y-121370313D01*
X145099462Y-121353320D01*
X145079066Y-121341389D01*
X145040797Y-121329205D01*
X145002738Y-121333940D01*
X144962549Y-121359979D01*
X144923861Y-121392533D01*
X144923861Y-121817822D01*
X144785544Y-121817822D01*
X144785544Y-121587176D01*
X144785677Y-121514882D01*
X144786413Y-121450641D01*
X144788181Y-121403618D01*
X144791411Y-121369548D01*
X144796530Y-121344170D01*
X144803967Y-121323221D01*
X144814150Y-121302436D01*
X144816564Y-121298024D01*
X144848675Y-121255047D01*
X144886256Y-121225013D01*
X144931564Y-121209243D01*
X144991561Y-121202222D01*
X145051643Y-121206025D01*
X145100525Y-121220868D01*
X145137624Y-121240052D01*
X145137624Y-120824859D01*
X145086792Y-120851354D01*
X145065558Y-120860980D01*
X144998536Y-120874592D01*
X144931930Y-120865184D01*
X144870187Y-120833905D01*
X144817757Y-120781902D01*
X144809543Y-120769680D01*
X144801649Y-120751763D01*
X144796500Y-120727404D01*
X144793527Y-120691927D01*
X144792161Y-120640656D01*
X144791915Y-120587236D01*
X144924749Y-120587236D01*
X144924861Y-120631849D01*
X144928272Y-120661601D01*
X144935937Y-120682835D01*
X144948814Y-120701896D01*
X144965171Y-120719617D01*
X144991329Y-120733028D01*
X145030742Y-120736436D01*
X145065559Y-120733471D01*
X145100020Y-120718631D01*
X145122215Y-120688569D01*
X145134097Y-120640254D01*
X145137624Y-120570650D01*
X145136712Y-120533624D01*
X145127609Y-120463728D01*
X145108828Y-120416464D01*
X145080476Y-120392168D01*
X145051840Y-120385332D01*
X145001970Y-120388537D01*
X144959833Y-120408380D01*
X144949749Y-120417480D01*
X144939063Y-120433223D01*
X144932456Y-120456658D01*
X144928532Y-120493604D01*
X144925897Y-120549880D01*
X144924749Y-120587236D01*
X144791915Y-120587236D01*
X144791831Y-120568917D01*
X144791944Y-120536184D01*
X144793872Y-120460044D01*
X144799240Y-120403166D01*
X144809406Y-120361249D01*
X144825725Y-120329996D01*
X144849553Y-120305106D01*
X144882247Y-120282282D01*
X144908759Y-120269184D01*
X144971615Y-120254739D01*
X145037869Y-120256707D01*
X145096757Y-120275433D01*
X145122030Y-120287673D01*
X145134742Y-120288938D01*
X145137624Y-120277798D01*
X145137626Y-120277461D01*
X145143838Y-120266087D01*
X145165260Y-120260256D01*
X145206782Y-120258614D01*
X145275940Y-120258614D01*
X145275940Y-120570650D01*
X145275940Y-121819136D01*
G37*
X143364389Y-116090018D02*
X143421237Y-116391570D01*
X143631001Y-116478041D01*
X143840764Y-116564512D01*
X144092410Y-116393395D01*
X144142216Y-116359661D01*
X144208244Y-116315381D01*
X144265410Y-116277561D01*
X144310744Y-116248142D01*
X144341280Y-116229067D01*
X144354046Y-116222278D01*
X144361887Y-116227106D01*
X144385325Y-116247339D01*
X144420794Y-116280543D01*
X144465289Y-116323670D01*
X144515805Y-116373670D01*
X144569336Y-116427495D01*
X144622877Y-116482095D01*
X144673423Y-116534423D01*
X144717968Y-116581428D01*
X144753507Y-116620063D01*
X144777034Y-116647278D01*
X144785544Y-116660024D01*
X144783565Y-116665500D01*
X144769857Y-116689927D01*
X144744825Y-116730129D01*
X144710499Y-116782952D01*
X144668907Y-116845247D01*
X144622079Y-116913862D01*
X144596380Y-116951283D01*
X144552173Y-117016432D01*
X144514272Y-117073289D01*
X144484698Y-117118770D01*
X144465472Y-117149793D01*
X144458614Y-117163274D01*
X144458726Y-117164021D01*
X144464776Y-117181110D01*
X144478654Y-117216006D01*
X144498427Y-117264151D01*
X144522160Y-117320986D01*
X144547918Y-117381953D01*
X144573766Y-117442492D01*
X144597771Y-117498047D01*
X144617998Y-117544057D01*
X144632511Y-117575965D01*
X144639377Y-117589212D01*
X144643439Y-117590387D01*
X144668121Y-117595687D01*
X144712111Y-117604467D01*
X144771887Y-117616040D01*
X144843929Y-117629721D01*
X144924716Y-117644823D01*
X144967294Y-117652830D01*
X145045445Y-117668107D01*
X145113775Y-117682215D01*
X145168551Y-117694345D01*
X145206037Y-117703686D01*
X145222500Y-117709427D01*
X145225457Y-117715119D01*
X145230362Y-117742930D01*
X145234216Y-117789250D01*
X145237021Y-117849720D01*
X145238781Y-117919983D01*
X145239499Y-117995680D01*
X145239177Y-118072453D01*
X145237819Y-118145944D01*
X145235428Y-118211794D01*
X145232006Y-118265645D01*
X145227556Y-118303138D01*
X145222082Y-118319916D01*
X145218760Y-118321809D01*
X145193987Y-118329926D01*
X145151011Y-118340666D01*
X145094802Y-118352853D01*
X145030325Y-118365310D01*
X145008570Y-118369277D01*
X144908093Y-118387729D01*
X144829126Y-118402559D01*
X144768934Y-118414380D01*
X144724778Y-118423809D01*
X144693920Y-118431460D01*
X144673625Y-118437948D01*
X144661154Y-118443888D01*
X144653771Y-118449894D01*
X144652913Y-118450902D01*
X144640838Y-118471919D01*
X144622971Y-118510376D01*
X144601042Y-118561761D01*
X144576784Y-118621563D01*
X144551927Y-118685270D01*
X144528205Y-118748371D01*
X144507347Y-118806355D01*
X144491087Y-118854709D01*
X144481156Y-118888922D01*
X144479285Y-118904483D01*
X144480536Y-118906502D01*
X144493486Y-118926028D01*
X144517840Y-118962042D01*
X144551340Y-119011228D01*
X144591727Y-119070267D01*
X144636745Y-119135842D01*
X144649100Y-119153884D01*
X144692545Y-119218599D01*
X144730091Y-119276476D01*
X144759594Y-119324082D01*
X144778914Y-119357985D01*
X144785905Y-119374752D01*
X144784398Y-119379161D01*
X144768695Y-119400882D01*
X144737714Y-119436354D01*
X144693673Y-119483188D01*
X144638790Y-119538996D01*
X144575286Y-119601392D01*
X144538988Y-119636317D01*
X144481595Y-119690711D01*
X144431361Y-119737302D01*
X144390984Y-119773636D01*
X144363161Y-119797261D01*
X144350590Y-119805724D01*
X144341952Y-119802587D01*
X144315360Y-119787747D01*
X144276741Y-119763477D01*
X144231134Y-119732852D01*
X144198707Y-119710503D01*
X144133970Y-119666122D01*
X144064886Y-119618987D01*
X144001787Y-119576155D01*
X143878178Y-119492547D01*
X143774417Y-119548650D01*
X143749984Y-119561599D01*
X143705552Y-119583749D01*
X143671191Y-119599041D01*
X143652828Y-119604743D01*
X143646818Y-119597421D01*
X143631895Y-119569541D01*
X143609852Y-119523575D01*
X143581917Y-119462441D01*
X143549317Y-119389055D01*
X143513276Y-119306335D01*
X143475023Y-119217197D01*
X143435783Y-119124559D01*
X143396783Y-119031337D01*
X143359249Y-118940450D01*
X143324409Y-118854814D01*
X143293488Y-118777345D01*
X143267714Y-118710962D01*
X143248311Y-118658582D01*
X143236508Y-118623121D01*
X143233531Y-118607496D01*
X143233732Y-118607039D01*
X143247601Y-118592595D01*
X143276611Y-118569974D01*
X143314772Y-118543864D01*
X143326817Y-118535892D01*
X143418469Y-118460256D01*
X143494323Y-118370169D01*
X143552581Y-118269381D01*
X143591448Y-118161640D01*
X143609128Y-118050697D01*
X143603826Y-117940303D01*
X143582347Y-117842115D01*
X143543782Y-117742966D01*
X143487562Y-117654512D01*
X143410410Y-117570487D01*
X143380095Y-117543645D01*
X143282094Y-117477510D01*
X143176227Y-117432970D01*
X143065561Y-117409625D01*
X142953164Y-117407078D01*
X142842105Y-117424929D01*
X142735451Y-117462780D01*
X142636270Y-117520232D01*
X142547631Y-117596887D01*
X142472600Y-117692345D01*
X142458175Y-117715985D01*
X142409143Y-117824034D01*
X142383103Y-117936548D01*
X142379372Y-118050614D01*
X142397268Y-118163318D01*
X142436109Y-118271745D01*
X142495214Y-118372982D01*
X142573900Y-118464114D01*
X142671485Y-118542228D01*
X142674654Y-118544333D01*
X142712411Y-118570940D01*
X142740709Y-118593561D01*
X142753634Y-118607496D01*
X142752003Y-118618421D01*
X142741864Y-118650231D01*
X142723884Y-118699534D01*
X142699292Y-118763413D01*
X142669311Y-118838948D01*
X142635170Y-118923223D01*
X142598092Y-119013320D01*
X142559306Y-119106321D01*
X142520036Y-119199308D01*
X142481509Y-119289364D01*
X142444950Y-119373571D01*
X142411586Y-119449010D01*
X142382643Y-119512765D01*
X142359346Y-119561917D01*
X142342923Y-119593549D01*
X142334598Y-119604743D01*
X142327674Y-119603227D01*
X142300477Y-119592331D01*
X142260280Y-119573228D01*
X142213009Y-119548650D01*
X142109248Y-119492547D01*
X141985639Y-119576155D01*
X141949120Y-119600913D01*
X141881194Y-119647171D01*
X141813475Y-119693503D01*
X141756291Y-119732852D01*
X141724732Y-119754297D01*
X141683714Y-119780939D01*
X141653301Y-119799178D01*
X141638446Y-119805941D01*
X141632065Y-119803070D01*
X141608996Y-119785485D01*
X141573433Y-119754523D01*
X141528471Y-119713231D01*
X141477206Y-119664653D01*
X141422733Y-119611835D01*
X141368148Y-119557823D01*
X141316547Y-119505661D01*
X141271024Y-119458396D01*
X141234675Y-119419072D01*
X141210595Y-119390736D01*
X141201881Y-119376432D01*
X141202383Y-119373711D01*
X141212755Y-119351560D01*
X141234912Y-119313235D01*
X141266712Y-119262200D01*
X141306016Y-119201914D01*
X141350681Y-119135842D01*
X141363207Y-119117617D01*
X141407193Y-119053485D01*
X141445937Y-118996789D01*
X141477182Y-118950844D01*
X141498669Y-118918970D01*
X141508140Y-118904483D01*
X141508373Y-118903862D01*
X141505578Y-118886139D01*
X141494903Y-118850235D01*
X141478081Y-118800662D01*
X141456843Y-118741932D01*
X141432921Y-118678556D01*
X141408046Y-118615046D01*
X141383950Y-118555913D01*
X141362365Y-118505669D01*
X141345023Y-118468826D01*
X141333655Y-118449894D01*
X141332516Y-118448719D01*
X141324376Y-118442773D01*
X141310629Y-118436776D01*
X141288537Y-118430114D01*
X141255363Y-118422173D01*
X141208370Y-118412337D01*
X141144820Y-118399991D01*
X141061976Y-118384520D01*
X140957100Y-118365310D01*
X140935348Y-118361267D01*
X140873036Y-118348769D01*
X140820619Y-118336927D01*
X140783066Y-118326917D01*
X140765343Y-118319916D01*
X140762378Y-118314075D01*
X140757435Y-118286016D01*
X140753518Y-118239500D01*
X140750629Y-118178886D01*
X140748773Y-118108532D01*
X140747952Y-118032796D01*
X140748168Y-117956037D01*
X140749426Y-117882612D01*
X140751728Y-117816880D01*
X140755076Y-117763200D01*
X140759474Y-117725930D01*
X140764926Y-117709427D01*
X140770491Y-117706989D01*
X140798178Y-117699305D01*
X140844979Y-117688436D01*
X140907157Y-117675192D01*
X140980979Y-117660384D01*
X141062710Y-117644823D01*
X141107336Y-117636509D01*
X141183824Y-117622092D01*
X141249660Y-117609467D01*
X141301323Y-117599321D01*
X141335293Y-117592341D01*
X141348048Y-117589212D01*
X141348528Y-117588568D01*
X141356651Y-117572181D01*
X141372137Y-117537852D01*
X141393050Y-117490136D01*
X141417455Y-117433586D01*
X141443416Y-117372758D01*
X141468997Y-117312206D01*
X141492262Y-117256485D01*
X141511277Y-117210150D01*
X141524105Y-117177755D01*
X141528812Y-117163855D01*
X141526736Y-117158965D01*
X141512920Y-117135692D01*
X141487860Y-117096519D01*
X141453568Y-117044520D01*
X141412059Y-116982768D01*
X141365346Y-116914336D01*
X141339718Y-116876860D01*
X141295490Y-116811156D01*
X141257570Y-116753492D01*
X141227980Y-116707014D01*
X141208743Y-116674865D01*
X141201881Y-116660190D01*
X141206649Y-116652230D01*
X141226593Y-116628446D01*
X141259313Y-116592451D01*
X141301805Y-116547295D01*
X141351065Y-116496028D01*
X141404091Y-116441701D01*
X141457877Y-116387364D01*
X141509421Y-116336067D01*
X141555720Y-116290859D01*
X141593769Y-116254792D01*
X141620565Y-116230914D01*
X141633105Y-116222278D01*
X141640066Y-116225636D01*
X141665627Y-116241210D01*
X141706874Y-116267715D01*
X141760837Y-116303210D01*
X141824542Y-116345750D01*
X141895016Y-116393395D01*
X142146662Y-116564512D01*
X142566188Y-116391570D01*
X142623036Y-116090018D01*
X142679885Y-115788466D01*
X143307540Y-115788466D01*
X143364389Y-116090018D01*
G36*
X143364389Y-116090018D02*
G01*
X143421237Y-116391570D01*
X143631001Y-116478041D01*
X143840764Y-116564512D01*
X144092410Y-116393395D01*
X144142216Y-116359661D01*
X144208244Y-116315381D01*
X144265410Y-116277561D01*
X144310744Y-116248142D01*
X144341280Y-116229067D01*
X144354046Y-116222278D01*
X144361887Y-116227106D01*
X144385325Y-116247339D01*
X144420794Y-116280543D01*
X144465289Y-116323670D01*
X144515805Y-116373670D01*
X144569336Y-116427495D01*
X144622877Y-116482095D01*
X144673423Y-116534423D01*
X144717968Y-116581428D01*
X144753507Y-116620063D01*
X144777034Y-116647278D01*
X144785544Y-116660024D01*
X144783565Y-116665500D01*
X144769857Y-116689927D01*
X144744825Y-116730129D01*
X144710499Y-116782952D01*
X144668907Y-116845247D01*
X144622079Y-116913862D01*
X144596380Y-116951283D01*
X144552173Y-117016432D01*
X144514272Y-117073289D01*
X144484698Y-117118770D01*
X144465472Y-117149793D01*
X144458614Y-117163274D01*
X144458726Y-117164021D01*
X144464776Y-117181110D01*
X144478654Y-117216006D01*
X144498427Y-117264151D01*
X144522160Y-117320986D01*
X144547918Y-117381953D01*
X144573766Y-117442492D01*
X144597771Y-117498047D01*
X144617998Y-117544057D01*
X144632511Y-117575965D01*
X144639377Y-117589212D01*
X144643439Y-117590387D01*
X144668121Y-117595687D01*
X144712111Y-117604467D01*
X144771887Y-117616040D01*
X144843929Y-117629721D01*
X144924716Y-117644823D01*
X144967294Y-117652830D01*
X145045445Y-117668107D01*
X145113775Y-117682215D01*
X145168551Y-117694345D01*
X145206037Y-117703686D01*
X145222500Y-117709427D01*
X145225457Y-117715119D01*
X145230362Y-117742930D01*
X145234216Y-117789250D01*
X145237021Y-117849720D01*
X145238781Y-117919983D01*
X145239499Y-117995680D01*
X145239177Y-118072453D01*
X145237819Y-118145944D01*
X145235428Y-118211794D01*
X145232006Y-118265645D01*
X145227556Y-118303138D01*
X145222082Y-118319916D01*
X145218760Y-118321809D01*
X145193987Y-118329926D01*
X145151011Y-118340666D01*
X145094802Y-118352853D01*
X145030325Y-118365310D01*
X145008570Y-118369277D01*
X144908093Y-118387729D01*
X144829126Y-118402559D01*
X144768934Y-118414380D01*
X144724778Y-118423809D01*
X144693920Y-118431460D01*
X144673625Y-118437948D01*
X144661154Y-118443888D01*
X144653771Y-118449894D01*
X144652913Y-118450902D01*
X144640838Y-118471919D01*
X144622971Y-118510376D01*
X144601042Y-118561761D01*
X144576784Y-118621563D01*
X144551927Y-118685270D01*
X144528205Y-118748371D01*
X144507347Y-118806355D01*
X144491087Y-118854709D01*
X144481156Y-118888922D01*
X144479285Y-118904483D01*
X144480536Y-118906502D01*
X144493486Y-118926028D01*
X144517840Y-118962042D01*
X144551340Y-119011228D01*
X144591727Y-119070267D01*
X144636745Y-119135842D01*
X144649100Y-119153884D01*
X144692545Y-119218599D01*
X144730091Y-119276476D01*
X144759594Y-119324082D01*
X144778914Y-119357985D01*
X144785905Y-119374752D01*
X144784398Y-119379161D01*
X144768695Y-119400882D01*
X144737714Y-119436354D01*
X144693673Y-119483188D01*
X144638790Y-119538996D01*
X144575286Y-119601392D01*
X144538988Y-119636317D01*
X144481595Y-119690711D01*
X144431361Y-119737302D01*
X144390984Y-119773636D01*
X144363161Y-119797261D01*
X144350590Y-119805724D01*
X144341952Y-119802587D01*
X144315360Y-119787747D01*
X144276741Y-119763477D01*
X144231134Y-119732852D01*
X144198707Y-119710503D01*
X144133970Y-119666122D01*
X144064886Y-119618987D01*
X144001787Y-119576155D01*
X143878178Y-119492547D01*
X143774417Y-119548650D01*
X143749984Y-119561599D01*
X143705552Y-119583749D01*
X143671191Y-119599041D01*
X143652828Y-119604743D01*
X143646818Y-119597421D01*
X143631895Y-119569541D01*
X143609852Y-119523575D01*
X143581917Y-119462441D01*
X143549317Y-119389055D01*
X143513276Y-119306335D01*
X143475023Y-119217197D01*
X143435783Y-119124559D01*
X143396783Y-119031337D01*
X143359249Y-118940450D01*
X143324409Y-118854814D01*
X143293488Y-118777345D01*
X143267714Y-118710962D01*
X143248311Y-118658582D01*
X143236508Y-118623121D01*
X143233531Y-118607496D01*
X143233732Y-118607039D01*
X143247601Y-118592595D01*
X143276611Y-118569974D01*
X143314772Y-118543864D01*
X143326817Y-118535892D01*
X143418469Y-118460256D01*
X143494323Y-118370169D01*
X143552581Y-118269381D01*
X143591448Y-118161640D01*
X143609128Y-118050697D01*
X143603826Y-117940303D01*
X143582347Y-117842115D01*
X143543782Y-117742966D01*
X143487562Y-117654512D01*
X143410410Y-117570487D01*
X143380095Y-117543645D01*
X143282094Y-117477510D01*
X143176227Y-117432970D01*
X143065561Y-117409625D01*
X142953164Y-117407078D01*
X142842105Y-117424929D01*
X142735451Y-117462780D01*
X142636270Y-117520232D01*
X142547631Y-117596887D01*
X142472600Y-117692345D01*
X142458175Y-117715985D01*
X142409143Y-117824034D01*
X142383103Y-117936548D01*
X142379372Y-118050614D01*
X142397268Y-118163318D01*
X142436109Y-118271745D01*
X142495214Y-118372982D01*
X142573900Y-118464114D01*
X142671485Y-118542228D01*
X142674654Y-118544333D01*
X142712411Y-118570940D01*
X142740709Y-118593561D01*
X142753634Y-118607496D01*
X142752003Y-118618421D01*
X142741864Y-118650231D01*
X142723884Y-118699534D01*
X142699292Y-118763413D01*
X142669311Y-118838948D01*
X142635170Y-118923223D01*
X142598092Y-119013320D01*
X142559306Y-119106321D01*
X142520036Y-119199308D01*
X142481509Y-119289364D01*
X142444950Y-119373571D01*
X142411586Y-119449010D01*
X142382643Y-119512765D01*
X142359346Y-119561917D01*
X142342923Y-119593549D01*
X142334598Y-119604743D01*
X142327674Y-119603227D01*
X142300477Y-119592331D01*
X142260280Y-119573228D01*
X142213009Y-119548650D01*
X142109248Y-119492547D01*
X141985639Y-119576155D01*
X141949120Y-119600913D01*
X141881194Y-119647171D01*
X141813475Y-119693503D01*
X141756291Y-119732852D01*
X141724732Y-119754297D01*
X141683714Y-119780939D01*
X141653301Y-119799178D01*
X141638446Y-119805941D01*
X141632065Y-119803070D01*
X141608996Y-119785485D01*
X141573433Y-119754523D01*
X141528471Y-119713231D01*
X141477206Y-119664653D01*
X141422733Y-119611835D01*
X141368148Y-119557823D01*
X141316547Y-119505661D01*
X141271024Y-119458396D01*
X141234675Y-119419072D01*
X141210595Y-119390736D01*
X141201881Y-119376432D01*
X141202383Y-119373711D01*
X141212755Y-119351560D01*
X141234912Y-119313235D01*
X141266712Y-119262200D01*
X141306016Y-119201914D01*
X141350681Y-119135842D01*
X141363207Y-119117617D01*
X141407193Y-119053485D01*
X141445937Y-118996789D01*
X141477182Y-118950844D01*
X141498669Y-118918970D01*
X141508140Y-118904483D01*
X141508373Y-118903862D01*
X141505578Y-118886139D01*
X141494903Y-118850235D01*
X141478081Y-118800662D01*
X141456843Y-118741932D01*
X141432921Y-118678556D01*
X141408046Y-118615046D01*
X141383950Y-118555913D01*
X141362365Y-118505669D01*
X141345023Y-118468826D01*
X141333655Y-118449894D01*
X141332516Y-118448719D01*
X141324376Y-118442773D01*
X141310629Y-118436776D01*
X141288537Y-118430114D01*
X141255363Y-118422173D01*
X141208370Y-118412337D01*
X141144820Y-118399991D01*
X141061976Y-118384520D01*
X140957100Y-118365310D01*
X140935348Y-118361267D01*
X140873036Y-118348769D01*
X140820619Y-118336927D01*
X140783066Y-118326917D01*
X140765343Y-118319916D01*
X140762378Y-118314075D01*
X140757435Y-118286016D01*
X140753518Y-118239500D01*
X140750629Y-118178886D01*
X140748773Y-118108532D01*
X140747952Y-118032796D01*
X140748168Y-117956037D01*
X140749426Y-117882612D01*
X140751728Y-117816880D01*
X140755076Y-117763200D01*
X140759474Y-117725930D01*
X140764926Y-117709427D01*
X140770491Y-117706989D01*
X140798178Y-117699305D01*
X140844979Y-117688436D01*
X140907157Y-117675192D01*
X140980979Y-117660384D01*
X141062710Y-117644823D01*
X141107336Y-117636509D01*
X141183824Y-117622092D01*
X141249660Y-117609467D01*
X141301323Y-117599321D01*
X141335293Y-117592341D01*
X141348048Y-117589212D01*
X141348528Y-117588568D01*
X141356651Y-117572181D01*
X141372137Y-117537852D01*
X141393050Y-117490136D01*
X141417455Y-117433586D01*
X141443416Y-117372758D01*
X141468997Y-117312206D01*
X141492262Y-117256485D01*
X141511277Y-117210150D01*
X141524105Y-117177755D01*
X141528812Y-117163855D01*
X141526736Y-117158965D01*
X141512920Y-117135692D01*
X141487860Y-117096519D01*
X141453568Y-117044520D01*
X141412059Y-116982768D01*
X141365346Y-116914336D01*
X141339718Y-116876860D01*
X141295490Y-116811156D01*
X141257570Y-116753492D01*
X141227980Y-116707014D01*
X141208743Y-116674865D01*
X141201881Y-116660190D01*
X141206649Y-116652230D01*
X141226593Y-116628446D01*
X141259313Y-116592451D01*
X141301805Y-116547295D01*
X141351065Y-116496028D01*
X141404091Y-116441701D01*
X141457877Y-116387364D01*
X141509421Y-116336067D01*
X141555720Y-116290859D01*
X141593769Y-116254792D01*
X141620565Y-116230914D01*
X141633105Y-116222278D01*
X141640066Y-116225636D01*
X141665627Y-116241210D01*
X141706874Y-116267715D01*
X141760837Y-116303210D01*
X141824542Y-116345750D01*
X141895016Y-116393395D01*
X142146662Y-116564512D01*
X142566188Y-116391570D01*
X142623036Y-116090018D01*
X142679885Y-115788466D01*
X143307540Y-115788466D01*
X143364389Y-116090018D01*
G37*
X140037128Y-106403945D02*
X140067954Y-106413568D01*
X140105916Y-106429563D01*
X140124296Y-106438159D01*
X140137561Y-106439713D01*
X140140495Y-106427798D01*
X140140498Y-106427461D01*
X140146709Y-106416087D01*
X140168131Y-106410256D01*
X140209653Y-106408614D01*
X140278812Y-106408614D01*
X140278812Y-107012179D01*
X140140495Y-107012179D01*
X140140495Y-106596027D01*
X140106110Y-106564161D01*
X140095368Y-106555104D01*
X140063370Y-106539630D01*
X140023965Y-106539010D01*
X139970312Y-106552664D01*
X139952225Y-106553529D01*
X139931008Y-106540283D01*
X139902768Y-106508800D01*
X139889069Y-106491385D01*
X139872868Y-106466797D01*
X139870371Y-106451145D01*
X139879442Y-106437941D01*
X139907289Y-106421245D01*
X139950540Y-106408030D01*
X139997464Y-106401478D01*
X140037128Y-106403945D01*
G36*
X140037128Y-106403945D02*
G01*
X140067954Y-106413568D01*
X140105916Y-106429563D01*
X140124296Y-106438159D01*
X140137561Y-106439713D01*
X140140495Y-106427798D01*
X140140498Y-106427461D01*
X140146709Y-106416087D01*
X140168131Y-106410256D01*
X140209653Y-106408614D01*
X140278812Y-106408614D01*
X140278812Y-107012179D01*
X140140495Y-107012179D01*
X140140495Y-106596027D01*
X140106110Y-106564161D01*
X140095368Y-106555104D01*
X140063370Y-106539630D01*
X140023965Y-106539010D01*
X139970312Y-106552664D01*
X139952225Y-106553529D01*
X139931008Y-106540283D01*
X139902768Y-106508800D01*
X139889069Y-106491385D01*
X139872868Y-106466797D01*
X139870371Y-106451145D01*
X139879442Y-106437941D01*
X139907289Y-106421245D01*
X139950540Y-106408030D01*
X139997464Y-106401478D01*
X140037128Y-106403945D01*
G37*
X140220265Y-107359965D02*
X140258255Y-107377745D01*
X140291386Y-107403806D01*
X140291386Y-107377745D01*
X140292211Y-107367849D01*
X140299893Y-107357358D01*
X140320667Y-107352725D01*
X140360544Y-107351683D01*
X140429703Y-107351683D01*
X140429703Y-107967822D01*
X140291386Y-107967822D01*
X140291386Y-107767226D01*
X140291369Y-107755710D01*
X140290189Y-107674758D01*
X140287294Y-107608817D01*
X140282888Y-107561258D01*
X140277181Y-107535452D01*
X140271940Y-107525710D01*
X140239676Y-107495156D01*
X140195730Y-107481631D01*
X140147743Y-107487941D01*
X140135973Y-107492217D01*
X140110898Y-107499776D01*
X140093762Y-107497428D01*
X140076518Y-107482064D01*
X140051124Y-107450571D01*
X140009936Y-107398568D01*
X140038886Y-107375125D01*
X140066405Y-107361015D01*
X140114745Y-107351486D01*
X140169230Y-107351174D01*
X140220265Y-107359965D01*
G36*
X140220265Y-107359965D02*
G01*
X140258255Y-107377745D01*
X140291386Y-107403806D01*
X140291386Y-107377745D01*
X140292211Y-107367849D01*
X140299893Y-107357358D01*
X140320667Y-107352725D01*
X140360544Y-107351683D01*
X140429703Y-107351683D01*
X140429703Y-107967822D01*
X140291386Y-107967822D01*
X140291386Y-107767226D01*
X140291369Y-107755710D01*
X140290189Y-107674758D01*
X140287294Y-107608817D01*
X140282888Y-107561258D01*
X140277181Y-107535452D01*
X140271940Y-107525710D01*
X140239676Y-107495156D01*
X140195730Y-107481631D01*
X140147743Y-107487941D01*
X140135973Y-107492217D01*
X140110898Y-107499776D01*
X140093762Y-107497428D01*
X140076518Y-107482064D01*
X140051124Y-107450571D01*
X140009936Y-107398568D01*
X140038886Y-107375125D01*
X140066405Y-107361015D01*
X140114745Y-107351486D01*
X140169230Y-107351174D01*
X140220265Y-107359965D01*
G37*
X142843960Y-107967822D02*
X142718218Y-107967822D01*
X142718218Y-107773740D01*
X142718078Y-107728594D01*
X142716649Y-107653823D01*
X142713029Y-107598467D01*
X142706434Y-107558702D01*
X142696079Y-107530700D01*
X142681178Y-107510635D01*
X142660946Y-107494681D01*
X142638859Y-107482792D01*
X142612705Y-107479421D01*
X142575508Y-107486917D01*
X142563555Y-107490038D01*
X142533718Y-107494735D01*
X142512383Y-107488005D01*
X142487655Y-107467177D01*
X142482963Y-107462647D01*
X142457020Y-107434626D01*
X142440291Y-107411843D01*
X142437996Y-107406355D01*
X142442543Y-107386088D01*
X142465602Y-107369884D01*
X142501995Y-107358513D01*
X142546544Y-107352740D01*
X142594072Y-107353334D01*
X142639400Y-107361063D01*
X142677351Y-107376694D01*
X142689381Y-107383993D01*
X142709632Y-107394676D01*
X142717129Y-107392230D01*
X142718218Y-107376647D01*
X142718473Y-107371053D01*
X142724539Y-107358660D01*
X142743356Y-107353020D01*
X142781089Y-107351683D01*
X142843960Y-107351683D01*
X142843960Y-107967822D01*
G36*
X142843960Y-107967822D02*
G01*
X142718218Y-107967822D01*
X142718218Y-107773740D01*
X142718078Y-107728594D01*
X142716649Y-107653823D01*
X142713029Y-107598467D01*
X142706434Y-107558702D01*
X142696079Y-107530700D01*
X142681178Y-107510635D01*
X142660946Y-107494681D01*
X142638859Y-107482792D01*
X142612705Y-107479421D01*
X142575508Y-107486917D01*
X142563555Y-107490038D01*
X142533718Y-107494735D01*
X142512383Y-107488005D01*
X142487655Y-107467177D01*
X142482963Y-107462647D01*
X142457020Y-107434626D01*
X142440291Y-107411843D01*
X142437996Y-107406355D01*
X142442543Y-107386088D01*
X142465602Y-107369884D01*
X142501995Y-107358513D01*
X142546544Y-107352740D01*
X142594072Y-107353334D01*
X142639400Y-107361063D01*
X142677351Y-107376694D01*
X142689381Y-107383993D01*
X142709632Y-107394676D01*
X142717129Y-107392230D01*
X142718218Y-107376647D01*
X142718473Y-107371053D01*
X142724539Y-107358660D01*
X142743356Y-107353020D01*
X142781089Y-107351683D01*
X142843960Y-107351683D01*
X142843960Y-107967822D01*
G37*
X140530297Y-106604342D02*
X140531357Y-106692394D01*
X140535509Y-106763510D01*
X140543921Y-106815199D01*
X140557757Y-106850360D01*
X140578182Y-106871889D01*
X140606364Y-106882682D01*
X140643465Y-106885636D01*
X140678890Y-106883000D01*
X140707500Y-106872679D01*
X140728296Y-106851772D01*
X140742442Y-106817381D01*
X140751103Y-106766610D01*
X140755445Y-106696563D01*
X140756633Y-106604342D01*
X140756633Y-106408614D01*
X140882376Y-106408614D01*
X140882376Y-106644578D01*
X140882160Y-106707561D01*
X140880484Y-106789007D01*
X140876277Y-106851121D01*
X140868521Y-106897458D01*
X140856196Y-106931573D01*
X140838285Y-106957022D01*
X140813767Y-106977362D01*
X140781623Y-106996147D01*
X140714125Y-107019928D01*
X140643681Y-107021480D01*
X140577264Y-106999580D01*
X140548286Y-106985383D01*
X140533909Y-106983261D01*
X140530297Y-106993293D01*
X140524299Y-107004556D01*
X140502830Y-107010489D01*
X140461138Y-107012179D01*
X140391980Y-107012179D01*
X140391980Y-106408614D01*
X140530297Y-106408614D01*
X140530297Y-106604342D01*
G36*
X140530297Y-106604342D02*
G01*
X140531357Y-106692394D01*
X140535509Y-106763510D01*
X140543921Y-106815199D01*
X140557757Y-106850360D01*
X140578182Y-106871889D01*
X140606364Y-106882682D01*
X140643465Y-106885636D01*
X140678890Y-106883000D01*
X140707500Y-106872679D01*
X140728296Y-106851772D01*
X140742442Y-106817381D01*
X140751103Y-106766610D01*
X140755445Y-106696563D01*
X140756633Y-106604342D01*
X140756633Y-106408614D01*
X140882376Y-106408614D01*
X140882376Y-106644578D01*
X140882160Y-106707561D01*
X140880484Y-106789007D01*
X140876277Y-106851121D01*
X140868521Y-106897458D01*
X140856196Y-106931573D01*
X140838285Y-106957022D01*
X140813767Y-106977362D01*
X140781623Y-106996147D01*
X140714125Y-107019928D01*
X140643681Y-107021480D01*
X140577264Y-106999580D01*
X140548286Y-106985383D01*
X140533909Y-106983261D01*
X140530297Y-106993293D01*
X140524299Y-107004556D01*
X140502830Y-107010489D01*
X140461138Y-107012179D01*
X140391980Y-107012179D01*
X140391980Y-106408614D01*
X140530297Y-106408614D01*
X140530297Y-106604342D01*
G37*
X142632605Y-106407424D02*
X142689926Y-106425434D01*
X142715199Y-106437674D01*
X142727910Y-106438938D01*
X142730792Y-106427798D01*
X142730795Y-106427461D01*
X142737006Y-106416087D01*
X142758428Y-106410256D01*
X142799950Y-106408614D01*
X142869109Y-106408614D01*
X142869109Y-107012179D01*
X142730792Y-107012179D01*
X142730792Y-106804132D01*
X142730697Y-106733879D01*
X142730051Y-106676170D01*
X142728320Y-106635787D01*
X142724974Y-106608615D01*
X142719481Y-106590540D01*
X142711310Y-106577447D01*
X142699928Y-106565221D01*
X142684424Y-106552217D01*
X142639843Y-106534745D01*
X142593047Y-106539873D01*
X142550180Y-106567507D01*
X142537927Y-106580368D01*
X142529132Y-106593384D01*
X142523233Y-106610706D01*
X142519651Y-106636501D01*
X142517809Y-106674939D01*
X142517128Y-106730189D01*
X142517030Y-106806418D01*
X142517030Y-107012179D01*
X142378713Y-107012179D01*
X142378989Y-106788985D01*
X142379008Y-106779044D01*
X142380207Y-106684106D01*
X142383891Y-106610358D01*
X142391006Y-106554214D01*
X142402500Y-106512087D01*
X142419318Y-106480391D01*
X142442409Y-106455541D01*
X142472717Y-106433950D01*
X142504012Y-106419002D01*
X142567037Y-106405421D01*
X142632605Y-106407424D01*
G36*
X142632605Y-106407424D02*
G01*
X142689926Y-106425434D01*
X142715199Y-106437674D01*
X142727910Y-106438938D01*
X142730792Y-106427798D01*
X142730795Y-106427461D01*
X142737006Y-106416087D01*
X142758428Y-106410256D01*
X142799950Y-106408614D01*
X142869109Y-106408614D01*
X142869109Y-107012179D01*
X142730792Y-107012179D01*
X142730792Y-106804132D01*
X142730697Y-106733879D01*
X142730051Y-106676170D01*
X142728320Y-106635787D01*
X142724974Y-106608615D01*
X142719481Y-106590540D01*
X142711310Y-106577447D01*
X142699928Y-106565221D01*
X142684424Y-106552217D01*
X142639843Y-106534745D01*
X142593047Y-106539873D01*
X142550180Y-106567507D01*
X142537927Y-106580368D01*
X142529132Y-106593384D01*
X142523233Y-106610706D01*
X142519651Y-106636501D01*
X142517809Y-106674939D01*
X142517128Y-106730189D01*
X142517030Y-106806418D01*
X142517030Y-107012179D01*
X142378713Y-107012179D01*
X142378989Y-106788985D01*
X142379008Y-106779044D01*
X142380207Y-106684106D01*
X142383891Y-106610358D01*
X142391006Y-106554214D01*
X142402500Y-106512087D01*
X142419318Y-106480391D01*
X142442409Y-106455541D01*
X142472717Y-106433950D01*
X142504012Y-106419002D01*
X142567037Y-106405421D01*
X142632605Y-106407424D01*
G37*
X139683409Y-106411493D02*
X139752021Y-106438224D01*
X139810048Y-106482351D01*
X139852907Y-106542958D01*
X139855801Y-106549137D01*
X139874176Y-106609409D01*
X139883357Y-106681407D01*
X139883285Y-106756369D01*
X139873901Y-106825536D01*
X139855149Y-106880149D01*
X139831995Y-106918212D01*
X139781030Y-106972135D01*
X139717306Y-107006411D01*
X139662785Y-107020272D01*
X139579767Y-107021785D01*
X139500326Y-107000882D01*
X139429879Y-106958464D01*
X139384284Y-106920880D01*
X139425351Y-106878510D01*
X139451296Y-106853409D01*
X139474764Y-106839434D01*
X139496524Y-106842511D01*
X139524356Y-106861287D01*
X139535454Y-106868638D01*
X139582337Y-106883683D01*
X139636224Y-106883673D01*
X139686675Y-106868168D01*
X139705672Y-106855716D01*
X139733537Y-106818946D01*
X139747506Y-106764939D01*
X139748405Y-106691331D01*
X139748403Y-106691289D01*
X139738009Y-106625433D01*
X139715114Y-106579772D01*
X139677439Y-106551528D01*
X139622708Y-106537920D01*
X139588241Y-106536090D01*
X139558126Y-106543584D01*
X139527240Y-106565295D01*
X139487272Y-106598926D01*
X139436656Y-106558250D01*
X139418163Y-106542667D01*
X139395065Y-106520340D01*
X139386039Y-106507183D01*
X139389236Y-106501253D01*
X139407646Y-106483048D01*
X139436973Y-106459895D01*
X139459920Y-106444830D01*
X139532774Y-106413880D01*
X139608799Y-106403073D01*
X139683409Y-106411493D01*
G36*
X139683409Y-106411493D02*
G01*
X139752021Y-106438224D01*
X139810048Y-106482351D01*
X139852907Y-106542958D01*
X139855801Y-106549137D01*
X139874176Y-106609409D01*
X139883357Y-106681407D01*
X139883285Y-106756369D01*
X139873901Y-106825536D01*
X139855149Y-106880149D01*
X139831995Y-106918212D01*
X139781030Y-106972135D01*
X139717306Y-107006411D01*
X139662785Y-107020272D01*
X139579767Y-107021785D01*
X139500326Y-107000882D01*
X139429879Y-106958464D01*
X139384284Y-106920880D01*
X139425351Y-106878510D01*
X139451296Y-106853409D01*
X139474764Y-106839434D01*
X139496524Y-106842511D01*
X139524356Y-106861287D01*
X139535454Y-106868638D01*
X139582337Y-106883683D01*
X139636224Y-106883673D01*
X139686675Y-106868168D01*
X139705672Y-106855716D01*
X139733537Y-106818946D01*
X139747506Y-106764939D01*
X139748405Y-106691331D01*
X139748403Y-106691289D01*
X139738009Y-106625433D01*
X139715114Y-106579772D01*
X139677439Y-106551528D01*
X139622708Y-106537920D01*
X139588241Y-106536090D01*
X139558126Y-106543584D01*
X139527240Y-106565295D01*
X139487272Y-106598926D01*
X139436656Y-106558250D01*
X139418163Y-106542667D01*
X139395065Y-106520340D01*
X139386039Y-106507183D01*
X139389236Y-106501253D01*
X139407646Y-106483048D01*
X139436973Y-106459895D01*
X139459920Y-106444830D01*
X139532774Y-106413880D01*
X139608799Y-106403073D01*
X139683409Y-106411493D01*
G37*
X141482857Y-106753771D02*
X141479349Y-106793565D01*
X141463844Y-106869538D01*
X141436110Y-106927511D01*
X141393898Y-106971300D01*
X141334960Y-107004722D01*
X141312076Y-107012676D01*
X141252812Y-107022601D01*
X141190447Y-107022331D01*
X141137823Y-107011430D01*
X141136789Y-107011034D01*
X141094381Y-106986087D01*
X141051537Y-106947468D01*
X141015986Y-106903306D01*
X140995459Y-106861727D01*
X140989374Y-106831334D01*
X140984164Y-106774429D01*
X140983291Y-106723705D01*
X141109976Y-106723705D01*
X141117549Y-106784545D01*
X141135341Y-106834538D01*
X141162296Y-106867204D01*
X141172513Y-106872812D01*
X141211473Y-106883007D01*
X141256536Y-106885104D01*
X141294448Y-106878020D01*
X141309244Y-106867861D01*
X141330014Y-106832334D01*
X141343083Y-106776732D01*
X141347624Y-106703766D01*
X141347551Y-106682762D01*
X141345974Y-106640203D01*
X141340728Y-106612439D01*
X141329723Y-106591925D01*
X141310868Y-106571112D01*
X141274989Y-106545887D01*
X141228280Y-106535573D01*
X141183151Y-106545396D01*
X141145680Y-106573805D01*
X141121943Y-106619253D01*
X141113675Y-106658497D01*
X141109976Y-106723705D01*
X140983291Y-106723705D01*
X140983049Y-106709621D01*
X140985844Y-106645116D01*
X140992366Y-106589121D01*
X141002432Y-106549842D01*
X141025877Y-106505372D01*
X141075637Y-106450692D01*
X141139238Y-106416055D01*
X141214790Y-106402345D01*
X141300399Y-106410448D01*
X141314644Y-106413899D01*
X141380982Y-106443664D01*
X141430971Y-106492530D01*
X141464612Y-106560501D01*
X141481906Y-106647580D01*
X141482410Y-106703766D01*
X141482857Y-106753771D01*
G36*
X141482857Y-106753771D02*
G01*
X141479349Y-106793565D01*
X141463844Y-106869538D01*
X141436110Y-106927511D01*
X141393898Y-106971300D01*
X141334960Y-107004722D01*
X141312076Y-107012676D01*
X141252812Y-107022601D01*
X141190447Y-107022331D01*
X141137823Y-107011430D01*
X141136789Y-107011034D01*
X141094381Y-106986087D01*
X141051537Y-106947468D01*
X141015986Y-106903306D01*
X140995459Y-106861727D01*
X140989374Y-106831334D01*
X140984164Y-106774429D01*
X140983291Y-106723705D01*
X141109976Y-106723705D01*
X141117549Y-106784545D01*
X141135341Y-106834538D01*
X141162296Y-106867204D01*
X141172513Y-106872812D01*
X141211473Y-106883007D01*
X141256536Y-106885104D01*
X141294448Y-106878020D01*
X141309244Y-106867861D01*
X141330014Y-106832334D01*
X141343083Y-106776732D01*
X141347624Y-106703766D01*
X141347551Y-106682762D01*
X141345974Y-106640203D01*
X141340728Y-106612439D01*
X141329723Y-106591925D01*
X141310868Y-106571112D01*
X141274989Y-106545887D01*
X141228280Y-106535573D01*
X141183151Y-106545396D01*
X141145680Y-106573805D01*
X141121943Y-106619253D01*
X141113675Y-106658497D01*
X141109976Y-106723705D01*
X140983291Y-106723705D01*
X140983049Y-106709621D01*
X140985844Y-106645116D01*
X140992366Y-106589121D01*
X141002432Y-106549842D01*
X141025877Y-106505372D01*
X141075637Y-106450692D01*
X141139238Y-106416055D01*
X141214790Y-106402345D01*
X141300399Y-106410448D01*
X141314644Y-106413899D01*
X141380982Y-106443664D01*
X141430971Y-106492530D01*
X141464612Y-106560501D01*
X141481906Y-106647580D01*
X141482410Y-106703766D01*
X141482857Y-106753771D01*
G37*
X141582997Y-107549130D02*
X141599997Y-107599850D01*
X141620107Y-107655997D01*
X141636899Y-107698532D01*
X141648986Y-107723990D01*
X141654980Y-107728903D01*
X141656426Y-107724630D01*
X141664254Y-107698422D01*
X141676723Y-107654649D01*
X141692447Y-107598211D01*
X141710043Y-107534010D01*
X141757914Y-107357971D01*
X141831007Y-107354152D01*
X141837177Y-107353846D01*
X141876592Y-107353441D01*
X141895533Y-107357487D01*
X141897945Y-107366726D01*
X141894898Y-107375749D01*
X141884874Y-107406632D01*
X141869180Y-107455544D01*
X141848934Y-107518987D01*
X141825256Y-107593462D01*
X141799263Y-107675471D01*
X141706736Y-107967822D01*
X141590993Y-107967822D01*
X141536457Y-107782352D01*
X141526386Y-107748294D01*
X141507775Y-107686378D01*
X141491872Y-107634787D01*
X141480109Y-107598130D01*
X141473918Y-107581018D01*
X141472154Y-107579741D01*
X141463571Y-107590779D01*
X141451316Y-107619969D01*
X141437426Y-107662750D01*
X141436692Y-107665263D01*
X141418096Y-107728400D01*
X141396818Y-107799889D01*
X141377321Y-107864734D01*
X141345705Y-107969122D01*
X141287402Y-107965328D01*
X141229098Y-107961535D01*
X141175098Y-107791782D01*
X141151390Y-107717193D01*
X141124833Y-107633539D01*
X141099404Y-107553342D01*
X141078354Y-107486857D01*
X141035609Y-107351683D01*
X141178612Y-107351683D01*
X141213274Y-107480570D01*
X141222488Y-107514625D01*
X141239915Y-107578115D01*
X141256054Y-107635874D01*
X141268322Y-107678614D01*
X141288709Y-107747773D01*
X141418745Y-107357971D01*
X141468476Y-107354237D01*
X141518206Y-107350504D01*
X141582997Y-107549130D01*
G36*
X141582997Y-107549130D02*
G01*
X141599997Y-107599850D01*
X141620107Y-107655997D01*
X141636899Y-107698532D01*
X141648986Y-107723990D01*
X141654980Y-107728903D01*
X141656426Y-107724630D01*
X141664254Y-107698422D01*
X141676723Y-107654649D01*
X141692447Y-107598211D01*
X141710043Y-107534010D01*
X141757914Y-107357971D01*
X141831007Y-107354152D01*
X141837177Y-107353846D01*
X141876592Y-107353441D01*
X141895533Y-107357487D01*
X141897945Y-107366726D01*
X141894898Y-107375749D01*
X141884874Y-107406632D01*
X141869180Y-107455544D01*
X141848934Y-107518987D01*
X141825256Y-107593462D01*
X141799263Y-107675471D01*
X141706736Y-107967822D01*
X141590993Y-107967822D01*
X141536457Y-107782352D01*
X141526386Y-107748294D01*
X141507775Y-107686378D01*
X141491872Y-107634787D01*
X141480109Y-107598130D01*
X141473918Y-107581018D01*
X141472154Y-107579741D01*
X141463571Y-107590779D01*
X141451316Y-107619969D01*
X141437426Y-107662750D01*
X141436692Y-107665263D01*
X141418096Y-107728400D01*
X141396818Y-107799889D01*
X141377321Y-107864734D01*
X141345705Y-107969122D01*
X141287402Y-107965328D01*
X141229098Y-107961535D01*
X141175098Y-107791782D01*
X141151390Y-107717193D01*
X141124833Y-107633539D01*
X141099404Y-107553342D01*
X141078354Y-107486857D01*
X141035609Y-107351683D01*
X141178612Y-107351683D01*
X141213274Y-107480570D01*
X141222488Y-107514625D01*
X141239915Y-107578115D01*
X141256054Y-107635874D01*
X141268322Y-107678614D01*
X141288709Y-107747773D01*
X141418745Y-107357971D01*
X141468476Y-107354237D01*
X141518206Y-107350504D01*
X141582997Y-107549130D01*
G37*
X142440761Y-107706813D02*
X142439167Y-107760571D01*
X142435962Y-107798018D01*
X142435413Y-107801450D01*
X142413838Y-107862835D01*
X142374438Y-107914877D01*
X142322752Y-107950135D01*
X142267248Y-107964729D01*
X142198977Y-107963597D01*
X142136173Y-107944029D01*
X142119815Y-107935771D01*
X142098779Y-107926923D01*
X142090774Y-107929676D01*
X142089505Y-107944029D01*
X142088922Y-107951186D01*
X142081394Y-107961772D01*
X142060488Y-107966645D01*
X142020346Y-107967822D01*
X141951188Y-107967822D01*
X141951188Y-107665930D01*
X142089505Y-107665930D01*
X142090496Y-107718230D01*
X142094519Y-107753050D01*
X142103108Y-107776905D01*
X142117797Y-107796895D01*
X142156584Y-107826618D01*
X142201974Y-107836582D01*
X142245989Y-107824260D01*
X142283060Y-107789888D01*
X142292859Y-107764735D01*
X142300097Y-107720194D01*
X142303279Y-107666155D01*
X142302277Y-107610728D01*
X142296961Y-107562022D01*
X142287204Y-107528148D01*
X142284087Y-107522593D01*
X142254038Y-107494674D01*
X142213315Y-107482306D01*
X142169579Y-107485183D01*
X142130491Y-107503000D01*
X142103710Y-107535452D01*
X142102603Y-107538181D01*
X142095963Y-107568634D01*
X142091278Y-107614139D01*
X142089505Y-107665930D01*
X141951188Y-107665930D01*
X141951188Y-107112773D01*
X142089505Y-107112773D01*
X142089505Y-107405878D01*
X142115124Y-107382693D01*
X142139792Y-107368282D01*
X142186480Y-107356236D01*
X142241056Y-107352354D01*
X142294354Y-107357120D01*
X142337207Y-107371014D01*
X142367878Y-107390779D01*
X142399471Y-107424449D01*
X142420733Y-107469730D01*
X142433514Y-107530981D01*
X142439664Y-107612563D01*
X142440568Y-107645540D01*
X142440633Y-107666155D01*
X142440761Y-107706813D01*
G36*
X142440761Y-107706813D02*
G01*
X142439167Y-107760571D01*
X142435962Y-107798018D01*
X142435413Y-107801450D01*
X142413838Y-107862835D01*
X142374438Y-107914877D01*
X142322752Y-107950135D01*
X142267248Y-107964729D01*
X142198977Y-107963597D01*
X142136173Y-107944029D01*
X142119815Y-107935771D01*
X142098779Y-107926923D01*
X142090774Y-107929676D01*
X142089505Y-107944029D01*
X142088922Y-107951186D01*
X142081394Y-107961772D01*
X142060488Y-107966645D01*
X142020346Y-107967822D01*
X141951188Y-107967822D01*
X141951188Y-107665930D01*
X142089505Y-107665930D01*
X142090496Y-107718230D01*
X142094519Y-107753050D01*
X142103108Y-107776905D01*
X142117797Y-107796895D01*
X142156584Y-107826618D01*
X142201974Y-107836582D01*
X142245989Y-107824260D01*
X142283060Y-107789888D01*
X142292859Y-107764735D01*
X142300097Y-107720194D01*
X142303279Y-107666155D01*
X142302277Y-107610728D01*
X142296961Y-107562022D01*
X142287204Y-107528148D01*
X142284087Y-107522593D01*
X142254038Y-107494674D01*
X142213315Y-107482306D01*
X142169579Y-107485183D01*
X142130491Y-107503000D01*
X142103710Y-107535452D01*
X142102603Y-107538181D01*
X142095963Y-107568634D01*
X142091278Y-107614139D01*
X142089505Y-107665930D01*
X141951188Y-107665930D01*
X141951188Y-107112773D01*
X142089505Y-107112773D01*
X142089505Y-107405878D01*
X142115124Y-107382693D01*
X142139792Y-107368282D01*
X142186480Y-107356236D01*
X142241056Y-107352354D01*
X142294354Y-107357120D01*
X142337207Y-107371014D01*
X142367878Y-107390779D01*
X142399471Y-107424449D01*
X142420733Y-107469730D01*
X142433514Y-107530981D01*
X142439664Y-107612563D01*
X142440568Y-107645540D01*
X142440633Y-107666155D01*
X142440761Y-107706813D01*
G37*
X144614997Y-106744931D02*
X144613373Y-106784310D01*
X144609688Y-106832332D01*
X144603410Y-106866368D01*
X144593044Y-106893338D01*
X144577092Y-106920158D01*
X144576412Y-106921175D01*
X144537132Y-106964629D01*
X144489072Y-106997772D01*
X144433185Y-107017439D01*
X144359666Y-107023824D01*
X144287609Y-107011268D01*
X144223201Y-106981011D01*
X144172627Y-106934294D01*
X144158108Y-106912221D01*
X144130993Y-106843602D01*
X144117546Y-106758939D01*
X144117776Y-106737523D01*
X144252920Y-106737523D01*
X144253174Y-106777574D01*
X144257421Y-106804313D01*
X144267096Y-106824859D01*
X144283638Y-106846331D01*
X144306593Y-106867639D01*
X144352505Y-106886653D01*
X144401802Y-106883122D01*
X144448917Y-106856694D01*
X144462207Y-106844072D01*
X144476397Y-106822465D01*
X144484266Y-106792094D01*
X144488726Y-106744770D01*
X144489955Y-106709219D01*
X144483224Y-106636620D01*
X144462567Y-106584642D01*
X144427894Y-106552999D01*
X144387249Y-106537847D01*
X144338777Y-106539123D01*
X144293845Y-106564703D01*
X144283103Y-106574442D01*
X144269548Y-106591480D01*
X144261505Y-106613772D01*
X144257043Y-106647947D01*
X144254228Y-106700638D01*
X144252920Y-106737523D01*
X144117776Y-106737523D01*
X144118583Y-106662351D01*
X144119907Y-106648651D01*
X144138374Y-106560908D01*
X144172540Y-106492793D01*
X144222479Y-106444231D01*
X144288261Y-106415148D01*
X144369961Y-106405471D01*
X144400828Y-106406379D01*
X144464128Y-106417493D01*
X144515889Y-106444021D01*
X144564147Y-106489436D01*
X144571865Y-106498551D01*
X144592681Y-106529248D01*
X144606362Y-106564007D01*
X144613948Y-106608056D01*
X144616479Y-106666621D01*
X144615672Y-106709219D01*
X144614997Y-106744931D01*
G36*
X144614997Y-106744931D02*
G01*
X144613373Y-106784310D01*
X144609688Y-106832332D01*
X144603410Y-106866368D01*
X144593044Y-106893338D01*
X144577092Y-106920158D01*
X144576412Y-106921175D01*
X144537132Y-106964629D01*
X144489072Y-106997772D01*
X144433185Y-107017439D01*
X144359666Y-107023824D01*
X144287609Y-107011268D01*
X144223201Y-106981011D01*
X144172627Y-106934294D01*
X144158108Y-106912221D01*
X144130993Y-106843602D01*
X144117546Y-106758939D01*
X144117776Y-106737523D01*
X144252920Y-106737523D01*
X144253174Y-106777574D01*
X144257421Y-106804313D01*
X144267096Y-106824859D01*
X144283638Y-106846331D01*
X144306593Y-106867639D01*
X144352505Y-106886653D01*
X144401802Y-106883122D01*
X144448917Y-106856694D01*
X144462207Y-106844072D01*
X144476397Y-106822465D01*
X144484266Y-106792094D01*
X144488726Y-106744770D01*
X144489955Y-106709219D01*
X144483224Y-106636620D01*
X144462567Y-106584642D01*
X144427894Y-106552999D01*
X144387249Y-106537847D01*
X144338777Y-106539123D01*
X144293845Y-106564703D01*
X144283103Y-106574442D01*
X144269548Y-106591480D01*
X144261505Y-106613772D01*
X144257043Y-106647947D01*
X144254228Y-106700638D01*
X144252920Y-106737523D01*
X144117776Y-106737523D01*
X144118583Y-106662351D01*
X144119907Y-106648651D01*
X144138374Y-106560908D01*
X144172540Y-106492793D01*
X144222479Y-106444231D01*
X144288261Y-106415148D01*
X144369961Y-106405471D01*
X144400828Y-106406379D01*
X144464128Y-106417493D01*
X144515889Y-106444021D01*
X144564147Y-106489436D01*
X144571865Y-106498551D01*
X144592681Y-106529248D01*
X144606362Y-106564007D01*
X144613948Y-106608056D01*
X144616479Y-106666621D01*
X144615672Y-106709219D01*
X144614997Y-106744931D01*
G37*
X139369444Y-106669878D02*
X139367825Y-106766121D01*
X139367615Y-106768014D01*
X139349535Y-106856325D01*
X139316870Y-106924986D01*
X139268601Y-106975506D01*
X139203713Y-107009393D01*
X139191801Y-107013268D01*
X139117971Y-107024688D01*
X139041614Y-107018320D01*
X138970626Y-106995563D01*
X138912904Y-106957819D01*
X138869667Y-106917872D01*
X138915625Y-106881532D01*
X138961583Y-106845193D01*
X139016969Y-106872101D01*
X139081056Y-106893905D01*
X139137632Y-106894558D01*
X139183920Y-106874525D01*
X139217230Y-106834315D01*
X139229171Y-106810222D01*
X139235837Y-106789630D01*
X139231980Y-106775720D01*
X139214675Y-106767181D01*
X139180997Y-106762704D01*
X139128021Y-106760978D01*
X139052822Y-106760693D01*
X138870495Y-106760693D01*
X138870495Y-106673492D01*
X138871857Y-106635210D01*
X139000234Y-106635210D01*
X139006399Y-106642251D01*
X139024654Y-106645916D01*
X139059352Y-106647306D01*
X139114846Y-106647525D01*
X139144603Y-106647176D01*
X139191562Y-106644867D01*
X139223416Y-106640822D01*
X139235148Y-106635542D01*
X139232146Y-106616062D01*
X139210988Y-106578786D01*
X139175731Y-106548164D01*
X139133699Y-106529668D01*
X139092220Y-106528773D01*
X139060997Y-106543604D01*
X139025618Y-106577355D01*
X139003122Y-106619233D01*
X139001805Y-106623690D01*
X139000234Y-106635210D01*
X138871857Y-106635210D01*
X138872136Y-106627371D01*
X138876955Y-106581740D01*
X138883840Y-106550893D01*
X138888859Y-106539117D01*
X138925390Y-106486667D01*
X138978175Y-106442921D01*
X139039904Y-106414279D01*
X139072102Y-106406457D01*
X139148820Y-106402896D01*
X139217179Y-106421009D01*
X139275299Y-106458779D01*
X139321302Y-106514191D01*
X139353310Y-106585229D01*
X139362900Y-106635542D01*
X139369444Y-106669878D01*
G36*
X139369444Y-106669878D02*
G01*
X139367825Y-106766121D01*
X139367615Y-106768014D01*
X139349535Y-106856325D01*
X139316870Y-106924986D01*
X139268601Y-106975506D01*
X139203713Y-107009393D01*
X139191801Y-107013268D01*
X139117971Y-107024688D01*
X139041614Y-107018320D01*
X138970626Y-106995563D01*
X138912904Y-106957819D01*
X138869667Y-106917872D01*
X138915625Y-106881532D01*
X138961583Y-106845193D01*
X139016969Y-106872101D01*
X139081056Y-106893905D01*
X139137632Y-106894558D01*
X139183920Y-106874525D01*
X139217230Y-106834315D01*
X139229171Y-106810222D01*
X139235837Y-106789630D01*
X139231980Y-106775720D01*
X139214675Y-106767181D01*
X139180997Y-106762704D01*
X139128021Y-106760978D01*
X139052822Y-106760693D01*
X138870495Y-106760693D01*
X138870495Y-106673492D01*
X138871857Y-106635210D01*
X139000234Y-106635210D01*
X139006399Y-106642251D01*
X139024654Y-106645916D01*
X139059352Y-106647306D01*
X139114846Y-106647525D01*
X139144603Y-106647176D01*
X139191562Y-106644867D01*
X139223416Y-106640822D01*
X139235148Y-106635542D01*
X139232146Y-106616062D01*
X139210988Y-106578786D01*
X139175731Y-106548164D01*
X139133699Y-106529668D01*
X139092220Y-106528773D01*
X139060997Y-106543604D01*
X139025618Y-106577355D01*
X139003122Y-106619233D01*
X139001805Y-106623690D01*
X139000234Y-106635210D01*
X138871857Y-106635210D01*
X138872136Y-106627371D01*
X138876955Y-106581740D01*
X138883840Y-106550893D01*
X138888859Y-106539117D01*
X138925390Y-106486667D01*
X138978175Y-106442921D01*
X139039904Y-106414279D01*
X139072102Y-106406457D01*
X139148820Y-106402896D01*
X139217179Y-106421009D01*
X139275299Y-106458779D01*
X139321302Y-106514191D01*
X139353310Y-106585229D01*
X139362900Y-106635542D01*
X139369444Y-106669878D01*
G37*
X141848874Y-106408207D02*
X141921495Y-106426408D01*
X141974546Y-106460144D01*
X142008329Y-106509642D01*
X142023147Y-106575126D01*
X142020147Y-106637820D01*
X141998493Y-106690699D01*
X141956967Y-106729796D01*
X141894736Y-106755873D01*
X141810969Y-106769695D01*
X141756540Y-106776940D01*
X141706860Y-106792615D01*
X141681211Y-106815314D01*
X141679662Y-106844998D01*
X141689984Y-106863507D01*
X141721951Y-106885443D01*
X141767395Y-106895818D01*
X141820649Y-106894399D01*
X141876048Y-106880952D01*
X141927928Y-106855243D01*
X141979653Y-106821013D01*
X142025148Y-106867049D01*
X142070643Y-106913084D01*
X142032921Y-106943876D01*
X142018253Y-106954574D01*
X141976983Y-106978880D01*
X141932327Y-106999825D01*
X141896984Y-107011845D01*
X141845234Y-107020552D01*
X141781435Y-107020667D01*
X141703200Y-107011081D01*
X141632722Y-106986783D01*
X141582836Y-106948188D01*
X141553423Y-106895198D01*
X141544365Y-106827718D01*
X141550921Y-106768354D01*
X141571970Y-106719752D01*
X141609864Y-106684946D01*
X141667004Y-106661798D01*
X141745785Y-106648170D01*
X141754834Y-106647183D01*
X141803885Y-106640892D01*
X141843675Y-106634309D01*
X141866312Y-106628708D01*
X141873866Y-106624197D01*
X141886637Y-106600941D01*
X141884563Y-106571171D01*
X141867495Y-106545327D01*
X141858533Y-106539691D01*
X141821188Y-106530660D01*
X141772950Y-106531267D01*
X141722650Y-106540878D01*
X141679115Y-106558858D01*
X141633372Y-106585847D01*
X141597890Y-106544384D01*
X141589280Y-106533850D01*
X141569883Y-106505632D01*
X141561897Y-106486508D01*
X141570283Y-106474781D01*
X141596226Y-106456476D01*
X141633688Y-106436777D01*
X141638966Y-106434370D01*
X141688366Y-106415482D01*
X141735983Y-106406452D01*
X141795072Y-106404639D01*
X141848874Y-106408207D01*
G36*
X141848874Y-106408207D02*
G01*
X141921495Y-106426408D01*
X141974546Y-106460144D01*
X142008329Y-106509642D01*
X142023147Y-106575126D01*
X142020147Y-106637820D01*
X141998493Y-106690699D01*
X141956967Y-106729796D01*
X141894736Y-106755873D01*
X141810969Y-106769695D01*
X141756540Y-106776940D01*
X141706860Y-106792615D01*
X141681211Y-106815314D01*
X141679662Y-106844998D01*
X141689984Y-106863507D01*
X141721951Y-106885443D01*
X141767395Y-106895818D01*
X141820649Y-106894399D01*
X141876048Y-106880952D01*
X141927928Y-106855243D01*
X141979653Y-106821013D01*
X142025148Y-106867049D01*
X142070643Y-106913084D01*
X142032921Y-106943876D01*
X142018253Y-106954574D01*
X141976983Y-106978880D01*
X141932327Y-106999825D01*
X141896984Y-107011845D01*
X141845234Y-107020552D01*
X141781435Y-107020667D01*
X141703200Y-107011081D01*
X141632722Y-106986783D01*
X141582836Y-106948188D01*
X141553423Y-106895198D01*
X141544365Y-106827718D01*
X141550921Y-106768354D01*
X141571970Y-106719752D01*
X141609864Y-106684946D01*
X141667004Y-106661798D01*
X141745785Y-106648170D01*
X141754834Y-106647183D01*
X141803885Y-106640892D01*
X141843675Y-106634309D01*
X141866312Y-106628708D01*
X141873866Y-106624197D01*
X141886637Y-106600941D01*
X141884563Y-106571171D01*
X141867495Y-106545327D01*
X141858533Y-106539691D01*
X141821188Y-106530660D01*
X141772950Y-106531267D01*
X141722650Y-106540878D01*
X141679115Y-106558858D01*
X141633372Y-106585847D01*
X141597890Y-106544384D01*
X141589280Y-106533850D01*
X141569883Y-106505632D01*
X141561897Y-106486508D01*
X141570283Y-106474781D01*
X141596226Y-106456476D01*
X141633688Y-106436777D01*
X141638966Y-106434370D01*
X141688366Y-106415482D01*
X141735983Y-106406452D01*
X141795072Y-106404639D01*
X141848874Y-106408207D01*
G37*
X140014353Y-107659753D02*
X140012718Y-107706692D01*
X139997827Y-107796459D01*
X139967185Y-107867045D01*
X139920524Y-107918952D01*
X139857574Y-107952686D01*
X139837235Y-107958647D01*
X139764612Y-107966971D01*
X139687928Y-107959946D01*
X139618663Y-107938265D01*
X139594262Y-107925959D01*
X139559275Y-107904879D01*
X139538072Y-107887534D01*
X139534942Y-107883571D01*
X139529085Y-107869077D01*
X139537524Y-107853321D01*
X139563221Y-107829460D01*
X139575622Y-107819072D01*
X139600052Y-107800063D01*
X139612861Y-107792293D01*
X139616530Y-107793094D01*
X139637561Y-107801745D01*
X139668960Y-107816931D01*
X139679197Y-107821926D01*
X139739590Y-107840475D01*
X139792057Y-107835694D01*
X139838065Y-107807500D01*
X139843419Y-107802291D01*
X139869013Y-107769659D01*
X139883637Y-107738342D01*
X139891736Y-107703763D01*
X139511782Y-107703763D01*
X139511852Y-107637748D01*
X139511892Y-107631182D01*
X139517022Y-107578218D01*
X139650099Y-107578218D01*
X139651670Y-107589203D01*
X139659738Y-107596773D01*
X139678967Y-107600975D01*
X139714019Y-107602783D01*
X139769554Y-107603169D01*
X139800429Y-107602768D01*
X139846002Y-107600429D01*
X139877348Y-107596465D01*
X139889010Y-107591413D01*
X139879064Y-107549827D01*
X139849947Y-107511013D01*
X139807952Y-107484086D01*
X139759440Y-107474772D01*
X139723723Y-107485272D01*
X139688020Y-107510940D01*
X139660879Y-107544381D01*
X139650099Y-107578218D01*
X139517022Y-107578218D01*
X139519758Y-107549965D01*
X139542655Y-107483895D01*
X139582607Y-107426940D01*
X139606979Y-107402848D01*
X139657315Y-107370597D01*
X139717419Y-107354970D01*
X139793338Y-107353871D01*
X139830010Y-107358179D01*
X139897703Y-107380549D01*
X139949530Y-107421263D01*
X139985945Y-107480949D01*
X140007401Y-107560236D01*
X140009579Y-107591413D01*
X140014353Y-107659753D01*
G36*
X140014353Y-107659753D02*
G01*
X140012718Y-107706692D01*
X139997827Y-107796459D01*
X139967185Y-107867045D01*
X139920524Y-107918952D01*
X139857574Y-107952686D01*
X139837235Y-107958647D01*
X139764612Y-107966971D01*
X139687928Y-107959946D01*
X139618663Y-107938265D01*
X139594262Y-107925959D01*
X139559275Y-107904879D01*
X139538072Y-107887534D01*
X139534942Y-107883571D01*
X139529085Y-107869077D01*
X139537524Y-107853321D01*
X139563221Y-107829460D01*
X139575622Y-107819072D01*
X139600052Y-107800063D01*
X139612861Y-107792293D01*
X139616530Y-107793094D01*
X139637561Y-107801745D01*
X139668960Y-107816931D01*
X139679197Y-107821926D01*
X139739590Y-107840475D01*
X139792057Y-107835694D01*
X139838065Y-107807500D01*
X139843419Y-107802291D01*
X139869013Y-107769659D01*
X139883637Y-107738342D01*
X139891736Y-107703763D01*
X139511782Y-107703763D01*
X139511852Y-107637748D01*
X139511892Y-107631182D01*
X139517022Y-107578218D01*
X139650099Y-107578218D01*
X139651670Y-107589203D01*
X139659738Y-107596773D01*
X139678967Y-107600975D01*
X139714019Y-107602783D01*
X139769554Y-107603169D01*
X139800429Y-107602768D01*
X139846002Y-107600429D01*
X139877348Y-107596465D01*
X139889010Y-107591413D01*
X139879064Y-107549827D01*
X139849947Y-107511013D01*
X139807952Y-107484086D01*
X139759440Y-107474772D01*
X139723723Y-107485272D01*
X139688020Y-107510940D01*
X139660879Y-107544381D01*
X139650099Y-107578218D01*
X139517022Y-107578218D01*
X139519758Y-107549965D01*
X139542655Y-107483895D01*
X139582607Y-107426940D01*
X139606979Y-107402848D01*
X139657315Y-107370597D01*
X139717419Y-107354970D01*
X139793338Y-107353871D01*
X139830010Y-107358179D01*
X139897703Y-107380549D01*
X139949530Y-107421263D01*
X139985945Y-107480949D01*
X140007401Y-107560236D01*
X140009579Y-107591413D01*
X140014353Y-107659753D01*
G37*
X143457022Y-106634861D02*
X143461421Y-106722936D01*
X143460322Y-106761371D01*
X143447926Y-106845367D01*
X143420608Y-106911595D01*
X143376941Y-106962784D01*
X143315495Y-107001663D01*
X143255888Y-107019812D01*
X143181110Y-107023284D01*
X143105664Y-107009930D01*
X143038366Y-106980425D01*
X143013428Y-106964012D01*
X142985951Y-106942973D01*
X142973414Y-106929129D01*
X142974124Y-106923417D01*
X142988158Y-106903955D01*
X143014533Y-106880376D01*
X143060240Y-106845513D01*
X143113799Y-106872262D01*
X143128282Y-106878882D01*
X143170916Y-106893273D01*
X143206649Y-106899010D01*
X143232998Y-106894282D01*
X143274347Y-106871514D01*
X143309104Y-106836170D01*
X143328983Y-106795273D01*
X143337083Y-106760693D01*
X142957129Y-106760693D01*
X142957199Y-106694679D01*
X142957774Y-106673757D01*
X142961972Y-106628862D01*
X143095445Y-106628862D01*
X143095690Y-106631434D01*
X143102604Y-106639443D01*
X143122141Y-106644364D01*
X143158467Y-106646843D01*
X143215748Y-106647525D01*
X143234575Y-106647517D01*
X143283470Y-106647065D01*
X143312863Y-106645113D01*
X143327115Y-106640558D01*
X143330582Y-106632299D01*
X143327625Y-106619233D01*
X143327173Y-106617752D01*
X143301699Y-106572285D01*
X143261539Y-106540981D01*
X143213651Y-106529327D01*
X143195949Y-106530259D01*
X143163094Y-106541408D01*
X143131575Y-106569763D01*
X143123085Y-106579789D01*
X143103336Y-106608423D01*
X143095445Y-106628862D01*
X142961972Y-106628862D01*
X142962512Y-106623091D01*
X142970459Y-106581166D01*
X142979168Y-106557696D01*
X143009790Y-106506646D01*
X143050799Y-106460283D01*
X143094168Y-106428514D01*
X143106699Y-106422614D01*
X143179661Y-106403046D01*
X143254168Y-106405109D01*
X143324217Y-106427931D01*
X143383807Y-106470639D01*
X143416038Y-106510025D01*
X143442392Y-106565510D01*
X143456482Y-106632299D01*
X143457022Y-106634861D01*
G36*
X143457022Y-106634861D02*
G01*
X143461421Y-106722936D01*
X143460322Y-106761371D01*
X143447926Y-106845367D01*
X143420608Y-106911595D01*
X143376941Y-106962784D01*
X143315495Y-107001663D01*
X143255888Y-107019812D01*
X143181110Y-107023284D01*
X143105664Y-107009930D01*
X143038366Y-106980425D01*
X143013428Y-106964012D01*
X142985951Y-106942973D01*
X142973414Y-106929129D01*
X142974124Y-106923417D01*
X142988158Y-106903955D01*
X143014533Y-106880376D01*
X143060240Y-106845513D01*
X143113799Y-106872262D01*
X143128282Y-106878882D01*
X143170916Y-106893273D01*
X143206649Y-106899010D01*
X143232998Y-106894282D01*
X143274347Y-106871514D01*
X143309104Y-106836170D01*
X143328983Y-106795273D01*
X143337083Y-106760693D01*
X142957129Y-106760693D01*
X142957199Y-106694679D01*
X142957774Y-106673757D01*
X142961972Y-106628862D01*
X143095445Y-106628862D01*
X143095690Y-106631434D01*
X143102604Y-106639443D01*
X143122141Y-106644364D01*
X143158467Y-106646843D01*
X143215748Y-106647525D01*
X143234575Y-106647517D01*
X143283470Y-106647065D01*
X143312863Y-106645113D01*
X143327115Y-106640558D01*
X143330582Y-106632299D01*
X143327625Y-106619233D01*
X143327173Y-106617752D01*
X143301699Y-106572285D01*
X143261539Y-106540981D01*
X143213651Y-106529327D01*
X143195949Y-106530259D01*
X143163094Y-106541408D01*
X143131575Y-106569763D01*
X143123085Y-106579789D01*
X143103336Y-106608423D01*
X143095445Y-106628862D01*
X142961972Y-106628862D01*
X142962512Y-106623091D01*
X142970459Y-106581166D01*
X142979168Y-106557696D01*
X143009790Y-106506646D01*
X143050799Y-106460283D01*
X143094168Y-106428514D01*
X143106699Y-106422614D01*
X143179661Y-106403046D01*
X143254168Y-106405109D01*
X143324217Y-106427931D01*
X143383807Y-106470639D01*
X143416038Y-106510025D01*
X143442392Y-106565510D01*
X143456482Y-106632299D01*
X143457022Y-106634861D01*
G37*
X141039413Y-107802333D02*
X141024244Y-107859419D01*
X140991277Y-107908255D01*
X140941270Y-107943386D01*
X140936362Y-107945521D01*
X140881646Y-107960903D01*
X140819993Y-107966899D01*
X140761376Y-107963233D01*
X140715767Y-107949629D01*
X140697549Y-107940754D01*
X140684179Y-107938637D01*
X140681188Y-107949706D01*
X140675524Y-107959942D01*
X140653607Y-107966038D01*
X140611068Y-107967822D01*
X140540948Y-107967822D01*
X140545053Y-107725768D01*
X140545492Y-107703763D01*
X140681188Y-107703763D01*
X140681188Y-107747773D01*
X140685924Y-107780666D01*
X140706336Y-107816931D01*
X140713871Y-107823597D01*
X140744753Y-107837620D01*
X140791213Y-107841228D01*
X140819090Y-107839819D01*
X140871255Y-107829204D01*
X140903587Y-107809425D01*
X140914492Y-107781824D01*
X140902374Y-107747743D01*
X140895304Y-107738824D01*
X140863724Y-107718818D01*
X140813744Y-107707395D01*
X140742487Y-107703763D01*
X140681188Y-107703763D01*
X140545492Y-107703763D01*
X140546169Y-107669794D01*
X140549106Y-107585996D01*
X140554058Y-107521920D01*
X140562002Y-107474073D01*
X140573917Y-107438962D01*
X140590780Y-107413093D01*
X140613572Y-107392974D01*
X140643269Y-107375110D01*
X140658589Y-107368290D01*
X140711589Y-107355417D01*
X140775513Y-107350095D01*
X140841602Y-107352227D01*
X140901099Y-107361714D01*
X140945247Y-107378461D01*
X140960604Y-107388185D01*
X140995960Y-107417005D01*
X141007926Y-107441137D01*
X141005020Y-107445800D01*
X140986909Y-107462088D01*
X140957672Y-107483817D01*
X140942725Y-107493987D01*
X140917270Y-107508397D01*
X140900728Y-107509773D01*
X140885370Y-107499827D01*
X140847094Y-107479684D01*
X140795590Y-107471400D01*
X140742957Y-107477742D01*
X140741961Y-107478030D01*
X140704838Y-107494158D01*
X140686463Y-107519405D01*
X140681380Y-107561158D01*
X140681188Y-107600879D01*
X140812423Y-107605168D01*
X140833331Y-107605873D01*
X140886043Y-107608326D01*
X140921381Y-107612180D01*
X140945267Y-107618878D01*
X140963624Y-107629864D01*
X140982376Y-107646580D01*
X141013337Y-107685244D01*
X141036029Y-107742456D01*
X141038254Y-107781824D01*
X141039413Y-107802333D01*
G36*
X141039413Y-107802333D02*
G01*
X141024244Y-107859419D01*
X140991277Y-107908255D01*
X140941270Y-107943386D01*
X140936362Y-107945521D01*
X140881646Y-107960903D01*
X140819993Y-107966899D01*
X140761376Y-107963233D01*
X140715767Y-107949629D01*
X140697549Y-107940754D01*
X140684179Y-107938637D01*
X140681188Y-107949706D01*
X140675524Y-107959942D01*
X140653607Y-107966038D01*
X140611068Y-107967822D01*
X140540948Y-107967822D01*
X140545053Y-107725768D01*
X140545492Y-107703763D01*
X140681188Y-107703763D01*
X140681188Y-107747773D01*
X140685924Y-107780666D01*
X140706336Y-107816931D01*
X140713871Y-107823597D01*
X140744753Y-107837620D01*
X140791213Y-107841228D01*
X140819090Y-107839819D01*
X140871255Y-107829204D01*
X140903587Y-107809425D01*
X140914492Y-107781824D01*
X140902374Y-107747743D01*
X140895304Y-107738824D01*
X140863724Y-107718818D01*
X140813744Y-107707395D01*
X140742487Y-107703763D01*
X140681188Y-107703763D01*
X140545492Y-107703763D01*
X140546169Y-107669794D01*
X140549106Y-107585996D01*
X140554058Y-107521920D01*
X140562002Y-107474073D01*
X140573917Y-107438962D01*
X140590780Y-107413093D01*
X140613572Y-107392974D01*
X140643269Y-107375110D01*
X140658589Y-107368290D01*
X140711589Y-107355417D01*
X140775513Y-107350095D01*
X140841602Y-107352227D01*
X140901099Y-107361714D01*
X140945247Y-107378461D01*
X140960604Y-107388185D01*
X140995960Y-107417005D01*
X141007926Y-107441137D01*
X141005020Y-107445800D01*
X140986909Y-107462088D01*
X140957672Y-107483817D01*
X140942725Y-107493987D01*
X140917270Y-107508397D01*
X140900728Y-107509773D01*
X140885370Y-107499827D01*
X140847094Y-107479684D01*
X140795590Y-107471400D01*
X140742957Y-107477742D01*
X140741961Y-107478030D01*
X140704838Y-107494158D01*
X140686463Y-107519405D01*
X140681380Y-107561158D01*
X140681188Y-107600879D01*
X140812423Y-107605168D01*
X140833331Y-107605873D01*
X140886043Y-107608326D01*
X140921381Y-107612180D01*
X140945267Y-107618878D01*
X140963624Y-107629864D01*
X140982376Y-107646580D01*
X141013337Y-107685244D01*
X141036029Y-107742456D01*
X141038254Y-107781824D01*
X141039413Y-107802333D01*
G37*
X143457299Y-107800223D02*
X143457157Y-107801882D01*
X143441835Y-107866479D01*
X143407753Y-107915063D01*
X143353218Y-107950072D01*
X143325036Y-107958589D01*
X143276764Y-107965228D01*
X143223978Y-107966813D01*
X143176353Y-107963160D01*
X143143566Y-107954083D01*
X143123652Y-107946813D01*
X143104155Y-107954083D01*
X143097023Y-107958295D01*
X143068557Y-107965126D01*
X143030059Y-107967822D01*
X142969703Y-107967822D01*
X142969703Y-107724484D01*
X142969707Y-107703763D01*
X143108020Y-107703763D01*
X143108020Y-107752111D01*
X143112668Y-107788904D01*
X143131015Y-107821269D01*
X143141514Y-107828274D01*
X143178988Y-107839191D01*
X143225773Y-107841917D01*
X143271652Y-107836379D01*
X143306410Y-107822505D01*
X143323726Y-107804161D01*
X143334356Y-107771566D01*
X143324929Y-107745729D01*
X143293764Y-107723263D01*
X143243667Y-107708850D01*
X143177582Y-107703763D01*
X143108020Y-107703763D01*
X142969707Y-107703763D01*
X142969707Y-107703440D01*
X142969937Y-107624122D01*
X142970797Y-107565154D01*
X142972679Y-107522616D01*
X142975974Y-107492592D01*
X142981073Y-107471163D01*
X142988366Y-107454411D01*
X142998246Y-107438419D01*
X143030023Y-107400948D01*
X143075055Y-107372339D01*
X143134210Y-107356555D01*
X143212161Y-107351703D01*
X143214695Y-107351708D01*
X143268880Y-107354155D01*
X143317380Y-107360256D01*
X143350478Y-107368809D01*
X143359552Y-107373096D01*
X143388433Y-107391248D01*
X143414568Y-107412822D01*
X143431764Y-107432236D01*
X143433825Y-107443909D01*
X143429803Y-107447063D01*
X143385976Y-107480739D01*
X143356671Y-107500600D01*
X143337294Y-107508613D01*
X143323253Y-107506746D01*
X143309957Y-107496965D01*
X143285418Y-107484756D01*
X143244064Y-107476615D01*
X143197326Y-107474503D01*
X143155034Y-107478800D01*
X143127017Y-107489887D01*
X143125543Y-107491236D01*
X143112953Y-107516581D01*
X143108020Y-107554411D01*
X143108020Y-107603169D01*
X143224331Y-107603216D01*
X143277760Y-107604061D01*
X143322735Y-107607740D01*
X143354907Y-107615309D01*
X143380899Y-107627808D01*
X143386948Y-107631647D01*
X143430710Y-107673845D01*
X143453987Y-107729647D01*
X143455955Y-107771566D01*
X143457299Y-107800223D01*
G36*
X143457299Y-107800223D02*
G01*
X143457157Y-107801882D01*
X143441835Y-107866479D01*
X143407753Y-107915063D01*
X143353218Y-107950072D01*
X143325036Y-107958589D01*
X143276764Y-107965228D01*
X143223978Y-107966813D01*
X143176353Y-107963160D01*
X143143566Y-107954083D01*
X143123652Y-107946813D01*
X143104155Y-107954083D01*
X143097023Y-107958295D01*
X143068557Y-107965126D01*
X143030059Y-107967822D01*
X142969703Y-107967822D01*
X142969703Y-107724484D01*
X142969707Y-107703763D01*
X143108020Y-107703763D01*
X143108020Y-107752111D01*
X143112668Y-107788904D01*
X143131015Y-107821269D01*
X143141514Y-107828274D01*
X143178988Y-107839191D01*
X143225773Y-107841917D01*
X143271652Y-107836379D01*
X143306410Y-107822505D01*
X143323726Y-107804161D01*
X143334356Y-107771566D01*
X143324929Y-107745729D01*
X143293764Y-107723263D01*
X143243667Y-107708850D01*
X143177582Y-107703763D01*
X143108020Y-107703763D01*
X142969707Y-107703763D01*
X142969707Y-107703440D01*
X142969937Y-107624122D01*
X142970797Y-107565154D01*
X142972679Y-107522616D01*
X142975974Y-107492592D01*
X142981073Y-107471163D01*
X142988366Y-107454411D01*
X142998246Y-107438419D01*
X143030023Y-107400948D01*
X143075055Y-107372339D01*
X143134210Y-107356555D01*
X143212161Y-107351703D01*
X143214695Y-107351708D01*
X143268880Y-107354155D01*
X143317380Y-107360256D01*
X143350478Y-107368809D01*
X143359552Y-107373096D01*
X143388433Y-107391248D01*
X143414568Y-107412822D01*
X143431764Y-107432236D01*
X143433825Y-107443909D01*
X143429803Y-107447063D01*
X143385976Y-107480739D01*
X143356671Y-107500600D01*
X143337294Y-107508613D01*
X143323253Y-107506746D01*
X143309957Y-107496965D01*
X143285418Y-107484756D01*
X143244064Y-107476615D01*
X143197326Y-107474503D01*
X143155034Y-107478800D01*
X143127017Y-107489887D01*
X143125543Y-107491236D01*
X143112953Y-107516581D01*
X143108020Y-107554411D01*
X143108020Y-107603169D01*
X143224331Y-107603216D01*
X143277760Y-107604061D01*
X143322735Y-107607740D01*
X143354907Y-107615309D01*
X143380899Y-107627808D01*
X143386948Y-107631647D01*
X143430710Y-107673845D01*
X143453987Y-107729647D01*
X143455955Y-107771566D01*
X143457299Y-107800223D01*
G37*
X144025940Y-107969136D02*
X143959926Y-107965336D01*
X143893911Y-107961535D01*
X143890772Y-107760347D01*
X143889844Y-107711425D01*
X143887208Y-107637926D01*
X143882683Y-107583991D01*
X143875438Y-107545995D01*
X143864642Y-107520313D01*
X143849462Y-107503320D01*
X143829066Y-107491389D01*
X143790797Y-107479205D01*
X143752738Y-107483940D01*
X143712549Y-107509979D01*
X143673861Y-107542533D01*
X143673861Y-107967822D01*
X143535544Y-107967822D01*
X143535544Y-107737176D01*
X143535677Y-107664882D01*
X143536413Y-107600641D01*
X143538181Y-107553618D01*
X143541411Y-107519548D01*
X143546530Y-107494170D01*
X143553967Y-107473221D01*
X143564150Y-107452436D01*
X143566564Y-107448024D01*
X143598675Y-107405047D01*
X143636256Y-107375013D01*
X143681564Y-107359243D01*
X143741561Y-107352222D01*
X143801643Y-107356025D01*
X143850525Y-107370868D01*
X143887624Y-107390052D01*
X143887624Y-106974859D01*
X143836792Y-107001354D01*
X143815558Y-107010980D01*
X143748536Y-107024592D01*
X143681930Y-107015184D01*
X143620187Y-106983905D01*
X143567757Y-106931902D01*
X143559543Y-106919680D01*
X143551649Y-106901763D01*
X143546500Y-106877404D01*
X143543527Y-106841927D01*
X143542161Y-106790656D01*
X143541915Y-106737236D01*
X143674749Y-106737236D01*
X143674861Y-106781849D01*
X143678272Y-106811601D01*
X143685937Y-106832835D01*
X143698814Y-106851896D01*
X143715171Y-106869617D01*
X143741329Y-106883028D01*
X143780742Y-106886436D01*
X143815559Y-106883471D01*
X143850020Y-106868631D01*
X143872215Y-106838569D01*
X143884097Y-106790254D01*
X143887624Y-106720650D01*
X143886712Y-106683624D01*
X143877609Y-106613728D01*
X143858828Y-106566464D01*
X143830476Y-106542168D01*
X143801840Y-106535332D01*
X143751970Y-106538537D01*
X143709833Y-106558380D01*
X143699749Y-106567480D01*
X143689063Y-106583223D01*
X143682456Y-106606658D01*
X143678532Y-106643604D01*
X143675897Y-106699880D01*
X143674749Y-106737236D01*
X143541915Y-106737236D01*
X143541831Y-106718917D01*
X143541944Y-106686184D01*
X143543872Y-106610044D01*
X143549240Y-106553166D01*
X143559406Y-106511249D01*
X143575725Y-106479996D01*
X143599553Y-106455106D01*
X143632247Y-106432282D01*
X143658759Y-106419184D01*
X143721615Y-106404739D01*
X143787869Y-106406707D01*
X143846757Y-106425433D01*
X143872030Y-106437673D01*
X143884742Y-106438938D01*
X143887624Y-106427798D01*
X143887626Y-106427461D01*
X143893838Y-106416087D01*
X143915260Y-106410256D01*
X143956782Y-106408614D01*
X144025940Y-106408614D01*
X144025940Y-106720650D01*
X144025940Y-107969136D01*
G36*
X144025940Y-107969136D02*
G01*
X143959926Y-107965336D01*
X143893911Y-107961535D01*
X143890772Y-107760347D01*
X143889844Y-107711425D01*
X143887208Y-107637926D01*
X143882683Y-107583991D01*
X143875438Y-107545995D01*
X143864642Y-107520313D01*
X143849462Y-107503320D01*
X143829066Y-107491389D01*
X143790797Y-107479205D01*
X143752738Y-107483940D01*
X143712549Y-107509979D01*
X143673861Y-107542533D01*
X143673861Y-107967822D01*
X143535544Y-107967822D01*
X143535544Y-107737176D01*
X143535677Y-107664882D01*
X143536413Y-107600641D01*
X143538181Y-107553618D01*
X143541411Y-107519548D01*
X143546530Y-107494170D01*
X143553967Y-107473221D01*
X143564150Y-107452436D01*
X143566564Y-107448024D01*
X143598675Y-107405047D01*
X143636256Y-107375013D01*
X143681564Y-107359243D01*
X143741561Y-107352222D01*
X143801643Y-107356025D01*
X143850525Y-107370868D01*
X143887624Y-107390052D01*
X143887624Y-106974859D01*
X143836792Y-107001354D01*
X143815558Y-107010980D01*
X143748536Y-107024592D01*
X143681930Y-107015184D01*
X143620187Y-106983905D01*
X143567757Y-106931902D01*
X143559543Y-106919680D01*
X143551649Y-106901763D01*
X143546500Y-106877404D01*
X143543527Y-106841927D01*
X143542161Y-106790656D01*
X143541915Y-106737236D01*
X143674749Y-106737236D01*
X143674861Y-106781849D01*
X143678272Y-106811601D01*
X143685937Y-106832835D01*
X143698814Y-106851896D01*
X143715171Y-106869617D01*
X143741329Y-106883028D01*
X143780742Y-106886436D01*
X143815559Y-106883471D01*
X143850020Y-106868631D01*
X143872215Y-106838569D01*
X143884097Y-106790254D01*
X143887624Y-106720650D01*
X143886712Y-106683624D01*
X143877609Y-106613728D01*
X143858828Y-106566464D01*
X143830476Y-106542168D01*
X143801840Y-106535332D01*
X143751970Y-106538537D01*
X143709833Y-106558380D01*
X143699749Y-106567480D01*
X143689063Y-106583223D01*
X143682456Y-106606658D01*
X143678532Y-106643604D01*
X143675897Y-106699880D01*
X143674749Y-106737236D01*
X143541915Y-106737236D01*
X143541831Y-106718917D01*
X143541944Y-106686184D01*
X143543872Y-106610044D01*
X143549240Y-106553166D01*
X143559406Y-106511249D01*
X143575725Y-106479996D01*
X143599553Y-106455106D01*
X143632247Y-106432282D01*
X143658759Y-106419184D01*
X143721615Y-106404739D01*
X143787869Y-106406707D01*
X143846757Y-106425433D01*
X143872030Y-106437673D01*
X143884742Y-106438938D01*
X143887624Y-106427798D01*
X143887626Y-106427461D01*
X143893838Y-106416087D01*
X143915260Y-106410256D01*
X143956782Y-106408614D01*
X144025940Y-106408614D01*
X144025940Y-106720650D01*
X144025940Y-107969136D01*
G37*
X142114389Y-102240018D02*
X142171237Y-102541570D01*
X142381001Y-102628041D01*
X142590764Y-102714512D01*
X142842410Y-102543395D01*
X142892216Y-102509661D01*
X142958244Y-102465381D01*
X143015410Y-102427561D01*
X143060744Y-102398142D01*
X143091280Y-102379067D01*
X143104046Y-102372278D01*
X143111887Y-102377106D01*
X143135325Y-102397339D01*
X143170794Y-102430543D01*
X143215289Y-102473670D01*
X143265805Y-102523670D01*
X143319336Y-102577495D01*
X143372877Y-102632095D01*
X143423423Y-102684423D01*
X143467968Y-102731428D01*
X143503507Y-102770063D01*
X143527034Y-102797278D01*
X143535544Y-102810024D01*
X143533565Y-102815500D01*
X143519857Y-102839927D01*
X143494825Y-102880129D01*
X143460499Y-102932952D01*
X143418907Y-102995247D01*
X143372079Y-103063862D01*
X143346380Y-103101283D01*
X143302173Y-103166432D01*
X143264272Y-103223289D01*
X143234698Y-103268770D01*
X143215472Y-103299793D01*
X143208614Y-103313274D01*
X143208726Y-103314021D01*
X143214776Y-103331110D01*
X143228654Y-103366006D01*
X143248427Y-103414151D01*
X143272160Y-103470986D01*
X143297918Y-103531953D01*
X143323766Y-103592492D01*
X143347771Y-103648047D01*
X143367998Y-103694057D01*
X143382511Y-103725965D01*
X143389377Y-103739212D01*
X143393439Y-103740387D01*
X143418121Y-103745687D01*
X143462111Y-103754467D01*
X143521887Y-103766040D01*
X143593929Y-103779721D01*
X143674716Y-103794823D01*
X143717294Y-103802830D01*
X143795445Y-103818107D01*
X143863775Y-103832215D01*
X143918551Y-103844345D01*
X143956037Y-103853686D01*
X143972500Y-103859427D01*
X143975457Y-103865119D01*
X143980362Y-103892930D01*
X143984216Y-103939250D01*
X143987021Y-103999720D01*
X143988781Y-104069983D01*
X143989499Y-104145680D01*
X143989177Y-104222453D01*
X143987819Y-104295944D01*
X143985428Y-104361794D01*
X143982006Y-104415645D01*
X143977556Y-104453138D01*
X143972082Y-104469916D01*
X143968760Y-104471809D01*
X143943987Y-104479926D01*
X143901011Y-104490666D01*
X143844802Y-104502853D01*
X143780325Y-104515310D01*
X143758570Y-104519277D01*
X143658093Y-104537729D01*
X143579126Y-104552559D01*
X143518934Y-104564380D01*
X143474778Y-104573809D01*
X143443920Y-104581460D01*
X143423625Y-104587948D01*
X143411154Y-104593888D01*
X143403771Y-104599894D01*
X143402913Y-104600902D01*
X143390838Y-104621919D01*
X143372971Y-104660376D01*
X143351042Y-104711761D01*
X143326784Y-104771563D01*
X143301927Y-104835270D01*
X143278205Y-104898371D01*
X143257347Y-104956355D01*
X143241087Y-105004709D01*
X143231156Y-105038922D01*
X143229285Y-105054483D01*
X143230536Y-105056502D01*
X143243486Y-105076028D01*
X143267840Y-105112042D01*
X143301340Y-105161228D01*
X143341727Y-105220267D01*
X143386745Y-105285842D01*
X143399100Y-105303884D01*
X143442545Y-105368599D01*
X143480091Y-105426476D01*
X143509594Y-105474082D01*
X143528914Y-105507985D01*
X143535905Y-105524752D01*
X143534398Y-105529161D01*
X143518695Y-105550882D01*
X143487714Y-105586354D01*
X143443673Y-105633188D01*
X143388790Y-105688996D01*
X143325286Y-105751392D01*
X143288988Y-105786317D01*
X143231595Y-105840711D01*
X143181361Y-105887302D01*
X143140984Y-105923636D01*
X143113161Y-105947261D01*
X143100590Y-105955724D01*
X143091952Y-105952587D01*
X143065360Y-105937747D01*
X143026741Y-105913477D01*
X142981134Y-105882852D01*
X142948707Y-105860503D01*
X142883970Y-105816122D01*
X142814886Y-105768987D01*
X142751787Y-105726155D01*
X142628178Y-105642547D01*
X142524417Y-105698650D01*
X142499984Y-105711599D01*
X142455552Y-105733749D01*
X142421191Y-105749041D01*
X142402828Y-105754743D01*
X142396818Y-105747421D01*
X142381895Y-105719541D01*
X142359852Y-105673575D01*
X142331917Y-105612441D01*
X142299317Y-105539055D01*
X142263276Y-105456335D01*
X142225023Y-105367197D01*
X142185783Y-105274559D01*
X142146783Y-105181337D01*
X142109249Y-105090450D01*
X142074409Y-105004814D01*
X142043488Y-104927345D01*
X142017714Y-104860962D01*
X141998311Y-104808582D01*
X141986508Y-104773121D01*
X141983531Y-104757496D01*
X141983732Y-104757039D01*
X141997601Y-104742595D01*
X142026611Y-104719974D01*
X142064772Y-104693864D01*
X142076817Y-104685892D01*
X142168469Y-104610256D01*
X142244323Y-104520169D01*
X142302581Y-104419381D01*
X142341448Y-104311640D01*
X142359128Y-104200697D01*
X142353826Y-104090303D01*
X142332347Y-103992115D01*
X142293782Y-103892966D01*
X142237562Y-103804512D01*
X142160410Y-103720487D01*
X142130095Y-103693645D01*
X142032094Y-103627510D01*
X141926227Y-103582970D01*
X141815561Y-103559625D01*
X141703164Y-103557078D01*
X141592105Y-103574929D01*
X141485451Y-103612780D01*
X141386270Y-103670232D01*
X141297631Y-103746887D01*
X141222600Y-103842345D01*
X141208175Y-103865985D01*
X141159143Y-103974034D01*
X141133103Y-104086548D01*
X141129372Y-104200614D01*
X141147268Y-104313318D01*
X141186109Y-104421745D01*
X141245214Y-104522982D01*
X141323900Y-104614114D01*
X141421485Y-104692228D01*
X141424654Y-104694333D01*
X141462411Y-104720940D01*
X141490709Y-104743561D01*
X141503634Y-104757496D01*
X141502003Y-104768421D01*
X141491864Y-104800231D01*
X141473884Y-104849534D01*
X141449292Y-104913413D01*
X141419311Y-104988948D01*
X141385170Y-105073223D01*
X141348092Y-105163320D01*
X141309306Y-105256321D01*
X141270036Y-105349308D01*
X141231509Y-105439364D01*
X141194950Y-105523571D01*
X141161586Y-105599010D01*
X141132643Y-105662765D01*
X141109346Y-105711917D01*
X141092923Y-105743549D01*
X141084598Y-105754743D01*
X141077674Y-105753227D01*
X141050477Y-105742331D01*
X141010280Y-105723228D01*
X140963009Y-105698650D01*
X140859248Y-105642547D01*
X140735639Y-105726155D01*
X140699120Y-105750913D01*
X140631194Y-105797171D01*
X140563475Y-105843503D01*
X140506291Y-105882852D01*
X140474732Y-105904297D01*
X140433714Y-105930939D01*
X140403301Y-105949178D01*
X140388446Y-105955941D01*
X140382065Y-105953070D01*
X140358996Y-105935485D01*
X140323433Y-105904523D01*
X140278471Y-105863231D01*
X140227206Y-105814653D01*
X140172733Y-105761835D01*
X140118148Y-105707823D01*
X140066547Y-105655661D01*
X140021024Y-105608396D01*
X139984675Y-105569072D01*
X139960595Y-105540736D01*
X139951881Y-105526432D01*
X139952383Y-105523711D01*
X139962755Y-105501560D01*
X139984912Y-105463235D01*
X140016712Y-105412200D01*
X140056016Y-105351914D01*
X140100681Y-105285842D01*
X140113207Y-105267617D01*
X140157193Y-105203485D01*
X140195937Y-105146789D01*
X140227182Y-105100844D01*
X140248669Y-105068970D01*
X140258140Y-105054483D01*
X140258373Y-105053862D01*
X140255578Y-105036139D01*
X140244903Y-105000235D01*
X140228081Y-104950662D01*
X140206843Y-104891932D01*
X140182921Y-104828556D01*
X140158046Y-104765046D01*
X140133950Y-104705913D01*
X140112365Y-104655669D01*
X140095023Y-104618826D01*
X140083655Y-104599894D01*
X140082516Y-104598719D01*
X140074376Y-104592773D01*
X140060629Y-104586776D01*
X140038537Y-104580114D01*
X140005363Y-104572173D01*
X139958370Y-104562337D01*
X139894820Y-104549991D01*
X139811976Y-104534520D01*
X139707100Y-104515310D01*
X139685348Y-104511267D01*
X139623036Y-104498769D01*
X139570619Y-104486927D01*
X139533066Y-104476917D01*
X139515343Y-104469916D01*
X139512378Y-104464075D01*
X139507435Y-104436016D01*
X139503518Y-104389500D01*
X139500629Y-104328886D01*
X139498773Y-104258532D01*
X139497952Y-104182796D01*
X139498168Y-104106037D01*
X139499426Y-104032612D01*
X139501728Y-103966880D01*
X139505076Y-103913200D01*
X139509474Y-103875930D01*
X139514926Y-103859427D01*
X139520491Y-103856989D01*
X139548178Y-103849305D01*
X139594979Y-103838436D01*
X139657157Y-103825192D01*
X139730979Y-103810384D01*
X139812710Y-103794823D01*
X139857336Y-103786509D01*
X139933824Y-103772092D01*
X139999660Y-103759467D01*
X140051323Y-103749321D01*
X140085293Y-103742341D01*
X140098048Y-103739212D01*
X140098528Y-103738568D01*
X140106651Y-103722181D01*
X140122137Y-103687852D01*
X140143050Y-103640136D01*
X140167455Y-103583586D01*
X140193416Y-103522758D01*
X140218997Y-103462206D01*
X140242262Y-103406485D01*
X140261277Y-103360150D01*
X140274105Y-103327755D01*
X140278812Y-103313855D01*
X140276736Y-103308965D01*
X140262920Y-103285692D01*
X140237860Y-103246519D01*
X140203568Y-103194520D01*
X140162059Y-103132768D01*
X140115346Y-103064336D01*
X140089718Y-103026860D01*
X140045490Y-102961156D01*
X140007570Y-102903492D01*
X139977980Y-102857014D01*
X139958743Y-102824865D01*
X139951881Y-102810190D01*
X139956649Y-102802230D01*
X139976593Y-102778446D01*
X140009313Y-102742451D01*
X140051805Y-102697295D01*
X140101065Y-102646028D01*
X140154091Y-102591701D01*
X140207877Y-102537364D01*
X140259421Y-102486067D01*
X140305720Y-102440859D01*
X140343769Y-102404792D01*
X140370565Y-102380914D01*
X140383105Y-102372278D01*
X140390066Y-102375636D01*
X140415627Y-102391210D01*
X140456874Y-102417715D01*
X140510837Y-102453210D01*
X140574542Y-102495750D01*
X140645016Y-102543395D01*
X140896662Y-102714512D01*
X141316188Y-102541570D01*
X141373036Y-102240018D01*
X141429885Y-101938466D01*
X142057540Y-101938466D01*
X142114389Y-102240018D01*
G36*
X142114389Y-102240018D02*
G01*
X142171237Y-102541570D01*
X142381001Y-102628041D01*
X142590764Y-102714512D01*
X142842410Y-102543395D01*
X142892216Y-102509661D01*
X142958244Y-102465381D01*
X143015410Y-102427561D01*
X143060744Y-102398142D01*
X143091280Y-102379067D01*
X143104046Y-102372278D01*
X143111887Y-102377106D01*
X143135325Y-102397339D01*
X143170794Y-102430543D01*
X143215289Y-102473670D01*
X143265805Y-102523670D01*
X143319336Y-102577495D01*
X143372877Y-102632095D01*
X143423423Y-102684423D01*
X143467968Y-102731428D01*
X143503507Y-102770063D01*
X143527034Y-102797278D01*
X143535544Y-102810024D01*
X143533565Y-102815500D01*
X143519857Y-102839927D01*
X143494825Y-102880129D01*
X143460499Y-102932952D01*
X143418907Y-102995247D01*
X143372079Y-103063862D01*
X143346380Y-103101283D01*
X143302173Y-103166432D01*
X143264272Y-103223289D01*
X143234698Y-103268770D01*
X143215472Y-103299793D01*
X143208614Y-103313274D01*
X143208726Y-103314021D01*
X143214776Y-103331110D01*
X143228654Y-103366006D01*
X143248427Y-103414151D01*
X143272160Y-103470986D01*
X143297918Y-103531953D01*
X143323766Y-103592492D01*
X143347771Y-103648047D01*
X143367998Y-103694057D01*
X143382511Y-103725965D01*
X143389377Y-103739212D01*
X143393439Y-103740387D01*
X143418121Y-103745687D01*
X143462111Y-103754467D01*
X143521887Y-103766040D01*
X143593929Y-103779721D01*
X143674716Y-103794823D01*
X143717294Y-103802830D01*
X143795445Y-103818107D01*
X143863775Y-103832215D01*
X143918551Y-103844345D01*
X143956037Y-103853686D01*
X143972500Y-103859427D01*
X143975457Y-103865119D01*
X143980362Y-103892930D01*
X143984216Y-103939250D01*
X143987021Y-103999720D01*
X143988781Y-104069983D01*
X143989499Y-104145680D01*
X143989177Y-104222453D01*
X143987819Y-104295944D01*
X143985428Y-104361794D01*
X143982006Y-104415645D01*
X143977556Y-104453138D01*
X143972082Y-104469916D01*
X143968760Y-104471809D01*
X143943987Y-104479926D01*
X143901011Y-104490666D01*
X143844802Y-104502853D01*
X143780325Y-104515310D01*
X143758570Y-104519277D01*
X143658093Y-104537729D01*
X143579126Y-104552559D01*
X143518934Y-104564380D01*
X143474778Y-104573809D01*
X143443920Y-104581460D01*
X143423625Y-104587948D01*
X143411154Y-104593888D01*
X143403771Y-104599894D01*
X143402913Y-104600902D01*
X143390838Y-104621919D01*
X143372971Y-104660376D01*
X143351042Y-104711761D01*
X143326784Y-104771563D01*
X143301927Y-104835270D01*
X143278205Y-104898371D01*
X143257347Y-104956355D01*
X143241087Y-105004709D01*
X143231156Y-105038922D01*
X143229285Y-105054483D01*
X143230536Y-105056502D01*
X143243486Y-105076028D01*
X143267840Y-105112042D01*
X143301340Y-105161228D01*
X143341727Y-105220267D01*
X143386745Y-105285842D01*
X143399100Y-105303884D01*
X143442545Y-105368599D01*
X143480091Y-105426476D01*
X143509594Y-105474082D01*
X143528914Y-105507985D01*
X143535905Y-105524752D01*
X143534398Y-105529161D01*
X143518695Y-105550882D01*
X143487714Y-105586354D01*
X143443673Y-105633188D01*
X143388790Y-105688996D01*
X143325286Y-105751392D01*
X143288988Y-105786317D01*
X143231595Y-105840711D01*
X143181361Y-105887302D01*
X143140984Y-105923636D01*
X143113161Y-105947261D01*
X143100590Y-105955724D01*
X143091952Y-105952587D01*
X143065360Y-105937747D01*
X143026741Y-105913477D01*
X142981134Y-105882852D01*
X142948707Y-105860503D01*
X142883970Y-105816122D01*
X142814886Y-105768987D01*
X142751787Y-105726155D01*
X142628178Y-105642547D01*
X142524417Y-105698650D01*
X142499984Y-105711599D01*
X142455552Y-105733749D01*
X142421191Y-105749041D01*
X142402828Y-105754743D01*
X142396818Y-105747421D01*
X142381895Y-105719541D01*
X142359852Y-105673575D01*
X142331917Y-105612441D01*
X142299317Y-105539055D01*
X142263276Y-105456335D01*
X142225023Y-105367197D01*
X142185783Y-105274559D01*
X142146783Y-105181337D01*
X142109249Y-105090450D01*
X142074409Y-105004814D01*
X142043488Y-104927345D01*
X142017714Y-104860962D01*
X141998311Y-104808582D01*
X141986508Y-104773121D01*
X141983531Y-104757496D01*
X141983732Y-104757039D01*
X141997601Y-104742595D01*
X142026611Y-104719974D01*
X142064772Y-104693864D01*
X142076817Y-104685892D01*
X142168469Y-104610256D01*
X142244323Y-104520169D01*
X142302581Y-104419381D01*
X142341448Y-104311640D01*
X142359128Y-104200697D01*
X142353826Y-104090303D01*
X142332347Y-103992115D01*
X142293782Y-103892966D01*
X142237562Y-103804512D01*
X142160410Y-103720487D01*
X142130095Y-103693645D01*
X142032094Y-103627510D01*
X141926227Y-103582970D01*
X141815561Y-103559625D01*
X141703164Y-103557078D01*
X141592105Y-103574929D01*
X141485451Y-103612780D01*
X141386270Y-103670232D01*
X141297631Y-103746887D01*
X141222600Y-103842345D01*
X141208175Y-103865985D01*
X141159143Y-103974034D01*
X141133103Y-104086548D01*
X141129372Y-104200614D01*
X141147268Y-104313318D01*
X141186109Y-104421745D01*
X141245214Y-104522982D01*
X141323900Y-104614114D01*
X141421485Y-104692228D01*
X141424654Y-104694333D01*
X141462411Y-104720940D01*
X141490709Y-104743561D01*
X141503634Y-104757496D01*
X141502003Y-104768421D01*
X141491864Y-104800231D01*
X141473884Y-104849534D01*
X141449292Y-104913413D01*
X141419311Y-104988948D01*
X141385170Y-105073223D01*
X141348092Y-105163320D01*
X141309306Y-105256321D01*
X141270036Y-105349308D01*
X141231509Y-105439364D01*
X141194950Y-105523571D01*
X141161586Y-105599010D01*
X141132643Y-105662765D01*
X141109346Y-105711917D01*
X141092923Y-105743549D01*
X141084598Y-105754743D01*
X141077674Y-105753227D01*
X141050477Y-105742331D01*
X141010280Y-105723228D01*
X140963009Y-105698650D01*
X140859248Y-105642547D01*
X140735639Y-105726155D01*
X140699120Y-105750913D01*
X140631194Y-105797171D01*
X140563475Y-105843503D01*
X140506291Y-105882852D01*
X140474732Y-105904297D01*
X140433714Y-105930939D01*
X140403301Y-105949178D01*
X140388446Y-105955941D01*
X140382065Y-105953070D01*
X140358996Y-105935485D01*
X140323433Y-105904523D01*
X140278471Y-105863231D01*
X140227206Y-105814653D01*
X140172733Y-105761835D01*
X140118148Y-105707823D01*
X140066547Y-105655661D01*
X140021024Y-105608396D01*
X139984675Y-105569072D01*
X139960595Y-105540736D01*
X139951881Y-105526432D01*
X139952383Y-105523711D01*
X139962755Y-105501560D01*
X139984912Y-105463235D01*
X140016712Y-105412200D01*
X140056016Y-105351914D01*
X140100681Y-105285842D01*
X140113207Y-105267617D01*
X140157193Y-105203485D01*
X140195937Y-105146789D01*
X140227182Y-105100844D01*
X140248669Y-105068970D01*
X140258140Y-105054483D01*
X140258373Y-105053862D01*
X140255578Y-105036139D01*
X140244903Y-105000235D01*
X140228081Y-104950662D01*
X140206843Y-104891932D01*
X140182921Y-104828556D01*
X140158046Y-104765046D01*
X140133950Y-104705913D01*
X140112365Y-104655669D01*
X140095023Y-104618826D01*
X140083655Y-104599894D01*
X140082516Y-104598719D01*
X140074376Y-104592773D01*
X140060629Y-104586776D01*
X140038537Y-104580114D01*
X140005363Y-104572173D01*
X139958370Y-104562337D01*
X139894820Y-104549991D01*
X139811976Y-104534520D01*
X139707100Y-104515310D01*
X139685348Y-104511267D01*
X139623036Y-104498769D01*
X139570619Y-104486927D01*
X139533066Y-104476917D01*
X139515343Y-104469916D01*
X139512378Y-104464075D01*
X139507435Y-104436016D01*
X139503518Y-104389500D01*
X139500629Y-104328886D01*
X139498773Y-104258532D01*
X139497952Y-104182796D01*
X139498168Y-104106037D01*
X139499426Y-104032612D01*
X139501728Y-103966880D01*
X139505076Y-103913200D01*
X139509474Y-103875930D01*
X139514926Y-103859427D01*
X139520491Y-103856989D01*
X139548178Y-103849305D01*
X139594979Y-103838436D01*
X139657157Y-103825192D01*
X139730979Y-103810384D01*
X139812710Y-103794823D01*
X139857336Y-103786509D01*
X139933824Y-103772092D01*
X139999660Y-103759467D01*
X140051323Y-103749321D01*
X140085293Y-103742341D01*
X140098048Y-103739212D01*
X140098528Y-103738568D01*
X140106651Y-103722181D01*
X140122137Y-103687852D01*
X140143050Y-103640136D01*
X140167455Y-103583586D01*
X140193416Y-103522758D01*
X140218997Y-103462206D01*
X140242262Y-103406485D01*
X140261277Y-103360150D01*
X140274105Y-103327755D01*
X140278812Y-103313855D01*
X140276736Y-103308965D01*
X140262920Y-103285692D01*
X140237860Y-103246519D01*
X140203568Y-103194520D01*
X140162059Y-103132768D01*
X140115346Y-103064336D01*
X140089718Y-103026860D01*
X140045490Y-102961156D01*
X140007570Y-102903492D01*
X139977980Y-102857014D01*
X139958743Y-102824865D01*
X139951881Y-102810190D01*
X139956649Y-102802230D01*
X139976593Y-102778446D01*
X140009313Y-102742451D01*
X140051805Y-102697295D01*
X140101065Y-102646028D01*
X140154091Y-102591701D01*
X140207877Y-102537364D01*
X140259421Y-102486067D01*
X140305720Y-102440859D01*
X140343769Y-102404792D01*
X140370565Y-102380914D01*
X140383105Y-102372278D01*
X140390066Y-102375636D01*
X140415627Y-102391210D01*
X140456874Y-102417715D01*
X140510837Y-102453210D01*
X140574542Y-102495750D01*
X140645016Y-102543395D01*
X140896662Y-102714512D01*
X141316188Y-102541570D01*
X141373036Y-102240018D01*
X141429885Y-101938466D01*
X142057540Y-101938466D01*
X142114389Y-102240018D01*
G37*
%TD*%
M02*
