%TF.GenerationSoftware,KiCad,Pcbnew,9.0.0*%
%TF.CreationDate,2025-03-22T15:43:37+01:00*%
%TF.ProjectId,Near-Field Probes,4e656172-2d46-4696-956c-642050726f62,1.0*%
%TF.SameCoordinates,Original*%
%TF.FileFunction,Copper,L1,Top*%
%TF.FilePolarity,Positive*%
%FSLAX46Y46*%
G04 Gerber Fmt 4.6, Leading zero omitted, Abs format (unit mm)*
G04 Created by KiCad (PCBNEW 9.0.0) date 2025-03-22 15:43:37*
%MOMM*%
%LPD*%
G01*
G04 APERTURE LIST*
%TA.AperFunction,Conductor*%
%ADD10C,0.355542*%
%TD*%
%TA.AperFunction,SMDPad,CuDef*%
%ADD11R,5.080000X1.500000*%
%TD*%
%TA.AperFunction,ViaPad*%
%ADD12C,0.600000*%
%TD*%
G04 APERTURE END LIST*
D10*
%TO.N,/E_SIGNAL*%
X148247422Y-115360598D02*
G75*
G02*
X148082930Y-116650000I6831478J-1526702D01*
G01*
%TD*%
D11*
%TO.P,J2,1,In*%
%TO.N,/E_SIGNAL*%
X52762500Y-116650000D03*
%TO.P,J2,2,Ext*%
%TO.N,GND*%
X52762500Y-120900000D03*
X52762500Y-112400000D03*
%TD*%
%TO.P,J1,1,In*%
%TO.N,/E_SIGNAL*%
X52462500Y-102850000D03*
%TO.P,J1,2,Ext*%
%TO.N,GND*%
X52462500Y-107100000D03*
X52462500Y-98600000D03*
%TD*%
D12*
%TO.N,GND*%
X108000000Y-118000000D03*
X149870173Y-122701820D03*
X159244453Y-112350197D03*
X61700000Y-104200000D03*
X78700000Y-104200000D03*
X153918912Y-109167588D03*
X83700000Y-101600000D03*
X160241916Y-113528669D03*
X104000000Y-115400000D03*
X78000000Y-115400000D03*
X82700000Y-101600000D03*
X152376416Y-124210967D03*
X114000000Y-115400000D03*
X150812307Y-112445080D03*
X132000000Y-118000000D03*
X155009596Y-110728377D03*
X125000000Y-118000000D03*
X69000000Y-118000000D03*
X99000000Y-118000000D03*
X160681168Y-119446934D03*
X98000000Y-115400000D03*
X150913347Y-121424403D03*
X102700000Y-104200000D03*
X57000000Y-115400000D03*
X104000000Y-118000000D03*
X60000000Y-115400000D03*
X62700000Y-101600000D03*
X74700000Y-104200000D03*
X88000000Y-118000000D03*
X95000000Y-115400000D03*
X100000000Y-115400000D03*
X140000000Y-115400000D03*
X105000000Y-115400000D03*
X160622152Y-114202250D03*
X135000000Y-115400000D03*
X148936482Y-117343189D03*
X159814416Y-123093304D03*
X85000000Y-115400000D03*
X77700000Y-101600000D03*
X137000000Y-115400000D03*
X122700000Y-101600000D03*
X105700000Y-104200000D03*
X148391357Y-112860361D03*
X63000000Y-115400000D03*
X103000000Y-118000000D03*
X144000000Y-118000000D03*
X94700000Y-101600000D03*
X140000000Y-118000000D03*
X117700000Y-101600000D03*
X104700000Y-104200000D03*
X125700000Y-104200000D03*
X95700000Y-104200000D03*
X160287639Y-111072780D03*
X58000000Y-118000000D03*
X111700000Y-101600000D03*
X66000000Y-115400000D03*
X106700000Y-104200000D03*
X136700000Y-104200000D03*
X123000000Y-115400000D03*
X67000000Y-118000000D03*
X160975319Y-111771456D03*
X91700000Y-104200000D03*
X70000000Y-118000000D03*
X123700000Y-104200000D03*
X57700000Y-104200000D03*
X147000000Y-115400000D03*
X105000000Y-118000000D03*
X108700000Y-104200000D03*
X161570009Y-112550813D03*
X142700000Y-101600000D03*
X111700000Y-104200000D03*
X158642956Y-111863891D03*
X147000000Y-118000000D03*
X70700000Y-104200000D03*
X89000000Y-115400000D03*
X149841614Y-113645699D03*
X131000000Y-118000000D03*
X128000000Y-118000000D03*
X78700000Y-101600000D03*
X98700000Y-101600000D03*
X102700000Y-101600000D03*
X151514844Y-121910709D03*
X162062331Y-113398558D03*
X101000000Y-115400000D03*
X148095481Y-120376042D03*
X86000000Y-118000000D03*
X147713292Y-119473277D03*
X144700000Y-104200000D03*
X117000000Y-118000000D03*
X65000000Y-118000000D03*
X130700000Y-104200000D03*
X131287500Y-110000000D03*
X117700000Y-104200000D03*
X74000000Y-115400000D03*
X155262216Y-124691526D03*
X156543435Y-110904636D03*
X72700000Y-101600000D03*
X129000000Y-115400000D03*
X75700000Y-101600000D03*
X63000000Y-118000000D03*
X123700000Y-101600000D03*
X143000000Y-118000000D03*
X158677985Y-109960094D03*
X114700000Y-104200000D03*
X143700000Y-101600000D03*
X63700000Y-104200000D03*
X110000000Y-115400000D03*
X108700000Y-101600000D03*
X107000000Y-118000000D03*
X136700000Y-101600000D03*
X131700000Y-104200000D03*
X87000000Y-118000000D03*
X152172548Y-122317793D03*
X158106715Y-122251018D03*
X141700000Y-101600000D03*
X93700000Y-101600000D03*
X122000000Y-115400000D03*
X121000000Y-115400000D03*
X58000000Y-115400000D03*
X122700000Y-104200000D03*
X126700000Y-101600000D03*
X81700000Y-101600000D03*
X91000000Y-118000000D03*
X160957800Y-118724600D03*
X92700000Y-101600000D03*
X98000000Y-118000000D03*
X151158555Y-110136715D03*
X114700000Y-101600000D03*
X65700000Y-104200000D03*
X138000000Y-118000000D03*
X161209012Y-121720658D03*
X148587803Y-121223787D03*
X118000000Y-118000000D03*
X159868608Y-120759746D03*
X66300000Y-110000000D03*
X86700000Y-101600000D03*
X133000000Y-118000000D03*
X119000000Y-118000000D03*
X85700000Y-101600000D03*
X130000000Y-118000000D03*
X78000000Y-118000000D03*
X124700000Y-104200000D03*
X150377544Y-120866545D03*
X73700000Y-101600000D03*
X134000000Y-115400000D03*
X64000000Y-115400000D03*
X120000000Y-115400000D03*
X126000000Y-115400000D03*
X157410588Y-122588209D03*
X64700000Y-101600000D03*
X59700000Y-104200000D03*
X141700000Y-104200000D03*
X162557812Y-119124600D03*
X81000000Y-115400000D03*
X79700000Y-101600000D03*
X89700000Y-104200000D03*
X153480112Y-110939106D03*
X82700000Y-104200000D03*
X66000000Y-118000000D03*
X81000000Y-118000000D03*
X162218431Y-120044314D03*
X125700000Y-101600000D03*
X112000000Y-115400000D03*
X67000000Y-110000000D03*
X96000000Y-115400000D03*
X103000000Y-115400000D03*
X116000000Y-115400000D03*
X113700000Y-101600000D03*
X90700000Y-104200000D03*
X65700000Y-101600000D03*
X56700000Y-101600000D03*
X85700000Y-104200000D03*
X142700000Y-104200000D03*
X102000000Y-118000000D03*
X124700000Y-101600000D03*
X120700000Y-104200000D03*
X105700000Y-101600000D03*
X151402708Y-111945362D03*
X118700000Y-101600000D03*
X129887500Y-110000000D03*
X112700000Y-104200000D03*
X115000000Y-115400000D03*
X128000000Y-115400000D03*
X106000000Y-118000000D03*
X81700000Y-104200000D03*
X60700000Y-104200000D03*
X73000000Y-115400000D03*
X108000000Y-115400000D03*
X94000000Y-118000000D03*
X157985252Y-111456807D03*
X83700000Y-104200000D03*
X90700000Y-101600000D03*
X95700000Y-101600000D03*
X158999257Y-123637885D03*
X130700000Y-101600000D03*
X154282642Y-124652962D03*
X95000000Y-118000000D03*
X97700000Y-101600000D03*
X67000000Y-115400000D03*
X68000000Y-115400000D03*
X135000000Y-118000000D03*
X133700000Y-101600000D03*
X99000000Y-115400000D03*
X69700000Y-104200000D03*
X152051085Y-111523582D03*
X86000000Y-115400000D03*
X131000000Y-115400000D03*
X130000000Y-115400000D03*
X162444520Y-114301323D03*
X135700000Y-104200000D03*
X76000000Y-115400000D03*
X127000000Y-118000000D03*
X155875170Y-109121638D03*
X152876086Y-122639234D03*
X156842187Y-109282671D03*
X155148204Y-123046223D03*
X149476632Y-114327666D03*
X146000000Y-118000000D03*
X91000000Y-115400000D03*
X88700000Y-101600000D03*
X128700000Y-104200000D03*
X142000000Y-115400000D03*
X138000000Y-115400000D03*
X154375740Y-123006344D03*
X71000000Y-115400000D03*
X127000000Y-115400000D03*
X84000000Y-115400000D03*
X121000000Y-118000000D03*
X123000000Y-118000000D03*
X61700000Y-101600000D03*
X62000000Y-118000000D03*
X83000000Y-118000000D03*
X119700000Y-104200000D03*
X109000000Y-115400000D03*
X75000000Y-115400000D03*
X158755092Y-121829238D03*
X157281714Y-111135366D03*
X152960523Y-109373846D03*
X129000000Y-118000000D03*
X102000000Y-115400000D03*
X133700000Y-104200000D03*
X152747212Y-111186391D03*
X65600000Y-110000000D03*
X107700000Y-104200000D03*
X60000000Y-118000000D03*
X75000000Y-118000000D03*
X87700000Y-104200000D03*
X144700000Y-101600000D03*
X69700000Y-101600000D03*
X83000000Y-115400000D03*
X99700000Y-101600000D03*
X160914968Y-114918176D03*
X73000000Y-118000000D03*
X100700000Y-101600000D03*
X67700000Y-101600000D03*
X144000000Y-115400000D03*
X79000000Y-115400000D03*
X143700000Y-104200000D03*
X94000000Y-115400000D03*
X64000000Y-118000000D03*
X157781396Y-109563633D03*
X76000000Y-118000000D03*
X159345493Y-121329520D03*
X97000000Y-118000000D03*
X88700000Y-104200000D03*
X115700000Y-101600000D03*
X128700000Y-101600000D03*
X115700000Y-104200000D03*
X121700000Y-104200000D03*
X63700000Y-101600000D03*
X150343396Y-110681296D03*
X77000000Y-118000000D03*
X66700000Y-101600000D03*
X141000000Y-118000000D03*
X135700000Y-101600000D03*
X109700000Y-104200000D03*
X125000000Y-115400000D03*
X94700000Y-104200000D03*
X112700000Y-101600000D03*
X68700000Y-101600000D03*
X150639998Y-123308799D03*
X96000000Y-118000000D03*
X120700000Y-101600000D03*
X116700000Y-101600000D03*
X133000000Y-115400000D03*
X149042055Y-118109443D03*
X147600000Y-114650000D03*
X87000000Y-115400000D03*
X86700000Y-104200000D03*
X110000000Y-118000000D03*
X70000000Y-115400000D03*
X101000000Y-118000000D03*
X71700000Y-104200000D03*
X67700000Y-110000000D03*
X145000000Y-118000000D03*
X57700000Y-101600000D03*
X129187500Y-110000000D03*
X127700000Y-101600000D03*
X65000000Y-115400000D03*
X106700000Y-101600000D03*
X132000000Y-115400000D03*
X129700000Y-101600000D03*
X107000000Y-115400000D03*
X118000000Y-115400000D03*
X110700000Y-101600000D03*
X98700000Y-104200000D03*
X74000000Y-118000000D03*
X101700000Y-101600000D03*
X96700000Y-101600000D03*
X61000000Y-115400000D03*
X149535648Y-119572350D03*
X56700000Y-104200000D03*
X110700000Y-104200000D03*
X72000000Y-115400000D03*
X80700000Y-104200000D03*
X80700000Y-101600000D03*
X131700000Y-101600000D03*
X148948800Y-112053942D03*
X71000000Y-118000000D03*
X116000000Y-118000000D03*
X119000000Y-115400000D03*
X57000000Y-118000000D03*
X143000000Y-115400000D03*
X158122271Y-124076005D03*
X136000000Y-118000000D03*
X156677688Y-122835494D03*
X87700000Y-101600000D03*
X100000000Y-118000000D03*
X72000000Y-118000000D03*
X84000000Y-118000000D03*
X149242832Y-118856424D03*
X114000000Y-118000000D03*
X117000000Y-115400000D03*
X149016082Y-115801309D03*
X148247422Y-115360601D03*
X159517814Y-110465801D03*
X103700000Y-101600000D03*
X76700000Y-104200000D03*
X137000000Y-118000000D03*
X154895596Y-109083074D03*
X67700000Y-104200000D03*
X76700000Y-101600000D03*
X149915884Y-120245931D03*
X139000000Y-115400000D03*
X145000000Y-115400000D03*
X138700000Y-104200000D03*
X111000000Y-115400000D03*
X75700000Y-104200000D03*
X59000000Y-118000000D03*
X139000000Y-118000000D03*
X122000000Y-118000000D03*
X92000000Y-115400000D03*
X139700000Y-101600000D03*
X152035541Y-109698595D03*
X60700000Y-101600000D03*
X91700000Y-101600000D03*
X112000000Y-118000000D03*
X92000000Y-118000000D03*
X154238225Y-110785628D03*
X74700000Y-101600000D03*
X115000000Y-118000000D03*
X159780256Y-112908055D03*
X126000000Y-118000000D03*
X124000000Y-118000000D03*
X137700000Y-104200000D03*
X132700000Y-104200000D03*
X149182493Y-122003144D03*
X118700000Y-104200000D03*
X109000000Y-118000000D03*
X149602918Y-111323749D03*
X109700000Y-101600000D03*
X160554894Y-122450851D03*
X99700000Y-104200000D03*
X134000000Y-118000000D03*
X129700000Y-104200000D03*
X79700000Y-104200000D03*
X147939381Y-113730286D03*
X100700000Y-104200000D03*
X101700000Y-104200000D03*
X140700000Y-101600000D03*
X77000000Y-115400000D03*
X126700000Y-104200000D03*
X113700000Y-104200000D03*
X80000000Y-115400000D03*
X149200000Y-115050000D03*
X82000000Y-115400000D03*
X97700000Y-104200000D03*
X120000000Y-118000000D03*
X58700000Y-104200000D03*
X84700000Y-101600000D03*
X103700000Y-104200000D03*
X151479827Y-123814506D03*
X148927779Y-116569745D03*
X90000000Y-115400000D03*
X62700000Y-104200000D03*
X132700000Y-101600000D03*
X62000000Y-115400000D03*
X130587500Y-110000000D03*
X119700000Y-101600000D03*
X139700000Y-104200000D03*
X134700000Y-104200000D03*
X161766455Y-120914239D03*
X89000000Y-118000000D03*
X79000000Y-118000000D03*
X66700000Y-104200000D03*
X93000000Y-118000000D03*
X155782060Y-110768256D03*
X116700000Y-104200000D03*
X88000000Y-115400000D03*
X59700000Y-101600000D03*
X142000000Y-118000000D03*
X127700000Y-104200000D03*
X82000000Y-118000000D03*
X93000000Y-115400000D03*
X58700000Y-101600000D03*
X71700000Y-101600000D03*
X72700000Y-104200000D03*
X68700000Y-104200000D03*
X92700000Y-104200000D03*
X138700000Y-101600000D03*
X136000000Y-115400000D03*
X121700000Y-101600000D03*
X140700000Y-104200000D03*
X96700000Y-104200000D03*
X68000000Y-118000000D03*
X111000000Y-118000000D03*
X89700000Y-101600000D03*
X80000000Y-118000000D03*
X106000000Y-115400000D03*
X97000000Y-115400000D03*
X153315625Y-124491929D03*
X155919575Y-122988972D03*
X84700000Y-104200000D03*
X137700000Y-101600000D03*
X157197289Y-124400754D03*
X107700000Y-101600000D03*
X156238900Y-124607012D03*
X134700000Y-101600000D03*
X150289192Y-113014854D03*
X141000000Y-115400000D03*
X61000000Y-118000000D03*
X85000000Y-118000000D03*
X113000000Y-115400000D03*
X124000000Y-115400000D03*
X73700000Y-104200000D03*
X90000000Y-118000000D03*
X59000000Y-115400000D03*
X93700000Y-104200000D03*
X64700000Y-104200000D03*
X77700000Y-104200000D03*
X146000000Y-115400000D03*
X113000000Y-118000000D03*
X70700000Y-101600000D03*
X104700000Y-101600000D03*
X160316186Y-120128901D03*
X69000000Y-115400000D03*
X153614365Y-122869964D03*
%TD*%
D10*
%TO.N,/E_SIGNAL*%
X52462500Y-102850000D02*
X147950000Y-102850000D01*
X52762500Y-116650000D02*
X148000000Y-116650000D01*
%TD*%
%TA.AperFunction,Conductor*%
%TO.N,GND*%
G36*
X145893039Y-103547956D02*
G01*
X145938794Y-103600760D01*
X145950000Y-103652271D01*
X145950000Y-109107476D01*
X145930315Y-109174515D01*
X145877511Y-109220270D01*
X145852865Y-109228531D01*
X145531530Y-109299843D01*
X145520866Y-109301725D01*
X145116083Y-109355069D01*
X145105296Y-109356014D01*
X144883668Y-109365699D01*
X144694137Y-109373982D01*
X144689917Y-109374094D01*
X144689281Y-109374100D01*
X144652096Y-109374100D01*
X144651228Y-109374459D01*
X144638623Y-109374578D01*
X144638337Y-109374497D01*
X144637452Y-109374584D01*
X132139975Y-109374500D01*
X132139883Y-109374500D01*
X132139882Y-109374500D01*
X132100000Y-109374500D01*
X132025568Y-109374500D01*
X131989943Y-109383280D01*
X131881032Y-109410125D01*
X131749220Y-109479305D01*
X131637792Y-109578020D01*
X131553230Y-109700530D01*
X131500440Y-109839722D01*
X131482498Y-109987500D01*
X131500440Y-110135277D01*
X131553230Y-110274469D01*
X131561484Y-110286427D01*
X131637793Y-110396980D01*
X131749219Y-110495694D01*
X131881031Y-110564874D01*
X132025568Y-110600500D01*
X132025569Y-110600500D01*
X132060118Y-110600500D01*
X145950000Y-110600500D01*
X145950000Y-111600000D01*
X55802267Y-111600000D01*
X55796098Y-111542627D01*
X55796096Y-111542620D01*
X55745854Y-111407913D01*
X55745850Y-111407906D01*
X55659690Y-111292812D01*
X55659687Y-111292809D01*
X55544593Y-111206649D01*
X55544586Y-111206645D01*
X55409879Y-111156403D01*
X55409872Y-111156401D01*
X55350344Y-111150000D01*
X53012500Y-111150000D01*
X53012500Y-111600000D01*
X52512500Y-111600000D01*
X52512500Y-111150000D01*
X50299100Y-111150000D01*
X50232061Y-111130315D01*
X50186306Y-111077511D01*
X50175100Y-111026000D01*
X50175100Y-110724500D01*
X50194785Y-110657461D01*
X50247589Y-110611706D01*
X50299100Y-110600500D01*
X64647618Y-110600500D01*
X64687500Y-110600500D01*
X64696930Y-110600500D01*
X64761224Y-110600575D01*
X64761224Y-110600574D01*
X64761228Y-110600575D01*
X64904481Y-110565621D01*
X65035365Y-110497704D01*
X65146418Y-110400697D01*
X65231310Y-110280129D01*
X65285202Y-110142874D01*
X65305021Y-109996757D01*
X65304050Y-109987500D01*
X67894998Y-109987500D01*
X67912940Y-110135277D01*
X67965730Y-110274469D01*
X67973984Y-110286427D01*
X68050293Y-110396980D01*
X68161719Y-110495694D01*
X68293531Y-110564874D01*
X68438068Y-110600500D01*
X68472618Y-110600500D01*
X128235118Y-110600500D01*
X128275000Y-110600500D01*
X128284430Y-110600500D01*
X128348724Y-110600575D01*
X128348724Y-110600574D01*
X128348728Y-110600575D01*
X128491981Y-110565621D01*
X128622865Y-110497704D01*
X128733918Y-110400697D01*
X128818810Y-110280129D01*
X128872702Y-110142874D01*
X128892521Y-109996757D01*
X128877138Y-109850105D01*
X128827429Y-109711281D01*
X128746229Y-109588197D01*
X128638165Y-109487869D01*
X128509399Y-109416018D01*
X128488075Y-109410125D01*
X128367273Y-109376740D01*
X128367263Y-109376739D01*
X128344097Y-109376064D01*
X128344088Y-109376064D01*
X128343490Y-109376046D01*
X128330161Y-109375656D01*
X128327368Y-109374500D01*
X128290601Y-109374500D01*
X128288789Y-109374447D01*
X128288782Y-109374444D01*
X128288657Y-109374443D01*
X128251099Y-109373304D01*
X128236734Y-109374500D01*
X68552382Y-109374500D01*
X68512500Y-109374500D01*
X68438068Y-109374500D01*
X68402443Y-109383280D01*
X68293532Y-109410125D01*
X68161720Y-109479305D01*
X68050292Y-109578020D01*
X67965730Y-109700530D01*
X67912940Y-109839722D01*
X67894998Y-109987500D01*
X65304050Y-109987500D01*
X65289638Y-109850105D01*
X65239929Y-109711281D01*
X65158729Y-109588197D01*
X65050665Y-109487869D01*
X64921899Y-109416018D01*
X64900575Y-109410125D01*
X64779772Y-109376740D01*
X64779764Y-109376739D01*
X64756619Y-109376065D01*
X64756612Y-109376065D01*
X64754694Y-109376009D01*
X64742678Y-109375657D01*
X64739887Y-109374501D01*
X64703101Y-109374500D01*
X64701289Y-109374447D01*
X64701282Y-109374444D01*
X64701157Y-109374443D01*
X64663601Y-109373304D01*
X64649245Y-109374497D01*
X49999097Y-109374108D01*
X49932058Y-109354422D01*
X49886304Y-109301616D01*
X49875100Y-109250108D01*
X49875100Y-108474000D01*
X49894785Y-108406961D01*
X49947589Y-108361206D01*
X49999100Y-108350000D01*
X52212500Y-108350000D01*
X52712500Y-108350000D01*
X55050328Y-108350000D01*
X55050344Y-108349999D01*
X55109872Y-108343598D01*
X55109879Y-108343596D01*
X55244586Y-108293354D01*
X55244593Y-108293350D01*
X55359687Y-108207190D01*
X55359690Y-108207187D01*
X55445850Y-108092093D01*
X55445854Y-108092086D01*
X55496096Y-107957379D01*
X55496098Y-107957372D01*
X55502499Y-107897844D01*
X55502500Y-107897827D01*
X55502500Y-107350000D01*
X52712500Y-107350000D01*
X52712500Y-108350000D01*
X52212500Y-108350000D01*
X52212500Y-106850000D01*
X52712500Y-106850000D01*
X55502500Y-106850000D01*
X55502500Y-106302172D01*
X55502499Y-106302155D01*
X55496098Y-106242627D01*
X55496096Y-106242620D01*
X55445854Y-106107913D01*
X55445850Y-106107906D01*
X55359690Y-105992812D01*
X55359687Y-105992809D01*
X55244593Y-105906649D01*
X55244586Y-105906645D01*
X55109879Y-105856403D01*
X55109872Y-105856401D01*
X55050344Y-105850000D01*
X52712500Y-105850000D01*
X52712500Y-106850000D01*
X52212500Y-106850000D01*
X52212500Y-105850000D01*
X49999100Y-105850000D01*
X49932061Y-105830315D01*
X49886306Y-105777511D01*
X49875100Y-105726000D01*
X49875100Y-104224499D01*
X49877650Y-104215813D01*
X49876362Y-104206852D01*
X49887340Y-104182811D01*
X49894785Y-104157460D01*
X49901625Y-104151532D01*
X49905387Y-104143296D01*
X49927621Y-104129006D01*
X49947589Y-104111705D01*
X49958103Y-104109417D01*
X49964165Y-104105522D01*
X49999100Y-104100499D01*
X50076000Y-104100499D01*
X50143039Y-104120184D01*
X50188794Y-104172988D01*
X50200000Y-104224499D01*
X50200000Y-104600000D01*
X55700000Y-104600000D01*
X55700000Y-103652271D01*
X55719685Y-103585232D01*
X55772489Y-103539477D01*
X55824000Y-103528271D01*
X145826000Y-103528271D01*
X145893039Y-103547956D01*
G37*
%TD.AperFunction*%
%TA.AperFunction,Conductor*%
G36*
X144689951Y-96800617D02*
G01*
X145100821Y-96818582D01*
X145111607Y-96819527D01*
X145516652Y-96872937D01*
X145527301Y-96874818D01*
X145852882Y-96947116D01*
X145914059Y-96980865D01*
X145947279Y-97042332D01*
X145950000Y-97068167D01*
X145950000Y-102047729D01*
X145930315Y-102114768D01*
X145877511Y-102160523D01*
X145826000Y-102171729D01*
X55824000Y-102171729D01*
X55756961Y-102152044D01*
X55711206Y-102099240D01*
X55700000Y-102047729D01*
X55700000Y-100850000D01*
X50200000Y-100850000D01*
X50200000Y-101475500D01*
X50197449Y-101484185D01*
X50198738Y-101493147D01*
X50187759Y-101517187D01*
X50180315Y-101542539D01*
X50173474Y-101548466D01*
X50169713Y-101556703D01*
X50147478Y-101570992D01*
X50127511Y-101588294D01*
X50116996Y-101590581D01*
X50110935Y-101594477D01*
X50076000Y-101599500D01*
X49999100Y-101599500D01*
X49932061Y-101579815D01*
X49886306Y-101527011D01*
X49875100Y-101475500D01*
X49875100Y-99974000D01*
X49894785Y-99906961D01*
X49947589Y-99861206D01*
X49999100Y-99850000D01*
X52212500Y-99850000D01*
X52712500Y-99850000D01*
X55050328Y-99850000D01*
X55050344Y-99849999D01*
X55109872Y-99843598D01*
X55109879Y-99843596D01*
X55244586Y-99793354D01*
X55244593Y-99793350D01*
X55359687Y-99707190D01*
X55359690Y-99707187D01*
X55445850Y-99592093D01*
X55445854Y-99592086D01*
X55496096Y-99457379D01*
X55496098Y-99457372D01*
X55502499Y-99397844D01*
X55502500Y-99397827D01*
X55502500Y-98850000D01*
X52712500Y-98850000D01*
X52712500Y-99850000D01*
X52212500Y-99850000D01*
X52212500Y-98350000D01*
X52712500Y-98350000D01*
X55502500Y-98350000D01*
X55502500Y-97802172D01*
X55502499Y-97802155D01*
X55496098Y-97742627D01*
X55496096Y-97742620D01*
X55445854Y-97607913D01*
X55445850Y-97607906D01*
X55359690Y-97492812D01*
X55359687Y-97492809D01*
X55244593Y-97406649D01*
X55244586Y-97406645D01*
X55109879Y-97356403D01*
X55109872Y-97356401D01*
X55050344Y-97350000D01*
X52712500Y-97350000D01*
X52712500Y-98350000D01*
X52212500Y-98350000D01*
X52212500Y-97350000D01*
X49999100Y-97350000D01*
X49932061Y-97330315D01*
X49886306Y-97277511D01*
X49875100Y-97226000D01*
X49875100Y-96924500D01*
X49894785Y-96857461D01*
X49947589Y-96811706D01*
X49999100Y-96800500D01*
X144647371Y-96800500D01*
X144684536Y-96800500D01*
X144689951Y-96800617D01*
G37*
%TD.AperFunction*%
%TD*%
%TA.AperFunction,Conductor*%
%TO.N,GND*%
G36*
X147648363Y-117047956D02*
G01*
X147694118Y-117100760D01*
X147697226Y-117113827D01*
X147782697Y-123174100D01*
X50299100Y-123174100D01*
X50232061Y-123154415D01*
X50186306Y-123101611D01*
X50175100Y-123050100D01*
X50175100Y-122274000D01*
X50194785Y-122206961D01*
X50247589Y-122161206D01*
X50299100Y-122150000D01*
X52512500Y-122150000D01*
X53012500Y-122150000D01*
X55350328Y-122150000D01*
X55350344Y-122149999D01*
X55409872Y-122143598D01*
X55409879Y-122143596D01*
X55544586Y-122093354D01*
X55544593Y-122093350D01*
X55659687Y-122007190D01*
X55659690Y-122007187D01*
X55745850Y-121892093D01*
X55745854Y-121892086D01*
X55796096Y-121757379D01*
X55796098Y-121757372D01*
X55802499Y-121697844D01*
X55802500Y-121697827D01*
X55802500Y-121150000D01*
X53012500Y-121150000D01*
X53012500Y-122150000D01*
X52512500Y-122150000D01*
X52512500Y-120650000D01*
X53012500Y-120650000D01*
X55802500Y-120650000D01*
X55802500Y-120102172D01*
X55802499Y-120102155D01*
X55796098Y-120042627D01*
X55796096Y-120042620D01*
X55745854Y-119907913D01*
X55745850Y-119907906D01*
X55659690Y-119792812D01*
X55659687Y-119792809D01*
X55544593Y-119706649D01*
X55544586Y-119706645D01*
X55409879Y-119656403D01*
X55409872Y-119656401D01*
X55350344Y-119650000D01*
X53012500Y-119650000D01*
X53012500Y-120650000D01*
X52512500Y-120650000D01*
X52512500Y-119650000D01*
X50299100Y-119650000D01*
X50232061Y-119630315D01*
X50186306Y-119577511D01*
X50175100Y-119526000D01*
X50175100Y-117724500D01*
X50177650Y-117715814D01*
X50176362Y-117706853D01*
X50187340Y-117682812D01*
X50194785Y-117657461D01*
X50201625Y-117651533D01*
X50205387Y-117643297D01*
X50227621Y-117629007D01*
X50247589Y-117611706D01*
X50258103Y-117609418D01*
X50264165Y-117605523D01*
X50299100Y-117600500D01*
X50376000Y-117600500D01*
X50443039Y-117620185D01*
X50488794Y-117672989D01*
X50500000Y-117724500D01*
X50500000Y-118400000D01*
X56000000Y-118400000D01*
X56000000Y-117152271D01*
X56019685Y-117085232D01*
X56072489Y-117039477D01*
X56124000Y-117028271D01*
X147581324Y-117028271D01*
X147648363Y-117047956D01*
G37*
%TD.AperFunction*%
%TA.AperFunction,Conductor*%
G36*
X68044167Y-110388106D02*
G01*
X68050293Y-110396980D01*
X68161719Y-110495694D01*
X68293531Y-110564874D01*
X68438068Y-110600500D01*
X68472618Y-110600500D01*
X128235118Y-110600500D01*
X128275000Y-110600500D01*
X128284430Y-110600500D01*
X128348724Y-110600575D01*
X128348724Y-110600574D01*
X128348728Y-110600575D01*
X128491981Y-110565621D01*
X128622865Y-110497704D01*
X128733918Y-110400697D01*
X128742784Y-110388106D01*
X128762490Y-110360118D01*
X128787216Y-110325000D01*
X131588109Y-110325000D01*
X131631667Y-110388106D01*
X131637793Y-110396980D01*
X131749219Y-110495694D01*
X131881031Y-110564874D01*
X132025568Y-110600500D01*
X132060118Y-110600500D01*
X147605366Y-110600500D01*
X147685350Y-116271729D01*
X56124000Y-116271729D01*
X56056961Y-116252044D01*
X56011206Y-116199240D01*
X56000000Y-116147729D01*
X56000000Y-114650000D01*
X50500000Y-114650000D01*
X50500000Y-115575500D01*
X50497449Y-115584185D01*
X50498738Y-115593147D01*
X50487759Y-115617187D01*
X50480315Y-115642539D01*
X50473474Y-115648466D01*
X50469713Y-115656703D01*
X50447478Y-115670992D01*
X50427511Y-115688294D01*
X50416996Y-115690581D01*
X50410935Y-115694477D01*
X50376000Y-115699500D01*
X50299100Y-115699500D01*
X50232061Y-115679815D01*
X50186306Y-115627011D01*
X50175100Y-115575500D01*
X50175100Y-113774000D01*
X50194785Y-113706961D01*
X50247589Y-113661206D01*
X50299100Y-113650000D01*
X52512500Y-113650000D01*
X53012500Y-113650000D01*
X55350328Y-113650000D01*
X55350344Y-113649999D01*
X55409872Y-113643598D01*
X55409879Y-113643596D01*
X55544586Y-113593354D01*
X55544593Y-113593350D01*
X55659687Y-113507190D01*
X55659690Y-113507187D01*
X55745850Y-113392093D01*
X55745854Y-113392086D01*
X55796096Y-113257379D01*
X55796098Y-113257372D01*
X55802499Y-113197844D01*
X55802500Y-113197827D01*
X55802500Y-112650000D01*
X53012500Y-112650000D01*
X53012500Y-113650000D01*
X52512500Y-113650000D01*
X52512500Y-112150000D01*
X53012500Y-112150000D01*
X55802500Y-112150000D01*
X55802500Y-111602172D01*
X55802499Y-111602155D01*
X55796098Y-111542627D01*
X55796096Y-111542620D01*
X55745854Y-111407913D01*
X55745850Y-111407906D01*
X55659690Y-111292812D01*
X55659687Y-111292809D01*
X55544593Y-111206649D01*
X55544586Y-111206645D01*
X55409879Y-111156403D01*
X55409872Y-111156401D01*
X55350344Y-111150000D01*
X53012500Y-111150000D01*
X53012500Y-112150000D01*
X52512500Y-112150000D01*
X52512500Y-111150000D01*
X50299100Y-111150000D01*
X50232061Y-111130315D01*
X50186306Y-111077511D01*
X50175100Y-111026000D01*
X50175100Y-110724500D01*
X50194785Y-110657461D01*
X50247589Y-110611706D01*
X50299100Y-110600500D01*
X64647618Y-110600500D01*
X64687500Y-110600500D01*
X64696930Y-110600500D01*
X64761224Y-110600575D01*
X64761224Y-110600574D01*
X64761228Y-110600575D01*
X64904481Y-110565621D01*
X65035365Y-110497704D01*
X65146418Y-110400697D01*
X65155284Y-110388106D01*
X65174990Y-110360118D01*
X65199716Y-110325000D01*
X68000609Y-110325000D01*
X68044167Y-110388106D01*
G37*
%TD.AperFunction*%
%TD*%
%TA.AperFunction,Conductor*%
%TO.N,GND*%
G36*
X147705231Y-117147476D02*
G01*
X147716562Y-117440300D01*
X147716563Y-117440318D01*
X147776056Y-117972797D01*
X147874005Y-118499542D01*
X148009906Y-119017828D01*
X148155155Y-119443236D01*
X148183027Y-119524867D01*
X148286281Y-119767995D01*
X148346988Y-119910940D01*
X148392467Y-120018026D01*
X148637121Y-120494697D01*
X148912454Y-120947037D01*
X148915706Y-120952379D01*
X148915707Y-120952381D01*
X149226726Y-121388620D01*
X149226737Y-121388635D01*
X149568597Y-121801197D01*
X149939465Y-122187869D01*
X149939476Y-122187880D01*
X150123087Y-122353414D01*
X150337415Y-122546641D01*
X150760328Y-122875602D01*
X151205985Y-123173027D01*
X151672039Y-123437347D01*
X151820951Y-123508058D01*
X152156034Y-123667173D01*
X152655416Y-123861291D01*
X152655420Y-123861292D01*
X152655422Y-123861293D01*
X152775823Y-123898294D01*
X153120498Y-124004218D01*
X153167574Y-124018685D01*
X153689791Y-124138521D01*
X154219324Y-124220168D01*
X154219338Y-124220169D01*
X154219345Y-124220170D01*
X154753370Y-124263197D01*
X154753372Y-124263197D01*
X154753384Y-124263198D01*
X155141358Y-124266227D01*
X155289150Y-124267382D01*
X155289158Y-124267382D01*
X155289162Y-124267382D01*
X155455843Y-124256570D01*
X155823825Y-124232701D01*
X156354568Y-124159335D01*
X156878594Y-124047672D01*
X157393141Y-123898299D01*
X157393152Y-123898294D01*
X157393155Y-123898294D01*
X157520847Y-123850940D01*
X157895501Y-123712004D01*
X158383027Y-123489767D01*
X158853153Y-123232758D01*
X158859440Y-123228703D01*
X158964237Y-123161105D01*
X159303402Y-122942332D01*
X159731402Y-122620017D01*
X160134901Y-122267512D01*
X160511773Y-121886672D01*
X160860033Y-121479503D01*
X161177847Y-121048150D01*
X161463541Y-120594884D01*
X161715612Y-120122093D01*
X161932730Y-119632265D01*
X162096983Y-119174702D01*
X162113754Y-119127983D01*
X162183119Y-118879341D01*
X162257729Y-118611898D01*
X162331007Y-118249428D01*
X162363585Y-118187619D01*
X162424409Y-118153235D01*
X162452548Y-118150000D01*
X163814814Y-118150000D01*
X163881853Y-118169685D01*
X163927608Y-118222489D01*
X163937552Y-118291647D01*
X163937158Y-118294199D01*
X163881053Y-118634017D01*
X163879470Y-118641975D01*
X163747965Y-119205969D01*
X163745865Y-119213807D01*
X163577753Y-119767995D01*
X163575144Y-119775679D01*
X163371155Y-120317667D01*
X163368050Y-120325164D01*
X163129040Y-120852671D01*
X163125451Y-120859948D01*
X162852459Y-121370680D01*
X162848402Y-121377707D01*
X162542590Y-121869494D01*
X162538082Y-121876241D01*
X162200757Y-122346976D01*
X162195817Y-122353414D01*
X161828424Y-122801084D01*
X161823074Y-122807184D01*
X161427198Y-123229858D01*
X161421460Y-123235596D01*
X160998786Y-123631473D01*
X160992686Y-123636823D01*
X160545016Y-124004215D01*
X160538578Y-124009155D01*
X160067843Y-124346479D01*
X160061096Y-124350987D01*
X159569309Y-124656800D01*
X159562282Y-124660857D01*
X159051550Y-124933850D01*
X159044273Y-124937439D01*
X158516766Y-125176449D01*
X158509269Y-125179554D01*
X157967283Y-125383543D01*
X157959599Y-125386152D01*
X157405409Y-125554264D01*
X157397572Y-125556364D01*
X156833579Y-125687869D01*
X156825620Y-125689452D01*
X156254237Y-125783789D01*
X156246192Y-125784848D01*
X155669869Y-125841610D01*
X155661772Y-125842141D01*
X155082959Y-125861090D01*
X155074845Y-125861090D01*
X154496032Y-125842141D01*
X154487935Y-125841610D01*
X153911612Y-125784848D01*
X153903567Y-125783789D01*
X153332182Y-125689453D01*
X153324224Y-125687870D01*
X152760236Y-125556367D01*
X152752398Y-125554267D01*
X152198206Y-125386154D01*
X152190522Y-125383545D01*
X151648535Y-125179556D01*
X151641039Y-125176451D01*
X151113532Y-124937442D01*
X151106254Y-124933853D01*
X151106248Y-124933850D01*
X150925246Y-124837102D01*
X150595522Y-124660860D01*
X150588495Y-124656803D01*
X150096708Y-124350990D01*
X150089961Y-124346482D01*
X149619225Y-124009158D01*
X149612787Y-124004218D01*
X149165117Y-123636826D01*
X149159017Y-123631476D01*
X148734878Y-123234227D01*
X148731962Y-123231405D01*
X148705181Y-123204624D01*
X148631490Y-123174100D01*
X148631489Y-123174100D01*
X147782697Y-123174100D01*
X147697226Y-117113828D01*
X147705231Y-117147476D01*
G37*
%TD.AperFunction*%
%TA.AperFunction,Conductor*%
G36*
X155661781Y-107932458D02*
G01*
X155669859Y-107932988D01*
X156246216Y-107989754D01*
X156254214Y-107990807D01*
X156825628Y-108085148D01*
X156833571Y-108086728D01*
X157397586Y-108218238D01*
X157405394Y-108220331D01*
X157959605Y-108388449D01*
X157967276Y-108391053D01*
X158268410Y-108504392D01*
X158509269Y-108595045D01*
X158516766Y-108598150D01*
X159044290Y-108837168D01*
X159051533Y-108840740D01*
X159505463Y-109083371D01*
X159562282Y-109113742D01*
X159569309Y-109117799D01*
X160061096Y-109423612D01*
X160067843Y-109428120D01*
X160538578Y-109765444D01*
X160545016Y-109770384D01*
X160992686Y-110137776D01*
X160998783Y-110143123D01*
X161421473Y-110539016D01*
X161427185Y-110544728D01*
X161776587Y-110917781D01*
X161823074Y-110967415D01*
X161828424Y-110973515D01*
X162182615Y-111405099D01*
X162195817Y-111421185D01*
X162200753Y-111427618D01*
X162471351Y-111805236D01*
X162538082Y-111898358D01*
X162542590Y-111905105D01*
X162848402Y-112396892D01*
X162852459Y-112403919D01*
X163125451Y-112914651D01*
X163129037Y-112921923D01*
X163186814Y-113049439D01*
X163368050Y-113449435D01*
X163371155Y-113456932D01*
X163575144Y-113998920D01*
X163577753Y-114006604D01*
X163745865Y-114560792D01*
X163747965Y-114568629D01*
X163867698Y-115082135D01*
X163871361Y-115097842D01*
X163867414Y-115167600D01*
X163826379Y-115224151D01*
X163761285Y-115249539D01*
X163750600Y-115250000D01*
X162371438Y-115250000D01*
X162304399Y-115230315D01*
X162258644Y-115177511D01*
X162250877Y-115154999D01*
X162201625Y-114950236D01*
X162189875Y-114901385D01*
X162056704Y-114483682D01*
X162027129Y-114390916D01*
X162027123Y-114390900D01*
X161871696Y-114003129D01*
X161827788Y-113893583D01*
X161592905Y-113412021D01*
X161323717Y-112948762D01*
X161021642Y-112506244D01*
X160688269Y-112086799D01*
X160325355Y-111692636D01*
X160325348Y-111692629D01*
X160325344Y-111692625D01*
X159934819Y-111325837D01*
X159934815Y-111325834D01*
X159934811Y-111325830D01*
X159518694Y-110988312D01*
X159518691Y-110988310D01*
X159518685Y-110988305D01*
X159079197Y-110681863D01*
X158890970Y-110569977D01*
X158618629Y-110408091D01*
X158139421Y-110168443D01*
X157746900Y-110006574D01*
X157644098Y-109964180D01*
X157644085Y-109964175D01*
X157238923Y-109830562D01*
X157135260Y-109796376D01*
X157135256Y-109796375D01*
X157135253Y-109796374D01*
X156615593Y-109665915D01*
X156615587Y-109665914D01*
X156087844Y-109573487D01*
X156087843Y-109573486D01*
X156087838Y-109573486D01*
X155640386Y-109528234D01*
X155554767Y-109519575D01*
X155500007Y-109518030D01*
X155019189Y-109504464D01*
X155019185Y-109504464D01*
X155019180Y-109504464D01*
X154483932Y-109528234D01*
X153951791Y-109590762D01*
X153425606Y-109691715D01*
X153425601Y-109691716D01*
X152908121Y-109830562D01*
X152402064Y-110006574D01*
X151910107Y-110218823D01*
X151434836Y-110466191D01*
X151434826Y-110466197D01*
X150978769Y-110747368D01*
X150978749Y-110747381D01*
X150544297Y-111060877D01*
X150544267Y-111060900D01*
X150133670Y-111405098D01*
X150133666Y-111405102D01*
X149749116Y-111778167D01*
X149749096Y-111778189D01*
X149392621Y-112178152D01*
X149066075Y-112602936D01*
X149066073Y-112602939D01*
X148994002Y-112712275D01*
X148771196Y-113050284D01*
X148731639Y-113120968D01*
X148509526Y-113517855D01*
X148282482Y-114003112D01*
X148282475Y-114003129D01*
X148091204Y-114503619D01*
X147936733Y-115016664D01*
X147887760Y-115235612D01*
X147887746Y-115235635D01*
X147878257Y-115278097D01*
X147868446Y-115322000D01*
X147866395Y-115331176D01*
X147866394Y-115331179D01*
X147873539Y-115439710D01*
X147873540Y-115439715D01*
X147910974Y-115541842D01*
X147910975Y-115541844D01*
X147975663Y-115629288D01*
X147975664Y-115629289D01*
X147975666Y-115629291D01*
X148062373Y-115694969D01*
X148164073Y-115733559D01*
X148264148Y-115741287D01*
X148272523Y-115741934D01*
X148272523Y-115741933D01*
X148272524Y-115741934D01*
X148378942Y-115719415D01*
X148474705Y-115667827D01*
X148552055Y-115591349D01*
X148604725Y-115496177D01*
X148616071Y-115445405D01*
X148617190Y-115440816D01*
X148745956Y-114953751D01*
X148748747Y-114944633D01*
X148913892Y-114471213D01*
X148917388Y-114462315D01*
X149118537Y-114003054D01*
X149122698Y-113994473D01*
X149358660Y-113552087D01*
X149363469Y-113543852D01*
X149632848Y-113120961D01*
X149638292Y-113113103D01*
X149640560Y-113110085D01*
X149939461Y-112712261D01*
X149945476Y-112704867D01*
X150276661Y-112328431D01*
X150283251Y-112321500D01*
X150336135Y-112270006D01*
X150642467Y-111971727D01*
X150649555Y-111965339D01*
X151034680Y-111644298D01*
X151042255Y-111638464D01*
X151450975Y-111348080D01*
X151458955Y-111342862D01*
X151888865Y-111084847D01*
X151897252Y-111080245D01*
X152081265Y-110988305D01*
X152345749Y-110856158D01*
X152354448Y-110852223D01*
X152818912Y-110663374D01*
X152827889Y-110660122D01*
X153305533Y-110507647D01*
X153314709Y-110505104D01*
X153802717Y-110389903D01*
X153812058Y-110388076D01*
X154307468Y-110310851D01*
X154316942Y-110309746D01*
X154816834Y-110270948D01*
X154826360Y-110270577D01*
X155327745Y-110270438D01*
X155337289Y-110270803D01*
X155837206Y-110309324D01*
X155846680Y-110310424D01*
X156270619Y-110376267D01*
X156342111Y-110387371D01*
X156351502Y-110389203D01*
X156839525Y-110504121D01*
X156848746Y-110506672D01*
X157047431Y-110569975D01*
X157326444Y-110658871D01*
X157335433Y-110662122D01*
X157545425Y-110747368D01*
X157799983Y-110850705D01*
X157808703Y-110854643D01*
X158222090Y-111060900D01*
X158257331Y-111078483D01*
X158265721Y-111083082D01*
X158670702Y-111325830D01*
X158695744Y-111340840D01*
X158703755Y-111346072D01*
X158814024Y-111424323D01*
X159112632Y-111636225D01*
X159120211Y-111642056D01*
X159316184Y-111805235D01*
X159505503Y-111962874D01*
X159512614Y-111969276D01*
X159872008Y-112318833D01*
X159878604Y-112325763D01*
X160122735Y-112602939D01*
X160209984Y-112701997D01*
X160216026Y-112709414D01*
X160252223Y-112757536D01*
X160517413Y-113110085D01*
X160522865Y-113117947D01*
X160792460Y-113540658D01*
X160797290Y-113548918D01*
X161033485Y-113991151D01*
X161037664Y-113999758D01*
X161239067Y-114458903D01*
X161242569Y-114467807D01*
X161407963Y-114941089D01*
X161410769Y-114950236D01*
X161448925Y-115094240D01*
X161447067Y-115164085D01*
X161407744Y-115221838D01*
X161343439Y-115249164D01*
X161329061Y-115250000D01*
X160104060Y-115250000D01*
X160037021Y-115230315D01*
X159991266Y-115177511D01*
X159987538Y-115168411D01*
X159975950Y-115136575D01*
X159888118Y-114895259D01*
X159732154Y-114560792D01*
X159696204Y-114483697D01*
X159696196Y-114483682D01*
X159642628Y-114390900D01*
X159469141Y-114090412D01*
X159469133Y-114090401D01*
X159469129Y-114090394D01*
X159208669Y-113718418D01*
X158982965Y-113449435D01*
X158916769Y-113370546D01*
X158595660Y-113049437D01*
X158439301Y-112918236D01*
X158247787Y-112757536D01*
X157875811Y-112497076D01*
X157875800Y-112497069D01*
X157875794Y-112497065D01*
X157702290Y-112396892D01*
X157482523Y-112270009D01*
X157482508Y-112270001D01*
X157070956Y-112078092D01*
X157070954Y-112078091D01*
X157070947Y-112078088D01*
X156644216Y-111922770D01*
X156644215Y-111922769D01*
X156644205Y-111922766D01*
X156205579Y-111805238D01*
X156205582Y-111805238D01*
X156205572Y-111805236D01*
X156052057Y-111778167D01*
X155758356Y-111726379D01*
X155305968Y-111686800D01*
X155305965Y-111686800D01*
X154851847Y-111686800D01*
X154851843Y-111686800D01*
X154399455Y-111726379D01*
X153952245Y-111805235D01*
X153952242Y-111805235D01*
X153952240Y-111805236D01*
X153952235Y-111805237D01*
X153952232Y-111805238D01*
X153513606Y-111922766D01*
X153300230Y-112000429D01*
X153086865Y-112078088D01*
X153086861Y-112078089D01*
X153086855Y-112078092D01*
X152675303Y-112270001D01*
X152675288Y-112270009D01*
X152282026Y-112497060D01*
X152282000Y-112497076D01*
X151910024Y-112757536D01*
X151562149Y-113049439D01*
X151241045Y-113370543D01*
X150949142Y-113718418D01*
X150688682Y-114090394D01*
X150688666Y-114090420D01*
X150461615Y-114483682D01*
X150461607Y-114483697D01*
X150269698Y-114895249D01*
X150269695Y-114895255D01*
X150269694Y-114895259D01*
X150253013Y-114941089D01*
X150114372Y-115322000D01*
X149996844Y-115760626D01*
X149996841Y-115760639D01*
X149917985Y-116207849D01*
X149878406Y-116660237D01*
X149878406Y-117114362D01*
X149917985Y-117566750D01*
X149996841Y-118013960D01*
X149996844Y-118013973D01*
X150114372Y-118452599D01*
X150114375Y-118452609D01*
X150114376Y-118452610D01*
X150269694Y-118879341D01*
X150269697Y-118879348D01*
X150269698Y-118879350D01*
X150461607Y-119290902D01*
X150461615Y-119290917D01*
X150596682Y-119524859D01*
X150688671Y-119684188D01*
X150688675Y-119684194D01*
X150688682Y-119684205D01*
X150949142Y-120056181D01*
X151160129Y-120307625D01*
X151241043Y-120404054D01*
X151562152Y-120725163D01*
X151623630Y-120776749D01*
X151910024Y-121017063D01*
X152282000Y-121277523D01*
X152282007Y-121277527D01*
X152282018Y-121277535D01*
X152631826Y-121479497D01*
X152675288Y-121504590D01*
X152675303Y-121504598D01*
X152705837Y-121518836D01*
X153086865Y-121696512D01*
X153513596Y-121851830D01*
X153513602Y-121851831D01*
X153513606Y-121851833D01*
X153604699Y-121876241D01*
X153952240Y-121969364D01*
X154399458Y-122048221D01*
X154851845Y-122087799D01*
X154851846Y-122087800D01*
X154851847Y-122087800D01*
X155305966Y-122087800D01*
X155305966Y-122087799D01*
X155758354Y-122048221D01*
X156205572Y-121969364D01*
X156644216Y-121851830D01*
X157070947Y-121696512D01*
X157482517Y-121504594D01*
X157875794Y-121277535D01*
X158247786Y-121017064D01*
X158595660Y-120725163D01*
X158916769Y-120404054D01*
X159208670Y-120056180D01*
X159469141Y-119684188D01*
X159696200Y-119290911D01*
X159888118Y-118879341D01*
X160043436Y-118452610D01*
X160087679Y-118287493D01*
X160099894Y-118241907D01*
X160136259Y-118182246D01*
X160199106Y-118151717D01*
X160219669Y-118150000D01*
X161422294Y-118150000D01*
X161442953Y-118156066D01*
X161464448Y-118157385D01*
X161475814Y-118165715D01*
X161489333Y-118169685D01*
X161503431Y-118185955D01*
X161520803Y-118198687D01*
X161525861Y-118211841D01*
X161535088Y-118222489D01*
X161538152Y-118243801D01*
X161545882Y-118263901D01*
X161544434Y-118287493D01*
X161545032Y-118291647D01*
X161543721Y-118299129D01*
X161507595Y-118473696D01*
X161505296Y-118482984D01*
X161366140Y-118964649D01*
X161363132Y-118973731D01*
X161187252Y-119443236D01*
X161183552Y-119452060D01*
X160971997Y-119906601D01*
X160967628Y-119915113D01*
X160721658Y-120351987D01*
X160716646Y-120360137D01*
X160437721Y-120776749D01*
X160432095Y-120784489D01*
X160121872Y-121178362D01*
X160115666Y-121185644D01*
X159776017Y-121554403D01*
X159769269Y-121561185D01*
X159402167Y-121902689D01*
X159394915Y-121908931D01*
X159002602Y-122221092D01*
X158994891Y-122226756D01*
X158579670Y-122507743D01*
X158571545Y-122512796D01*
X158135885Y-122760937D01*
X158127394Y-122765348D01*
X157673920Y-122979150D01*
X157665115Y-122982893D01*
X157196479Y-123161105D01*
X157187411Y-123164159D01*
X156706448Y-123305700D01*
X156697172Y-123308045D01*
X156206724Y-123412083D01*
X156197295Y-123413706D01*
X155700281Y-123479618D01*
X155690755Y-123480509D01*
X155190144Y-123507904D01*
X155180577Y-123508058D01*
X154679329Y-123496772D01*
X154669779Y-123496187D01*
X154170913Y-123446289D01*
X154161436Y-123444970D01*
X153667906Y-123356756D01*
X153658559Y-123354711D01*
X153173282Y-123228703D01*
X153164121Y-123225943D01*
X152690001Y-123062893D01*
X152681080Y-123059434D01*
X152220960Y-122860319D01*
X152212332Y-122856183D01*
X151768934Y-122622184D01*
X151760651Y-122617396D01*
X151336593Y-122349893D01*
X151328704Y-122344479D01*
X151225332Y-122267522D01*
X150983923Y-122087800D01*
X150926564Y-122045098D01*
X150919115Y-122039093D01*
X150541231Y-121709576D01*
X150534268Y-121703014D01*
X150388283Y-121554403D01*
X150182932Y-121345357D01*
X150176495Y-121338278D01*
X149853776Y-120954591D01*
X149847904Y-120947037D01*
X149555707Y-120539579D01*
X149550457Y-120531626D01*
X149290557Y-120102868D01*
X149285922Y-120094510D01*
X149266560Y-120056181D01*
X149059854Y-119646987D01*
X149055883Y-119638310D01*
X148864994Y-119174692D01*
X148861699Y-119165721D01*
X148849468Y-119127982D01*
X148707125Y-118688763D01*
X148704531Y-118679561D01*
X148587194Y-118192113D01*
X148585322Y-118182769D01*
X148505912Y-117687695D01*
X148504767Y-117678232D01*
X148463767Y-117178514D01*
X148463354Y-117168984D01*
X148460995Y-116665201D01*
X148461065Y-116660429D01*
X148462827Y-116608467D01*
X148435738Y-116503120D01*
X148380066Y-116409673D01*
X148300322Y-116335695D01*
X148300319Y-116335693D01*
X148300317Y-116335692D01*
X148202966Y-116287180D01*
X148202967Y-116287180D01*
X148095886Y-116268059D01*
X148095885Y-116268059D01*
X148077865Y-116270028D01*
X148069024Y-116270995D01*
X148055552Y-116271729D01*
X147685350Y-116271729D01*
X147605367Y-110600500D01*
X148631488Y-110600501D01*
X148705180Y-110569977D01*
X148718924Y-110556231D01*
X148731978Y-110543179D01*
X148734895Y-110540356D01*
X148876113Y-110408091D01*
X149159031Y-110143109D01*
X149165114Y-110137776D01*
X149612792Y-109770376D01*
X149619225Y-109765441D01*
X149648344Y-109744575D01*
X150089967Y-109428112D01*
X150096708Y-109423609D01*
X150098093Y-109422748D01*
X150588505Y-109117789D01*
X150595517Y-109113742D01*
X151106283Y-108840731D01*
X151113513Y-108837165D01*
X151641045Y-108598145D01*
X151648517Y-108595050D01*
X152190528Y-108391051D01*
X152198199Y-108388447D01*
X152752423Y-108220325D01*
X152760212Y-108218238D01*
X153324251Y-108086723D01*
X153332154Y-108085151D01*
X153903598Y-107990805D01*
X153911581Y-107989754D01*
X154487947Y-107932988D01*
X154496021Y-107932458D01*
X155074871Y-107913509D01*
X155082935Y-107913509D01*
X155661781Y-107932458D01*
G37*
%TD.AperFunction*%
%TD*%
M02*
