%TF.GenerationSoftware,KiCad,Pcbnew,9.0.0*%
%TF.CreationDate,2025-03-22T23:03:39+01:00*%
%TF.ProjectId,Near-Field Probes,4e656172-2d46-4696-956c-642050726f62,1.0*%
%TF.SameCoordinates,Original*%
%TF.FileFunction,Profile,NP*%
%FSLAX46Y46*%
G04 Gerber Fmt 4.6, Leading zero omitted, Abs format (unit mm)*
G04 Created by KiCad (PCBNEW 9.0.0) date 2025-03-22 23:03:39*
%MOMM*%
%LPD*%
G01*
G04 APERTURE LIST*
%TA.AperFunction,Profile*%
%ADD10C,0.300000*%
%TD*%
%TA.AperFunction,Profile*%
%ADD11C,5.025000*%
%TD*%
G04 APERTURE END LIST*
D10*
X68500000Y-110400000D02*
X129000000Y-110400000D01*
X129117378Y-106857296D02*
G75*
G02*
X128999992Y-110399930I-327678J-1762404D01*
G01*
X50000000Y-123374600D02*
X148591607Y-123374600D01*
X50000000Y-106874600D02*
X50000000Y-93900000D01*
X149691971Y-101866584D02*
X149687235Y-98912732D01*
X50000000Y-110400000D02*
X61500000Y-110400000D01*
X61500000Y-106875002D02*
G75*
G02*
X61500000Y-110399998I-285500J-1762498D01*
G01*
X50000000Y-106874600D02*
X61500000Y-106875000D01*
X144700000Y-106875086D02*
X136200000Y-106875000D01*
X149691971Y-101866584D02*
G75*
G02*
X144691977Y-106874577I-4999971J-8016D01*
G01*
X136400000Y-110400000D02*
G75*
G02*
X136200001Y-106875014I-18800J1767100D01*
G01*
X68512500Y-106875000D02*
X129117377Y-106857296D01*
X148591606Y-110400001D02*
X136400000Y-110400000D01*
D11*
X157591406Y-116887300D02*
G75*
G02*
X152566406Y-116887300I-2512500J0D01*
G01*
X152566406Y-116887300D02*
G75*
G02*
X157591406Y-116887300I2512500J0D01*
G01*
D10*
X144687251Y-93900000D02*
G75*
G02*
X149687284Y-98912732I49J-5000000D01*
G01*
X68500000Y-110400000D02*
G75*
G02*
X68512499Y-106874992I292160J1761490D01*
G01*
X148591606Y-110400000D02*
G75*
G02*
X148591607Y-123374601I6487294J-6487300D01*
G01*
X50000000Y-123374600D02*
X50000000Y-110400000D01*
X50000000Y-93900000D02*
X144687251Y-93900000D01*
M02*
