%TF.GenerationSoftware,KiCad,Pcbnew,9.0.0*%
%TF.CreationDate,2025-03-22T23:03:39+01:00*%
%TF.ProjectId,Near-Field Probes,4e656172-2d46-4696-956c-642050726f62,1.0*%
%TF.SameCoordinates,Original*%
%TF.FileFunction,Copper,L1,Top*%
%TF.FilePolarity,Positive*%
%FSLAX46Y46*%
G04 Gerber Fmt 4.6, Leading zero omitted, Abs format (unit mm)*
G04 Created by KiCad (PCBNEW 9.0.0) date 2025-03-22 23:03:39*
%MOMM*%
%LPD*%
G01*
G04 APERTURE LIST*
%TA.AperFunction,Conductor*%
%ADD10C,0.355542*%
%TD*%
%TA.AperFunction,SMDPad,CuDef*%
%ADD11R,5.080000X1.500000*%
%TD*%
%TA.AperFunction,ViaPad*%
%ADD12C,0.600000*%
%TD*%
%TA.AperFunction,Conductor*%
%ADD13C,0.200000*%
%TD*%
G04 APERTURE END LIST*
D10*
%TO.N,GND*%
X148247422Y-115360598D02*
G75*
G02*
X148082930Y-116650000I6831478J-1526702D01*
G01*
%TD*%
D11*
%TO.P,J2,1,In*%
%TO.N,/H_SIGNAL*%
X52800000Y-116650000D03*
%TO.P,J2,2,Ext*%
%TO.N,GND*%
X52800000Y-120900000D03*
X52800000Y-112400000D03*
%TD*%
%TO.P,J1,1,In*%
%TO.N,/E_SIGNAL*%
X52800000Y-100200000D03*
%TO.P,J1,2,Ext*%
%TO.N,GND*%
X52800000Y-104450000D03*
X52800000Y-95950000D03*
%TD*%
D12*
%TO.N,GND*%
X108000000Y-118000000D03*
X149870173Y-122701820D03*
X159244453Y-112350197D03*
X61700000Y-101500000D03*
X78700000Y-101500000D03*
X153918912Y-109167588D03*
X83700000Y-98900000D03*
X160241916Y-113528669D03*
X104000000Y-115400000D03*
X78000000Y-115400000D03*
X82700000Y-98900000D03*
X152376416Y-124210967D03*
X114000000Y-115400000D03*
X150812307Y-112445080D03*
X132000000Y-118000000D03*
X155009596Y-110728377D03*
X125000000Y-118000000D03*
X69000000Y-118000000D03*
X52800000Y-97150000D03*
X99000000Y-118000000D03*
X160681168Y-119446934D03*
X98000000Y-115400000D03*
X150913347Y-121424403D03*
X102700000Y-101500000D03*
X57000000Y-115400000D03*
X65800000Y-107200000D03*
X104000000Y-118000000D03*
X60000000Y-115400000D03*
X62700000Y-98900000D03*
X74700000Y-101500000D03*
X88000000Y-118000000D03*
X95000000Y-115400000D03*
X100000000Y-115400000D03*
X140000000Y-115400000D03*
X105000000Y-115400000D03*
X160622152Y-114202250D03*
X135000000Y-115400000D03*
X148936482Y-117343189D03*
X55800000Y-95950000D03*
X159814416Y-123093304D03*
X85000000Y-115400000D03*
X77700000Y-98900000D03*
X137000000Y-115400000D03*
X122700000Y-98900000D03*
X62600000Y-107200000D03*
X105700000Y-101500000D03*
X148391357Y-112860361D03*
X63000000Y-115400000D03*
X103000000Y-118000000D03*
X144000000Y-118000000D03*
X55800000Y-112400000D03*
X94700000Y-98900000D03*
X140000000Y-118000000D03*
X117700000Y-98900000D03*
X104700000Y-101500000D03*
X54350000Y-94825000D03*
X125700000Y-101500000D03*
X95700000Y-101500000D03*
X160287639Y-111072780D03*
X58000000Y-118000000D03*
X111700000Y-98900000D03*
X66000000Y-115400000D03*
X106700000Y-101500000D03*
X136700000Y-101500000D03*
X134200000Y-107000000D03*
X123000000Y-115400000D03*
X67000000Y-118000000D03*
X160975319Y-111771456D03*
X91700000Y-101500000D03*
X70000000Y-118000000D03*
X123700000Y-101500000D03*
X57700000Y-101500000D03*
X147000000Y-115400000D03*
X105000000Y-118000000D03*
X108700000Y-101500000D03*
X161570009Y-112550813D03*
X142700000Y-98900000D03*
X62600000Y-110200000D03*
X111700000Y-101500000D03*
X158642956Y-111863891D03*
X147000000Y-118000000D03*
X70700000Y-101500000D03*
X133400000Y-107000000D03*
X89000000Y-115400000D03*
X149841614Y-113645699D03*
X131000000Y-118000000D03*
X128000000Y-118000000D03*
X78700000Y-98900000D03*
X98700000Y-98900000D03*
X102700000Y-98900000D03*
X151514844Y-121910709D03*
X162062331Y-113398558D03*
X101000000Y-115400000D03*
X148095481Y-120376042D03*
X86000000Y-118000000D03*
X147713292Y-119473277D03*
X51050000Y-122075000D03*
X144700000Y-101500000D03*
X117000000Y-118000000D03*
X65000000Y-118000000D03*
X130700000Y-101500000D03*
X54350000Y-113575000D03*
X117700000Y-101500000D03*
X74000000Y-115400000D03*
X155262216Y-124691526D03*
X156543435Y-110904636D03*
X72700000Y-98900000D03*
X129000000Y-115400000D03*
X75700000Y-98900000D03*
X63000000Y-118000000D03*
X123700000Y-98900000D03*
X143000000Y-118000000D03*
X130200000Y-110000000D03*
X63400000Y-107200000D03*
X158677985Y-109960094D03*
X114700000Y-101500000D03*
X134200000Y-110000000D03*
X143700000Y-98900000D03*
X63700000Y-101500000D03*
X110000000Y-115400000D03*
X108700000Y-98900000D03*
X107000000Y-118000000D03*
X136700000Y-98900000D03*
X131700000Y-101500000D03*
X87000000Y-118000000D03*
X152172548Y-122317793D03*
X158106715Y-122251018D03*
X141700000Y-98900000D03*
X93700000Y-98900000D03*
X122000000Y-115400000D03*
X121000000Y-115400000D03*
X51050000Y-113575000D03*
X58000000Y-115400000D03*
X122700000Y-101500000D03*
X126700000Y-98900000D03*
X81700000Y-98900000D03*
X91000000Y-118000000D03*
X160957800Y-118724600D03*
X92700000Y-98900000D03*
X98000000Y-118000000D03*
X151158555Y-110136715D03*
X114700000Y-98900000D03*
X65700000Y-101500000D03*
X138000000Y-118000000D03*
X161209012Y-121720658D03*
X148587803Y-121223787D03*
X118000000Y-118000000D03*
X159868608Y-120759746D03*
X86700000Y-98900000D03*
X133000000Y-118000000D03*
X119000000Y-118000000D03*
X85700000Y-98900000D03*
X130000000Y-118000000D03*
X78000000Y-118000000D03*
X54350000Y-97125000D03*
X124700000Y-101500000D03*
X150377544Y-120866545D03*
X73700000Y-98900000D03*
X134000000Y-115400000D03*
X64000000Y-115400000D03*
X120000000Y-115400000D03*
X126000000Y-115400000D03*
X157410588Y-122588209D03*
X64700000Y-98900000D03*
X59700000Y-101500000D03*
X141700000Y-101500000D03*
X162557812Y-119124600D03*
X135000000Y-110000000D03*
X81000000Y-115400000D03*
X79700000Y-98900000D03*
X89700000Y-101500000D03*
X153480112Y-110939106D03*
X82700000Y-101500000D03*
X66000000Y-118000000D03*
X81000000Y-118000000D03*
X162218431Y-120044314D03*
X125700000Y-98900000D03*
X112000000Y-115400000D03*
X52800000Y-113600000D03*
X96000000Y-115400000D03*
X103000000Y-115400000D03*
X116000000Y-115400000D03*
X113700000Y-98900000D03*
X90700000Y-101500000D03*
X54350000Y-103325000D03*
X65700000Y-98900000D03*
X56700000Y-98900000D03*
X85700000Y-101500000D03*
X132600000Y-110000000D03*
X142700000Y-101500000D03*
X102000000Y-118000000D03*
X124700000Y-98900000D03*
X120700000Y-101500000D03*
X105700000Y-98900000D03*
X151402708Y-111945362D03*
X118700000Y-98900000D03*
X112700000Y-101500000D03*
X115000000Y-115400000D03*
X54350000Y-122075000D03*
X128000000Y-115400000D03*
X130200000Y-107000000D03*
X106000000Y-118000000D03*
X81700000Y-101500000D03*
X60700000Y-101500000D03*
X73000000Y-115400000D03*
X108000000Y-115400000D03*
X94000000Y-118000000D03*
X157985252Y-111456807D03*
X83700000Y-101500000D03*
X90700000Y-98900000D03*
X95700000Y-98900000D03*
X158999257Y-123637885D03*
X65000000Y-110200000D03*
X130700000Y-98900000D03*
X154282642Y-124652962D03*
X95000000Y-118000000D03*
X97700000Y-98900000D03*
X67000000Y-115400000D03*
X68000000Y-115400000D03*
X135000000Y-118000000D03*
X133700000Y-98900000D03*
X99000000Y-115400000D03*
X69700000Y-101500000D03*
X152051085Y-111523582D03*
X86000000Y-115400000D03*
X131000000Y-115400000D03*
X130000000Y-115400000D03*
X162444520Y-114301323D03*
X135700000Y-101500000D03*
X52800000Y-122100000D03*
X76000000Y-115400000D03*
X127000000Y-118000000D03*
X155875170Y-109121638D03*
X152876086Y-122639234D03*
X66600000Y-107200000D03*
X156842187Y-109282671D03*
X155148204Y-123046223D03*
X149476632Y-114327666D03*
X146000000Y-118000000D03*
X91000000Y-115400000D03*
X88700000Y-98900000D03*
X128700000Y-101500000D03*
X142000000Y-115400000D03*
X54350000Y-105625000D03*
X138000000Y-115400000D03*
X154375740Y-123006344D03*
X71000000Y-115400000D03*
X51050000Y-97125000D03*
X127000000Y-115400000D03*
X84000000Y-115400000D03*
X121000000Y-118000000D03*
X123000000Y-118000000D03*
X61700000Y-98900000D03*
X62000000Y-118000000D03*
X83000000Y-118000000D03*
X119700000Y-101500000D03*
X109000000Y-115400000D03*
X51050000Y-94775000D03*
X75000000Y-115400000D03*
X158755092Y-121829238D03*
X157281714Y-111135366D03*
X52800000Y-103300000D03*
X152960523Y-109373846D03*
X129000000Y-118000000D03*
X102000000Y-115400000D03*
X64200000Y-107200000D03*
X51050000Y-103275000D03*
X133700000Y-101500000D03*
X152747212Y-111186391D03*
X107700000Y-101500000D03*
X60000000Y-118000000D03*
X75000000Y-118000000D03*
X87700000Y-101500000D03*
X144700000Y-98900000D03*
X51050000Y-111225000D03*
X69700000Y-98900000D03*
X83000000Y-115400000D03*
X99700000Y-98900000D03*
X160914968Y-114918176D03*
X73000000Y-118000000D03*
X100700000Y-98900000D03*
X67700000Y-98900000D03*
X131000000Y-107000000D03*
X144000000Y-115400000D03*
X79000000Y-115400000D03*
X143700000Y-101500000D03*
X94000000Y-115400000D03*
X64000000Y-118000000D03*
X157781396Y-109563633D03*
X52800000Y-94800000D03*
X76000000Y-118000000D03*
X159345493Y-121329520D03*
X97000000Y-118000000D03*
X88700000Y-101500000D03*
X115700000Y-98900000D03*
X128700000Y-98900000D03*
X115700000Y-101500000D03*
X121700000Y-101500000D03*
X63700000Y-98900000D03*
X67400000Y-110200000D03*
X150343396Y-110681296D03*
X77000000Y-118000000D03*
X66700000Y-98900000D03*
X141000000Y-118000000D03*
X135700000Y-98900000D03*
X55800000Y-104450000D03*
X109700000Y-101500000D03*
X125000000Y-115400000D03*
X94700000Y-101500000D03*
X112700000Y-98900000D03*
X68700000Y-98900000D03*
X150639998Y-123308799D03*
X96000000Y-118000000D03*
X120700000Y-98900000D03*
X116700000Y-98900000D03*
X133000000Y-115400000D03*
X149042055Y-118109443D03*
X67400000Y-107200000D03*
X147600000Y-114650000D03*
X133400000Y-110000000D03*
X87000000Y-115400000D03*
X86700000Y-101500000D03*
X51050000Y-105625000D03*
X110000000Y-118000000D03*
X70000000Y-115400000D03*
X101000000Y-118000000D03*
X71700000Y-101500000D03*
X145000000Y-118000000D03*
X57700000Y-98900000D03*
X127700000Y-98900000D03*
X65000000Y-115400000D03*
X106700000Y-98900000D03*
X132000000Y-115400000D03*
X129700000Y-98900000D03*
X107000000Y-115400000D03*
X52800000Y-105650000D03*
X118000000Y-115400000D03*
X110700000Y-98900000D03*
X98700000Y-101500000D03*
X74000000Y-118000000D03*
X101700000Y-98900000D03*
X96700000Y-98900000D03*
X61000000Y-115400000D03*
X149535648Y-119572350D03*
X56700000Y-101500000D03*
X110700000Y-101500000D03*
X72000000Y-115400000D03*
X80700000Y-101500000D03*
X64200000Y-110200000D03*
X80700000Y-98900000D03*
X131700000Y-98900000D03*
X148948800Y-112053942D03*
X71000000Y-118000000D03*
X116000000Y-118000000D03*
X119000000Y-115400000D03*
X57000000Y-118000000D03*
X143000000Y-115400000D03*
X158122271Y-124076005D03*
X136000000Y-118000000D03*
X156677688Y-122835494D03*
X66600000Y-110200000D03*
X51050000Y-119725000D03*
X87700000Y-98900000D03*
X100000000Y-118000000D03*
X72000000Y-118000000D03*
X84000000Y-118000000D03*
X149242832Y-118856424D03*
X114000000Y-118000000D03*
X117000000Y-115400000D03*
X149016082Y-115801309D03*
X148247422Y-115360601D03*
X159517814Y-110465801D03*
X103700000Y-98900000D03*
X76700000Y-101500000D03*
X137000000Y-118000000D03*
X154895596Y-109083074D03*
X67700000Y-101500000D03*
X76700000Y-98900000D03*
X149915884Y-120245931D03*
X139000000Y-115400000D03*
X145000000Y-115400000D03*
X138700000Y-101500000D03*
X111000000Y-115400000D03*
X75700000Y-101500000D03*
X59000000Y-118000000D03*
X131800000Y-110000000D03*
X139000000Y-118000000D03*
X122000000Y-118000000D03*
X92000000Y-115400000D03*
X139700000Y-98900000D03*
X152035541Y-109698595D03*
X60700000Y-98900000D03*
X131800000Y-107000000D03*
X91700000Y-98900000D03*
X112000000Y-118000000D03*
X92000000Y-118000000D03*
X154238225Y-110785628D03*
X74700000Y-98900000D03*
X115000000Y-118000000D03*
X159780256Y-112908055D03*
X126000000Y-118000000D03*
X63400000Y-110200000D03*
X124000000Y-118000000D03*
X137700000Y-101500000D03*
X132700000Y-101500000D03*
X149182493Y-122003144D03*
X118700000Y-101500000D03*
X109000000Y-118000000D03*
X149602918Y-111323749D03*
X109700000Y-98900000D03*
X160554894Y-122450851D03*
X99700000Y-101500000D03*
X134000000Y-118000000D03*
X129700000Y-101500000D03*
X79700000Y-101500000D03*
X147939381Y-113730286D03*
X100700000Y-101500000D03*
X101700000Y-101500000D03*
X65800000Y-110200000D03*
X140700000Y-98900000D03*
X77000000Y-115400000D03*
X126700000Y-101500000D03*
X113700000Y-101500000D03*
X80000000Y-115400000D03*
X131000000Y-110000000D03*
X149200000Y-115050000D03*
X82000000Y-115400000D03*
X97700000Y-101500000D03*
X52800000Y-119750000D03*
X120000000Y-118000000D03*
X58700000Y-101500000D03*
X84700000Y-98900000D03*
X103700000Y-101500000D03*
X135000000Y-107000000D03*
X151479827Y-123814506D03*
X148927779Y-116569745D03*
X90000000Y-115400000D03*
X62700000Y-101500000D03*
X132700000Y-98900000D03*
X62000000Y-115400000D03*
X132600000Y-107000000D03*
X119700000Y-98900000D03*
X139700000Y-101500000D03*
X134700000Y-101500000D03*
X161766455Y-120914239D03*
X89000000Y-118000000D03*
X79000000Y-118000000D03*
X66700000Y-101500000D03*
X93000000Y-118000000D03*
X155782060Y-110768256D03*
X116700000Y-101500000D03*
X88000000Y-115400000D03*
X59700000Y-98900000D03*
X142000000Y-118000000D03*
X127700000Y-101500000D03*
X55800000Y-120900000D03*
X82000000Y-118000000D03*
X93000000Y-115400000D03*
X58700000Y-98900000D03*
X54350000Y-119775000D03*
X71700000Y-98900000D03*
X54350000Y-111275000D03*
X72700000Y-101500000D03*
X68700000Y-101500000D03*
X92700000Y-101500000D03*
X138700000Y-98900000D03*
X136000000Y-115400000D03*
X121700000Y-98900000D03*
X140700000Y-101500000D03*
X96700000Y-101500000D03*
X68000000Y-118000000D03*
X65000000Y-107200000D03*
X111000000Y-118000000D03*
X89700000Y-98900000D03*
X80000000Y-118000000D03*
X106000000Y-115400000D03*
X97000000Y-115400000D03*
X52800000Y-111250000D03*
X153315625Y-124491929D03*
X155919575Y-122988972D03*
X84700000Y-101500000D03*
X137700000Y-98900000D03*
X157197289Y-124400754D03*
X107700000Y-98900000D03*
X156238900Y-124607012D03*
X134700000Y-98900000D03*
X150289192Y-113014854D03*
X141000000Y-115400000D03*
X61000000Y-118000000D03*
X85000000Y-118000000D03*
X113000000Y-115400000D03*
X124000000Y-115400000D03*
X73700000Y-101500000D03*
X90000000Y-118000000D03*
X59000000Y-115400000D03*
X93700000Y-101500000D03*
X64700000Y-101500000D03*
X77700000Y-101500000D03*
X146000000Y-115400000D03*
X113000000Y-118000000D03*
X70700000Y-98900000D03*
X104700000Y-98900000D03*
X160316186Y-120128901D03*
X69000000Y-115400000D03*
X153614365Y-122869964D03*
%TD*%
D10*
%TO.N,/E_SIGNAL*%
X52462500Y-100150000D02*
X147950000Y-100150000D01*
D13*
%TO.N,GND*%
X52800000Y-104450000D02*
X55800000Y-104450000D01*
X52800000Y-104450000D02*
X52800000Y-103300000D01*
X51050000Y-104475000D02*
X51050000Y-105625000D01*
X52800000Y-112400000D02*
X52800000Y-111250000D01*
X51050000Y-120925000D02*
X51050000Y-122075000D01*
X54350000Y-120925000D02*
X54350000Y-122075000D01*
X54350000Y-104475000D02*
X54350000Y-103325000D01*
X52800000Y-112400000D02*
X55800000Y-112400000D01*
X51050000Y-120875000D02*
X51050000Y-119725000D01*
X54350000Y-112425000D02*
X54350000Y-113575000D01*
X51050000Y-112375000D02*
X51050000Y-111225000D01*
X54350000Y-95975000D02*
X54350000Y-97125000D01*
X52800000Y-95950000D02*
X52800000Y-94800000D01*
X54350000Y-120925000D02*
X54350000Y-119775000D01*
X52800000Y-120900000D02*
X55800000Y-120900000D01*
X52800000Y-95950000D02*
X52800000Y-97150000D01*
X54350000Y-95975000D02*
X54350000Y-94825000D01*
D10*
X56800000Y-116650000D02*
X148000000Y-116650000D01*
D13*
X51050000Y-104425000D02*
X51050000Y-103275000D01*
X51050000Y-95975000D02*
X51050000Y-97125000D01*
X51050000Y-95925000D02*
X51050000Y-94775000D01*
X52800000Y-120900000D02*
X52800000Y-119750000D01*
X52800000Y-112400000D02*
X52800000Y-113600000D01*
X54350000Y-104475000D02*
X54350000Y-105625000D01*
X52800000Y-95950000D02*
X55800000Y-95950000D01*
D10*
X56800000Y-116650000D02*
X54450000Y-116650000D01*
D13*
X52800000Y-104450000D02*
X52800000Y-105650000D01*
X51050000Y-112425000D02*
X51050000Y-113575000D01*
X52800000Y-120900000D02*
X52800000Y-122100000D01*
X54350000Y-112425000D02*
X54350000Y-111275000D01*
%TD*%
%TA.AperFunction,Conductor*%
%TO.N,GND*%
G36*
X145893039Y-100847956D02*
G01*
X145938794Y-100900760D01*
X145950000Y-100952271D01*
X145950000Y-106407476D01*
X145930315Y-106474515D01*
X145877511Y-106520270D01*
X145852865Y-106528531D01*
X145531530Y-106599843D01*
X145520866Y-106601725D01*
X145116083Y-106655069D01*
X145105296Y-106656014D01*
X144883668Y-106665699D01*
X144694137Y-106673982D01*
X144689917Y-106674094D01*
X144689281Y-106674100D01*
X144652096Y-106674100D01*
X144651228Y-106674459D01*
X144638624Y-106674578D01*
X144638338Y-106674497D01*
X144637453Y-106674584D01*
X136247380Y-106674500D01*
X136231318Y-106672155D01*
X136231276Y-106672609D01*
X136219117Y-106671467D01*
X136196029Y-106673847D01*
X136196011Y-106673849D01*
X136189684Y-106674500D01*
X136160120Y-106674500D01*
X136150344Y-106678547D01*
X136132326Y-106680402D01*
X136132312Y-106680399D01*
X136132287Y-106680406D01*
X136043560Y-106689507D01*
X136009371Y-106697922D01*
X135778275Y-106754801D01*
X135778270Y-106754803D01*
X135524565Y-106856118D01*
X135524557Y-106856121D01*
X135300994Y-106983698D01*
X135239536Y-107000000D01*
X129990898Y-107000000D01*
X129923859Y-106980315D01*
X129921954Y-106979067D01*
X129785721Y-106887937D01*
X129785714Y-106887933D01*
X129543117Y-106769449D01*
X129286764Y-106684761D01*
X129187398Y-106666355D01*
X129187361Y-106666348D01*
X129174579Y-106663976D01*
X129157201Y-106656784D01*
X129135852Y-106656789D01*
X129124616Y-106654705D01*
X129124607Y-106654700D01*
X129124579Y-106654698D01*
X129114816Y-106652883D01*
X129109023Y-106654111D01*
X129083356Y-106656804D01*
X68550865Y-106674487D01*
X68550866Y-106674488D01*
X68536179Y-106674492D01*
X68520487Y-106670728D01*
X68496675Y-106674503D01*
X68486923Y-106674506D01*
X68486923Y-106674507D01*
X68472561Y-106674511D01*
X68472552Y-106674513D01*
X68471186Y-106675080D01*
X68443170Y-106682992D01*
X68349210Y-106697922D01*
X68349204Y-106697923D01*
X68093387Y-106774695D01*
X67850150Y-106885026D01*
X67697029Y-106981052D01*
X67631149Y-107000000D01*
X62376675Y-107000000D01*
X62310440Y-106980828D01*
X62162387Y-106887281D01*
X62162377Y-106887275D01*
X61919488Y-106776117D01*
X61919475Y-106776112D01*
X61663902Y-106698481D01*
X61663884Y-106698477D01*
X61569444Y-106683149D01*
X61569444Y-106683150D01*
X61567384Y-106682815D01*
X61555179Y-106680835D01*
X61539889Y-106674501D01*
X61516121Y-106674500D01*
X61507554Y-106673112D01*
X61506251Y-106672901D01*
X61506248Y-106672899D01*
X61492694Y-106670704D01*
X61492688Y-106670705D01*
X61490704Y-106671174D01*
X61462186Y-106674497D01*
X50324496Y-106674111D01*
X50257457Y-106654424D01*
X50211704Y-106601619D01*
X50200500Y-106550111D01*
X50200500Y-105824000D01*
X50220185Y-105756961D01*
X50272989Y-105711206D01*
X50324500Y-105700000D01*
X52550000Y-105700000D01*
X53050000Y-105700000D01*
X55387828Y-105700000D01*
X55387844Y-105699999D01*
X55447372Y-105693598D01*
X55447379Y-105693596D01*
X55582086Y-105643354D01*
X55582093Y-105643350D01*
X55697187Y-105557190D01*
X55697190Y-105557187D01*
X55783350Y-105442093D01*
X55783354Y-105442086D01*
X55833596Y-105307379D01*
X55833598Y-105307372D01*
X55839999Y-105247844D01*
X55840000Y-105247827D01*
X55840000Y-104700000D01*
X53050000Y-104700000D01*
X53050000Y-105700000D01*
X52550000Y-105700000D01*
X52550000Y-104200000D01*
X53050000Y-104200000D01*
X55840000Y-104200000D01*
X55840000Y-103652172D01*
X55839999Y-103652155D01*
X55833598Y-103592627D01*
X55833596Y-103592620D01*
X55783354Y-103457913D01*
X55783350Y-103457906D01*
X55697190Y-103342812D01*
X55697187Y-103342809D01*
X55582093Y-103256649D01*
X55582086Y-103256645D01*
X55447379Y-103206403D01*
X55447372Y-103206401D01*
X55387844Y-103200000D01*
X53050000Y-103200000D01*
X53050000Y-104200000D01*
X52550000Y-104200000D01*
X52550000Y-103200000D01*
X50324500Y-103200000D01*
X50257461Y-103180315D01*
X50211706Y-103127511D01*
X50200500Y-103076000D01*
X50200500Y-102024000D01*
X50220185Y-101956961D01*
X50272989Y-101911206D01*
X50324500Y-101900000D01*
X55700000Y-101900000D01*
X55700000Y-101345537D01*
X55719685Y-101278498D01*
X55724715Y-101271251D01*
X55783796Y-101192331D01*
X55834091Y-101057483D01*
X55840500Y-100997873D01*
X55840500Y-100952271D01*
X55860185Y-100885232D01*
X55912989Y-100839477D01*
X55964500Y-100828271D01*
X145826000Y-100828271D01*
X145893039Y-100847956D01*
G37*
%TD.AperFunction*%
%TA.AperFunction,Conductor*%
G36*
X144689951Y-94100617D02*
G01*
X145100824Y-94118582D01*
X145111610Y-94119527D01*
X145516671Y-94172938D01*
X145527301Y-94174816D01*
X145852880Y-94247113D01*
X145914059Y-94280862D01*
X145947279Y-94342329D01*
X145950000Y-94368164D01*
X145950000Y-99347729D01*
X145930315Y-99414768D01*
X145877511Y-99460523D01*
X145826000Y-99471729D01*
X55959366Y-99471729D01*
X55892327Y-99452044D01*
X55846572Y-99399240D01*
X55836076Y-99360982D01*
X55834091Y-99342516D01*
X55783797Y-99207671D01*
X55783796Y-99207670D01*
X55783796Y-99207669D01*
X55724733Y-99128771D01*
X55700316Y-99063307D01*
X55700000Y-99054460D01*
X55700000Y-98150000D01*
X50324500Y-98150000D01*
X50257461Y-98130315D01*
X50211706Y-98077511D01*
X50200500Y-98026000D01*
X50200500Y-97324000D01*
X50220185Y-97256961D01*
X50272989Y-97211206D01*
X50324500Y-97200000D01*
X52550000Y-97200000D01*
X53050000Y-97200000D01*
X55387828Y-97200000D01*
X55387844Y-97199999D01*
X55447372Y-97193598D01*
X55447379Y-97193596D01*
X55582086Y-97143354D01*
X55582093Y-97143350D01*
X55697187Y-97057190D01*
X55697190Y-97057187D01*
X55783350Y-96942093D01*
X55783354Y-96942086D01*
X55833596Y-96807379D01*
X55833598Y-96807372D01*
X55839999Y-96747844D01*
X55840000Y-96747827D01*
X55840000Y-96200000D01*
X53050000Y-96200000D01*
X53050000Y-97200000D01*
X52550000Y-97200000D01*
X52550000Y-95700000D01*
X53050000Y-95700000D01*
X55840000Y-95700000D01*
X55840000Y-95152172D01*
X55839999Y-95152155D01*
X55833598Y-95092627D01*
X55833596Y-95092620D01*
X55783354Y-94957913D01*
X55783350Y-94957906D01*
X55697190Y-94842812D01*
X55697187Y-94842809D01*
X55582093Y-94756649D01*
X55582086Y-94756645D01*
X55447379Y-94706403D01*
X55447372Y-94706401D01*
X55387844Y-94700000D01*
X53050000Y-94700000D01*
X53050000Y-95700000D01*
X52550000Y-95700000D01*
X52550000Y-94700000D01*
X50324500Y-94700000D01*
X50257461Y-94680315D01*
X50211706Y-94627511D01*
X50200500Y-94576000D01*
X50200500Y-94224500D01*
X50220185Y-94157461D01*
X50272989Y-94111706D01*
X50324500Y-94100500D01*
X144647371Y-94100500D01*
X144684536Y-94100500D01*
X144689951Y-94100617D01*
G37*
%TD.AperFunction*%
%TD*%
%TA.AperFunction,Conductor*%
%TO.N,GND*%
G36*
X67773613Y-110344418D02*
G01*
X67837737Y-110385268D01*
X68080186Y-110497321D01*
X68335454Y-110575907D01*
X68444481Y-110594023D01*
X68460118Y-110600500D01*
X68483486Y-110600500D01*
X68506538Y-110604323D01*
X68508614Y-110603840D01*
X68509142Y-110603718D01*
X68537209Y-110600500D01*
X128972245Y-110600500D01*
X128983914Y-110603794D01*
X129011803Y-110600500D01*
X129039882Y-110600500D01*
X129039884Y-110600500D01*
X129051173Y-110598253D01*
X129068353Y-110593777D01*
X129157584Y-110583299D01*
X129418986Y-110515764D01*
X129668895Y-110413600D01*
X129793690Y-110341595D01*
X129855659Y-110325000D01*
X135342053Y-110325000D01*
X135406211Y-110342888D01*
X135476307Y-110385270D01*
X135479954Y-110387475D01*
X135731030Y-110495171D01*
X135994578Y-110567144D01*
X136265542Y-110602011D01*
X136400427Y-110600507D01*
X136401808Y-110600500D01*
X147605366Y-110600500D01*
X147782697Y-123174100D01*
X50324500Y-123174100D01*
X50257461Y-123154415D01*
X50211706Y-123101611D01*
X50200500Y-123050100D01*
X50200500Y-122274000D01*
X50220185Y-122206961D01*
X50272989Y-122161206D01*
X50324500Y-122150000D01*
X52550000Y-122150000D01*
X53050000Y-122150000D01*
X55387828Y-122150000D01*
X55387844Y-122149999D01*
X55447372Y-122143598D01*
X55447379Y-122143596D01*
X55582086Y-122093354D01*
X55582093Y-122093350D01*
X55697187Y-122007190D01*
X55697190Y-122007187D01*
X55783350Y-121892093D01*
X55783354Y-121892086D01*
X55833596Y-121757379D01*
X55833598Y-121757372D01*
X55839999Y-121697844D01*
X55840000Y-121697827D01*
X55840000Y-121150000D01*
X53050000Y-121150000D01*
X53050000Y-122150000D01*
X52550000Y-122150000D01*
X52550000Y-120650000D01*
X53050000Y-120650000D01*
X55840000Y-120650000D01*
X55840000Y-120102172D01*
X55839999Y-120102155D01*
X55833598Y-120042627D01*
X55833596Y-120042620D01*
X55783354Y-119907913D01*
X55783350Y-119907906D01*
X55697190Y-119792812D01*
X55697187Y-119792809D01*
X55582093Y-119706649D01*
X55582086Y-119706645D01*
X55447379Y-119656403D01*
X55447372Y-119656401D01*
X55387844Y-119650000D01*
X53050000Y-119650000D01*
X53050000Y-120650000D01*
X52550000Y-120650000D01*
X52550000Y-119650000D01*
X50324500Y-119650000D01*
X50257461Y-119630315D01*
X50211706Y-119577511D01*
X50200500Y-119526000D01*
X50200500Y-117724500D01*
X50203050Y-117715814D01*
X50201762Y-117706853D01*
X50212740Y-117682812D01*
X50220185Y-117657461D01*
X50227025Y-117651533D01*
X50230787Y-117643297D01*
X50253021Y-117629007D01*
X50272989Y-117611706D01*
X50283503Y-117609418D01*
X50289565Y-117605523D01*
X50324500Y-117600500D01*
X50376000Y-117600500D01*
X50443039Y-117620185D01*
X50488794Y-117672989D01*
X50500000Y-117724500D01*
X50500000Y-118400000D01*
X56000000Y-118400000D01*
X56000000Y-114650000D01*
X50500000Y-114650000D01*
X50500000Y-115575500D01*
X50497449Y-115584185D01*
X50498738Y-115593147D01*
X50487759Y-115617187D01*
X50480315Y-115642539D01*
X50473474Y-115648466D01*
X50469713Y-115656703D01*
X50447478Y-115670992D01*
X50427511Y-115688294D01*
X50416996Y-115690581D01*
X50410935Y-115694477D01*
X50376000Y-115699500D01*
X50324500Y-115699500D01*
X50257461Y-115679815D01*
X50211706Y-115627011D01*
X50200500Y-115575500D01*
X50200500Y-113774000D01*
X50220185Y-113706961D01*
X50272989Y-113661206D01*
X50324500Y-113650000D01*
X52550000Y-113650000D01*
X53050000Y-113650000D01*
X55387828Y-113650000D01*
X55387844Y-113649999D01*
X55447372Y-113643598D01*
X55447379Y-113643596D01*
X55582086Y-113593354D01*
X55582093Y-113593350D01*
X55697187Y-113507190D01*
X55697190Y-113507187D01*
X55783350Y-113392093D01*
X55783354Y-113392086D01*
X55833596Y-113257379D01*
X55833598Y-113257372D01*
X55839999Y-113197844D01*
X55840000Y-113197827D01*
X55840000Y-112650000D01*
X53050000Y-112650000D01*
X53050000Y-113650000D01*
X52550000Y-113650000D01*
X52550000Y-112150000D01*
X53050000Y-112150000D01*
X55840000Y-112150000D01*
X55840000Y-111602172D01*
X55839999Y-111602155D01*
X55833598Y-111542627D01*
X55833596Y-111542620D01*
X55783354Y-111407913D01*
X55783350Y-111407906D01*
X55697190Y-111292812D01*
X55697187Y-111292809D01*
X55582093Y-111206649D01*
X55582086Y-111206645D01*
X55447379Y-111156403D01*
X55447372Y-111156401D01*
X55387844Y-111150000D01*
X53050000Y-111150000D01*
X53050000Y-112150000D01*
X52550000Y-112150000D01*
X52550000Y-111150000D01*
X50324500Y-111150000D01*
X50257461Y-111130315D01*
X50211706Y-111077511D01*
X50200500Y-111026000D01*
X50200500Y-110724500D01*
X50220185Y-110657461D01*
X50272989Y-110611706D01*
X50324500Y-110600500D01*
X61476627Y-110600500D01*
X61492691Y-110604297D01*
X61516132Y-110600500D01*
X61539882Y-110600500D01*
X61541835Y-110599690D01*
X61569417Y-110591853D01*
X61663896Y-110576520D01*
X61773660Y-110543179D01*
X61919475Y-110498888D01*
X61919478Y-110498886D01*
X61919487Y-110498884D01*
X62162381Y-110387722D01*
X62231306Y-110344172D01*
X62297541Y-110325000D01*
X67706990Y-110325000D01*
X67773613Y-110344418D01*
G37*
%TD.AperFunction*%
%TD*%
%TA.AperFunction,Conductor*%
%TO.N,GND*%
G36*
X155661781Y-107932458D02*
G01*
X155669859Y-107932988D01*
X156246215Y-107989754D01*
X156254213Y-107990807D01*
X156825628Y-108085148D01*
X156833571Y-108086728D01*
X157397586Y-108218238D01*
X157405394Y-108220331D01*
X157874831Y-108362733D01*
X157959598Y-108388447D01*
X157967282Y-108391056D01*
X158509268Y-108595045D01*
X158516765Y-108598150D01*
X159044291Y-108837168D01*
X159051533Y-108840740D01*
X159505463Y-109083371D01*
X159562282Y-109113742D01*
X159569309Y-109117799D01*
X160061096Y-109423612D01*
X160067843Y-109428120D01*
X160538578Y-109765444D01*
X160545016Y-109770384D01*
X160992686Y-110137776D01*
X160998783Y-110143123D01*
X161421473Y-110539016D01*
X161427185Y-110544728D01*
X161640602Y-110772591D01*
X161823074Y-110967415D01*
X161828424Y-110973515D01*
X162195817Y-111421185D01*
X162200753Y-111427618D01*
X162471351Y-111805236D01*
X162538082Y-111898358D01*
X162542590Y-111905105D01*
X162848402Y-112396892D01*
X162852459Y-112403919D01*
X163125451Y-112914651D01*
X163129040Y-112921928D01*
X163368050Y-113449436D01*
X163371155Y-113456933D01*
X163575144Y-113998919D01*
X163577753Y-114006603D01*
X163745865Y-114560792D01*
X163747965Y-114568629D01*
X163867698Y-115082135D01*
X163871361Y-115097842D01*
X163867414Y-115167600D01*
X163826379Y-115224151D01*
X163761285Y-115249539D01*
X163750600Y-115250000D01*
X160104060Y-115250000D01*
X160037021Y-115230315D01*
X159991266Y-115177511D01*
X159987538Y-115168411D01*
X159975950Y-115136575D01*
X159888118Y-114895259D01*
X159696200Y-114483689D01*
X159469141Y-114090412D01*
X159469133Y-114090401D01*
X159469129Y-114090394D01*
X159208669Y-113718418D01*
X158986064Y-113453129D01*
X158916769Y-113370546D01*
X158595660Y-113049437D01*
X158439301Y-112918236D01*
X158247787Y-112757536D01*
X157875811Y-112497076D01*
X157875800Y-112497069D01*
X157875794Y-112497065D01*
X157702290Y-112396892D01*
X157482523Y-112270009D01*
X157482508Y-112270001D01*
X157070956Y-112078092D01*
X157070954Y-112078091D01*
X157070947Y-112078088D01*
X156644216Y-111922770D01*
X156644215Y-111922769D01*
X156644205Y-111922766D01*
X156205579Y-111805238D01*
X156205582Y-111805238D01*
X156205572Y-111805236D01*
X156142433Y-111794102D01*
X155758356Y-111726379D01*
X155305968Y-111686800D01*
X155305965Y-111686800D01*
X154851847Y-111686800D01*
X154851843Y-111686800D01*
X154399455Y-111726379D01*
X153952245Y-111805235D01*
X153952242Y-111805235D01*
X153952240Y-111805236D01*
X153952235Y-111805237D01*
X153952232Y-111805238D01*
X153513606Y-111922766D01*
X153300230Y-112000429D01*
X153086865Y-112078088D01*
X153086861Y-112078089D01*
X153086855Y-112078092D01*
X152675303Y-112270001D01*
X152675288Y-112270009D01*
X152282026Y-112497060D01*
X152282000Y-112497076D01*
X151910024Y-112757536D01*
X151562149Y-113049439D01*
X151241045Y-113370543D01*
X150949142Y-113718418D01*
X150688682Y-114090394D01*
X150688666Y-114090420D01*
X150461615Y-114483682D01*
X150461607Y-114483697D01*
X150269698Y-114895249D01*
X150114372Y-115322000D01*
X149996844Y-115760626D01*
X149996841Y-115760639D01*
X149917985Y-116207849D01*
X149878406Y-116660237D01*
X149878406Y-117114362D01*
X149917985Y-117566750D01*
X149996841Y-118013960D01*
X149996844Y-118013973D01*
X150114372Y-118452599D01*
X150114375Y-118452609D01*
X150114376Y-118452610D01*
X150269694Y-118879341D01*
X150269697Y-118879348D01*
X150269698Y-118879350D01*
X150461607Y-119290902D01*
X150461612Y-119290911D01*
X150688671Y-119684188D01*
X150688675Y-119684194D01*
X150688682Y-119684205D01*
X150949142Y-120056181D01*
X151160129Y-120307625D01*
X151241043Y-120404054D01*
X151562152Y-120725163D01*
X151706794Y-120846532D01*
X151910024Y-121017063D01*
X152282000Y-121277523D01*
X152282007Y-121277527D01*
X152282018Y-121277535D01*
X152650594Y-121490333D01*
X152675288Y-121504590D01*
X152675303Y-121504598D01*
X152858215Y-121589890D01*
X153086865Y-121696512D01*
X153513596Y-121851830D01*
X153513602Y-121851831D01*
X153513606Y-121851833D01*
X153633057Y-121883839D01*
X153952240Y-121969364D01*
X154399458Y-122048221D01*
X154851845Y-122087799D01*
X154851846Y-122087800D01*
X154851847Y-122087800D01*
X155305966Y-122087800D01*
X155305966Y-122087799D01*
X155758354Y-122048221D01*
X156205572Y-121969364D01*
X156644216Y-121851830D01*
X157070947Y-121696512D01*
X157482517Y-121504594D01*
X157875794Y-121277535D01*
X158247786Y-121017064D01*
X158595660Y-120725163D01*
X158916769Y-120404054D01*
X159208670Y-120056180D01*
X159469141Y-119684188D01*
X159696200Y-119290911D01*
X159888118Y-118879341D01*
X160043436Y-118452610D01*
X160099894Y-118241907D01*
X160136259Y-118182246D01*
X160199106Y-118151717D01*
X160219669Y-118150000D01*
X163814814Y-118150000D01*
X163881853Y-118169685D01*
X163927608Y-118222489D01*
X163937552Y-118291647D01*
X163937158Y-118294199D01*
X163881053Y-118634017D01*
X163879470Y-118641976D01*
X163747965Y-119205969D01*
X163745865Y-119213806D01*
X163577753Y-119767996D01*
X163575144Y-119775680D01*
X163371155Y-120317667D01*
X163368050Y-120325164D01*
X163129040Y-120852671D01*
X163125451Y-120859948D01*
X162852459Y-121370679D01*
X162848402Y-121377706D01*
X162542589Y-121869493D01*
X162538081Y-121876240D01*
X162200757Y-122346976D01*
X162195817Y-122353414D01*
X161828425Y-122801083D01*
X161823075Y-122807183D01*
X161427198Y-123229858D01*
X161421460Y-123235596D01*
X160998786Y-123631472D01*
X160992686Y-123636822D01*
X160545017Y-124004216D01*
X160538579Y-124009156D01*
X160067850Y-124346475D01*
X160061103Y-124350983D01*
X159569303Y-124656804D01*
X159562276Y-124660861D01*
X159051551Y-124933850D01*
X159044274Y-124937439D01*
X158516766Y-125176449D01*
X158509269Y-125179554D01*
X157967283Y-125383543D01*
X157959599Y-125386152D01*
X157405410Y-125554264D01*
X157397572Y-125556364D01*
X156833578Y-125687869D01*
X156825620Y-125689452D01*
X156254237Y-125783788D01*
X156246192Y-125784847D01*
X155669870Y-125841610D01*
X155661773Y-125842141D01*
X155082960Y-125861090D01*
X155074846Y-125861090D01*
X154496033Y-125842141D01*
X154487936Y-125841610D01*
X153911613Y-125784848D01*
X153903568Y-125783789D01*
X153332182Y-125689453D01*
X153324224Y-125687870D01*
X152760237Y-125556367D01*
X152752399Y-125554267D01*
X152198206Y-125386154D01*
X152190522Y-125383545D01*
X151648535Y-125179556D01*
X151641039Y-125176451D01*
X151113532Y-124937442D01*
X151106254Y-124933853D01*
X151106248Y-124933850D01*
X150925246Y-124837102D01*
X150595522Y-124660860D01*
X150588495Y-124656803D01*
X150096708Y-124350991D01*
X150089961Y-124346483D01*
X149619225Y-124009159D01*
X149612787Y-124004219D01*
X149165118Y-123636827D01*
X149159018Y-123631477D01*
X148734864Y-123234213D01*
X148731948Y-123231391D01*
X148705181Y-123204624D01*
X148631490Y-123174100D01*
X148631489Y-123174100D01*
X147782697Y-123174100D01*
X147605367Y-110600500D01*
X148631488Y-110600501D01*
X148705180Y-110569977D01*
X148718924Y-110556231D01*
X148731978Y-110543179D01*
X148734895Y-110540356D01*
X148842170Y-110439882D01*
X149159031Y-110143109D01*
X149165114Y-110137776D01*
X149612792Y-109770376D01*
X149619225Y-109765441D01*
X150089967Y-109428112D01*
X150096708Y-109423609D01*
X150588505Y-109117789D01*
X150595517Y-109113742D01*
X151106283Y-108840732D01*
X151113501Y-108837172D01*
X151641045Y-108598145D01*
X151648530Y-108595045D01*
X152190537Y-108391048D01*
X152198190Y-108388449D01*
X152752423Y-108220325D01*
X152760212Y-108218238D01*
X153324250Y-108086723D01*
X153332153Y-108085151D01*
X153903598Y-107990805D01*
X153911581Y-107989754D01*
X154487947Y-107932988D01*
X154496021Y-107932458D01*
X155074871Y-107913509D01*
X155082935Y-107913509D01*
X155661781Y-107932458D01*
G37*
%TD.AperFunction*%
%TD*%
M02*
