%TF.GenerationSoftware,KiCad,Pcbnew,9.0.0*%
%TF.CreationDate,2025-03-22T23:03:39+01:00*%
%TF.ProjectId,Near-Field Probes,4e656172-2d46-4696-956c-642050726f62,1.0*%
%TF.SameCoordinates,Original*%
%TF.FileFunction,AssemblyDrawing,Top*%
%FSLAX46Y46*%
G04 Gerber Fmt 4.6, Leading zero omitted, Abs format (unit mm)*
G04 Created by KiCad (PCBNEW 9.0.0) date 2025-03-22 23:03:39*
%MOMM*%
%LPD*%
G01*
G04 APERTURE LIST*
%ADD10C,0.150000*%
%ADD11C,0.100000*%
G04 APERTURE END LIST*
D10*
X40747022Y-93309580D02*
X40699403Y-93357200D01*
X40699403Y-93357200D02*
X40556546Y-93404819D01*
X40556546Y-93404819D02*
X40461308Y-93404819D01*
X40461308Y-93404819D02*
X40318451Y-93357200D01*
X40318451Y-93357200D02*
X40223213Y-93261961D01*
X40223213Y-93261961D02*
X40175594Y-93166723D01*
X40175594Y-93166723D02*
X40127975Y-92976247D01*
X40127975Y-92976247D02*
X40127975Y-92833390D01*
X40127975Y-92833390D02*
X40175594Y-92642914D01*
X40175594Y-92642914D02*
X40223213Y-92547676D01*
X40223213Y-92547676D02*
X40318451Y-92452438D01*
X40318451Y-92452438D02*
X40461308Y-92404819D01*
X40461308Y-92404819D02*
X40556546Y-92404819D01*
X40556546Y-92404819D02*
X40699403Y-92452438D01*
X40699403Y-92452438D02*
X40747022Y-92500057D01*
X41318451Y-93404819D02*
X41223213Y-93357200D01*
X41223213Y-93357200D02*
X41175594Y-93309580D01*
X41175594Y-93309580D02*
X41127975Y-93214342D01*
X41127975Y-93214342D02*
X41127975Y-92928628D01*
X41127975Y-92928628D02*
X41175594Y-92833390D01*
X41175594Y-92833390D02*
X41223213Y-92785771D01*
X41223213Y-92785771D02*
X41318451Y-92738152D01*
X41318451Y-92738152D02*
X41461308Y-92738152D01*
X41461308Y-92738152D02*
X41556546Y-92785771D01*
X41556546Y-92785771D02*
X41604165Y-92833390D01*
X41604165Y-92833390D02*
X41651784Y-92928628D01*
X41651784Y-92928628D02*
X41651784Y-93214342D01*
X41651784Y-93214342D02*
X41604165Y-93309580D01*
X41604165Y-93309580D02*
X41556546Y-93357200D01*
X41556546Y-93357200D02*
X41461308Y-93404819D01*
X41461308Y-93404819D02*
X41318451Y-93404819D01*
X42080356Y-92738152D02*
X42080356Y-93404819D01*
X42080356Y-92833390D02*
X42127975Y-92785771D01*
X42127975Y-92785771D02*
X42223213Y-92738152D01*
X42223213Y-92738152D02*
X42366070Y-92738152D01*
X42366070Y-92738152D02*
X42461308Y-92785771D01*
X42461308Y-92785771D02*
X42508927Y-92881009D01*
X42508927Y-92881009D02*
X42508927Y-93404819D01*
X42985118Y-92738152D02*
X42985118Y-93404819D01*
X42985118Y-92833390D02*
X43032737Y-92785771D01*
X43032737Y-92785771D02*
X43127975Y-92738152D01*
X43127975Y-92738152D02*
X43270832Y-92738152D01*
X43270832Y-92738152D02*
X43366070Y-92785771D01*
X43366070Y-92785771D02*
X43413689Y-92881009D01*
X43413689Y-92881009D02*
X43413689Y-93404819D01*
X43651785Y-93500057D02*
X44413689Y-93500057D01*
X45223213Y-93309580D02*
X45175594Y-93357200D01*
X45175594Y-93357200D02*
X45032737Y-93404819D01*
X45032737Y-93404819D02*
X44937499Y-93404819D01*
X44937499Y-93404819D02*
X44794642Y-93357200D01*
X44794642Y-93357200D02*
X44699404Y-93261961D01*
X44699404Y-93261961D02*
X44651785Y-93166723D01*
X44651785Y-93166723D02*
X44604166Y-92976247D01*
X44604166Y-92976247D02*
X44604166Y-92833390D01*
X44604166Y-92833390D02*
X44651785Y-92642914D01*
X44651785Y-92642914D02*
X44699404Y-92547676D01*
X44699404Y-92547676D02*
X44794642Y-92452438D01*
X44794642Y-92452438D02*
X44937499Y-92404819D01*
X44937499Y-92404819D02*
X45032737Y-92404819D01*
X45032737Y-92404819D02*
X45175594Y-92452438D01*
X45175594Y-92452438D02*
X45223213Y-92500057D01*
X45794642Y-93404819D02*
X45699404Y-93357200D01*
X45699404Y-93357200D02*
X45651785Y-93309580D01*
X45651785Y-93309580D02*
X45604166Y-93214342D01*
X45604166Y-93214342D02*
X45604166Y-92928628D01*
X45604166Y-92928628D02*
X45651785Y-92833390D01*
X45651785Y-92833390D02*
X45699404Y-92785771D01*
X45699404Y-92785771D02*
X45794642Y-92738152D01*
X45794642Y-92738152D02*
X45937499Y-92738152D01*
X45937499Y-92738152D02*
X46032737Y-92785771D01*
X46032737Y-92785771D02*
X46080356Y-92833390D01*
X46080356Y-92833390D02*
X46127975Y-92928628D01*
X46127975Y-92928628D02*
X46127975Y-93214342D01*
X46127975Y-93214342D02*
X46080356Y-93309580D01*
X46080356Y-93309580D02*
X46032737Y-93357200D01*
X46032737Y-93357200D02*
X45937499Y-93404819D01*
X45937499Y-93404819D02*
X45794642Y-93404819D01*
X46985118Y-93404819D02*
X46985118Y-92881009D01*
X46985118Y-92881009D02*
X46937499Y-92785771D01*
X46937499Y-92785771D02*
X46842261Y-92738152D01*
X46842261Y-92738152D02*
X46651785Y-92738152D01*
X46651785Y-92738152D02*
X46556547Y-92785771D01*
X46985118Y-93357200D02*
X46889880Y-93404819D01*
X46889880Y-93404819D02*
X46651785Y-93404819D01*
X46651785Y-93404819D02*
X46556547Y-93357200D01*
X46556547Y-93357200D02*
X46508928Y-93261961D01*
X46508928Y-93261961D02*
X46508928Y-93166723D01*
X46508928Y-93166723D02*
X46556547Y-93071485D01*
X46556547Y-93071485D02*
X46651785Y-93023866D01*
X46651785Y-93023866D02*
X46889880Y-93023866D01*
X46889880Y-93023866D02*
X46985118Y-92976247D01*
X47366071Y-93404819D02*
X47889880Y-92738152D01*
X47366071Y-92738152D02*
X47889880Y-93404819D01*
X48270833Y-93404819D02*
X48270833Y-92738152D01*
X48270833Y-92404819D02*
X48223214Y-92452438D01*
X48223214Y-92452438D02*
X48270833Y-92500057D01*
X48270833Y-92500057D02*
X48318452Y-92452438D01*
X48318452Y-92452438D02*
X48270833Y-92404819D01*
X48270833Y-92404819D02*
X48270833Y-92500057D01*
X49175594Y-93404819D02*
X49175594Y-92881009D01*
X49175594Y-92881009D02*
X49127975Y-92785771D01*
X49127975Y-92785771D02*
X49032737Y-92738152D01*
X49032737Y-92738152D02*
X48842261Y-92738152D01*
X48842261Y-92738152D02*
X48747023Y-92785771D01*
X49175594Y-93357200D02*
X49080356Y-93404819D01*
X49080356Y-93404819D02*
X48842261Y-93404819D01*
X48842261Y-93404819D02*
X48747023Y-93357200D01*
X48747023Y-93357200D02*
X48699404Y-93261961D01*
X48699404Y-93261961D02*
X48699404Y-93166723D01*
X48699404Y-93166723D02*
X48747023Y-93071485D01*
X48747023Y-93071485D02*
X48842261Y-93023866D01*
X48842261Y-93023866D02*
X49080356Y-93023866D01*
X49080356Y-93023866D02*
X49175594Y-92976247D01*
X49794642Y-93404819D02*
X49699404Y-93357200D01*
X49699404Y-93357200D02*
X49651785Y-93261961D01*
X49651785Y-93261961D02*
X49651785Y-92404819D01*
X49937500Y-93500057D02*
X50699404Y-93500057D01*
X50889881Y-93357200D02*
X51032738Y-93404819D01*
X51032738Y-93404819D02*
X51270833Y-93404819D01*
X51270833Y-93404819D02*
X51366071Y-93357200D01*
X51366071Y-93357200D02*
X51413690Y-93309580D01*
X51413690Y-93309580D02*
X51461309Y-93214342D01*
X51461309Y-93214342D02*
X51461309Y-93119104D01*
X51461309Y-93119104D02*
X51413690Y-93023866D01*
X51413690Y-93023866D02*
X51366071Y-92976247D01*
X51366071Y-92976247D02*
X51270833Y-92928628D01*
X51270833Y-92928628D02*
X51080357Y-92881009D01*
X51080357Y-92881009D02*
X50985119Y-92833390D01*
X50985119Y-92833390D02*
X50937500Y-92785771D01*
X50937500Y-92785771D02*
X50889881Y-92690533D01*
X50889881Y-92690533D02*
X50889881Y-92595295D01*
X50889881Y-92595295D02*
X50937500Y-92500057D01*
X50937500Y-92500057D02*
X50985119Y-92452438D01*
X50985119Y-92452438D02*
X51080357Y-92404819D01*
X51080357Y-92404819D02*
X51318452Y-92404819D01*
X51318452Y-92404819D02*
X51461309Y-92452438D01*
X51889881Y-93404819D02*
X51889881Y-92738152D01*
X51889881Y-92833390D02*
X51937500Y-92785771D01*
X51937500Y-92785771D02*
X52032738Y-92738152D01*
X52032738Y-92738152D02*
X52175595Y-92738152D01*
X52175595Y-92738152D02*
X52270833Y-92785771D01*
X52270833Y-92785771D02*
X52318452Y-92881009D01*
X52318452Y-92881009D02*
X52318452Y-93404819D01*
X52318452Y-92881009D02*
X52366071Y-92785771D01*
X52366071Y-92785771D02*
X52461309Y-92738152D01*
X52461309Y-92738152D02*
X52604166Y-92738152D01*
X52604166Y-92738152D02*
X52699405Y-92785771D01*
X52699405Y-92785771D02*
X52747024Y-92881009D01*
X52747024Y-92881009D02*
X52747024Y-93404819D01*
X53651785Y-93404819D02*
X53651785Y-92881009D01*
X53651785Y-92881009D02*
X53604166Y-92785771D01*
X53604166Y-92785771D02*
X53508928Y-92738152D01*
X53508928Y-92738152D02*
X53318452Y-92738152D01*
X53318452Y-92738152D02*
X53223214Y-92785771D01*
X53651785Y-93357200D02*
X53556547Y-93404819D01*
X53556547Y-93404819D02*
X53318452Y-93404819D01*
X53318452Y-93404819D02*
X53223214Y-93357200D01*
X53223214Y-93357200D02*
X53175595Y-93261961D01*
X53175595Y-93261961D02*
X53175595Y-93166723D01*
X53175595Y-93166723D02*
X53223214Y-93071485D01*
X53223214Y-93071485D02*
X53318452Y-93023866D01*
X53318452Y-93023866D02*
X53556547Y-93023866D01*
X53556547Y-93023866D02*
X53651785Y-92976247D01*
X54270833Y-93404819D02*
X54175595Y-93357200D01*
X54175595Y-93357200D02*
X54127976Y-93261961D01*
X54127976Y-93261961D02*
X54127976Y-92404819D01*
X54794643Y-93404819D02*
X54699405Y-93357200D01*
X54699405Y-93357200D02*
X54651786Y-93261961D01*
X54651786Y-93261961D02*
X54651786Y-92404819D01*
D11*
%TO.C,J2*%
X38830000Y-112840000D02*
X48355000Y-112840000D01*
X38830000Y-120460000D02*
X38830000Y-112840000D01*
X48355000Y-111570000D02*
X48355000Y-112840000D01*
X48355000Y-120460000D02*
X38830000Y-120460000D01*
X48355000Y-120460000D02*
X48355000Y-121730000D01*
X49260000Y-116650000D02*
X50260000Y-115900000D01*
X50260000Y-112840000D02*
X54710000Y-112840000D01*
X50260000Y-117400000D02*
X49260000Y-116650000D01*
X50260000Y-120460000D02*
X50260000Y-112840000D01*
X54710000Y-111570000D02*
X48355000Y-111570000D01*
X54710000Y-112840000D02*
X54710000Y-111570000D01*
X54710000Y-120460000D02*
X50260000Y-120460000D01*
X54710000Y-121730000D02*
X48355000Y-121730000D01*
X54710000Y-121730000D02*
X54710000Y-120460000D01*
%TO.C,J1*%
X38830000Y-96390000D02*
X48355000Y-96390000D01*
X38830000Y-104010000D02*
X38830000Y-96390000D01*
X48355000Y-95120000D02*
X48355000Y-96390000D01*
X48355000Y-104010000D02*
X38830000Y-104010000D01*
X48355000Y-104010000D02*
X48355000Y-105280000D01*
X49260000Y-100200000D02*
X50260000Y-99450000D01*
X50260000Y-96390000D02*
X54710000Y-96390000D01*
X50260000Y-100950000D02*
X49260000Y-100200000D01*
X50260000Y-104010000D02*
X50260000Y-96390000D01*
X54710000Y-95120000D02*
X48355000Y-95120000D01*
X54710000Y-96390000D02*
X54710000Y-95120000D01*
X54710000Y-104010000D02*
X50260000Y-104010000D01*
X54710000Y-105280000D02*
X48355000Y-105280000D01*
X54710000Y-105280000D02*
X54710000Y-104010000D01*
%TD*%
M02*
