M48
; DRILL file {KiCad 9.0.0} date 2025-03-22T23:03:38+0100
; FORMAT={-:-/ absolute / metric / decimal}
; #@! TF.CreationDate,2025-03-22T23:03:38+01:00
; #@! TF.GenerationSoftware,Kicad,Pcbnew,9.0.0
; #@! TF.FileFunction,Plated,1,4,PTH
FMAT,2
METRIC
; #@! TA.AperFunction,Plated,PTH,ViaDrill
T1C0.300
%
G90
G05
T1
X51.05Y-94.775
X51.05Y-97.125
X51.05Y-103.275
X51.05Y-105.625
X51.05Y-111.225
X51.05Y-113.575
X51.05Y-119.725
X51.05Y-122.075
X52.8Y-94.8
X52.8Y-97.15
X52.8Y-103.3
X52.8Y-105.65
X52.8Y-111.25
X52.8Y-113.6
X52.8Y-119.75
X52.8Y-122.1
X54.35Y-94.825
X54.35Y-97.125
X54.35Y-103.325
X54.35Y-105.625
X54.35Y-111.275
X54.35Y-113.575
X54.35Y-119.775
X54.35Y-122.075
X55.8Y-95.95
X55.8Y-104.45
X55.8Y-112.4
X55.8Y-120.9
X56.7Y-98.9
X56.7Y-101.5
X57.0Y-115.4
X57.0Y-118.0
X57.7Y-98.9
X57.7Y-101.5
X58.0Y-115.4
X58.0Y-118.0
X58.7Y-98.9
X58.7Y-101.5
X59.0Y-115.4
X59.0Y-118.0
X59.7Y-98.9
X59.7Y-101.5
X60.0Y-115.4
X60.0Y-118.0
X60.7Y-98.9
X60.7Y-101.5
X61.0Y-115.4
X61.0Y-118.0
X61.7Y-98.9
X61.7Y-101.5
X62.0Y-115.4
X62.0Y-118.0
X62.6Y-107.2
X62.6Y-110.2
X62.7Y-98.9
X62.7Y-101.5
X63.0Y-115.4
X63.0Y-118.0
X63.4Y-107.2
X63.4Y-110.2
X63.7Y-98.9
X63.7Y-101.5
X64.0Y-115.4
X64.0Y-118.0
X64.2Y-107.2
X64.2Y-110.2
X64.7Y-98.9
X64.7Y-101.5
X65.0Y-107.2
X65.0Y-110.2
X65.0Y-115.4
X65.0Y-118.0
X65.7Y-98.9
X65.7Y-101.5
X65.8Y-107.2
X65.8Y-110.2
X66.0Y-115.4
X66.0Y-118.0
X66.6Y-107.2
X66.6Y-110.2
X66.7Y-98.9
X66.7Y-101.5
X67.0Y-115.4
X67.0Y-118.0
X67.4Y-107.2
X67.4Y-110.2
X67.7Y-98.9
X67.7Y-101.5
X68.0Y-115.4
X68.0Y-118.0
X68.7Y-98.9
X68.7Y-101.5
X69.0Y-115.4
X69.0Y-118.0
X69.7Y-98.9
X69.7Y-101.5
X70.0Y-115.4
X70.0Y-118.0
X70.7Y-98.9
X70.7Y-101.5
X71.0Y-115.4
X71.0Y-118.0
X71.7Y-98.9
X71.7Y-101.5
X72.0Y-115.4
X72.0Y-118.0
X72.7Y-98.9
X72.7Y-101.5
X73.0Y-115.4
X73.0Y-118.0
X73.7Y-98.9
X73.7Y-101.5
X74.0Y-115.4
X74.0Y-118.0
X74.7Y-98.9
X74.7Y-101.5
X75.0Y-115.4
X75.0Y-118.0
X75.7Y-98.9
X75.7Y-101.5
X76.0Y-115.4
X76.0Y-118.0
X76.7Y-98.9
X76.7Y-101.5
X77.0Y-115.4
X77.0Y-118.0
X77.7Y-98.9
X77.7Y-101.5
X78.0Y-115.4
X78.0Y-118.0
X78.7Y-98.9
X78.7Y-101.5
X79.0Y-115.4
X79.0Y-118.0
X79.7Y-98.9
X79.7Y-101.5
X80.0Y-115.4
X80.0Y-118.0
X80.7Y-98.9
X80.7Y-101.5
X81.0Y-115.4
X81.0Y-118.0
X81.7Y-98.9
X81.7Y-101.5
X82.0Y-115.4
X82.0Y-118.0
X82.7Y-98.9
X82.7Y-101.5
X83.0Y-115.4
X83.0Y-118.0
X83.7Y-98.9
X83.7Y-101.5
X84.0Y-115.4
X84.0Y-118.0
X84.7Y-98.9
X84.7Y-101.5
X85.0Y-115.4
X85.0Y-118.0
X85.7Y-98.9
X85.7Y-101.5
X86.0Y-115.4
X86.0Y-118.0
X86.7Y-98.9
X86.7Y-101.5
X87.0Y-115.4
X87.0Y-118.0
X87.7Y-98.9
X87.7Y-101.5
X88.0Y-115.4
X88.0Y-118.0
X88.7Y-98.9
X88.7Y-101.5
X89.0Y-115.4
X89.0Y-118.0
X89.7Y-98.9
X89.7Y-101.5
X90.0Y-115.4
X90.0Y-118.0
X90.7Y-98.9
X90.7Y-101.5
X91.0Y-115.4
X91.0Y-118.0
X91.7Y-98.9
X91.7Y-101.5
X92.0Y-115.4
X92.0Y-118.0
X92.7Y-98.9
X92.7Y-101.5
X93.0Y-115.4
X93.0Y-118.0
X93.7Y-98.9
X93.7Y-101.5
X94.0Y-115.4
X94.0Y-118.0
X94.7Y-98.9
X94.7Y-101.5
X95.0Y-115.4
X95.0Y-118.0
X95.7Y-98.9
X95.7Y-101.5
X96.0Y-115.4
X96.0Y-118.0
X96.7Y-98.9
X96.7Y-101.5
X97.0Y-115.4
X97.0Y-118.0
X97.7Y-98.9
X97.7Y-101.5
X98.0Y-115.4
X98.0Y-118.0
X98.7Y-98.9
X98.7Y-101.5
X99.0Y-115.4
X99.0Y-118.0
X99.7Y-98.9
X99.7Y-101.5
X100.0Y-115.4
X100.0Y-118.0
X100.7Y-98.9
X100.7Y-101.5
X101.0Y-115.4
X101.0Y-118.0
X101.7Y-98.9
X101.7Y-101.5
X102.0Y-115.4
X102.0Y-118.0
X102.7Y-98.9
X102.7Y-101.5
X103.0Y-115.4
X103.0Y-118.0
X103.7Y-98.9
X103.7Y-101.5
X104.0Y-115.4
X104.0Y-118.0
X104.7Y-98.9
X104.7Y-101.5
X105.0Y-115.4
X105.0Y-118.0
X105.7Y-98.9
X105.7Y-101.5
X106.0Y-115.4
X106.0Y-118.0
X106.7Y-98.9
X106.7Y-101.5
X107.0Y-115.4
X107.0Y-118.0
X107.7Y-98.9
X107.7Y-101.5
X108.0Y-115.4
X108.0Y-118.0
X108.7Y-98.9
X108.7Y-101.5
X109.0Y-115.4
X109.0Y-118.0
X109.7Y-98.9
X109.7Y-101.5
X110.0Y-115.4
X110.0Y-118.0
X110.7Y-98.9
X110.7Y-101.5
X111.0Y-115.4
X111.0Y-118.0
X111.7Y-98.9
X111.7Y-101.5
X112.0Y-115.4
X112.0Y-118.0
X112.7Y-98.9
X112.7Y-101.5
X113.0Y-115.4
X113.0Y-118.0
X113.7Y-98.9
X113.7Y-101.5
X114.0Y-115.4
X114.0Y-118.0
X114.7Y-98.9
X114.7Y-101.5
X115.0Y-115.4
X115.0Y-118.0
X115.7Y-98.9
X115.7Y-101.5
X116.0Y-115.4
X116.0Y-118.0
X116.7Y-98.9
X116.7Y-101.5
X117.0Y-115.4
X117.0Y-118.0
X117.7Y-98.9
X117.7Y-101.5
X118.0Y-115.4
X118.0Y-118.0
X118.7Y-98.9
X118.7Y-101.5
X119.0Y-115.4
X119.0Y-118.0
X119.7Y-98.9
X119.7Y-101.5
X120.0Y-115.4
X120.0Y-118.0
X120.7Y-98.9
X120.7Y-101.5
X121.0Y-115.4
X121.0Y-118.0
X121.7Y-98.9
X121.7Y-101.5
X122.0Y-115.4
X122.0Y-118.0
X122.7Y-98.9
X122.7Y-101.5
X123.0Y-115.4
X123.0Y-118.0
X123.7Y-98.9
X123.7Y-101.5
X124.0Y-115.4
X124.0Y-118.0
X124.7Y-98.9
X124.7Y-101.5
X125.0Y-115.4
X125.0Y-118.0
X125.7Y-98.9
X125.7Y-101.5
X126.0Y-115.4
X126.0Y-118.0
X126.7Y-98.9
X126.7Y-101.5
X127.0Y-115.4
X127.0Y-118.0
X127.7Y-98.9
X127.7Y-101.5
X128.0Y-115.4
X128.0Y-118.0
X128.7Y-98.9
X128.7Y-101.5
X129.0Y-115.4
X129.0Y-118.0
X129.7Y-98.9
X129.7Y-101.5
X130.0Y-115.4
X130.0Y-118.0
X130.2Y-107.0
X130.2Y-110.0
X130.7Y-98.9
X130.7Y-101.5
X131.0Y-107.0
X131.0Y-110.0
X131.0Y-115.4
X131.0Y-118.0
X131.7Y-98.9
X131.7Y-101.5
X131.8Y-107.0
X131.8Y-110.0
X132.0Y-115.4
X132.0Y-118.0
X132.6Y-107.0
X132.6Y-110.0
X132.7Y-98.9
X132.7Y-101.5
X133.0Y-115.4
X133.0Y-118.0
X133.4Y-107.0
X133.4Y-110.0
X133.7Y-98.9
X133.7Y-101.5
X134.0Y-115.4
X134.0Y-118.0
X134.2Y-107.0
X134.2Y-110.0
X134.7Y-98.9
X134.7Y-101.5
X135.0Y-107.0
X135.0Y-110.0
X135.0Y-115.4
X135.0Y-118.0
X135.7Y-98.9
X135.7Y-101.5
X136.0Y-115.4
X136.0Y-118.0
X136.7Y-98.9
X136.7Y-101.5
X137.0Y-115.4
X137.0Y-118.0
X137.7Y-98.9
X137.7Y-101.5
X138.0Y-115.4
X138.0Y-118.0
X138.7Y-98.9
X138.7Y-101.5
X139.0Y-115.4
X139.0Y-118.0
X139.7Y-98.9
X139.7Y-101.5
X140.0Y-115.4
X140.0Y-118.0
X140.7Y-98.9
X140.7Y-101.5
X141.0Y-115.4
X141.0Y-118.0
X141.7Y-98.9
X141.7Y-101.5
X142.0Y-115.4
X142.0Y-118.0
X142.7Y-98.9
X142.7Y-101.5
X143.0Y-115.4
X143.0Y-118.0
X143.7Y-98.9
X143.7Y-101.5
X144.0Y-115.4
X144.0Y-118.0
X144.7Y-98.9
X144.7Y-101.5
X145.0Y-115.4
X145.0Y-118.0
X146.0Y-115.4
X146.0Y-118.0
X147.0Y-115.4
X147.0Y-118.0
X147.6Y-114.65
X147.713Y-119.473
X147.939Y-113.73
X148.095Y-120.376
X148.247Y-115.361
X148.391Y-112.86
X148.588Y-121.224
X148.928Y-116.57
X148.936Y-117.343
X148.949Y-112.054
X149.016Y-115.801
X149.042Y-118.109
X149.182Y-122.003
X149.2Y-115.05
X149.243Y-118.856
X149.477Y-114.328
X149.536Y-119.572
X149.603Y-111.324
X149.842Y-113.646
X149.87Y-122.702
X149.916Y-120.246
X150.289Y-113.015
X150.343Y-110.681
X150.378Y-120.867
X150.64Y-123.309
X150.812Y-112.445
X150.913Y-121.424
X151.159Y-110.137
X151.403Y-111.945
X151.48Y-123.815
X151.515Y-121.911
X152.036Y-109.699
X152.051Y-111.524
X152.173Y-122.318
X152.376Y-124.211
X152.747Y-111.186
X152.876Y-122.639
X152.961Y-109.374
X153.316Y-124.492
X153.48Y-110.939
X153.614Y-122.87
X153.919Y-109.168
X154.238Y-110.786
X154.283Y-124.653
X154.376Y-123.006
X154.896Y-109.083
X155.01Y-110.728
X155.148Y-123.046
X155.262Y-124.692
X155.782Y-110.768
X155.875Y-109.122
X155.92Y-122.989
X156.239Y-124.607
X156.543Y-110.905
X156.678Y-122.835
X156.842Y-109.283
X157.197Y-124.401
X157.282Y-111.135
X157.411Y-122.588
X157.781Y-109.564
X157.985Y-111.457
X158.107Y-122.251
X158.122Y-124.076
X158.643Y-111.864
X158.678Y-109.96
X158.755Y-121.829
X158.999Y-123.638
X159.244Y-112.35
X159.345Y-121.33
X159.518Y-110.466
X159.78Y-112.908
X159.814Y-123.093
X159.869Y-120.76
X160.242Y-113.529
X160.288Y-111.073
X160.316Y-120.129
X160.555Y-122.451
X160.622Y-114.202
X160.681Y-119.447
X160.915Y-114.918
X160.958Y-118.725
X160.975Y-111.771
X161.209Y-121.721
X161.57Y-112.551
X161.766Y-120.914
X162.062Y-113.399
X162.218Y-120.044
X162.445Y-114.301
X162.558Y-119.125
M30
