%TF.GenerationSoftware,KiCad,Pcbnew,9.0.0*%
%TF.CreationDate,2025-03-31T21:37:43+02:00*%
%TF.ProjectId,E-Field 10cm,452d4669-656c-4642-9031-30636d2e6b69,1.0*%
%TF.SameCoordinates,Original*%
%TF.FileFunction,Copper,L4,Bot*%
%TF.FilePolarity,Positive*%
%FSLAX46Y46*%
G04 Gerber Fmt 4.6, Leading zero omitted, Abs format (unit mm)*
G04 Created by KiCad (PCBNEW 9.0.0) date 2025-03-31 21:37:43*
%MOMM*%
%LPD*%
G01*
G04 APERTURE LIST*
%TA.AperFunction,SMDPad,CuDef*%
%ADD10R,5.080000X1.500000*%
%TD*%
%TA.AperFunction,ViaPad*%
%ADD11C,0.700000*%
%TD*%
G04 APERTURE END LIST*
D10*
%TO.P,J1,2,Ext*%
%TO.N,GND*%
X52800000Y-104450000D03*
X52800000Y-95950000D03*
%TD*%
D11*
%TO.N,GND*%
X61700000Y-101500000D03*
X78700000Y-101500000D03*
X83700000Y-98900000D03*
X82700000Y-98900000D03*
X52800000Y-97150000D03*
X102700000Y-101500000D03*
X62700000Y-98900000D03*
X74700000Y-101500000D03*
X55800000Y-95950000D03*
X77700000Y-98900000D03*
X122700000Y-98900000D03*
X105700000Y-101500000D03*
X94700000Y-98900000D03*
X117700000Y-98900000D03*
X104700000Y-101500000D03*
X54350000Y-94825000D03*
X125700000Y-101500000D03*
X95700000Y-101500000D03*
X111700000Y-98900000D03*
X106700000Y-101500000D03*
X136700000Y-101500000D03*
X91700000Y-101500000D03*
X123700000Y-101500000D03*
X57700000Y-101500000D03*
X108700000Y-101500000D03*
X142700000Y-98900000D03*
X111700000Y-101500000D03*
X70700000Y-101500000D03*
X78700000Y-98900000D03*
X98700000Y-98900000D03*
X102700000Y-98900000D03*
X144700000Y-101500000D03*
X130700000Y-101500000D03*
X117700000Y-101500000D03*
X72700000Y-98900000D03*
X75700000Y-98900000D03*
X123700000Y-98900000D03*
X114700000Y-101500000D03*
X143700000Y-98900000D03*
X63700000Y-101500000D03*
X108700000Y-98900000D03*
X136700000Y-98900000D03*
X131700000Y-101500000D03*
X141700000Y-98900000D03*
X93700000Y-98900000D03*
X122700000Y-101500000D03*
X126700000Y-98900000D03*
X81700000Y-98900000D03*
X92700000Y-98900000D03*
X114700000Y-98900000D03*
X65700000Y-101500000D03*
X86700000Y-98900000D03*
X85700000Y-98900000D03*
X54350000Y-97125000D03*
X124700000Y-101500000D03*
X73700000Y-98900000D03*
X64700000Y-98900000D03*
X59700000Y-101500000D03*
X141700000Y-101500000D03*
X79700000Y-98900000D03*
X89700000Y-101500000D03*
X82700000Y-101500000D03*
X125700000Y-98900000D03*
X113700000Y-98900000D03*
X90700000Y-101500000D03*
X54350000Y-103325000D03*
X65700000Y-98900000D03*
X56700000Y-98900000D03*
X85700000Y-101500000D03*
X142700000Y-101500000D03*
X124700000Y-98900000D03*
X120700000Y-101500000D03*
X105700000Y-98900000D03*
X118700000Y-98900000D03*
X112700000Y-101500000D03*
X81700000Y-101500000D03*
X60700000Y-101500000D03*
X83700000Y-101500000D03*
X90700000Y-98900000D03*
X95700000Y-98900000D03*
X130700000Y-98900000D03*
X97700000Y-98900000D03*
X133700000Y-98900000D03*
X69700000Y-101500000D03*
X135700000Y-101500000D03*
X88700000Y-98900000D03*
X128700000Y-101500000D03*
X54350000Y-105625000D03*
X51050000Y-97125000D03*
X61700000Y-98900000D03*
X119700000Y-101500000D03*
X51050000Y-94775000D03*
X52800000Y-103300000D03*
X51050000Y-103275000D03*
X133700000Y-101500000D03*
X107700000Y-101500000D03*
X87700000Y-101500000D03*
X144700000Y-98900000D03*
X69700000Y-98900000D03*
X99700000Y-98900000D03*
X100700000Y-98900000D03*
X67700000Y-98900000D03*
X143700000Y-101500000D03*
X52800000Y-94800000D03*
X88700000Y-101500000D03*
X115700000Y-98900000D03*
X128700000Y-98900000D03*
X115700000Y-101500000D03*
X121700000Y-101500000D03*
X63700000Y-98900000D03*
X66700000Y-98900000D03*
X135700000Y-98900000D03*
X55800000Y-104450000D03*
X109700000Y-101500000D03*
X94700000Y-101500000D03*
X112700000Y-98900000D03*
X68700000Y-98900000D03*
X120700000Y-98900000D03*
X116700000Y-98900000D03*
X86700000Y-101500000D03*
X51050000Y-105625000D03*
X71700000Y-101500000D03*
X57700000Y-98900000D03*
X127700000Y-98900000D03*
X106700000Y-98900000D03*
X129700000Y-98900000D03*
X52800000Y-105650000D03*
X110700000Y-98900000D03*
X98700000Y-101500000D03*
X101700000Y-98900000D03*
X96700000Y-98900000D03*
X56700000Y-101500000D03*
X110700000Y-101500000D03*
X80700000Y-101500000D03*
X80700000Y-98900000D03*
X131700000Y-98900000D03*
X87700000Y-98900000D03*
X103700000Y-98900000D03*
X76700000Y-101500000D03*
X67700000Y-101500000D03*
X76700000Y-98900000D03*
X138700000Y-101500000D03*
X75700000Y-101500000D03*
X139700000Y-98900000D03*
X60700000Y-98900000D03*
X91700000Y-98900000D03*
X74700000Y-98900000D03*
X137700000Y-101500000D03*
X132700000Y-101500000D03*
X118700000Y-101500000D03*
X109700000Y-98900000D03*
X99700000Y-101500000D03*
X129700000Y-101500000D03*
X79700000Y-101500000D03*
X100700000Y-101500000D03*
X101700000Y-101500000D03*
X140700000Y-98900000D03*
X126700000Y-101500000D03*
X113700000Y-101500000D03*
X97700000Y-101500000D03*
X58700000Y-101500000D03*
X84700000Y-98900000D03*
X103700000Y-101500000D03*
X62700000Y-101500000D03*
X132700000Y-98900000D03*
X119700000Y-98900000D03*
X139700000Y-101500000D03*
X134700000Y-101500000D03*
X66700000Y-101500000D03*
X116700000Y-101500000D03*
X59700000Y-98900000D03*
X127700000Y-101500000D03*
X58700000Y-98900000D03*
X71700000Y-98900000D03*
X72700000Y-101500000D03*
X68700000Y-101500000D03*
X92700000Y-101500000D03*
X138700000Y-98900000D03*
X121700000Y-98900000D03*
X140700000Y-101500000D03*
X96700000Y-101500000D03*
X89700000Y-98900000D03*
X84700000Y-101500000D03*
X137700000Y-98900000D03*
X107700000Y-98900000D03*
X134700000Y-98900000D03*
X73700000Y-101500000D03*
X93700000Y-101500000D03*
X64700000Y-101500000D03*
X77700000Y-101500000D03*
X70700000Y-98900000D03*
X104700000Y-98900000D03*
%TD*%
%TA.AperFunction,Conductor*%
%TO.N,GND*%
G36*
X144689951Y-94100617D02*
G01*
X145100824Y-94118582D01*
X145111610Y-94119527D01*
X145516671Y-94172938D01*
X145527301Y-94174816D01*
X145852880Y-94247113D01*
X145914059Y-94280862D01*
X145947279Y-94342329D01*
X145950000Y-94368164D01*
X145950000Y-106407476D01*
X145930315Y-106474515D01*
X145877511Y-106520270D01*
X145852865Y-106528531D01*
X145531530Y-106599843D01*
X145520866Y-106601725D01*
X145116083Y-106655069D01*
X145105296Y-106656014D01*
X144883668Y-106665699D01*
X144694142Y-106673982D01*
X144688747Y-106674100D01*
X50324500Y-106674100D01*
X50257461Y-106654415D01*
X50211706Y-106601611D01*
X50200500Y-106550100D01*
X50200500Y-105824000D01*
X50220185Y-105756961D01*
X50272989Y-105711206D01*
X50324500Y-105700000D01*
X52550000Y-105700000D01*
X53050000Y-105700000D01*
X55387828Y-105700000D01*
X55387844Y-105699999D01*
X55447372Y-105693598D01*
X55447379Y-105693596D01*
X55582086Y-105643354D01*
X55582093Y-105643350D01*
X55697187Y-105557190D01*
X55697190Y-105557187D01*
X55783350Y-105442093D01*
X55783354Y-105442086D01*
X55833596Y-105307379D01*
X55833598Y-105307372D01*
X55839999Y-105247844D01*
X55840000Y-105247827D01*
X55840000Y-104700000D01*
X53050000Y-104700000D01*
X53050000Y-105700000D01*
X52550000Y-105700000D01*
X52550000Y-104200000D01*
X53050000Y-104200000D01*
X55840000Y-104200000D01*
X55840000Y-103652172D01*
X55839999Y-103652155D01*
X55833598Y-103592627D01*
X55833596Y-103592620D01*
X55783354Y-103457913D01*
X55783350Y-103457906D01*
X55697190Y-103342812D01*
X55697187Y-103342809D01*
X55582093Y-103256649D01*
X55582086Y-103256645D01*
X55447379Y-103206403D01*
X55447372Y-103206401D01*
X55387844Y-103200000D01*
X53050000Y-103200000D01*
X53050000Y-104200000D01*
X52550000Y-104200000D01*
X52550000Y-103200000D01*
X50324500Y-103200000D01*
X50257461Y-103180315D01*
X50211706Y-103127511D01*
X50200500Y-103076000D01*
X50200500Y-97324000D01*
X50220185Y-97256961D01*
X50272989Y-97211206D01*
X50324500Y-97200000D01*
X52550000Y-97200000D01*
X53050000Y-97200000D01*
X55387828Y-97200000D01*
X55387844Y-97199999D01*
X55447372Y-97193598D01*
X55447379Y-97193596D01*
X55582086Y-97143354D01*
X55582093Y-97143350D01*
X55697187Y-97057190D01*
X55697190Y-97057187D01*
X55783350Y-96942093D01*
X55783354Y-96942086D01*
X55833596Y-96807379D01*
X55833598Y-96807372D01*
X55839999Y-96747844D01*
X55840000Y-96747827D01*
X55840000Y-96200000D01*
X53050000Y-96200000D01*
X53050000Y-97200000D01*
X52550000Y-97200000D01*
X52550000Y-95700000D01*
X53050000Y-95700000D01*
X55840000Y-95700000D01*
X55840000Y-95152172D01*
X55839999Y-95152155D01*
X55833598Y-95092627D01*
X55833596Y-95092620D01*
X55783354Y-94957913D01*
X55783350Y-94957906D01*
X55697190Y-94842812D01*
X55697187Y-94842809D01*
X55582093Y-94756649D01*
X55582086Y-94756645D01*
X55447379Y-94706403D01*
X55447372Y-94706401D01*
X55387844Y-94700000D01*
X53050000Y-94700000D01*
X53050000Y-95700000D01*
X52550000Y-95700000D01*
X52550000Y-94700000D01*
X50324500Y-94700000D01*
X50257461Y-94680315D01*
X50211706Y-94627511D01*
X50200500Y-94576000D01*
X50200500Y-94224500D01*
X50220185Y-94157461D01*
X50272989Y-94111706D01*
X50324500Y-94100500D01*
X144647371Y-94100500D01*
X144684536Y-94100500D01*
X144689951Y-94100617D01*
G37*
%TD.AperFunction*%
%TD*%
M02*
