%TF.GenerationSoftware,KiCad,Pcbnew,9.0.0*%
%TF.CreationDate,2025-03-31T21:37:43+02:00*%
%TF.ProjectId,E-Field 10cm,452d4669-656c-4642-9031-30636d2e6b69,1.0*%
%TF.SameCoordinates,Original*%
%TF.FileFunction,Legend,Top*%
%TF.FilePolarity,Positive*%
%FSLAX46Y46*%
G04 Gerber Fmt 4.6, Leading zero omitted, Abs format (unit mm)*
G04 Created by KiCad (PCBNEW 9.0.0) date 2025-03-31 21:37:43*
%MOMM*%
%LPD*%
G01*
G04 APERTURE LIST*
%ADD10C,0.250000*%
%ADD11C,0.300000*%
%ADD12C,0.120000*%
G04 APERTURE END LIST*
D10*
X59102568Y-104264619D02*
X59102568Y-103264619D01*
X59531139Y-104264619D02*
X59531139Y-103740809D01*
X59531139Y-103740809D02*
X59483520Y-103645571D01*
X59483520Y-103645571D02*
X59388282Y-103597952D01*
X59388282Y-103597952D02*
X59245425Y-103597952D01*
X59245425Y-103597952D02*
X59150187Y-103645571D01*
X59150187Y-103645571D02*
X59102568Y-103693190D01*
X59864473Y-103597952D02*
X60245425Y-103597952D01*
X60007330Y-103264619D02*
X60007330Y-104121761D01*
X60007330Y-104121761D02*
X60054949Y-104217000D01*
X60054949Y-104217000D02*
X60150187Y-104264619D01*
X60150187Y-104264619D02*
X60245425Y-104264619D01*
X60435902Y-103597952D02*
X60816854Y-103597952D01*
X60578759Y-103264619D02*
X60578759Y-104121761D01*
X60578759Y-104121761D02*
X60626378Y-104217000D01*
X60626378Y-104217000D02*
X60721616Y-104264619D01*
X60721616Y-104264619D02*
X60816854Y-104264619D01*
X61150188Y-103597952D02*
X61150188Y-104597952D01*
X61150188Y-103645571D02*
X61245426Y-103597952D01*
X61245426Y-103597952D02*
X61435902Y-103597952D01*
X61435902Y-103597952D02*
X61531140Y-103645571D01*
X61531140Y-103645571D02*
X61578759Y-103693190D01*
X61578759Y-103693190D02*
X61626378Y-103788428D01*
X61626378Y-103788428D02*
X61626378Y-104074142D01*
X61626378Y-104074142D02*
X61578759Y-104169380D01*
X61578759Y-104169380D02*
X61531140Y-104217000D01*
X61531140Y-104217000D02*
X61435902Y-104264619D01*
X61435902Y-104264619D02*
X61245426Y-104264619D01*
X61245426Y-104264619D02*
X61150188Y-104217000D01*
X62007331Y-104217000D02*
X62102569Y-104264619D01*
X62102569Y-104264619D02*
X62293045Y-104264619D01*
X62293045Y-104264619D02*
X62388283Y-104217000D01*
X62388283Y-104217000D02*
X62435902Y-104121761D01*
X62435902Y-104121761D02*
X62435902Y-104074142D01*
X62435902Y-104074142D02*
X62388283Y-103978904D01*
X62388283Y-103978904D02*
X62293045Y-103931285D01*
X62293045Y-103931285D02*
X62150188Y-103931285D01*
X62150188Y-103931285D02*
X62054950Y-103883666D01*
X62054950Y-103883666D02*
X62007331Y-103788428D01*
X62007331Y-103788428D02*
X62007331Y-103740809D01*
X62007331Y-103740809D02*
X62054950Y-103645571D01*
X62054950Y-103645571D02*
X62150188Y-103597952D01*
X62150188Y-103597952D02*
X62293045Y-103597952D01*
X62293045Y-103597952D02*
X62388283Y-103645571D01*
X62864474Y-104169380D02*
X62912093Y-104217000D01*
X62912093Y-104217000D02*
X62864474Y-104264619D01*
X62864474Y-104264619D02*
X62816855Y-104217000D01*
X62816855Y-104217000D02*
X62864474Y-104169380D01*
X62864474Y-104169380D02*
X62864474Y-104264619D01*
X62864474Y-103645571D02*
X62912093Y-103693190D01*
X62912093Y-103693190D02*
X62864474Y-103740809D01*
X62864474Y-103740809D02*
X62816855Y-103693190D01*
X62816855Y-103693190D02*
X62864474Y-103645571D01*
X62864474Y-103645571D02*
X62864474Y-103740809D01*
X64054949Y-103217000D02*
X63197807Y-104502714D01*
X65102568Y-103217000D02*
X64245426Y-104502714D01*
X65864473Y-103597952D02*
X65864473Y-104407476D01*
X65864473Y-104407476D02*
X65816854Y-104502714D01*
X65816854Y-104502714D02*
X65769235Y-104550333D01*
X65769235Y-104550333D02*
X65673997Y-104597952D01*
X65673997Y-104597952D02*
X65531140Y-104597952D01*
X65531140Y-104597952D02*
X65435902Y-104550333D01*
X65864473Y-104217000D02*
X65769235Y-104264619D01*
X65769235Y-104264619D02*
X65578759Y-104264619D01*
X65578759Y-104264619D02*
X65483521Y-104217000D01*
X65483521Y-104217000D02*
X65435902Y-104169380D01*
X65435902Y-104169380D02*
X65388283Y-104074142D01*
X65388283Y-104074142D02*
X65388283Y-103788428D01*
X65388283Y-103788428D02*
X65435902Y-103693190D01*
X65435902Y-103693190D02*
X65483521Y-103645571D01*
X65483521Y-103645571D02*
X65578759Y-103597952D01*
X65578759Y-103597952D02*
X65769235Y-103597952D01*
X65769235Y-103597952D02*
X65864473Y-103645571D01*
X66340664Y-104264619D02*
X66340664Y-103597952D01*
X66340664Y-103264619D02*
X66293045Y-103312238D01*
X66293045Y-103312238D02*
X66340664Y-103359857D01*
X66340664Y-103359857D02*
X66388283Y-103312238D01*
X66388283Y-103312238D02*
X66340664Y-103264619D01*
X66340664Y-103264619D02*
X66340664Y-103359857D01*
X66673997Y-103597952D02*
X67054949Y-103597952D01*
X66816854Y-103264619D02*
X66816854Y-104121761D01*
X66816854Y-104121761D02*
X66864473Y-104217000D01*
X66864473Y-104217000D02*
X66959711Y-104264619D01*
X66959711Y-104264619D02*
X67054949Y-104264619D01*
X67388283Y-104264619D02*
X67388283Y-103264619D01*
X67816854Y-104264619D02*
X67816854Y-103740809D01*
X67816854Y-103740809D02*
X67769235Y-103645571D01*
X67769235Y-103645571D02*
X67673997Y-103597952D01*
X67673997Y-103597952D02*
X67531140Y-103597952D01*
X67531140Y-103597952D02*
X67435902Y-103645571D01*
X67435902Y-103645571D02*
X67388283Y-103693190D01*
X68721616Y-103597952D02*
X68721616Y-104264619D01*
X68293045Y-103597952D02*
X68293045Y-104121761D01*
X68293045Y-104121761D02*
X68340664Y-104217000D01*
X68340664Y-104217000D02*
X68435902Y-104264619D01*
X68435902Y-104264619D02*
X68578759Y-104264619D01*
X68578759Y-104264619D02*
X68673997Y-104217000D01*
X68673997Y-104217000D02*
X68721616Y-104169380D01*
X69197807Y-104264619D02*
X69197807Y-103264619D01*
X69197807Y-103645571D02*
X69293045Y-103597952D01*
X69293045Y-103597952D02*
X69483521Y-103597952D01*
X69483521Y-103597952D02*
X69578759Y-103645571D01*
X69578759Y-103645571D02*
X69626378Y-103693190D01*
X69626378Y-103693190D02*
X69673997Y-103788428D01*
X69673997Y-103788428D02*
X69673997Y-104074142D01*
X69673997Y-104074142D02*
X69626378Y-104169380D01*
X69626378Y-104169380D02*
X69578759Y-104217000D01*
X69578759Y-104217000D02*
X69483521Y-104264619D01*
X69483521Y-104264619D02*
X69293045Y-104264619D01*
X69293045Y-104264619D02*
X69197807Y-104217000D01*
X70102569Y-104169380D02*
X70150188Y-104217000D01*
X70150188Y-104217000D02*
X70102569Y-104264619D01*
X70102569Y-104264619D02*
X70054950Y-104217000D01*
X70054950Y-104217000D02*
X70102569Y-104169380D01*
X70102569Y-104169380D02*
X70102569Y-104264619D01*
X71007330Y-104217000D02*
X70912092Y-104264619D01*
X70912092Y-104264619D02*
X70721616Y-104264619D01*
X70721616Y-104264619D02*
X70626378Y-104217000D01*
X70626378Y-104217000D02*
X70578759Y-104169380D01*
X70578759Y-104169380D02*
X70531140Y-104074142D01*
X70531140Y-104074142D02*
X70531140Y-103788428D01*
X70531140Y-103788428D02*
X70578759Y-103693190D01*
X70578759Y-103693190D02*
X70626378Y-103645571D01*
X70626378Y-103645571D02*
X70721616Y-103597952D01*
X70721616Y-103597952D02*
X70912092Y-103597952D01*
X70912092Y-103597952D02*
X71007330Y-103645571D01*
X71578759Y-104264619D02*
X71483521Y-104217000D01*
X71483521Y-104217000D02*
X71435902Y-104169380D01*
X71435902Y-104169380D02*
X71388283Y-104074142D01*
X71388283Y-104074142D02*
X71388283Y-103788428D01*
X71388283Y-103788428D02*
X71435902Y-103693190D01*
X71435902Y-103693190D02*
X71483521Y-103645571D01*
X71483521Y-103645571D02*
X71578759Y-103597952D01*
X71578759Y-103597952D02*
X71721616Y-103597952D01*
X71721616Y-103597952D02*
X71816854Y-103645571D01*
X71816854Y-103645571D02*
X71864473Y-103693190D01*
X71864473Y-103693190D02*
X71912092Y-103788428D01*
X71912092Y-103788428D02*
X71912092Y-104074142D01*
X71912092Y-104074142D02*
X71864473Y-104169380D01*
X71864473Y-104169380D02*
X71816854Y-104217000D01*
X71816854Y-104217000D02*
X71721616Y-104264619D01*
X71721616Y-104264619D02*
X71578759Y-104264619D01*
X72340664Y-104264619D02*
X72340664Y-103597952D01*
X72340664Y-103693190D02*
X72388283Y-103645571D01*
X72388283Y-103645571D02*
X72483521Y-103597952D01*
X72483521Y-103597952D02*
X72626378Y-103597952D01*
X72626378Y-103597952D02*
X72721616Y-103645571D01*
X72721616Y-103645571D02*
X72769235Y-103740809D01*
X72769235Y-103740809D02*
X72769235Y-104264619D01*
X72769235Y-103740809D02*
X72816854Y-103645571D01*
X72816854Y-103645571D02*
X72912092Y-103597952D01*
X72912092Y-103597952D02*
X73054949Y-103597952D01*
X73054949Y-103597952D02*
X73150188Y-103645571D01*
X73150188Y-103645571D02*
X73197807Y-103740809D01*
X73197807Y-103740809D02*
X73197807Y-104264619D01*
X74388282Y-103217000D02*
X73531140Y-104502714D01*
X74721616Y-104264619D02*
X74721616Y-103597952D01*
X74721616Y-103264619D02*
X74673997Y-103312238D01*
X74673997Y-103312238D02*
X74721616Y-103359857D01*
X74721616Y-103359857D02*
X74769235Y-103312238D01*
X74769235Y-103312238D02*
X74721616Y-103264619D01*
X74721616Y-103264619D02*
X74721616Y-103359857D01*
X75197806Y-104264619D02*
X75197806Y-103597952D01*
X75197806Y-103693190D02*
X75245425Y-103645571D01*
X75245425Y-103645571D02*
X75340663Y-103597952D01*
X75340663Y-103597952D02*
X75483520Y-103597952D01*
X75483520Y-103597952D02*
X75578758Y-103645571D01*
X75578758Y-103645571D02*
X75626377Y-103740809D01*
X75626377Y-103740809D02*
X75626377Y-104264619D01*
X75626377Y-103740809D02*
X75673996Y-103645571D01*
X75673996Y-103645571D02*
X75769234Y-103597952D01*
X75769234Y-103597952D02*
X75912091Y-103597952D01*
X75912091Y-103597952D02*
X76007330Y-103645571D01*
X76007330Y-103645571D02*
X76054949Y-103740809D01*
X76054949Y-103740809D02*
X76054949Y-104264619D01*
X76912091Y-104217000D02*
X76816853Y-104264619D01*
X76816853Y-104264619D02*
X76626377Y-104264619D01*
X76626377Y-104264619D02*
X76531139Y-104217000D01*
X76531139Y-104217000D02*
X76483520Y-104121761D01*
X76483520Y-104121761D02*
X76483520Y-103740809D01*
X76483520Y-103740809D02*
X76531139Y-103645571D01*
X76531139Y-103645571D02*
X76626377Y-103597952D01*
X76626377Y-103597952D02*
X76816853Y-103597952D01*
X76816853Y-103597952D02*
X76912091Y-103645571D01*
X76912091Y-103645571D02*
X76959710Y-103740809D01*
X76959710Y-103740809D02*
X76959710Y-103836047D01*
X76959710Y-103836047D02*
X76483520Y-103931285D01*
X77388282Y-103597952D02*
X77388282Y-104264619D01*
X77388282Y-103693190D02*
X77435901Y-103645571D01*
X77435901Y-103645571D02*
X77531139Y-103597952D01*
X77531139Y-103597952D02*
X77673996Y-103597952D01*
X77673996Y-103597952D02*
X77769234Y-103645571D01*
X77769234Y-103645571D02*
X77816853Y-103740809D01*
X77816853Y-103740809D02*
X77816853Y-104264619D01*
X78721615Y-104264619D02*
X78721615Y-103264619D01*
X78721615Y-104217000D02*
X78626377Y-104264619D01*
X78626377Y-104264619D02*
X78435901Y-104264619D01*
X78435901Y-104264619D02*
X78340663Y-104217000D01*
X78340663Y-104217000D02*
X78293044Y-104169380D01*
X78293044Y-104169380D02*
X78245425Y-104074142D01*
X78245425Y-104074142D02*
X78245425Y-103788428D01*
X78245425Y-103788428D02*
X78293044Y-103693190D01*
X78293044Y-103693190D02*
X78340663Y-103645571D01*
X78340663Y-103645571D02*
X78435901Y-103597952D01*
X78435901Y-103597952D02*
X78626377Y-103597952D01*
X78626377Y-103597952D02*
X78721615Y-103645571D01*
X79197806Y-104264619D02*
X79197806Y-103597952D01*
X79197806Y-103264619D02*
X79150187Y-103312238D01*
X79150187Y-103312238D02*
X79197806Y-103359857D01*
X79197806Y-103359857D02*
X79245425Y-103312238D01*
X79245425Y-103312238D02*
X79197806Y-103264619D01*
X79197806Y-103264619D02*
X79197806Y-103359857D01*
X79578758Y-103597952D02*
X80102567Y-103597952D01*
X80102567Y-103597952D02*
X79578758Y-104264619D01*
X79578758Y-104264619D02*
X80102567Y-104264619D01*
X80912091Y-104264619D02*
X80912091Y-103740809D01*
X80912091Y-103740809D02*
X80864472Y-103645571D01*
X80864472Y-103645571D02*
X80769234Y-103597952D01*
X80769234Y-103597952D02*
X80578758Y-103597952D01*
X80578758Y-103597952D02*
X80483520Y-103645571D01*
X80912091Y-104217000D02*
X80816853Y-104264619D01*
X80816853Y-104264619D02*
X80578758Y-104264619D01*
X80578758Y-104264619D02*
X80483520Y-104217000D01*
X80483520Y-104217000D02*
X80435901Y-104121761D01*
X80435901Y-104121761D02*
X80435901Y-104026523D01*
X80435901Y-104026523D02*
X80483520Y-103931285D01*
X80483520Y-103931285D02*
X80578758Y-103883666D01*
X80578758Y-103883666D02*
X80816853Y-103883666D01*
X80816853Y-103883666D02*
X80912091Y-103836047D01*
X81388282Y-104264619D02*
X81388282Y-103264619D01*
X81388282Y-103645571D02*
X81483520Y-103597952D01*
X81483520Y-103597952D02*
X81673996Y-103597952D01*
X81673996Y-103597952D02*
X81769234Y-103645571D01*
X81769234Y-103645571D02*
X81816853Y-103693190D01*
X81816853Y-103693190D02*
X81864472Y-103788428D01*
X81864472Y-103788428D02*
X81864472Y-104074142D01*
X81864472Y-104074142D02*
X81816853Y-104169380D01*
X81816853Y-104169380D02*
X81769234Y-104217000D01*
X81769234Y-104217000D02*
X81673996Y-104264619D01*
X81673996Y-104264619D02*
X81483520Y-104264619D01*
X81483520Y-104264619D02*
X81388282Y-104217000D01*
X82721615Y-104264619D02*
X82721615Y-103740809D01*
X82721615Y-103740809D02*
X82673996Y-103645571D01*
X82673996Y-103645571D02*
X82578758Y-103597952D01*
X82578758Y-103597952D02*
X82388282Y-103597952D01*
X82388282Y-103597952D02*
X82293044Y-103645571D01*
X82721615Y-104217000D02*
X82626377Y-104264619D01*
X82626377Y-104264619D02*
X82388282Y-104264619D01*
X82388282Y-104264619D02*
X82293044Y-104217000D01*
X82293044Y-104217000D02*
X82245425Y-104121761D01*
X82245425Y-104121761D02*
X82245425Y-104026523D01*
X82245425Y-104026523D02*
X82293044Y-103931285D01*
X82293044Y-103931285D02*
X82388282Y-103883666D01*
X82388282Y-103883666D02*
X82626377Y-103883666D01*
X82626377Y-103883666D02*
X82721615Y-103836047D01*
X83340663Y-104264619D02*
X83245425Y-104217000D01*
X83245425Y-104217000D02*
X83197806Y-104121761D01*
X83197806Y-104121761D02*
X83197806Y-103264619D01*
X84435901Y-103217000D02*
X83578759Y-104502714D01*
X84769235Y-104264619D02*
X84769235Y-103264619D01*
X84769235Y-103264619D02*
X85340663Y-104264619D01*
X85340663Y-104264619D02*
X85340663Y-103264619D01*
X86197806Y-104217000D02*
X86102568Y-104264619D01*
X86102568Y-104264619D02*
X85912092Y-104264619D01*
X85912092Y-104264619D02*
X85816854Y-104217000D01*
X85816854Y-104217000D02*
X85769235Y-104121761D01*
X85769235Y-104121761D02*
X85769235Y-103740809D01*
X85769235Y-103740809D02*
X85816854Y-103645571D01*
X85816854Y-103645571D02*
X85912092Y-103597952D01*
X85912092Y-103597952D02*
X86102568Y-103597952D01*
X86102568Y-103597952D02*
X86197806Y-103645571D01*
X86197806Y-103645571D02*
X86245425Y-103740809D01*
X86245425Y-103740809D02*
X86245425Y-103836047D01*
X86245425Y-103836047D02*
X85769235Y-103931285D01*
X87102568Y-104264619D02*
X87102568Y-103740809D01*
X87102568Y-103740809D02*
X87054949Y-103645571D01*
X87054949Y-103645571D02*
X86959711Y-103597952D01*
X86959711Y-103597952D02*
X86769235Y-103597952D01*
X86769235Y-103597952D02*
X86673997Y-103645571D01*
X87102568Y-104217000D02*
X87007330Y-104264619D01*
X87007330Y-104264619D02*
X86769235Y-104264619D01*
X86769235Y-104264619D02*
X86673997Y-104217000D01*
X86673997Y-104217000D02*
X86626378Y-104121761D01*
X86626378Y-104121761D02*
X86626378Y-104026523D01*
X86626378Y-104026523D02*
X86673997Y-103931285D01*
X86673997Y-103931285D02*
X86769235Y-103883666D01*
X86769235Y-103883666D02*
X87007330Y-103883666D01*
X87007330Y-103883666D02*
X87102568Y-103836047D01*
X87578759Y-104264619D02*
X87578759Y-103597952D01*
X87578759Y-103788428D02*
X87626378Y-103693190D01*
X87626378Y-103693190D02*
X87673997Y-103645571D01*
X87673997Y-103645571D02*
X87769235Y-103597952D01*
X87769235Y-103597952D02*
X87864473Y-103597952D01*
X88197807Y-103883666D02*
X88959712Y-103883666D01*
X89769235Y-103740809D02*
X89435902Y-103740809D01*
X89435902Y-104264619D02*
X89435902Y-103264619D01*
X89435902Y-103264619D02*
X89912092Y-103264619D01*
X90293045Y-104264619D02*
X90293045Y-103597952D01*
X90293045Y-103264619D02*
X90245426Y-103312238D01*
X90245426Y-103312238D02*
X90293045Y-103359857D01*
X90293045Y-103359857D02*
X90340664Y-103312238D01*
X90340664Y-103312238D02*
X90293045Y-103264619D01*
X90293045Y-103264619D02*
X90293045Y-103359857D01*
X91150187Y-104217000D02*
X91054949Y-104264619D01*
X91054949Y-104264619D02*
X90864473Y-104264619D01*
X90864473Y-104264619D02*
X90769235Y-104217000D01*
X90769235Y-104217000D02*
X90721616Y-104121761D01*
X90721616Y-104121761D02*
X90721616Y-103740809D01*
X90721616Y-103740809D02*
X90769235Y-103645571D01*
X90769235Y-103645571D02*
X90864473Y-103597952D01*
X90864473Y-103597952D02*
X91054949Y-103597952D01*
X91054949Y-103597952D02*
X91150187Y-103645571D01*
X91150187Y-103645571D02*
X91197806Y-103740809D01*
X91197806Y-103740809D02*
X91197806Y-103836047D01*
X91197806Y-103836047D02*
X90721616Y-103931285D01*
X91769235Y-104264619D02*
X91673997Y-104217000D01*
X91673997Y-104217000D02*
X91626378Y-104121761D01*
X91626378Y-104121761D02*
X91626378Y-103264619D01*
X92578759Y-104264619D02*
X92578759Y-103264619D01*
X92578759Y-104217000D02*
X92483521Y-104264619D01*
X92483521Y-104264619D02*
X92293045Y-104264619D01*
X92293045Y-104264619D02*
X92197807Y-104217000D01*
X92197807Y-104217000D02*
X92150188Y-104169380D01*
X92150188Y-104169380D02*
X92102569Y-104074142D01*
X92102569Y-104074142D02*
X92102569Y-103788428D01*
X92102569Y-103788428D02*
X92150188Y-103693190D01*
X92150188Y-103693190D02*
X92197807Y-103645571D01*
X92197807Y-103645571D02*
X92293045Y-103597952D01*
X92293045Y-103597952D02*
X92483521Y-103597952D01*
X92483521Y-103597952D02*
X92578759Y-103645571D01*
X93054950Y-103883666D02*
X93816855Y-103883666D01*
X94293045Y-104264619D02*
X94293045Y-103264619D01*
X94293045Y-103264619D02*
X94673997Y-103264619D01*
X94673997Y-103264619D02*
X94769235Y-103312238D01*
X94769235Y-103312238D02*
X94816854Y-103359857D01*
X94816854Y-103359857D02*
X94864473Y-103455095D01*
X94864473Y-103455095D02*
X94864473Y-103597952D01*
X94864473Y-103597952D02*
X94816854Y-103693190D01*
X94816854Y-103693190D02*
X94769235Y-103740809D01*
X94769235Y-103740809D02*
X94673997Y-103788428D01*
X94673997Y-103788428D02*
X94293045Y-103788428D01*
X95293045Y-104264619D02*
X95293045Y-103597952D01*
X95293045Y-103788428D02*
X95340664Y-103693190D01*
X95340664Y-103693190D02*
X95388283Y-103645571D01*
X95388283Y-103645571D02*
X95483521Y-103597952D01*
X95483521Y-103597952D02*
X95578759Y-103597952D01*
X96054950Y-104264619D02*
X95959712Y-104217000D01*
X95959712Y-104217000D02*
X95912093Y-104169380D01*
X95912093Y-104169380D02*
X95864474Y-104074142D01*
X95864474Y-104074142D02*
X95864474Y-103788428D01*
X95864474Y-103788428D02*
X95912093Y-103693190D01*
X95912093Y-103693190D02*
X95959712Y-103645571D01*
X95959712Y-103645571D02*
X96054950Y-103597952D01*
X96054950Y-103597952D02*
X96197807Y-103597952D01*
X96197807Y-103597952D02*
X96293045Y-103645571D01*
X96293045Y-103645571D02*
X96340664Y-103693190D01*
X96340664Y-103693190D02*
X96388283Y-103788428D01*
X96388283Y-103788428D02*
X96388283Y-104074142D01*
X96388283Y-104074142D02*
X96340664Y-104169380D01*
X96340664Y-104169380D02*
X96293045Y-104217000D01*
X96293045Y-104217000D02*
X96197807Y-104264619D01*
X96197807Y-104264619D02*
X96054950Y-104264619D01*
X96816855Y-104264619D02*
X96816855Y-103264619D01*
X96816855Y-103645571D02*
X96912093Y-103597952D01*
X96912093Y-103597952D02*
X97102569Y-103597952D01*
X97102569Y-103597952D02*
X97197807Y-103645571D01*
X97197807Y-103645571D02*
X97245426Y-103693190D01*
X97245426Y-103693190D02*
X97293045Y-103788428D01*
X97293045Y-103788428D02*
X97293045Y-104074142D01*
X97293045Y-104074142D02*
X97245426Y-104169380D01*
X97245426Y-104169380D02*
X97197807Y-104217000D01*
X97197807Y-104217000D02*
X97102569Y-104264619D01*
X97102569Y-104264619D02*
X96912093Y-104264619D01*
X96912093Y-104264619D02*
X96816855Y-104217000D01*
X98102569Y-104217000D02*
X98007331Y-104264619D01*
X98007331Y-104264619D02*
X97816855Y-104264619D01*
X97816855Y-104264619D02*
X97721617Y-104217000D01*
X97721617Y-104217000D02*
X97673998Y-104121761D01*
X97673998Y-104121761D02*
X97673998Y-103740809D01*
X97673998Y-103740809D02*
X97721617Y-103645571D01*
X97721617Y-103645571D02*
X97816855Y-103597952D01*
X97816855Y-103597952D02*
X98007331Y-103597952D01*
X98007331Y-103597952D02*
X98102569Y-103645571D01*
X98102569Y-103645571D02*
X98150188Y-103740809D01*
X98150188Y-103740809D02*
X98150188Y-103836047D01*
X98150188Y-103836047D02*
X97673998Y-103931285D01*
X98531141Y-104217000D02*
X98626379Y-104264619D01*
X98626379Y-104264619D02*
X98816855Y-104264619D01*
X98816855Y-104264619D02*
X98912093Y-104217000D01*
X98912093Y-104217000D02*
X98959712Y-104121761D01*
X98959712Y-104121761D02*
X98959712Y-104074142D01*
X98959712Y-104074142D02*
X98912093Y-103978904D01*
X98912093Y-103978904D02*
X98816855Y-103931285D01*
X98816855Y-103931285D02*
X98673998Y-103931285D01*
X98673998Y-103931285D02*
X98578760Y-103883666D01*
X98578760Y-103883666D02*
X98531141Y-103788428D01*
X98531141Y-103788428D02*
X98531141Y-103740809D01*
X98531141Y-103740809D02*
X98578760Y-103645571D01*
X98578760Y-103645571D02*
X98673998Y-103597952D01*
X98673998Y-103597952D02*
X98816855Y-103597952D01*
X98816855Y-103597952D02*
X98912093Y-103645571D01*
D11*
X59373558Y-96592019D02*
X60040225Y-96592019D01*
X60325939Y-97639638D02*
X59373558Y-97639638D01*
X59373558Y-97639638D02*
X59373558Y-95639638D01*
X59373558Y-95639638D02*
X60325939Y-95639638D01*
X61183082Y-96877733D02*
X62706892Y-96877733D01*
X64325939Y-96592019D02*
X63659272Y-96592019D01*
X63659272Y-97639638D02*
X63659272Y-95639638D01*
X63659272Y-95639638D02*
X64611653Y-95639638D01*
X65373558Y-97639638D02*
X65373558Y-96306304D01*
X65373558Y-95639638D02*
X65278320Y-95734876D01*
X65278320Y-95734876D02*
X65373558Y-95830114D01*
X65373558Y-95830114D02*
X65468796Y-95734876D01*
X65468796Y-95734876D02*
X65373558Y-95639638D01*
X65373558Y-95639638D02*
X65373558Y-95830114D01*
X67087844Y-97544400D02*
X66897368Y-97639638D01*
X66897368Y-97639638D02*
X66516415Y-97639638D01*
X66516415Y-97639638D02*
X66325939Y-97544400D01*
X66325939Y-97544400D02*
X66230701Y-97353923D01*
X66230701Y-97353923D02*
X66230701Y-96592019D01*
X66230701Y-96592019D02*
X66325939Y-96401542D01*
X66325939Y-96401542D02*
X66516415Y-96306304D01*
X66516415Y-96306304D02*
X66897368Y-96306304D01*
X66897368Y-96306304D02*
X67087844Y-96401542D01*
X67087844Y-96401542D02*
X67183082Y-96592019D01*
X67183082Y-96592019D02*
X67183082Y-96782495D01*
X67183082Y-96782495D02*
X66230701Y-96972971D01*
X68325939Y-97639638D02*
X68135463Y-97544400D01*
X68135463Y-97544400D02*
X68040225Y-97353923D01*
X68040225Y-97353923D02*
X68040225Y-95639638D01*
X69944987Y-97639638D02*
X69944987Y-95639638D01*
X69944987Y-97544400D02*
X69754511Y-97639638D01*
X69754511Y-97639638D02*
X69373558Y-97639638D01*
X69373558Y-97639638D02*
X69183082Y-97544400D01*
X69183082Y-97544400D02*
X69087844Y-97449161D01*
X69087844Y-97449161D02*
X68992606Y-97258685D01*
X68992606Y-97258685D02*
X68992606Y-96687257D01*
X68992606Y-96687257D02*
X69087844Y-96496780D01*
X69087844Y-96496780D02*
X69183082Y-96401542D01*
X69183082Y-96401542D02*
X69373558Y-96306304D01*
X69373558Y-96306304D02*
X69754511Y-96306304D01*
X69754511Y-96306304D02*
X69944987Y-96401542D01*
X72421178Y-97639638D02*
X72421178Y-95639638D01*
X72421178Y-95639638D02*
X73564035Y-97639638D01*
X73564035Y-97639638D02*
X73564035Y-95639638D01*
X75278321Y-97544400D02*
X75087845Y-97639638D01*
X75087845Y-97639638D02*
X74706892Y-97639638D01*
X74706892Y-97639638D02*
X74516416Y-97544400D01*
X74516416Y-97544400D02*
X74421178Y-97353923D01*
X74421178Y-97353923D02*
X74421178Y-96592019D01*
X74421178Y-96592019D02*
X74516416Y-96401542D01*
X74516416Y-96401542D02*
X74706892Y-96306304D01*
X74706892Y-96306304D02*
X75087845Y-96306304D01*
X75087845Y-96306304D02*
X75278321Y-96401542D01*
X75278321Y-96401542D02*
X75373559Y-96592019D01*
X75373559Y-96592019D02*
X75373559Y-96782495D01*
X75373559Y-96782495D02*
X74421178Y-96972971D01*
X77087845Y-97639638D02*
X77087845Y-96592019D01*
X77087845Y-96592019D02*
X76992607Y-96401542D01*
X76992607Y-96401542D02*
X76802131Y-96306304D01*
X76802131Y-96306304D02*
X76421178Y-96306304D01*
X76421178Y-96306304D02*
X76230702Y-96401542D01*
X77087845Y-97544400D02*
X76897369Y-97639638D01*
X76897369Y-97639638D02*
X76421178Y-97639638D01*
X76421178Y-97639638D02*
X76230702Y-97544400D01*
X76230702Y-97544400D02*
X76135464Y-97353923D01*
X76135464Y-97353923D02*
X76135464Y-97163447D01*
X76135464Y-97163447D02*
X76230702Y-96972971D01*
X76230702Y-96972971D02*
X76421178Y-96877733D01*
X76421178Y-96877733D02*
X76897369Y-96877733D01*
X76897369Y-96877733D02*
X77087845Y-96782495D01*
X78040226Y-97639638D02*
X78040226Y-96306304D01*
X78040226Y-96687257D02*
X78135464Y-96496780D01*
X78135464Y-96496780D02*
X78230702Y-96401542D01*
X78230702Y-96401542D02*
X78421178Y-96306304D01*
X78421178Y-96306304D02*
X78611655Y-96306304D01*
X79278321Y-96877733D02*
X80802131Y-96877733D01*
X82421178Y-96592019D02*
X81754511Y-96592019D01*
X81754511Y-97639638D02*
X81754511Y-95639638D01*
X81754511Y-95639638D02*
X82706892Y-95639638D01*
X83468797Y-97639638D02*
X83468797Y-96306304D01*
X83468797Y-95639638D02*
X83373559Y-95734876D01*
X83373559Y-95734876D02*
X83468797Y-95830114D01*
X83468797Y-95830114D02*
X83564035Y-95734876D01*
X83564035Y-95734876D02*
X83468797Y-95639638D01*
X83468797Y-95639638D02*
X83468797Y-95830114D01*
X85183083Y-97544400D02*
X84992607Y-97639638D01*
X84992607Y-97639638D02*
X84611654Y-97639638D01*
X84611654Y-97639638D02*
X84421178Y-97544400D01*
X84421178Y-97544400D02*
X84325940Y-97353923D01*
X84325940Y-97353923D02*
X84325940Y-96592019D01*
X84325940Y-96592019D02*
X84421178Y-96401542D01*
X84421178Y-96401542D02*
X84611654Y-96306304D01*
X84611654Y-96306304D02*
X84992607Y-96306304D01*
X84992607Y-96306304D02*
X85183083Y-96401542D01*
X85183083Y-96401542D02*
X85278321Y-96592019D01*
X85278321Y-96592019D02*
X85278321Y-96782495D01*
X85278321Y-96782495D02*
X84325940Y-96972971D01*
X86421178Y-97639638D02*
X86230702Y-97544400D01*
X86230702Y-97544400D02*
X86135464Y-97353923D01*
X86135464Y-97353923D02*
X86135464Y-95639638D01*
X88040226Y-97639638D02*
X88040226Y-95639638D01*
X88040226Y-97544400D02*
X87849750Y-97639638D01*
X87849750Y-97639638D02*
X87468797Y-97639638D01*
X87468797Y-97639638D02*
X87278321Y-97544400D01*
X87278321Y-97544400D02*
X87183083Y-97449161D01*
X87183083Y-97449161D02*
X87087845Y-97258685D01*
X87087845Y-97258685D02*
X87087845Y-96687257D01*
X87087845Y-96687257D02*
X87183083Y-96496780D01*
X87183083Y-96496780D02*
X87278321Y-96401542D01*
X87278321Y-96401542D02*
X87468797Y-96306304D01*
X87468797Y-96306304D02*
X87849750Y-96306304D01*
X87849750Y-96306304D02*
X88040226Y-96401542D01*
X90516417Y-97639638D02*
X90516417Y-95639638D01*
X90516417Y-95639638D02*
X91278322Y-95639638D01*
X91278322Y-95639638D02*
X91468798Y-95734876D01*
X91468798Y-95734876D02*
X91564036Y-95830114D01*
X91564036Y-95830114D02*
X91659274Y-96020590D01*
X91659274Y-96020590D02*
X91659274Y-96306304D01*
X91659274Y-96306304D02*
X91564036Y-96496780D01*
X91564036Y-96496780D02*
X91468798Y-96592019D01*
X91468798Y-96592019D02*
X91278322Y-96687257D01*
X91278322Y-96687257D02*
X90516417Y-96687257D01*
X92516417Y-97639638D02*
X92516417Y-96306304D01*
X92516417Y-96687257D02*
X92611655Y-96496780D01*
X92611655Y-96496780D02*
X92706893Y-96401542D01*
X92706893Y-96401542D02*
X92897369Y-96306304D01*
X92897369Y-96306304D02*
X93087846Y-96306304D01*
X94040226Y-97639638D02*
X93849750Y-97544400D01*
X93849750Y-97544400D02*
X93754512Y-97449161D01*
X93754512Y-97449161D02*
X93659274Y-97258685D01*
X93659274Y-97258685D02*
X93659274Y-96687257D01*
X93659274Y-96687257D02*
X93754512Y-96496780D01*
X93754512Y-96496780D02*
X93849750Y-96401542D01*
X93849750Y-96401542D02*
X94040226Y-96306304D01*
X94040226Y-96306304D02*
X94325941Y-96306304D01*
X94325941Y-96306304D02*
X94516417Y-96401542D01*
X94516417Y-96401542D02*
X94611655Y-96496780D01*
X94611655Y-96496780D02*
X94706893Y-96687257D01*
X94706893Y-96687257D02*
X94706893Y-97258685D01*
X94706893Y-97258685D02*
X94611655Y-97449161D01*
X94611655Y-97449161D02*
X94516417Y-97544400D01*
X94516417Y-97544400D02*
X94325941Y-97639638D01*
X94325941Y-97639638D02*
X94040226Y-97639638D01*
X95564036Y-97639638D02*
X95564036Y-95639638D01*
X95564036Y-96401542D02*
X95754512Y-96306304D01*
X95754512Y-96306304D02*
X96135465Y-96306304D01*
X96135465Y-96306304D02*
X96325941Y-96401542D01*
X96325941Y-96401542D02*
X96421179Y-96496780D01*
X96421179Y-96496780D02*
X96516417Y-96687257D01*
X96516417Y-96687257D02*
X96516417Y-97258685D01*
X96516417Y-97258685D02*
X96421179Y-97449161D01*
X96421179Y-97449161D02*
X96325941Y-97544400D01*
X96325941Y-97544400D02*
X96135465Y-97639638D01*
X96135465Y-97639638D02*
X95754512Y-97639638D01*
X95754512Y-97639638D02*
X95564036Y-97544400D01*
X98135465Y-97544400D02*
X97944989Y-97639638D01*
X97944989Y-97639638D02*
X97564036Y-97639638D01*
X97564036Y-97639638D02*
X97373560Y-97544400D01*
X97373560Y-97544400D02*
X97278322Y-97353923D01*
X97278322Y-97353923D02*
X97278322Y-96592019D01*
X97278322Y-96592019D02*
X97373560Y-96401542D01*
X97373560Y-96401542D02*
X97564036Y-96306304D01*
X97564036Y-96306304D02*
X97944989Y-96306304D01*
X97944989Y-96306304D02*
X98135465Y-96401542D01*
X98135465Y-96401542D02*
X98230703Y-96592019D01*
X98230703Y-96592019D02*
X98230703Y-96782495D01*
X98230703Y-96782495D02*
X97278322Y-96972971D01*
D12*
%TO.C,J1*%
X56010000Y-100200000D02*
X56510000Y-100450000D01*
X56510000Y-99950000D02*
X56010000Y-100200000D01*
X56510000Y-100450000D02*
X56510000Y-99950000D01*
%TD*%
M02*
