M48
; DRILL file {KiCad 9.0.0} date 2025-03-31T21:37:40+0200
; FORMAT={-:-/ absolute / metric / decimal}
; #@! TF.CreationDate,2025-03-31T21:37:40+02:00
; #@! TF.GenerationSoftware,Kicad,Pcbnew,9.0.0
; #@! TF.FileFunction,Plated,1,4,PTH
FMAT,2
METRIC
; #@! TA.AperFunction,Plated,PTH,ViaDrill
T1C0.300
%
G90
G05
T1
X51.05Y-94.775
X51.05Y-97.125
X51.05Y-103.275
X51.05Y-105.625
X52.8Y-94.8
X52.8Y-97.15
X52.8Y-103.3
X52.8Y-105.65
X54.35Y-94.825
X54.35Y-97.125
X54.35Y-103.325
X54.35Y-105.625
X55.8Y-95.95
X55.8Y-104.45
X56.7Y-98.9
X56.7Y-101.5
X57.7Y-98.9
X57.7Y-101.5
X58.7Y-98.9
X58.7Y-101.5
X59.7Y-98.9
X59.7Y-101.5
X60.7Y-98.9
X60.7Y-101.5
X61.7Y-98.9
X61.7Y-101.5
X62.7Y-98.9
X62.7Y-101.5
X63.7Y-98.9
X63.7Y-101.5
X64.7Y-98.9
X64.7Y-101.5
X65.7Y-98.9
X65.7Y-101.5
X66.7Y-98.9
X66.7Y-101.5
X67.7Y-98.9
X67.7Y-101.5
X68.7Y-98.9
X68.7Y-101.5
X69.7Y-98.9
X69.7Y-101.5
X70.7Y-98.9
X70.7Y-101.5
X71.7Y-98.9
X71.7Y-101.5
X72.7Y-98.9
X72.7Y-101.5
X73.7Y-98.9
X73.7Y-101.5
X74.7Y-98.9
X74.7Y-101.5
X75.7Y-98.9
X75.7Y-101.5
X76.7Y-98.9
X76.7Y-101.5
X77.7Y-98.9
X77.7Y-101.5
X78.7Y-98.9
X78.7Y-101.5
X79.7Y-98.9
X79.7Y-101.5
X80.7Y-98.9
X80.7Y-101.5
X81.7Y-98.9
X81.7Y-101.5
X82.7Y-98.9
X82.7Y-101.5
X83.7Y-98.9
X83.7Y-101.5
X84.7Y-98.9
X84.7Y-101.5
X85.7Y-98.9
X85.7Y-101.5
X86.7Y-98.9
X86.7Y-101.5
X87.7Y-98.9
X87.7Y-101.5
X88.7Y-98.9
X88.7Y-101.5
X89.7Y-98.9
X89.7Y-101.5
X90.7Y-98.9
X90.7Y-101.5
X91.7Y-98.9
X91.7Y-101.5
X92.7Y-98.9
X92.7Y-101.5
X93.7Y-98.9
X93.7Y-101.5
X94.7Y-98.9
X94.7Y-101.5
X95.7Y-98.9
X95.7Y-101.5
X96.7Y-98.9
X96.7Y-101.5
X97.7Y-98.9
X97.7Y-101.5
X98.7Y-98.9
X98.7Y-101.5
X99.7Y-98.9
X99.7Y-101.5
X100.7Y-98.9
X100.7Y-101.5
X101.7Y-98.9
X101.7Y-101.5
X102.7Y-98.9
X102.7Y-101.5
X103.7Y-98.9
X103.7Y-101.5
X104.7Y-98.9
X104.7Y-101.5
X105.7Y-98.9
X105.7Y-101.5
X106.7Y-98.9
X106.7Y-101.5
X107.7Y-98.9
X107.7Y-101.5
X108.7Y-98.9
X108.7Y-101.5
X109.7Y-98.9
X109.7Y-101.5
X110.7Y-98.9
X110.7Y-101.5
X111.7Y-98.9
X111.7Y-101.5
X112.7Y-98.9
X112.7Y-101.5
X113.7Y-98.9
X113.7Y-101.5
X114.7Y-98.9
X114.7Y-101.5
X115.7Y-98.9
X115.7Y-101.5
X116.7Y-98.9
X116.7Y-101.5
X117.7Y-98.9
X117.7Y-101.5
X118.7Y-98.9
X118.7Y-101.5
X119.7Y-98.9
X119.7Y-101.5
X120.7Y-98.9
X120.7Y-101.5
X121.7Y-98.9
X121.7Y-101.5
X122.7Y-98.9
X122.7Y-101.5
X123.7Y-98.9
X123.7Y-101.5
X124.7Y-98.9
X124.7Y-101.5
X125.7Y-98.9
X125.7Y-101.5
X126.7Y-98.9
X126.7Y-101.5
X127.7Y-98.9
X127.7Y-101.5
X128.7Y-98.9
X128.7Y-101.5
X129.7Y-98.9
X129.7Y-101.5
X130.7Y-98.9
X130.7Y-101.5
X131.7Y-98.9
X131.7Y-101.5
X132.7Y-98.9
X132.7Y-101.5
X133.7Y-98.9
X133.7Y-101.5
X134.7Y-98.9
X134.7Y-101.5
X135.7Y-98.9
X135.7Y-101.5
X136.7Y-98.9
X136.7Y-101.5
X137.7Y-98.9
X137.7Y-101.5
X138.7Y-98.9
X138.7Y-101.5
X139.7Y-98.9
X139.7Y-101.5
X140.7Y-98.9
X140.7Y-101.5
X141.7Y-98.9
X141.7Y-101.5
X142.7Y-98.9
X142.7Y-101.5
X143.7Y-98.9
X143.7Y-101.5
X144.7Y-98.9
X144.7Y-101.5
M30
